<?xml version="1.0" standalone="no"?><!DOCTYPE svg PUBLIC "-//W3C//DTD SVG 1.1//EN" "http://www.w3.org/Graphics/SVG/1.1/DTD/svg11.dtd"><svg height="505" node-id="1" sillyvg="true" template-height="505" template-width="600" version="1.1" viewBox="0 0 600 505" width="600" xmlns="http://www.w3.org/2000/svg" xmlns:xlink="http://www.w3.org/1999/xlink"><defs node-id="122"><mask height="313.95126" id="mask-2" maskUnits="userSpaceOnUse" node-id="19" width="168.49176" x="43.739834" y="124.4144"><path d="M 85.02 150.58 L 198.19 150.58 L 198.19 379.09 L 85.02 379.09 Z" fill="#ffffff" fill-rule="evenodd" node-id="127" stroke="none" target-height="228.50941" target-width="113.17228" target-x="85.01833" target-y="150.57701"></path></mask><mask height="278.45135" id="mask-4" maskUnits="userSpaceOnUse" node-id="24" width="153.50256" x="45.30252" y="146.6693"><path d="M 85.02 169.87 L 186.01 169.87 L 186.01 379.09 L 85.02 379.09 Z" fill="#ffffff" fill-rule="evenodd" node-id="134" stroke="none" target-height="209.21284" target-width="100.99485" target-x="85.01833" target-y="169.87358"></path></mask><mask height="204.45462" id="mask-6" maskUnits="userSpaceOnUse" node-id="28" width="134.24086" x="139.86424" y="195.52435"><path d="M 85.02 379.09 L 533.26 379.09 L 533.26 117.74 L 85.02 117.74 Z" fill="#ffffff" fill-rule="evenodd" node-id="141" stroke="none" target-height="261.35043" target-width="448.24655" target-x="85.01833" target-y="117.736"></path></mask><mask height="20.815338" id="mask1" maskUnits="userSpaceOnUse" node-id="145" width="103.01155" x="156.0616" y="226.24664"><path d="M 85.02 379.09 L 533.26 379.09 L 533.26 117.74 L 85.02 117.74 Z" fill="#ffffff" fill-rule="evenodd" node-id="149" stroke="none" target-height="261.35043" target-width="448.24655" target-x="85.01833" target-y="117.736"></path></mask><mask height="20.815338" id="mask2" maskUnits="userSpaceOnUse" node-id="153" width="103.01155" x="156.0616" y="260.36102"><path d="M 85.02 379.09 L 533.26 379.09 L 533.26 117.74 L 85.02 117.74 Z" fill="#ffffff" fill-rule="evenodd" node-id="157" stroke="none" target-height="261.35043" target-width="448.24655" target-x="85.01833" target-y="117.736"></path></mask><mask height="20.815338" id="mask3" maskUnits="userSpaceOnUse" node-id="161" width="103.01155" x="156.0616" y="294.47543"><path d="M 85.02 379.09 L 533.26 379.09 L 533.26 117.74 L 85.02 117.74 Z" fill="#ffffff" fill-rule="evenodd" node-id="165" stroke="none" target-height="261.35043" target-width="448.24655" target-x="85.01833" target-y="117.736"></path></mask><mask height="20.815857" id="mask4" maskUnits="userSpaceOnUse" node-id="169" width="103.01155" x="156.0616" y="328.58936"><path d="M 85.02 379.09 L 533.26 379.09 L 533.26 117.74 L 85.02 117.74 Z" fill="#ffffff" fill-rule="evenodd" node-id="173" stroke="none" target-height="261.35043" target-width="448.24655" target-x="85.01833" target-y="117.736"></path></mask><mask height="20.815369" id="mask5" maskUnits="userSpaceOnUse" node-id="177" width="103.01155" x="156.0616" y="362.7038"><path d="M 85.02 379.09 L 533.26 379.09 L 533.26 117.74 L 85.02 117.74 Z" fill="#ffffff" fill-rule="evenodd" node-id="181" stroke="none" target-height="261.35043" target-width="448.24655" target-x="85.01833" target-y="117.736"></path></mask><mask height="241.00024" id="mask6" maskUnits="userSpaceOnUse" node-id="185" width="129.34018" x="410.55313" y="166.91895"><path d="M 85.02 379.09 L 533.26 379.09 L 533.26 117.74 L 85.02 117.74 Z" fill="#ffffff" fill-rule="evenodd" node-id="189" stroke="none" target-height="261.35043" target-width="448.24655" target-x="85.01833" target-y="117.736"></path></mask><mask height="213.74867" id="mask7" maskUnits="userSpaceOnUse" node-id="193" width="117.83386" x="420.85968" y="184.00294"><path d="M 85.02 379.09 L 533.26 379.09 L 533.26 117.74 L 85.02 117.74 Z" fill="#ffffff" fill-rule="evenodd" node-id="197" stroke="none" target-height="261.35043" target-width="448.24655" target-x="85.01833" target-y="117.736"></path></mask><mask height="113.739746" id="mask8" maskUnits="userSpaceOnUse" node-id="201" width="189.05652" x="60.815372" y="281.30563"><path d="M 85.02 379.09 L 533.26 379.09 L 533.26 117.74 L 85.02 117.74 Z" fill="#ffffff" fill-rule="evenodd" node-id="205" stroke="none" target-height="261.35043" target-width="448.24655" target-x="85.01833" target-y="117.736"></path></mask><mask height="94.10425" id="mask9" maskUnits="userSpaceOnUse" node-id="209" width="156.418" x="75.4567" y="299.30484"><path d="M 85.02 379.09 L 533.26 379.09 L 533.26 117.74 L 85.02 117.74 Z" fill="#ffffff" fill-rule="evenodd" node-id="213" stroke="none" target-height="261.35043" target-width="448.24655" target-x="85.01833" target-y="117.736"></path></mask><mask height="113.739746" id="mask10" maskUnits="userSpaceOnUse" node-id="217" width="189.05658" x="333.492" y="281.30563"><path d="M 85.02 379.09 L 533.26 379.09 L 533.26 117.74 L 85.02 117.74 Z" fill="#ffffff" fill-rule="evenodd" node-id="221" stroke="none" target-height="261.35043" target-width="448.24655" target-x="85.01833" target-y="117.736"></path></mask><mask height="94.10425" id="mask11" maskUnits="userSpaceOnUse" node-id="225" width="156.418" x="348.1333" y="299.30484"><path d="M 85.02 379.09 L 533.26 379.09 L 533.26 117.74 L 85.02 117.74 Z" fill="#ffffff" fill-rule="evenodd" node-id="229" stroke="none" target-height="261.35043" target-width="448.24655" target-x="85.01833" target-y="117.736"></path></mask><mask height="74.59088" id="mask12" maskUnits="userSpaceOnUse" node-id="233" width="90.83029" x="471.61905" y="128.60754"><path d="M 85.02 379.09 L 533.26 379.09 L 533.26 117.74 L 85.02 117.74 Z" fill="#ffffff" fill-rule="evenodd" node-id="237" stroke="none" target-height="261.35043" target-width="448.24655" target-x="85.01833" target-y="117.736"></path></mask><mask height="82.56442" id="mask13" maskUnits="userSpaceOnUse" node-id="241" width="77.604065" x="508.66522" y="143.32292"><path d="M 85.02 379.09 L 533.26 379.09 L 533.26 117.74 L 85.02 117.74 Z" fill="#ffffff" fill-rule="evenodd" node-id="245" stroke="none" target-height="261.35043" target-width="448.24655" target-x="85.01833" target-y="117.736"></path></mask><mask height="13.958542" id="mask14" maskUnits="userSpaceOnUse" node-id="249" width="14.065552" x="492.56085" y="137.50856"><path d="M 85.02 379.09 L 533.26 379.09 L 533.26 117.74 L 85.02 117.74 Z" fill="#ffffff" fill-rule="evenodd" node-id="253" stroke="none" target-height="261.35043" target-width="448.24655" target-x="85.01833" target-y="117.736"></path></mask><mask height="20.253815" id="mask15" maskUnits="userSpaceOnUse" node-id="257" width="7.458008" x="490.5633" y="149.41013"><path d="M 85.02 379.09 L 533.26 379.09 L 533.26 117.74 L 85.02 117.74 Z" fill="#ffffff" fill-rule="evenodd" node-id="261" stroke="none" target-height="261.35043" target-width="448.24655" target-x="85.01833" target-y="117.736"></path></mask><mask height="21.384232" id="mask16" maskUnits="userSpaceOnUse" node-id="265" width="9.195801" x="487.33054" y="148.49164"><path d="M 85.02 379.09 L 533.26 379.09 L 533.26 117.74 L 85.02 117.74 Z" fill="#ffffff" fill-rule="evenodd" node-id="269" stroke="none" target-height="261.35043" target-width="448.24655" target-x="85.01833" target-y="117.736"></path></mask><mask height="147.09625" id="mask17" maskUnits="userSpaceOnUse" node-id="273" width="65.25604" x="487.4301" y="248.10284"><path d="M 85.02 379.09 L 533.26 379.09 L 533.26 117.74 L 85.02 117.74 Z" fill="#ffffff" fill-rule="evenodd" node-id="277" stroke="none" target-height="261.35043" target-width="448.24655" target-x="85.01833" target-y="117.736"></path></mask><mask height="20.815338" id="mask18" maskUnits="userSpaceOnUse" node-id="281" width="27.501099" x="506.17792" y="269.48386"><path d="M 85.02 379.09 L 533.26 379.09 L 533.26 117.74 L 85.02 117.74 Z" fill="#ffffff" fill-rule="evenodd" node-id="285" stroke="none" target-height="261.35043" target-width="448.24655" target-x="85.01833" target-y="117.736"></path></mask><mask height="20.815857" id="mask19" maskUnits="userSpaceOnUse" node-id="289" width="27.501099" x="506.17792" y="300.83542"><path d="M 85.02 379.09 L 533.26 379.09 L 533.26 117.74 L 85.02 117.74 Z" fill="#ffffff" fill-rule="evenodd" node-id="293" stroke="none" target-height="261.35043" target-width="448.24655" target-x="85.01833" target-y="117.736"></path></mask><mask height="20.815338" id="mask20" maskUnits="userSpaceOnUse" node-id="297" width="27.501099" x="506.17792" y="332.18747"><path d="M 85.02 379.09 L 533.26 379.09 L 533.26 117.74 L 85.02 117.74 Z" fill="#ffffff" fill-rule="evenodd" node-id="301" stroke="none" target-height="261.35043" target-width="448.24655" target-x="85.01833" target-y="117.736"></path></mask><mask height="20.815857" id="mask21" maskUnits="userSpaceOnUse" node-id="305" width="27.501099" x="506.17792" y="363.53903"><path d="M 85.02 379.09 L 533.26 379.09 L 533.26 117.74 L 85.02 117.74 Z" fill="#ffffff" fill-rule="evenodd" node-id="309" stroke="none" target-height="261.35043" target-width="448.24655" target-x="85.01833" target-y="117.736"></path></mask><mask height="204.4546" id="mask22" maskUnits="userSpaceOnUse" node-id="313" width="59.66272" x="371.36774" y="184.731"><path d="M 85.02 379.09 L 533.26 379.09 L 533.26 117.74 L 85.02 117.74 Z" fill="#ffffff" fill-rule="evenodd" node-id="317" stroke="none" target-height="261.35043" target-width="448.24655" target-x="85.01833" target-y="117.736"></path></mask><mask height="102.227295" id="mask23" maskUnits="userSpaceOnUse" node-id="321" width="36.20215" x="382.25656" y="202.24384"><path d="M 85.02 379.09 L 533.26 379.09 L 533.26 117.74 L 85.02 117.74 Z" fill="#ffffff" fill-rule="evenodd" node-id="325" stroke="none" target-height="261.35043" target-width="448.24655" target-x="85.01833" target-y="117.736"></path></mask><mask height="52.27066" id="mask24" maskUnits="userSpaceOnUse" node-id="329" width="36.20163" x="383.29248" y="310.99805"><path d="M 85.02 379.09 L 533.26 379.09 L 533.26 117.74 L 85.02 117.74 Z" fill="#ffffff" fill-rule="evenodd" node-id="333" stroke="none" target-height="261.35043" target-width="448.24655" target-x="85.01833" target-y="117.736"></path></mask><mask height="8.644775" id="mask-8" maskUnits="userSpaceOnUse" node-id="59" width="544.4687" x="33.08018" y="482.71738"><path d="M 78.45 483.44 L 532.18 483.44 L 532.18 490.64 L 78.45 490.64 Z" fill="#ffffff" fill-rule="evenodd" node-id="340" stroke="none" target-height="7.2037964" target-width="453.72388" target-x="78.45257" target-y="483.43777"></path></mask><mask height="46.379833" id="mask-10" maskUnits="userSpaceOnUse" node-id="64" width="3.9266663" x="305.68143" y="6.394703"><path d="M 59.49 490.64 L 579.90 490.64 L 579.90 10.26 L 59.49 10.26 Z" fill="#ffffff" fill-rule="evenodd" node-id="347" stroke="none" target-height="480.38144" target-width="520.41534" target-x="59.48718" target-y="10.260112"></path></mask><mask height="1.3877869" id="mask25" maskUnits="userSpaceOnUse" node-id="351" width="1.394165" x="499.63788" y="141.95517"><path d="M 59.49 490.64 L 579.90 490.64 L 579.90 10.26 L 59.49 10.26 Z" fill="#ffffff" fill-rule="evenodd" node-id="355" stroke="none" target-height="480.38144" target-width="520.41534" target-x="59.48718" target-y="10.260112"></path></mask><mask height="46.23172" id="mask26" maskUnits="userSpaceOnUse" node-id="359" width="35.17865" x="258.23965" y="162.38722"><path d="M 59.49 490.64 L 579.90 490.64 L 579.90 10.26 L 59.49 10.26 Z" fill="#ffffff" fill-rule="evenodd" node-id="363" stroke="none" target-height="480.38144" target-width="520.41534" target-x="59.48718" target-y="10.260112"></path></mask><mask height="47.739716" id="mask27" maskUnits="userSpaceOnUse" node-id="367" width="32.148285" x="290.77176" y="161.76936"><path d="M 59.49 490.64 L 579.90 490.64 L 579.90 10.26 L 59.49 10.26 Z" fill="#ffffff" fill-rule="evenodd" node-id="371" stroke="none" target-height="480.38144" target-width="520.41534" target-x="59.48718" target-y="10.260112"></path></mask><mask height="46.23172" id="mask28" maskUnits="userSpaceOnUse" node-id="375" width="35.17862" x="320.49228" y="162.38722"><path d="M 59.49 490.64 L 579.90 490.64 L 579.90 10.26 L 59.49 10.26 Z" fill="#ffffff" fill-rule="evenodd" node-id="379" stroke="none" target-height="480.38144" target-width="520.41534" target-x="59.48718" target-y="10.260112"></path></mask><mask height="188.24524" id="mask29" maskUnits="userSpaceOnUse" node-id="383" width="212.56943" x="206.41013" y="219.37201"><path d="M 59.49 490.64 L 579.90 490.64 L 579.90 10.26 L 59.49 10.26 Z" fill="#ffffff" fill-rule="evenodd" node-id="387" stroke="none" target-height="480.38144" target-width="520.41534" target-x="59.48718" target-y="10.260112"></path></mask><mask height="188.2452" id="mask30" maskUnits="userSpaceOnUse" node-id="391" width="212.56947" x="206.64738" y="224.33372"><path d="M 59.49 490.64 L 579.90 490.64 L 579.90 10.26 L 59.49 10.26 Z" fill="#ffffff" fill-rule="evenodd" node-id="395" stroke="none" target-height="480.38144" target-width="520.41534" target-x="59.48718" target-y="10.260112"></path></mask><mask height="88.75714" id="mask31" maskUnits="userSpaceOnUse" node-id="399" width="212.56943" x="206.64755" y="315.53113"><path d="M 59.49 490.64 L 579.90 490.64 L 579.90 10.26 L 59.49 10.26 Z" fill="#ffffff" fill-rule="evenodd" node-id="403" stroke="none" target-height="480.38144" target-width="520.41534" target-x="59.48718" target-y="10.260112"></path></mask><mask height="68.59003" id="mask32" maskUnits="userSpaceOnUse" node-id="407" width="164.2701" x="228.66069" y="317.10864"><path d="M 59.49 490.64 L 579.90 490.64 L 579.90 10.26 L 59.49 10.26 Z" fill="#ffffff" fill-rule="evenodd" node-id="411" stroke="none" target-height="480.38144" target-width="520.41534" target-x="59.48718" target-y="10.260112"></path></mask><mask height="91.19183" id="mask33" maskUnits="userSpaceOnUse" node-id="415" width="13.65625" x="303.21838" y="382.47156"><path d="M 59.49 490.64 L 579.90 490.64 L 579.90 10.26 L 59.49 10.26 Z" fill="#ffffff" fill-rule="evenodd" node-id="419" stroke="none" target-height="480.38144" target-width="520.41534" target-x="59.48718" target-y="10.260112"></path></mask><mask height="11.770386" id="mask34" maskUnits="userSpaceOnUse" node-id="423" width="13.65625" x="303.21838" y="389.08997"><path d="M 59.49 490.64 L 579.90 490.64 L 579.90 10.26 L 59.49 10.26 Z" fill="#ffffff" fill-rule="evenodd" node-id="427" stroke="none" target-height="480.38144" target-width="520.41534" target-x="59.48718" target-y="10.260112"></path></mask><mask height="15.71759" id="mask35" maskUnits="userSpaceOnUse" node-id="431" width="97.3009" x="261.3962" y="463.10272"><path d="M 59.49 490.64 L 579.90 490.64 L 579.90 10.26 L 59.49 10.26 Z" fill="#ffffff" fill-rule="evenodd" node-id="435" stroke="none" target-height="480.38144" target-width="520.41534" target-x="59.48718" target-y="10.260112"></path></mask><mask height="16.163452" id="mask36" maskUnits="userSpaceOnUse" node-id="439" width="16.237183" x="275.74576" y="469.0664"><path d="M 59.49 490.64 L 579.90 490.64 L 579.90 10.26 L 59.49 10.26 Z" fill="#ffffff" fill-rule="evenodd" node-id="443" stroke="none" target-height="480.38144" target-width="520.41534" target-x="59.48718" target-y="10.260112"></path></mask><mask height="8.481445" id="mask37" maskUnits="userSpaceOnUse" node-id="447" width="8.520355" x="279.60425" y="472.9076"><path d="M 59.49 490.64 L 579.90 490.64 L 579.90 10.26 L 59.49 10.26 Z" fill="#ffffff" fill-rule="evenodd" node-id="451" stroke="none" target-height="480.38144" target-width="520.41534" target-x="59.48718" target-y="10.260112"></path></mask><mask height="16.163452" id="mask38" maskUnits="userSpaceOnUse" node-id="455" width="16.237213" x="328.41296" y="469.0664"><path d="M 59.49 490.64 L 579.90 490.64 L 579.90 10.26 L 59.49 10.26 Z" fill="#ffffff" fill-rule="evenodd" node-id="459" stroke="none" target-height="480.38144" target-width="520.41534" target-x="59.48718" target-y="10.260112"></path></mask><mask height="8.481445" id="mask39" maskUnits="userSpaceOnUse" node-id="463" width="8.520874" x="332.27097" y="472.9076"><path d="M 59.49 490.64 L 579.90 490.64 L 579.90 10.26 L 59.49 10.26 Z" fill="#ffffff" fill-rule="evenodd" node-id="467" stroke="none" target-height="480.38144" target-width="520.41534" target-x="59.48718" target-y="10.260112"></path></mask><mask height="4.724365" id="mask40" maskUnits="userSpaceOnUse" node-id="471" width="77.95752" x="548.5442" y="940.3722"><path d="M 336.81 960.99 L 857.23 960.99 L 857.23 480.61 L 336.81 480.61 Z" fill="#ffffff" fill-rule="evenodd" node-id="475" stroke="none" target-height="480.3814" target-width="520.4154" target-x="336.81216" target-y="480.61237"></path></mask><mask height="22.539368" id="mask41" maskUnits="userSpaceOnUse" node-id="479" width="20.933838" x="299.57974" y="416.6308"><path d="M 59.49 490.64 L 579.90 490.64 L 579.90 10.26 L 59.49 10.26 Z" fill="#ffffff" fill-rule="evenodd" node-id="483" stroke="none" target-height="480.38144" target-width="520.41534" target-x="59.48718" target-y="10.260112"></path></mask><mask height="59.5365" id="mask42" maskUnits="userSpaceOnUse" node-id="487" width="117.352036" x="249.29149" y="318.9272"><path d="M 59.49 490.64 L 579.90 490.64 L 579.90 10.26 L 59.49 10.26 Z" fill="#ffffff" fill-rule="evenodd" node-id="491" stroke="none" target-height="480.38144" target-width="520.41534" target-x="59.48718" target-y="10.260112"></path></mask><mask height="13.60733" id="mask-12" maskUnits="userSpaceOnUse" node-id="96" width="359.75793" x="146.4257" y="306.25507"><path d="M 20.00 494.47 L 540.42 494.47 L 540.42 13.63 L 20.00 13.63 Z" fill="#ffffff" fill-rule="evenodd" node-id="498" stroke="none" target-height="480.8394" target-width="520.41534" target-x="20" target-y="13.628363"></path></mask><mask height="46.238373" id="mask43" maskUnits="userSpaceOnUse" node-id="502" width="97.35921" x="229.20589" y="265.29495"><path d="M 20.00 494.47 L 540.42 494.47 L 540.42 13.63 L 20.00 13.63 Z" fill="#ffffff" fill-rule="evenodd" node-id="506" stroke="none" target-height="480.8394" target-width="520.41534" target-x="20" target-y="13.628363"></path></mask><mask height="47.072083" id="mask44" maskUnits="userSpaceOnUse" node-id="510" width="96.80585" x="312.06427" y="264.6933"><path d="M 20.00 494.47 L 540.42 494.47 L 540.42 13.63 L 20.00 13.63 Z" fill="#ffffff" fill-rule="evenodd" node-id="514" stroke="none" target-height="480.8394" target-width="520.41534" target-x="20" target-y="13.628363"></path></mask><mask height="24.587524" id="mask45" maskUnits="userSpaceOnUse" node-id="518" width="81.46214" x="232.54002" y="284.88483"><path d="M 20.00 494.47 L 540.42 494.47 L 540.42 13.63 L 20.00 13.63 Z" fill="#ffffff" fill-rule="evenodd" node-id="522" stroke="none" target-height="480.8394" target-width="520.41534" target-x="20" target-y="13.628363"></path></mask><mask height="157.74826" id="mask46" maskUnits="userSpaceOnUse" node-id="526" width="96.701935" x="220.83508" y="327.3883"><path d="M 20.00 494.47 L 540.42 494.47 L 540.42 13.63 L 20.00 13.63 Z" fill="#ffffff" fill-rule="evenodd" node-id="530" stroke="none" target-height="480.8394" target-width="520.41534" target-x="20" target-y="13.628363"></path></mask><mask height="11.719177" id="mask47" maskUnits="userSpaceOnUse" node-id="534" width="35.60106" x="225.92665" y="461.24786"><path d="M 20.00 494.47 L 540.42 494.47 L 540.42 13.63 L 20.00 13.63 Z" fill="#ffffff" fill-rule="evenodd" node-id="538" stroke="none" target-height="480.8394" target-width="520.41534" target-x="20" target-y="13.628363"></path></mask><mask height="2.5664673" id="mask48" maskUnits="userSpaceOnUse" node-id="542" width="35.530228" x="225.99184" y="471.70746"><path d="M 20.00 494.47 L 540.42 494.47 L 540.42 13.63 L 20.00 13.63 Z" fill="#ffffff" fill-rule="evenodd" node-id="546" stroke="none" target-height="480.8394" target-width="520.41534" target-x="20" target-y="13.628363"></path></mask><mask height="157.74826" id="mask49" maskUnits="userSpaceOnUse" node-id="550" width="96.701965" x="303.31143" y="327.3883"><path d="M 20.00 494.47 L 540.42 494.47 L 540.42 13.63 L 20.00 13.63 Z" fill="#ffffff" fill-rule="evenodd" node-id="554" stroke="none" target-height="480.8394" target-width="520.41534" target-x="20" target-y="13.628363"></path></mask><mask height="11.719177" id="mask50" maskUnits="userSpaceOnUse" node-id="558" width="35.601044" x="359.32074" y="461.24786"><path d="M 20.00 494.47 L 540.42 494.47 L 540.42 13.63 L 20.00 13.63 Z" fill="#ffffff" fill-rule="evenodd" node-id="562" stroke="none" target-height="480.8394" target-width="520.41534" target-x="20" target-y="13.628363"></path></mask><mask height="2.5664673" id="mask51" maskUnits="userSpaceOnUse" node-id="566" width="35.530273" x="359.3264" y="471.70746"><path d="M 20.00 494.47 L 540.42 494.47 L 540.42 13.63 L 20.00 13.63 Z" fill="#ffffff" fill-rule="evenodd" node-id="570" stroke="none" target-height="480.8394" target-width="520.41534" target-x="20" target-y="13.628363"></path></mask><mask height="24.587524" id="mask52" maskUnits="userSpaceOnUse" node-id="574" width="81.46265" x="324.7472" y="284.88483"><path d="M 20.00 494.47 L 540.42 494.47 L 540.42 13.63 L 20.00 13.63 Z" fill="#ffffff" fill-rule="evenodd" node-id="578" stroke="none" target-height="480.8394" target-width="520.41534" target-x="20" target-y="13.628363"></path></mask><mask height="42.14145" id="mask53" maskUnits="userSpaceOnUse" node-id="582" width="94.254456" x="272.32294" y="269.18347"><path d="M 20.00 494.47 L 540.42 494.47 L 540.42 13.63 L 20.00 13.63 Z" fill="#ffffff" fill-rule="evenodd" node-id="586" stroke="none" target-height="480.8394" target-width="520.41534" target-x="20" target-y="13.628363"></path></mask><mask height="169.86185" id="mask54" maskUnits="userSpaceOnUse" node-id="590" width="83.66431" x="276.07278" y="244.88321"><path d="M 20.00 494.47 L 540.42 494.47 L 540.42 13.63 L 20.00 13.63 Z" fill="#ffffff" fill-rule="evenodd" node-id="594" stroke="none" target-height="480.8394" target-width="520.41534" target-x="20" target-y="13.628363"></path></mask><mask height="120.60959" id="mask55" maskUnits="userSpaceOnUse" node-id="598" width="37.53781" x="279.9166" y="274.08258"><path d="M 20.00 494.47 L 540.42 494.47 L 540.42 13.63 L 20.00 13.63 Z" fill="#ffffff" fill-rule="evenodd" node-id="602" stroke="none" target-height="480.8394" target-width="520.41534" target-x="20" target-y="13.628363"></path></mask><mask height="53.27771" id="mask56" maskUnits="userSpaceOnUse" node-id="606" width="91.32382" x="391.24835" y="253.6312"><path d="M 20.00 494.47 L 540.42 494.47 L 540.42 13.63 L 20.00 13.63 Z" fill="#ffffff" fill-rule="evenodd" node-id="610" stroke="none" target-height="480.8394" target-width="520.41534" target-x="20" target-y="13.628363"></path></mask><mask height="53.27771" id="mask57" maskUnits="userSpaceOnUse" node-id="614" width="91.32382" x="392.49054" y="253.6312"><path d="M 20.00 494.47 L 540.42 494.47 L 540.42 13.63 L 20.00 13.63 Z" fill="#ffffff" fill-rule="evenodd" node-id="618" stroke="none" target-height="480.8394" target-width="520.41534" target-x="20" target-y="13.628363"></path></mask><mask height="6.239319" id="mask58" maskUnits="userSpaceOnUse" node-id="622" width="105.049255" x="373.22504" y="301.94916"><path d="M 20.00 494.47 L 540.42 494.47 L 540.42 13.63 L 20.00 13.63 Z" fill="#ffffff" fill-rule="evenodd" node-id="626" stroke="none" target-height="480.8394" target-width="520.41534" target-x="20" target-y="13.628363"></path></mask><mask height="14.52066" id="mask59" maskUnits="userSpaceOnUse" node-id="630" width="14.572968" x="433.5776" y="273.7155"><path d="M 20.00 494.47 L 540.42 494.47 L 540.42 13.63 L 20.00 13.63 Z" fill="#ffffff" fill-rule="evenodd" node-id="634" stroke="none" target-height="480.8394" target-width="520.41534" target-x="20" target-y="13.628363"></path></mask></defs><g node-id="636"><path d="M 77.44 386.96 L 540.51 386.96 L 540.51 81.83 L 77.44 81.83 Z" fill="#e6e5ce" fill-rule="evenodd" group-id="1" id="Fill-1" node-id="13" stroke="none" target-height="305.12823" target-width="463.0769" target-x="77.4359" target-y="81.83349"></path><path d="M 84.62 379.78 L 533.33 379.78 L 533.33 89.01 L 84.62 89.01 Z" fill="#d6ede7" fill-rule="evenodd" group-id="1" id="Fill-2" node-id="14" stroke="none" target-height="290.76923" target-width="448.71793" target-x="84.61539" target-y="89.01298"></path><path d="M 84.62 164.40 L 533.33 164.40 L 533.33 89.01 L 84.62 89.01 Z" fill="#c2e4dc" fill-rule="evenodd" group-id="1" id="Fill-3" node-id="15" stroke="none" target-height="75.38462" target-width="448.71793" target-x="84.61539" target-y="89.01298"></path><path d="M 84.62 121.32 L 533.33 121.32 L 533.33 89.01 L 84.62 89.01 Z" fill="#aedbd0" fill-rule="evenodd" group-id="1" id="Fill-4" node-id="16" stroke="none" target-height="32.307693" target-width="448.71793" target-x="84.61539" target-y="89.01298"></path><g node-id="637"><g node-id="641"><g node-id="710"><path d="M 192.31 345.47 C 193.89 340.20 193.45 334.65 191.45 329.79 C 189.92 326.08 190.28 321.88 192.50 318.82 C 194.37 316.24 195.86 313.28 196.85 309.96 C 199.55 300.98 198.04 291.41 193.48 283.74 C 191.09 279.72 190.75 274.77 192.70 270.72 C 193.16 269.76 193.56 268.74 193.88 267.67 C 196.26 259.75 193.87 251.19 188.41 245.55 C 185.25 242.29 184.51 237.22 186.80 233.47 C 187.87 231.71 188.82 229.78 189.41 227.80 C 193.18 215.26 186.59 201.29 174.70 196.60 L 174.66 196.59 C 172.91 195.90 171.97 193.84 172.53 192.00 C 172.55 191.93 172.57 191.87 172.59 191.80 C 177.41 175.74 168.79 157.83 153.37 152.18 C 138.90 146.87 122.84 155.19 118.27 170.35 C 117.17 174.01 116.77 177.76 116.98 181.45 C 117.46 189.58 112.76 196.83 105.51 198.81 C 93.02 202.21 82.56 212.02 78.32 226.15 C 75.63 235.11 75.85 244.48 78.42 253.06 C 80.68 260.62 78.08 268.64 72.09 272.77 C 66.25 276.80 61.66 282.93 59.34 290.64 C 55.25 304.29 59.46 319.08 68.99 328.69 C 70.77 330.49 71.43 333.16 70.70 335.56 C 70.70 335.58 70.69 335.60 70.68 335.63 C 68.56 342.69 72.27 350.57 78.97 353.21 C 79.02 353.23 79.07 353.25 79.13 353.27 C 79.89 353.55 80.32 354.44 80.08 355.24 L 80.08 355.25 C 77.09 365.21 82.32 376.30 91.75 380.02 C 93.18 380.58 94.62 380.94 96.05 381.12 C 99.35 381.52 102.27 383.82 103.75 387.07 C 108.39 397.28 116.69 405.71 127.44 409.80 C 147.49 417.44 169.73 406.21 176.19 385.18 C 177.55 380.76 178.16 376.24 178.11 371.77 C 178.03 365.35 180.69 359.43 185.41 355.74 C 188.56 353.29 191.02 349.78 192.31 345.47" fill="#89cebc" fill-rule="evenodd" group-id="1,2,6,75" id="Fill-5" node-id="22" stroke="none" target-height="270.5658" target-width="144.30487" target-x="55.24686" target-y="146.87474"></path></g></g><g node-id="642"><g node-id="712"><path d="M 183.40 339.44 C 184.51 334.68 183.76 329.79 181.63 325.62 C 180.01 322.43 180.07 318.69 181.90 315.83 C 183.44 313.44 184.61 310.71 185.30 307.72 C 187.19 299.59 185.21 291.22 180.58 284.71 C 178.15 281.31 177.53 276.95 179.05 273.24 C 179.41 272.35 179.71 271.43 179.93 270.46 C 181.60 263.30 178.89 255.87 173.57 251.23 C 170.48 248.54 169.49 244.10 171.33 240.63 C 172.20 239.00 172.94 237.23 173.36 235.45 C 175.99 224.10 169.12 212.15 158.00 208.76 L 157.97 208.75 C 156.33 208.25 155.34 206.49 155.74 204.82 C 155.75 204.76 155.77 204.70 155.78 204.64 C 159.16 190.11 150.18 174.81 135.79 170.78 C 122.28 167.00 108.19 175.39 104.99 189.10 C 104.21 192.41 104.08 195.76 104.51 199.01 C 105.46 206.18 101.63 212.90 95.16 215.11 C 84.01 218.91 75.10 228.27 72.14 241.04 C 70.25 249.16 71.04 257.43 73.92 264.87 C 76.46 271.41 74.59 278.69 69.40 282.72 C 64.34 286.66 60.55 292.38 58.93 299.35 C 56.06 311.70 60.82 324.53 70.10 332.43 C 71.83 333.91 72.61 336.24 72.09 338.40 C 72.09 338.42 72.08 338.45 72.08 338.47 C 70.59 344.86 74.47 351.59 80.73 353.50 C 80.78 353.52 80.83 353.53 80.87 353.55 C 81.59 353.75 82.04 354.51 81.87 355.23 L 81.86 355.25 C 79.77 364.25 85.23 373.74 94.05 376.43 C 95.39 376.84 96.72 377.07 98.03 377.13 C 101.06 377.27 103.87 379.13 105.41 381.91 C 110.28 390.65 118.37 397.59 128.41 400.53 C 147.14 406.02 166.67 394.66 171.23 375.63 C 172.19 371.63 172.46 367.59 172.13 363.63 C 171.66 357.96 173.71 352.54 177.77 348.98 C 180.48 346.61 182.50 343.35 183.40 339.44" fill="#f4ffd4" fill-rule="evenodd" group-id="1,2,7,77" id="Fill-7" node-id="27" stroke="none" target-height="239.01682" target-width="131.13675" target-x="56.05539" target-y="167.00314"></path></g></g><g node-id="644"><path d="M 151.05 382.94 L 262.92 382.94 L 262.92 212.56 L 151.05 212.56 Z" fill="#ef918e" fill-rule="evenodd" group-id="1,2,9" id="Fill-9" node-id="31" stroke="none" target-height="170.37881" target-width="111.8674" target-x="151.051" target-y="212.56226"></path></g><g node-id="645"><path d="M 248.55 245.33 L 250.49 245.33 L 250.49 227.98 L 248.55 227.98 L 248.55 245.33 Z M 227.57 245.33 L 229.51 245.33 L 229.51 227.98 L 227.57 227.98 L 227.57 245.33 Z M 206.60 245.33 L 208.54 245.33 L 208.54 227.98 L 206.60 227.98 L 206.60 245.33 Z M 185.62 245.33 L 187.56 245.33 L 187.56 227.98 L 185.62 227.98 L 185.62 245.33 Z M 164.65 245.33 L 166.59 245.33 L 166.59 227.98 L 164.65 227.98 L 164.65 245.33 Z" fill="#184657" fill-rule="evenodd" group-id="1,2,10" id="Fill-11" node-id="32" stroke="none" target-height="17.346115" target-width="85.84296" target-x="164.6459" target-y="227.98125"></path></g><g node-id="646"><path d="M 248.55 279.44 L 250.49 279.44 L 250.49 262.10 L 248.55 262.10 L 248.55 279.44 Z M 227.57 279.44 L 229.51 279.44 L 229.51 262.10 L 227.57 262.10 L 227.57 279.44 Z M 206.60 279.44 L 208.54 279.44 L 208.54 262.10 L 206.60 262.10 L 206.60 279.44 Z M 185.62 279.44 L 187.56 279.44 L 187.56 262.10 L 185.62 262.10 L 185.62 279.44 Z M 164.65 279.44 L 166.59 279.44 L 166.59 262.10 L 164.65 262.10 L 164.65 279.44 Z" fill="#184657" fill-rule="evenodd" group-id="1,2,11" id="Fill-12" node-id="33" stroke="none" target-height="17.34613" target-width="85.84296" target-x="164.6459" target-y="262.09564"></path></g><g node-id="647"><path d="M 248.55 313.56 L 250.49 313.56 L 250.49 296.21 L 248.55 296.21 L 248.55 313.56 Z M 227.57 313.56 L 229.51 313.56 L 229.51 296.21 L 227.57 296.21 L 227.57 313.56 Z M 206.60 313.56 L 208.54 313.56 L 208.54 296.21 L 206.60 296.21 L 206.60 313.56 Z M 185.62 313.56 L 187.56 313.56 L 187.56 296.21 L 185.62 296.21 L 185.62 313.56 Z M 164.65 313.56 L 166.59 313.56 L 166.59 296.21 L 164.65 296.21 L 164.65 313.56 Z" fill="#184657" fill-rule="evenodd" group-id="1,2,12" id="Fill-13" node-id="34" stroke="none" target-height="17.3461" target-width="85.84296" target-x="164.6459" target-y="296.21005"></path></g><g node-id="648"><path d="M 248.55 347.67 L 250.49 347.67 L 250.49 330.32 L 248.55 330.32 L 248.55 347.67 Z M 227.57 347.67 L 229.51 347.67 L 229.51 330.32 L 227.57 330.32 L 227.57 347.67 Z M 206.60 347.67 L 208.54 347.67 L 208.54 330.32 L 206.60 330.32 L 206.60 347.67 Z M 185.62 347.67 L 187.56 347.67 L 187.56 330.32 L 185.62 330.32 L 185.62 347.67 Z M 164.65 347.67 L 166.59 347.67 L 166.59 330.32 L 164.65 330.32 L 164.65 347.67 Z" fill="#184657" fill-rule="evenodd" group-id="1,2,13" id="Fill-14" node-id="35" stroke="none" target-height="17.346527" target-width="85.84296" target-x="164.6459" target-y="330.32404"></path></g><g node-id="649"><path d="M 248.55 381.78 L 250.49 381.78 L 250.49 364.44 L 248.55 364.44 L 248.55 381.78 Z M 227.57 381.78 L 229.51 381.78 L 229.51 364.44 L 227.57 364.44 L 227.57 381.78 Z M 206.60 381.78 L 208.54 381.78 L 208.54 364.44 L 206.60 364.44 L 206.60 381.78 Z M 185.62 381.78 L 187.56 381.78 L 187.56 364.44 L 185.62 364.44 L 185.62 381.78 Z M 164.65 381.78 L 166.59 381.78 L 166.59 364.44 L 164.65 364.44 L 164.65 381.78 Z" fill="#184657" fill-rule="evenodd" group-id="1,2,14" id="Fill-15" node-id="36" stroke="none" target-height="17.34613" target-width="85.84296" target-x="164.6459" target-y="364.43842"></path></g><g node-id="650"><path d="M 431.14 344.50 C 434.76 347.32 436.80 351.87 436.75 356.80 C 436.71 360.23 437.18 363.70 438.22 367.09 C 443.18 383.23 460.25 391.86 475.64 385.99 C 483.89 382.85 490.26 376.38 493.83 368.54 C 494.96 366.05 497.21 364.28 499.74 363.97 C 500.83 363.84 501.94 363.56 503.04 363.13 C 510.28 360.27 514.29 351.76 512.00 344.12 L 512.00 344.11 C 511.81 343.49 512.14 342.81 512.73 342.59 C 512.77 342.58 512.81 342.56 512.85 342.55 C 517.99 340.52 520.84 334.48 519.21 329.05 C 519.21 329.03 519.20 329.02 519.20 329.00 C 518.63 327.16 519.14 325.11 520.51 323.73 C 527.83 316.36 531.06 305.00 527.91 294.52 C 526.14 288.60 522.61 283.90 518.13 280.80 C 513.53 277.63 511.54 271.47 513.27 265.67 C 515.25 259.09 515.42 251.90 513.35 245.01 C 510.10 234.17 502.06 226.64 492.48 224.02 C 486.91 222.51 483.30 216.94 483.67 210.70 C 483.84 207.87 483.53 204.99 482.68 202.18 C 479.17 190.54 466.85 184.16 455.74 188.23 C 443.90 192.57 437.28 206.32 440.98 218.65 C 441.00 218.70 441.01 218.75 441.03 218.80 C 441.46 220.21 440.73 221.80 439.39 222.32 L 439.36 222.33 C 430.24 225.93 425.18 236.66 428.07 246.28 C 428.53 247.80 429.25 249.28 430.08 250.63 C 431.83 253.51 431.26 257.41 428.84 259.91 C 424.65 264.23 422.82 270.81 424.64 276.88 C 424.89 277.71 425.19 278.49 425.55 279.23 C 427.05 282.34 426.78 286.14 424.95 289.22 C 421.45 295.11 420.29 302.45 422.36 309.35 C 423.12 311.90 424.26 314.17 425.70 316.15 C 427.41 318.50 427.68 321.73 426.51 324.57 C 424.97 328.30 424.63 332.56 425.84 336.61 C 426.84 339.92 428.73 342.61 431.14 344.50" fill="#89cebc" fill-rule="evenodd" group-id="1,2,15" id="Fill-16" node-id="37" stroke="none" target-height="207.69608" target-width="110.77362" target-x="420.28668" target-y="184.15997"></path></g><g node-id="651"><path d="M 437.01 339.30 C 440.13 342.04 441.70 346.20 441.33 350.55 C 441.08 353.59 441.29 356.69 442.03 359.76 C 445.53 374.37 460.52 383.09 474.90 378.88 C 482.61 376.62 488.81 371.29 492.55 364.58 C 493.74 362.45 495.90 361.02 498.22 360.91 C 499.22 360.86 500.25 360.69 501.27 360.37 C 508.05 358.31 512.23 351.03 510.63 344.11 L 510.62 344.10 C 510.50 343.55 510.84 342.97 511.39 342.81 C 511.43 342.80 511.46 342.79 511.50 342.78 C 516.31 341.31 519.28 336.14 518.14 331.23 C 518.14 331.22 518.13 331.20 518.13 331.19 C 517.73 329.52 518.33 327.73 519.66 326.60 C 526.78 320.54 530.44 310.69 528.24 301.21 C 526.99 295.86 524.08 291.47 520.19 288.44 C 516.21 285.34 514.78 279.76 516.73 274.74 C 518.94 269.03 519.54 262.67 518.10 256.45 C 515.82 246.64 508.98 239.46 500.42 236.54 C 495.45 234.84 492.51 229.69 493.24 224.18 C 493.57 221.69 493.47 219.11 492.88 216.57 C 490.42 206.05 479.60 199.61 469.23 202.51 C 458.19 205.60 451.29 217.35 453.89 228.50 C 453.90 228.55 453.91 228.59 453.92 228.64 C 454.23 229.92 453.46 231.27 452.21 231.66 L 452.18 231.66 C 443.65 234.27 438.37 243.44 440.40 252.15 C 440.71 253.52 441.28 254.88 441.95 256.13 C 443.36 258.79 442.60 262.20 440.23 264.26 C 436.15 267.83 434.07 273.53 435.35 279.03 C 435.52 279.77 435.75 280.48 436.03 281.16 C 437.19 284.01 436.71 287.36 434.85 289.97 C 431.30 294.96 429.77 301.39 431.22 307.63 C 431.76 309.93 432.66 312.02 433.84 313.86 C 435.25 316.05 435.29 318.92 434.04 321.37 C 432.41 324.57 431.83 328.32 432.68 331.98 C 433.38 334.98 434.93 337.48 437.01 339.30" fill="#f4ffd4" fill-rule="evenodd" group-id="1,2,16" id="Fill-17" node-id="38" stroke="none" target-height="183.47801" target-width="100.66501" target-x="429.7742" target-y="199.6114"></path></g><g node-id="652"><path d="M 219.52 385.57 C 228.40 378.70 234.12 367.99 234.12 355.95 C 234.12 335.22 217.18 318.42 196.30 318.42 C 193.91 318.42 191.57 318.65 189.30 319.07 C 184.82 302.77 169.81 290.78 151.97 290.78 C 130.59 290.78 113.27 307.98 113.27 329.19 C 113.27 332.82 113.78 336.32 114.73 339.65 C 112.18 338.96 109.50 338.58 106.73 338.58 C 90.08 338.58 76.57 351.98 76.57 368.51 C 76.57 374.85 78.56 380.73 81.95 385.57 L 219.52 385.57 Z" fill="#41b093" fill-rule="evenodd" group-id="1,2,17" id="Fill-18" node-id="39" stroke="none" target-height="94.78314" target-width="157.54709" target-x="76.57008" target-y="290.78394"></path></g><g node-id="653"><path d="M 100.57 385.57 C 93.22 379.89 88.49 371.03 88.49 361.06 C 88.49 343.92 102.50 330.01 119.78 330.01 C 121.76 330.01 123.69 330.20 125.57 330.55 C 129.27 317.07 141.70 307.15 156.46 307.15 C 174.14 307.15 188.48 321.37 188.48 338.92 C 188.48 341.92 188.05 344.83 187.27 347.58 C 189.38 347.00 191.59 346.69 193.88 346.69 C 207.67 346.69 218.84 357.78 218.84 371.46 C 218.84 376.70 217.19 381.56 214.39 385.57 L 100.57 385.57 Z" fill="#41b093" fill-rule="evenodd" group-id="1,2,18" id="Fill-19" node-id="40" stroke="none" target-height="78.42023" target-width="130.34833" target-x="88.49153" target-y="307.14685"></path></g><g node-id="654"><path d="M 492.19 385.57 C 501.07 378.70 506.79 367.99 506.79 355.95 C 506.79 335.22 489.86 318.42 468.97 318.42 C 466.58 318.42 464.24 318.65 461.98 319.07 C 457.50 302.77 442.49 290.78 424.64 290.78 C 403.27 290.78 385.94 307.98 385.94 329.19 C 385.94 332.82 386.46 336.32 387.41 339.65 C 384.86 338.96 382.18 338.58 379.41 338.58 C 362.75 338.58 349.25 351.98 349.25 368.51 C 349.25 374.85 351.24 380.73 354.62 385.57 L 492.19 385.57 Z" fill="#41b093" fill-rule="evenodd" group-id="1,2,19" id="Fill-20" node-id="41" stroke="none" target-height="94.78314" target-width="157.54709" target-x="349.24673" target-y="290.78394"></path></g><g node-id="655"><path d="M 373.25 385.57 C 365.90 379.89 361.17 371.03 361.17 361.06 C 361.17 343.92 375.18 330.01 392.46 330.01 C 394.44 330.01 396.37 330.20 398.25 330.55 C 401.95 317.07 414.37 307.15 429.14 307.15 C 446.82 307.15 461.16 321.37 461.16 338.92 C 461.16 341.92 460.73 344.83 459.94 347.58 C 462.05 347.00 464.27 346.69 466.56 346.69 C 480.34 346.69 491.52 357.78 491.52 371.46 C 491.52 376.70 489.87 381.56 487.07 385.57 L 373.25 385.57 Z" fill="#41b093" fill-rule="evenodd" group-id="1,2,20" id="Fill-21" node-id="42" stroke="none" target-height="78.42023" target-width="130.34833" target-x="361.16812" target-y="307.14685"></path></g><g node-id="656"><path d="M 508.22 138.72 C 497.38 133.05 487.13 132.88 480.94 142.83 C 474.75 152.78 485.93 159.15 499.09 169.22 C 512.25 179.29 536.50 196.98 536.50 196.98 L 554.88 173.34 C 554.88 173.34 519.06 144.38 508.22 138.72" fill="#46acc3" fill-rule="evenodd" group-id="1,2,21" id="Fill-22" node-id="43" stroke="none" target-height="64.103195" target-width="80.127594" target-x="474.75253" target-y="132.87932"></path></g><g node-id="657"><path d="M 579.80 184.61 C 579.80 203.60 565.33 219.01 547.47 219.01 C 529.61 219.01 515.13 203.60 515.13 184.61 C 515.13 165.61 529.61 150.20 547.47 150.20 C 565.33 150.20 579.80 165.61 579.80 184.61" fill="#46acc3" fill-rule="evenodd" group-id="1,2,22" id="Fill-23" node-id="44" stroke="none" target-height="68.80368" target-width="64.670044" target-x="515.1322" target-y="150.20328"></path></g><g node-id="658"><path d="M 504.23 148.04 C 502.26 150.58 498.58 151.05 496.01 149.09 C 493.45 147.13 492.98 143.48 494.95 140.94 C 496.93 138.39 500.61 137.92 503.17 139.88 C 505.74 141.84 506.21 145.50 504.23 148.04" fill="#0d232b" fill-rule="evenodd" group-id="1,2,23" id="Fill-24" node-id="45" stroke="none" target-height="13.133438" target-width="13.23407" target-x="492.97656" target-y="137.92122"></path></g><g node-id="659"><path d="M 495.76 151.10 L 497.40 167.98 L 491.18 162.96 Z" fill="#deb052" fill-rule="evenodd" group-id="1,2,24" id="Fill-25" node-id="46" stroke="none" target-height="16.87819" target-width="6.2149963" target-x="491.18478" target-y="151.09795"></path></g><g node-id="660"><path d="M 488.10 150.84 C 488.10 150.84 488.36 164.30 491.64 168.09 L 495.76 151.10 C 495.76 151.10 491.29 149.43 488.10 150.84" fill="#fccb67" fill-rule="evenodd" group-id="1,2,25" id="Fill-26" node-id="47" stroke="none" target-height="18.666641" target-width="7.6631775" target-x="488.09686" target-y="149.4272"></path></g><g node-id="661"><path d="M 492.87 382.94 L 547.25 382.94 L 547.25 260.36 L 492.87 260.36 Z" fill="#5190a7" fill-rule="evenodd" group-id="1,2,26" id="Fill-27" node-id="48" stroke="none" target-height="122.5802" target-width="54.380035" target-x="492.86813" target-y="260.36087"></path></g><g node-id="662"><path d="M 529.44 288.56 L 531.39 288.56 L 531.39 271.22 L 529.44 271.22 L 529.44 288.56 Z M 508.47 288.56 L 510.41 288.56 L 510.41 271.22 L 508.47 271.22 L 508.47 288.56 Z" fill="#184657" fill-rule="evenodd" group-id="1,2,27" id="Fill-28" node-id="49" stroke="none" target-height="17.34613" target-width="22.917542" target-x="508.46967" target-y="271.21844"></path></g><g node-id="663"><path d="M 529.44 319.92 L 531.39 319.92 L 531.39 302.57 L 529.44 302.57 L 529.44 319.92 Z M 508.47 319.92 L 510.41 319.92 L 510.41 302.57 L 508.47 302.57 L 508.47 319.92 Z" fill="#184657" fill-rule="evenodd" group-id="1,2,28" id="Fill-29" node-id="50" stroke="none" target-height="17.346558" target-width="22.917542" target-x="508.46967" target-y="302.57007"></path></g><g node-id="664"><path d="M 529.44 351.27 L 531.39 351.27 L 531.39 333.92 L 529.44 333.92 L 529.44 351.27 Z M 508.47 351.27 L 510.41 351.27 L 510.41 333.92 L 508.47 333.92 L 508.47 351.27 Z" fill="#184657" fill-rule="evenodd" group-id="1,2,29" id="Fill-30" node-id="51" stroke="none" target-height="17.3461" target-width="22.917542" target-x="508.46967" target-y="333.9221"></path></g><g node-id="665"><path d="M 529.44 382.62 L 531.39 382.62 L 531.39 365.27 L 529.44 365.27 L 529.44 382.62 Z M 508.47 382.62 L 510.41 382.62 L 510.41 365.27 L 508.47 365.27 L 508.47 382.62 Z" fill="#184657" fill-rule="evenodd" group-id="1,2,30" id="Fill-31" node-id="52" stroke="none" target-height="17.346558" target-width="22.917542" target-x="508.46967" target-y="365.27368"></path></g><g node-id="666"><path d="M 376.34 372.15 L 426.06 372.15 L 426.06 201.77 L 376.34 201.77 Z" fill="#41b093" fill-rule="evenodd" group-id="1,2,31" id="Fill-32" node-id="53" stroke="none" target-height="170.37881" target-width="49.718933" target-x="376.33963" target-y="201.76889"></path></g><g node-id="667"><path d="M 385.27 212.69 L 415.44 212.69 L 415.44 210.76 L 385.27 210.76 L 385.27 212.69 Z M 385.27 233.51 L 415.44 233.51 L 415.44 231.58 L 385.27 231.58 L 385.27 233.51 Z M 385.27 254.32 L 415.44 254.32 L 415.44 252.39 L 385.27 252.39 L 385.27 254.32 Z M 385.27 275.14 L 415.44 275.14 L 415.44 273.21 L 385.27 273.21 L 385.27 275.14 Z M 385.27 295.95 L 415.44 295.95 L 415.44 294.02 L 385.27 294.02 L 385.27 295.95 Z" fill="#184657" fill-rule="evenodd" group-id="1,2,32" id="Fill-33" node-id="54" stroke="none" target-height="85.18942" target-width="30.168457" target-x="385.2734" target-y="210.76279"></path></g><path d="M 386.31 317.28 L 416.48 317.28 L 416.48 315.35 L 386.31 315.35 L 386.31 317.28 Z M 386.31 338.10 L 416.48 338.10 L 416.48 336.17 L 386.31 336.17 L 386.31 338.10 Z M 386.31 358.91 L 416.48 358.91 L 416.48 356.99 L 386.31 356.99 L 386.31 358.91 Z" fill="#184657" fill-rule="evenodd" group-id="1,2,33" id="Fill-34" node-id="55" stroke="none" target-height="43.5589" target-width="30.16803" target-x="386.3093" target-y="315.35394"></path></g><path d="M 177.95 383.37 L 188.72 383.37 L 188.72 85.42 L 177.95 85.42 Z" fill="#e6e5ce" fill-rule="evenodd" group-id="1" id="Fill-35" node-id="56" stroke="none" target-height="297.94873" target-width="10.769241" target-x="177.94872" target-y="85.42323"></path><g node-id="638"><g node-id="669"><g node-id="714"><path d="M 528.56 490.64 L 82.07 490.64 C 80.07 490.64 78.45 489.03 78.45 487.04 C 78.45 485.05 80.07 483.44 82.07 483.44 L 528.56 483.44 C 530.56 483.44 532.18 485.05 532.18 487.04 C 532.18 489.03 530.56 490.64 528.56 490.64" fill="#a7c7d3" fill-rule="evenodd" group-id="1,3,34,79" id="Fill-36" node-id="62" stroke="none" target-height="7.2039795" target-width="453.72388" target-x="78.45257" target-y="483.43777"></path></g></g><path d="M 320.62 88.86 L 320.62 59.22 C 320.62 52.09 314.81 46.30 307.64 46.30 C 300.48 46.30 294.67 52.09 294.67 59.22 L 294.67 88.86 C 280.33 88.86 268.71 100.43 268.71 114.70 L 346.58 114.70 C 346.58 100.43 334.96 88.86 320.62 88.86" fill="#0d232b" fill-rule="evenodd" group-id="1,3" id="Fill-902" node-id="63" stroke="none" target-height="68.39693" target-width="77.87213" target-x="268.7087" target-y="46.3036"></path><g node-id="671"><path d="M 306.01 48.91 L 309.28 48.91 L 309.28 10.26 L 306.01 10.26 Z" fill="#0d232b" fill-rule="evenodd" group-id="1,3,36" id="Fill-904" node-id="67" stroke="none" target-height="38.64986" target-width="3.2722473" target-x="306.00864" target-y="10.259689"></path></g><g node-id="672"><path d="M 500.92 142.65 C 500.92 142.97 500.66 143.23 500.33 143.23 C 500.01 143.23 499.75 142.97 499.75 142.65 C 499.75 142.33 500.01 142.07 500.33 142.07 C 500.66 142.07 500.92 142.33 500.92 142.65" fill="#ffffff" fill-rule="evenodd" group-id="1,3,37" id="Fill-906" node-id="68" stroke="none" target-height="1.1564941" target-width="1.1617737" target-x="499.75406" target-y="142.07082"></path></g><g node-id="673"><path d="M 277.81 180.07 L 278.30 175.48 L 278.08 175.48 L 276.21 179.41 L 270.50 186.79 L 267.76 188.86 L 271.27 188.43 L 277.81 188.43 L 277.81 180.07 Z M 290.49 194.11 L 284.45 194.11 L 284.45 204.77 L 277.81 204.77 L 277.81 194.11 L 261.17 194.11 L 261.17 190.07 L 278.57 166.24 L 284.45 166.24 L 284.45 188.43 L 290.49 188.43 L 290.49 194.11 Z" fill="#ffffff" fill-rule="evenodd" group-id="1,3,38" id="Fill-907" node-id="69" stroke="none" target-height="38.52643" target-width="29.315552" target-x="261.1712" target-y="166.23987"></path></g><g node-id="674"><path d="M 300.59 185.58 C 300.59 190.03 301.07 193.46 302.04 195.89 C 303.01 198.31 304.61 199.52 306.85 199.52 C 309.00 199.52 310.59 198.41 311.59 196.19 C 312.60 193.96 313.10 190.43 313.10 185.58 C 313.10 181.18 312.63 177.77 311.68 175.37 C 310.72 172.96 309.10 171.76 306.79 171.76 C 304.59 171.76 303.01 172.89 302.04 175.15 C 301.07 177.41 300.59 180.89 300.59 185.58 M 293.45 185.58 C 293.45 178.88 294.60 173.90 296.91 170.64 C 299.21 167.38 302.53 165.75 306.85 165.75 C 311.46 165.75 314.84 167.36 317.00 170.58 C 319.16 173.81 320.24 178.81 320.24 185.58 C 320.24 192.32 319.08 197.33 316.75 200.61 C 314.43 203.89 311.11 205.53 306.79 205.53 C 302.22 205.53 298.85 203.81 296.69 200.37 C 294.53 196.92 293.45 192.00 293.45 185.58" fill="#ffffff" fill-rule="evenodd" group-id="1,3,39" id="Fill-908" node-id="70" stroke="none" target-height="39.78308" target-width="26.790253" target-x="293.45078" target-y="165.74768"></path></g><g node-id="675"><path d="M 340.06 180.07 L 340.55 175.48 L 340.33 175.48 L 338.47 179.41 L 332.76 186.79 L 330.01 188.86 L 333.53 188.43 L 340.06 188.43 L 340.06 180.07 Z M 352.74 194.11 L 346.70 194.11 L 346.70 204.77 L 340.06 204.77 L 340.06 194.11 L 323.42 194.11 L 323.42 190.07 L 340.83 166.24 L 346.70 166.24 L 346.70 188.43 L 352.74 188.43 L 352.74 194.11 Z" fill="#ffffff" fill-rule="evenodd" group-id="1,3,40" id="Fill-909" node-id="71" stroke="none" target-height="38.52643" target-width="29.315521" target-x="323.42383" target-y="166.23987"></path></g><g node-id="676"><path d="M 401.27 327.67 C 401.27 370.99 361.61 391.93 312.69 391.93 C 263.78 391.93 224.12 370.99 224.12 327.67 C 224.12 284.35 248.78 235.06 312.69 235.06 C 380.80 235.06 401.27 284.35 401.27 327.67" fill="#f6f6ee" fill-rule="evenodd" group-id="1,3,41" id="Fill-910" node-id="72" stroke="none" target-height="156.871" target-width="177.14117" target-x="224.12424" target-y="235.05911"></path></g><g node-id="677"><path d="M 401.50 332.63 C 401.50 375.95 361.85 396.89 312.93 396.89 C 264.02 396.89 224.36 375.95 224.36 332.63 C 224.36 289.31 249.01 240.02 312.93 240.02 C 381.04 240.02 401.50 289.31 401.50 332.63" fill="#e6e5ce" fill-rule="evenodd" group-id="1,3,42" id="Fill-911" node-id="73" stroke="none" target-height="156.87096" target-width="177.1412" target-x="224.36151" target-y="240.02083"></path></g><g node-id="678"><path d="M 224.36 332.63 C 224.36 375.95 264.02 396.89 312.93 396.89 C 361.85 396.89 401.50 375.95 401.50 332.63 C 401.50 329.42 401.39 326.18 401.15 322.93 L 224.78 322.93 C 224.50 326.18 224.36 329.42 224.36 332.63" fill="#d5d4b9" fill-rule="evenodd" group-id="1,3,43" id="Fill-912" node-id="74" stroke="none" target-height="73.96423" target-width="177.14119" target-x="224.36168" target-y="322.92755"></path></g><g node-id="679"><path d="M 242.35 330.32 C 242.35 363.80 272.99 379.98 310.80 379.98 C 348.60 379.98 379.24 363.80 379.24 330.32 C 379.24 327.84 379.15 325.34 378.97 322.82 L 242.67 322.82 C 242.46 325.34 242.35 327.84 242.35 330.32" fill="#bebc97" fill-rule="evenodd" group-id="1,3,44" id="Fill-913" node-id="75" stroke="none" target-height="57.158325" target-width="136.89174" target-x="242.34987" target-y="322.82446"></path></g><g node-id="680"><path d="M 304.36 466.06 L 315.74 466.06 L 315.74 390.07 L 304.36 390.07 Z" fill="#639bb0" fill-rule="evenodd" group-id="1,3,45" id="Fill-914" node-id="76" stroke="none" target-height="75.993164" target-width="11.3802185" target-x="304.35638" target-y="390.07086"></path></g><g node-id="681"><path d="M 304.36 399.88 L 315.74 399.88 L 315.74 390.07 L 304.36 390.07 Z" fill="#d5d4b9" fill-rule="evenodd" group-id="1,3,46" id="Fill-915" node-id="77" stroke="none" target-height="9.808594" target-width="11.3802185" target-x="304.35638" target-y="390.07086"></path></g><g node-id="682"><path d="M 350.59 477.51 L 346.32 477.51 L 346.32 474.85 C 346.32 471.44 343.53 468.66 340.10 468.66 L 279.99 468.66 C 276.56 468.66 273.77 471.44 273.77 474.85 L 273.77 477.51 L 269.50 477.51 L 269.50 474.85 C 269.50 469.10 274.21 464.41 279.99 464.41 L 340.10 464.41 C 345.88 464.41 350.59 469.10 350.59 474.85 L 350.59 477.51 Z" fill="#609aaf" fill-rule="evenodd" group-id="1,3,47" id="Fill-916" node-id="78" stroke="none" target-height="13.098022" target-width="81.084076" target-x="269.50464" target-y="464.41254"></path></g><g node-id="683"><path d="M 290.63 477.15 C 290.63 480.87 287.60 483.88 283.86 483.88 C 280.13 483.88 277.10 480.87 277.10 477.15 C 277.10 473.43 280.13 470.41 283.86 470.41 C 287.60 470.41 290.63 473.43 290.63 477.15" fill="#035e80" fill-rule="evenodd" group-id="1,3,48" id="Fill-917" node-id="79" stroke="none" target-height="13.4696045" target-width="13.531006" target-x="277.09885" target-y="470.41333"></path></g><g node-id="684"><path d="M 287.41 477.15 C 287.41 479.10 285.83 480.68 283.86 480.68 C 281.90 480.68 280.31 479.10 280.31 477.15 C 280.31 475.20 281.90 473.61 283.86 473.61 C 285.83 473.61 287.41 475.20 287.41 477.15" fill="#184657" fill-rule="evenodd" group-id="1,3,49" id="Fill-918" node-id="80" stroke="none" target-height="7.067871" target-width="7.1003113" target-x="280.31427" target-y="473.61438"></path></g><g node-id="685"><path d="M 343.30 477.15 C 343.30 480.87 340.27 483.88 336.53 483.88 C 332.79 483.88 329.77 480.87 329.77 477.15 C 329.77 473.43 332.79 470.41 336.53 470.41 C 340.27 470.41 343.30 473.43 343.30 477.15" fill="#035e80" fill-rule="evenodd" group-id="1,3,50" id="Fill-919" node-id="81" stroke="none" target-height="13.4696045" target-width="13.531006" target-x="329.76605" target-y="470.41333"></path></g><g node-id="686"><path d="M 340.08 477.15 C 340.08 479.10 338.49 480.68 336.53 480.68 C 334.57 480.68 332.98 479.10 332.98 477.15 C 332.98 475.20 334.57 473.61 336.53 473.61 C 338.49 473.61 340.08 475.20 340.08 477.15" fill="#184657" fill-rule="evenodd" group-id="1,3,51" id="Fill-920" node-id="82" stroke="none" target-height="7.067871" target-width="7.1007385" target-x="332.98105" target-y="473.61438"></path></g><g node-id="687"><g node-id="715"><path d="M 330.38 474.35 L 342.68 474.35 C 341.61 472.03 339.26 470.41 336.53 470.41 C 333.80 470.41 331.45 472.03 330.38 474.35" fill="#cbc7ff" fill-rule="evenodd" group-id="1,3,52,80" id="Fill-921" node-id="85" stroke="none" target-height="3.9369507" target-width="12.297455" target-x="330.38278" target-y="470.41367"></path><path d="M 277.72 474.35 L 290.01 474.35 C 288.95 472.03 286.60 470.41 283.86 470.41 C 281.13 470.41 278.78 472.03 277.72 474.35" fill="#cbc7ff" fill-rule="evenodd" group-id="1,3,52,80" id="Fill-922" node-id="86" stroke="none" target-height="3.9369507" target-width="12.297424" target-x="277.7157" target-y="470.41367"></path><path d="M 330.38 474.35 L 342.68 474.35 C 341.61 472.03 339.26 470.41 336.53 470.41 C 333.80 470.41 331.45 472.03 330.38 474.35" fill="#41b093" fill-rule="evenodd" group-id="1,3,52,80" id="Fill-923" node-id="87" stroke="none" target-height="3.9369507" target-width="12.297455" target-x="330.38278" target-y="470.41367"></path><path d="M 277.72 474.35 L 290.01 474.35 C 288.95 472.03 286.60 470.41 283.86 470.41 C 281.13 470.41 278.78 472.03 277.72 474.35" fill="#41b093" fill-rule="evenodd" group-id="1,3,52,80" id="Fill-924" node-id="88" stroke="none" target-height="3.9369507" target-width="12.297424" target-x="277.7157" target-y="470.41367"></path></g></g><g node-id="688"><path d="M 315.03 437.29 L 305.07 437.29 C 303.00 437.29 301.32 435.62 301.32 433.57 L 301.32 422.24 C 301.32 420.18 303.00 418.51 305.07 418.51 L 315.03 418.51 C 317.09 418.51 318.77 420.18 318.77 422.24 L 318.77 433.57 C 318.77 435.62 317.09 437.29 315.03 437.29" fill="#639bb0" fill-rule="evenodd" group-id="1,3,53" id="Fill-925" node-id="89" stroke="none" target-height="18.782776" target-width="17.444855" target-x="301.32425" target-y="418.5091"></path></g><path d="M 341.66 373.50 L 274.45 373.50 C 265.88 373.50 258.51 370.75 259.10 355.61 C 259.70 340.46 274.57 323.89 274.57 323.89 L 343.11 323.89 C 343.11 323.89 356.24 343.17 356.83 355.43 C 357.42 367.69 350.24 373.50 341.66 373.50" fill="#0d232b" fill-rule="evenodd" group-id="1,3,54" id="Fill-926" node-id="90" stroke="none" target-height="49.61371" target-width="98.91235" target-x="258.51114" target-y="323.88855"></path></g><g node-id="639"><path d="M 193.59 473.58 L 183.16 473.58 L 211.62 318.14 L 222.05 318.14 Z" fill="#d6b88d" fill-rule="evenodd" group-id="1,4" id="Fill-1057" node-id="92" stroke="none" target-height="155.43942" target-width="38.885956" target-x="183.16246" target-y="318.13763"></path><path d="M 207.38 341.29 L 217.81 341.29 L 222.05 318.14 L 211.62 318.14 Z" fill="#b89f7a" fill-rule="evenodd" group-id="1,4" id="Fill-1059" node-id="93" stroke="none" target-height="23.150574" target-width="14.670303" target-x="207.37819" target-y="318.13763"></path><path d="M 462.69 473.58 L 473.13 473.58 L 444.67 318.14 L 434.24 318.14 Z" fill="#d6b88d" fill-rule="evenodd" group-id="1,4" id="Fill-1061" node-id="94" stroke="none" target-height="155.43942" target-width="38.885925" target-x="434.23935" target-y="318.13763"></path><path d="M 448.91 341.29 L 438.48 341.29 L 434.24 318.14 L 444.67 318.14 Z" fill="#b89f7a" fill-rule="evenodd" group-id="1,4" id="Fill-1063" node-id="95" stroke="none" target-height="23.150574" target-width="14.670319" target-x="434.2392" target-y="318.13763"></path><g node-id="691"><path d="M 176.41 318.73 L 476.20 318.73 L 476.20 307.39 L 176.41 307.39 Z" fill="#d6b88d" fill-rule="evenodd" group-id="1,4,56" id="Fill-1065" node-id="99" stroke="none" target-height="11.339447" target-width="299.79828" target-x="176.40553" target-y="307.389"></path></g><g node-id="692"><path d="M 299.62 269.15 C 277.40 270.57 238.93 281.10 237.42 296.99 C 236.17 310.30 246.54 307.04 257.44 307.52 C 268.35 307.99 318.45 307.28 318.45 307.28 L 299.62 269.15 Z" fill="#e85f5b" fill-rule="evenodd" group-id="1,4,57" id="Fill-1067" node-id="100" stroke="none" target-height="41.147827" target-width="82.28662" target-x="236.16519" target-y="269.14816"></path></g><g node-id="693"><path d="M 331.31 268.62 C 353.53 270.04 400.19 281.38 400.79 297.35 C 401.21 308.52 390.41 308.17 376.73 307.64 C 365.83 307.21 320.13 307.28 320.13 307.28 L 331.31 268.62 Z" fill="#e85f5b" fill-rule="evenodd" group-id="1,4,58" id="Fill-1068" node-id="101" stroke="none" target-height="39.906494" target-width="81.07684" target-x="320.13144" target-y="268.61597"></path></g><g node-id="694"><path d="M 242.60 304.70 C 238.26 301.43 238.37 295.68 242.16 291.76 C 245.48 288.33 251.78 286.44 258.23 287.04 C 272.04 288.34 307.21 296.26 307.21 296.26 L 306.77 306.46 C 306.77 306.46 286.79 306.89 268.47 307.12 C 258.02 307.25 247.66 308.52 242.60 304.70" fill="#ffd6cb" fill-rule="evenodd" group-id="1,4,59" id="Fill-1069" node-id="102" stroke="none" target-height="22.078064" target-width="68.956055" target-x="238.2576" target-y="286.4423"></path></g><g node-id="695"><path d="M 293.69 340.74 C 304.82 341.95 313.86 349.02 307.22 367.94 C 301.09 385.38 261.66 448.88 255.56 458.66 C 255.05 459.47 254.93 460.45 255.21 461.36 L 258.56 471.99 L 228.89 471.99 C 228.89 471.99 231.27 463.48 234.59 457.09 C 237.91 450.71 280.40 366.76 280.40 366.76 C 280.40 366.76 272.80 361.55 271.38 359.19 C 269.95 356.82 271.85 338.38 293.69 340.74" fill="#ffd6cb" fill-rule="evenodd" group-id="1,4,60" id="Fill-1070" node-id="103" stroke="none" target-height="133.61273" target-width="84.968216" target-x="228.89357" target-y="338.37814"></path></g><g node-id="696"><path d="M 246.22 462.29 C 242.48 462.62 239.02 464.17 236.92 465.30 C 235.53 466.05 233.86 466.06 232.47 465.34 L 231.28 464.73 C 229.80 468.73 228.89 471.99 228.89 471.99 L 258.56 471.99 L 256.23 464.60 L 256.01 464.42 C 256.01 464.42 252.27 461.76 246.22 462.29" fill="#e85f5b" fill-rule="evenodd" group-id="1,4,61" id="Fill-1072" node-id="104" stroke="none" target-height="10.227509" target-width="29.667572" target-x="228.8934" target-y="461.76294"></path></g><g node-id="697"><path d="M 256.56 474.06 L 230.96 474.06 C 229.85 474.06 228.95 473.17 228.95 472.06 L 228.95 471.92 L 258.56 471.92 L 258.56 472.06 C 258.56 473.17 257.66 474.06 256.56 474.06" fill="#035e80" fill-rule="evenodd" group-id="1,4,62" id="Fill-1073" node-id="105" stroke="none" target-height="2.138733" target-width="29.608536" target-x="228.95268" target-y="471.92133"></path></g><g node-id="698"><path d="M 327.16 340.74 C 316.03 341.95 306.99 349.02 313.63 367.94 C 319.76 385.38 359.19 448.88 365.29 458.66 C 365.80 459.47 365.92 460.45 365.64 461.36 L 362.29 471.99 L 391.95 471.99 C 391.95 471.99 389.58 463.48 386.26 457.09 C 382.94 450.71 340.45 366.76 340.45 366.76 C 340.45 366.76 348.05 361.55 349.47 359.19 C 350.89 356.82 349.00 338.38 327.16 340.74" fill="#ffd6cb" fill-rule="evenodd" group-id="1,4,63" id="Fill-1074" node-id="106" stroke="none" target-height="133.61273" target-width="84.96823" target-x="306.98666" target-y="338.37814"></path></g><g node-id="699"><path d="M 374.63 462.29 C 378.36 462.62 381.83 464.17 383.93 465.30 C 385.32 466.05 386.98 466.06 388.38 465.34 L 389.57 464.73 C 391.05 468.73 391.96 471.99 391.96 471.99 L 362.29 471.99 L 364.61 464.60 L 364.84 464.42 C 364.84 464.42 368.58 461.76 374.63 462.29" fill="#e85f5b" fill-rule="evenodd" group-id="1,4,64" id="Fill-1076" node-id="107" stroke="none" target-height="10.227509" target-width="29.667542" target-x="362.2875" target-y="461.76294"></path></g><g node-id="700"><path d="M 364.29 474.06 L 389.89 474.06 C 391.00 474.06 391.90 473.17 391.90 472.06 L 391.90 471.92 L 362.29 471.92 L 362.29 472.06 C 362.29 473.17 363.19 474.06 364.29 474.06" fill="#035e80" fill-rule="evenodd" group-id="1,4,65" id="Fill-1077" node-id="108" stroke="none" target-height="2.138733" target-width="29.608551" target-x="362.28723" target-y="471.92133"></path></g><g node-id="701"><path d="M 396.15 304.70 C 400.49 301.43 400.38 295.68 396.59 291.76 C 393.27 288.33 386.97 286.44 380.52 287.04 C 366.71 288.34 331.54 296.26 331.54 296.26 L 331.98 306.46 C 331.98 306.46 351.96 306.89 370.28 307.12 C 380.73 307.25 391.09 308.52 396.15 304.70" fill="#ffd6cb" fill-rule="evenodd" group-id="1,4,66" id="Fill-1078" node-id="109" stroke="none" target-height="22.078064" target-width="68.95648" target-x="331.53574" target-y="286.4423"></path></g><g node-id="702"><path d="M 296.77 273.05 C 292.68 277.13 288.23 280.50 286.80 285.82 C 285.38 291.14 285.91 292.21 285.91 292.21 C 285.91 292.21 281.64 293.80 280.57 299.65 C 279.51 305.51 280.93 307.81 280.93 307.81 L 358.19 307.28 C 358.19 307.28 360.14 303.56 356.58 298.06 C 353.02 292.56 349.11 292.56 349.11 292.56 C 349.11 292.56 343.23 289.90 342.17 286.18 C 341.10 282.45 333.98 272.70 333.98 272.70 L 296.77 273.05 Z" fill="#353535" fill-opacity="0.29366" fill-rule="evenodd" group-id="1,4,67" id="Fill-1079" node-id="110" stroke="none" target-height="35.11789" target-width="80.63693" target-x="279.5067" target-y="272.69525"></path></g><g node-id="703"><path d="M 347.44 338.06 C 341.92 334.85 341.00 331.14 344.99 319.79 C 348.97 308.44 344.58 304.96 340.71 299.93 C 337.10 295.24 334.84 291.42 339.53 285.16 C 343.16 280.30 340.59 272.42 335.80 270.21 C 333.31 269.07 333.83 265.24 331.81 262.81 C 329.52 260.07 324.00 258.94 319.92 260.49 C 318.76 260.02 317.53 259.65 316.25 259.40 C 305.75 257.37 295.60 264.12 293.59 274.48 C 292.94 277.82 293.22 281.12 294.24 284.13 C 293.57 285.31 290.19 291.61 291.61 295.46 C 293.19 299.71 294.07 301.25 289.98 307.57 C 285.89 313.88 287.96 316.22 290.81 322.69 C 293.65 329.16 290.37 333.66 286.58 337.18 C 282.79 340.70 281.23 349.02 286.09 353.13 C 290.95 357.24 293.59 359.93 288.49 369.12 C 283.39 378.31 291.40 385.61 297.57 384.54 C 303.74 383.46 314.05 381.25 312.70 389.00 C 311.34 396.75 323.34 403.83 330.82 399.02 C 338.30 394.21 335.31 386.72 333.73 379.56 C 332.15 372.40 338.37 370.21 347.22 361.52 C 356.06 352.83 352.96 341.27 347.44 338.06" fill="#434242" fill-rule="evenodd" group-id="1,4,68" id="Fill-1080" node-id="111" stroke="none" target-height="146.46216" target-width="74.828766" target-x="281.22894" target-y="257.36954"></path></g><g node-id="704"><path d="M 306.62 318.09 C 303.52 324.97 312.63 325.56 314.13 333.61 C 315.62 341.65 308.27 341.88 307.40 348.89 C 306.53 355.90 314.09 355.09 312.14 363.87 C 310.31 372.16 303.53 372.03 301.89 383.81 C 300.36 384.03 298.87 384.31 297.57 384.54 C 291.40 385.61 283.39 378.31 288.49 369.12 C 293.59 359.93 290.95 357.24 286.09 353.13 C 281.23 349.02 282.79 340.69 286.58 337.18 C 290.37 333.66 293.65 329.16 290.81 322.69 C 287.96 316.22 285.89 313.88 289.98 307.57 C 294.07 301.25 293.53 300.04 291.95 295.79 C 290.38 291.53 294.24 284.13 294.24 284.13 C 294.24 284.13 305.92 292.00 308.48 297.25 C 311.04 302.49 309.71 311.22 306.62 318.09 Z" fill="#353535" fill-rule="evenodd" group-id="1,4,69" id="Fill-1081" node-id="112" stroke="none" target-height="101.47815" target-width="34.39206" target-x="281.22906" target-y="284.1334"></path></g><g node-id="705"><path d="M 468.28 302.47 L 398.86 302.47 L 405.45 262.34 C 405.86 259.88 407.99 258.07 410.50 258.07 L 471.50 258.07 C 473.63 258.07 475.26 259.98 474.92 262.08 L 468.28 302.47 Z" fill="#cf5551" fill-rule="evenodd" group-id="1,4,70" id="Fill-1082" node-id="113" stroke="none" target-height="44.39807" target-width="76.40201" target-x="398.85867" target-y="258.071"></path></g><g node-id="706"><path d="M 469.52 302.47 L 400.10 302.47 L 406.70 262.34 C 407.10 259.88 409.24 258.07 411.74 258.07 L 472.74 258.07 C 474.88 258.07 476.50 259.98 476.16 262.08 L 469.52 302.47 Z" fill="#e85f5b" fill-rule="evenodd" group-id="1,4,71" id="Fill-1083" node-id="114" stroke="none" target-height="44.39807" target-width="76.40204" target-x="400.10086" target-y="258.071"></path></g><g node-id="707"><path d="M 381.98 307.67 L 469.52 307.67 L 469.52 302.47 L 386.97 302.47 C 384.21 302.47 381.98 304.70 381.98 307.44 L 381.98 307.67 Z" fill="#698792" fill-rule="evenodd" group-id="1,4,72" id="Fill-1084" node-id="115" stroke="none" target-height="5.1994324" target-width="87.541046" target-x="381.97916" target-y="302.46912"></path></g><path d="M 446.94 280.98 C 446.94 284.32 444.22 287.03 440.86 287.03 C 437.51 287.03 434.79 284.32 434.79 280.98 C 434.79 277.63 437.51 274.93 440.86 274.93 C 444.22 274.93 446.94 277.63 446.94 280.98" fill="#f0836d" fill-rule="evenodd" group-id="1,4,73" id="Fill-1085" node-id="116" stroke="none" target-height="12.100555" target-width="12.1441345" target-x="434.79202" target-y="274.92557"></path></g><g node-id="640"><path d="M 220.63 127.32 C 218.22 127.32 216.27 125.37 216.27 122.97 C 216.27 120.57 218.22 118.63 220.63 118.63 C 220.75 118.63 220.87 118.63 220.99 118.64 C 221.88 116.10 224.31 114.27 227.16 114.27 C 230.03 114.27 232.46 116.11 233.34 118.66 C 233.52 118.64 233.70 118.63 233.88 118.63 C 234.57 118.63 235.22 118.79 235.80 119.07 C 236.75 117.32 238.60 116.12 240.74 116.12 C 243.84 116.12 246.35 118.63 246.35 121.72 C 246.35 124.81 243.84 127.32 240.74 127.32 L 220.63 127.32 Z" fill="#ffffff" fill-rule="evenodd" group-id="1,5" id="Fill-1098" node-id="118" stroke="none" target-height="13.04451" target-width="30.081757" target-x="216.27255" target-y="114.27203"></path><path d="M 136.85 134.89 C 139.84 134.89 142.26 132.47 142.26 129.50 C 142.26 126.52 139.84 124.10 136.85 124.10 C 136.20 124.10 135.58 124.22 135.01 124.43 C 134.07 120.85 130.81 118.21 126.92 118.21 C 123.17 118.21 119.99 120.68 118.94 124.08 C 118.07 123.56 117.05 123.26 115.96 123.26 C 112.74 123.26 110.13 125.86 110.13 129.08 C 110.13 132.29 112.74 134.89 115.96 134.89 L 136.85 134.89 Z" fill="#ffffff" fill-rule="evenodd" group-id="1,5" id="Fill-1100" node-id="119" stroke="none" target-height="16.678192" target-width="32.127304" target-x="110.13162" target-y="118.21083"></path><path d="M 452.68 134.00 C 457.46 134.00 461.33 130.13 461.33 125.36 C 461.33 120.59 457.46 116.72 452.68 116.72 C 451.64 116.72 450.64 116.91 449.72 117.25 C 448.22 111.52 442.99 107.29 436.77 107.29 C 430.76 107.29 425.67 111.25 423.98 116.69 C 422.58 115.86 420.96 115.37 419.21 115.37 C 414.06 115.37 409.88 119.54 409.88 124.69 C 409.88 129.83 414.06 134.00 419.21 134.00 L 452.68 134.00 Z" fill="#ffffff" fill-rule="evenodd" group-id="1,5" id="Fill-1102" node-id="120" stroke="none" target-height="26.712616" target-width="51.45639" target-x="409.87808" target-y="107.28667"></path></g></g></svg>