<?xml version="1.0" standalone="no"?><!DOCTYPE svg PUBLIC "-//W3C//DTD SVG 1.1//EN" "http://www.w3.org/Graphics/SVG/1.1/DTD/svg11.dtd"><svg height="131" node-id="1" sillyvg="true" template-height="131" template-width="137" version="1.1" viewBox="0 0 137 131" width="137" xmlns="http://www.w3.org/2000/svg" xmlns:xlink="http://www.w3.org/1999/xlink"><defs node-id="69"></defs><g node-id="71"><g node-id="72"><path d="M 135.13 64.99 C 128.51 102.38 101.38 130.39 68.93 130.39 C 37.06 130.39 10.33 103.41 3.08 67.05 C 10.86 89.46 37.33 105.95 68.78 105.95 C 101.18 105.95 128.31 88.45 135.13 64.99" fill="#ffffff" fill-rule="evenodd" group-id="1,2" id="Fill-389" node-id="9" stroke="none" target-height="65.39584" target-width="132.05" target-x="3.0802498" target-y="64.99159"></path><path d="M 122.21 43.26 C 122.18 43.36 122.03 43.61 121.81 44.01 C 121.61 43.86 121.41 43.71 121.21 43.59 C 121.85 43.41 122.13 43.28 122.21 43.26" fill="#ffffff" fill-rule="evenodd" group-id="1,2" id="Fill-391" node-id="10" stroke="none" target-height="0.7528305" target-width="1" target-x="121.2055" target-y="43.259388"></path><path d="M 93.63 58.64 L 93.56 58.64 C 93.53 58.62 93.53 58.59 93.56 58.54 C 93.58 58.57 93.60 58.59 93.63 58.64" fill="#ffffff" fill-rule="evenodd" group-id="1,2" id="Fill-393" node-id="11" stroke="none" target-height="0.10037613" target-width="0.099990845" target-x="93.52901" target-y="58.54159"></path><path d="M 32.05 24.81 C 32.58 23.71 33.78 23.21 34.75 23.69 C 36.53 24.51 37.23 27.30 37.23 27.30 C 34.78 28.48 32.95 27.73 32.95 27.73 C 31.98 27.27 31.53 25.92 32.05 24.81" fill="#ffffff" fill-rule="evenodd" group-id="1,2" id="Fill-395" node-id="12" stroke="none" target-height="5.2698097" target-width="5.700001" target-x="31.529251" target-y="23.208761"></path><path d="M 36.36 23.16 C 36.36 22.08 37.38 21.08 38.60 21.08 C 39.81 21.08 40.78 21.95 40.78 23.03 C 40.78 25.02 38.60 26.85 38.60 26.85 C 36.46 25.14 36.36 23.16 36.36 23.16" fill="#ffffff" fill-rule="evenodd" group-id="1,2" id="Fill-397" node-id="13" stroke="none" target-height="5.771698" target-width="4.424999" target-x="36.356" target-y="21.07549"></path><path d="M 42.41 30.14 C 43.03 31.01 42.80 32.42 41.83 33.15 C 40.86 33.85 39.53 33.72 38.91 32.85 C 37.76 31.26 38.43 28.48 38.43 28.48 C 41.16 28.60 42.41 30.14 42.41 30.14" fill="#ffffff" fill-rule="evenodd" group-id="1,2" id="Fill-399" node-id="14" stroke="none" target-height="5.3701897" target-width="5.2750015" target-x="37.75575" target-y="28.479073"></path><path d="M 39.41 27.50 C 40.50 24.99 42.38 24.36 42.38 24.36 C 43.41 24.09 44.63 24.81 44.96 25.99 C 45.28 27.15 44.68 28.33 43.63 28.63 C 41.75 29.13 39.41 27.50 39.41 27.50" fill="#ffffff" fill-rule="evenodd" group-id="1,2" id="Fill-401" node-id="15" stroke="none" target-height="5.0439587" target-width="5.874996" target-x="39.40525" target-y="24.086813"></path><path d="M 20.33 31.54 C 19.05 31.97 17.86 32.49 16.73 33.17 C 17.68 31.47 18.78 29.83 20.01 28.25 C 20.01 29.38 20.11 30.46 20.33 31.54" fill="#ffffff" fill-rule="evenodd" group-id="1,2" id="Fill-403" node-id="16" stroke="none" target-height="4.9184895" target-width="3.6000004" target-x="16.7305" target-y="28.253225"></path><path d="M 36.95 32.52 C 36.80 32.69 36.63 32.87 36.40 32.97 C 35.35 32.39 34.23 31.89 33.05 31.51 C 32.93 30.94 33.03 30.36 33.38 29.88 C 34.58 28.33 37.43 28.23 37.43 28.23 C 38.08 30.89 36.95 32.52 36.95 32.52" fill="#ffffff" fill-rule="evenodd" group-id="1,2" id="Fill-405" node-id="17" stroke="none" target-height="4.7428303" target-width="5.147499" target-x="32.9315" target-y="28.227377"></path><path d="M 25.25 50.11 C 22.13 51.64 19.78 50.66 19.78 50.66 C 18.53 50.06 17.95 48.33 18.61 46.92 C 19.28 45.52 20.83 44.87 22.08 45.47 C 24.36 46.55 25.25 50.11 25.25 50.11" fill="#ffffff" fill-rule="evenodd" group-id="1,2" id="Fill-407" node-id="18" stroke="none" target-height="6.7754745" target-width="7.299999" target-x="17.955" target-y="44.865425"></path><path d="M 24.91 56.79 C 24.05 57.89 22.23 58.09 21.00 57.14 C 19.78 56.18 19.48 54.53 20.33 53.42 C 21.88 51.44 25.50 51.32 25.50 51.32 C 26.33 54.70 24.91 56.79 24.91 56.79" fill="#ffffff" fill-rule="evenodd" group-id="1,2" id="Fill-409" node-id="19" stroke="none" target-height="6.7754784" target-width="6.8475018" target-x="19.48075" target-y="51.31517"></path><path d="M 31.13 57.59 C 29.88 58.52 28.20 58.34 27.38 57.21 C 25.90 55.18 26.81 51.62 26.81 51.62 C 30.28 51.79 31.88 53.75 31.88 53.75 C 32.71 54.88 32.38 56.68 31.13 57.59" fill="#ffffff" fill-rule="evenodd" group-id="1,2" id="Fill-411" node-id="20" stroke="none" target-height="6.9009476" target-width="6.8025017" target-x="25.904" target-y="51.615803"></path><path d="M 33.46 51.82 C 31.03 52.47 28.06 50.36 28.06 50.36 C 29.43 47.15 31.83 46.37 31.83 46.37 C 33.18 46.00 34.73 46.92 35.16 48.43 C 35.56 49.93 34.81 51.44 33.46 51.82" fill="#ffffff" fill-rule="evenodd" group-id="1,2" id="Fill-413" node-id="21" stroke="none" target-height="6.4743385" target-width="7.5" target-x="28.0555" target-y="45.995174"></path><path d="M 86.85 9.03 C 79.55 12.19 70.73 20.10 66.73 24.26 C 66.03 24.99 65.38 25.84 64.75 26.75 C 61.53 26.50 58.28 26.80 56.55 27.02 C 56.10 19.65 51.28 13.42 44.65 10.99 C 52.03 8.30 60.25 6.80 68.93 6.80 C 75.18 6.80 81.20 7.57 86.85 9.03" fill="#ffffff" fill-rule="evenodd" group-id="1,2" id="Fill-415" node-id="22" stroke="none" target-height="20.226036" target-width="42.199997" target-x="44.654" target-y="6.7970624"></path><path d="M 32.68 77.46 C 32.68 78.01 32.21 78.49 31.65 78.49 C 31.08 78.49 30.63 78.01 30.63 77.46 C 30.63 76.89 31.08 76.43 31.65 76.43 C 32.21 76.43 32.68 76.89 32.68 77.46" fill="#ffffff" fill-rule="evenodd" group-id="1,2" id="Fill-417" node-id="23" stroke="none" target-height="2.0577393" target-width="2.0475006" target-x="30.631748" target-y="76.43385"></path><path d="M 44.43 81.55 C 44.43 83.11 43.15 84.39 41.60 84.39 C 40.05 84.39 38.78 83.11 38.78 81.55 C 38.78 80.00 40.05 78.72 41.60 78.72 C 43.15 78.72 44.43 80.00 44.43 81.55" fill="#ffe063" fill-rule="evenodd" group-id="1,2" id="Fill-419" node-id="24" stroke="none" target-height="5.6713257" target-width="5.6499977" target-x="38.77975" target-y="78.717186"></path><path d="M 46.16 71.32 C 46.16 72.97 44.83 74.30 43.18 74.30 C 41.53 74.30 40.21 72.97 40.21 71.32 C 40.21 69.66 41.53 68.33 43.18 68.33 C 44.83 68.33 46.16 69.66 46.16 71.32" fill="#ebbe1b" fill-rule="evenodd" group-id="1,2" id="Fill-421" node-id="25" stroke="none" target-height="5.972458" target-width="5.949997" target-x="40.20575" target-y="68.32913"></path><path d="M 55.33 81.20 C 55.33 82.38 54.35 83.36 53.18 83.36 C 51.98 83.36 51.01 82.38 51.01 81.20 C 51.01 80.00 51.98 79.04 53.18 79.04 C 54.35 79.04 55.33 80.00 55.33 81.20" fill="#ffe063" fill-rule="evenodd" group-id="1,2" id="Fill-423" node-id="26" stroke="none" target-height="4.316231" target-width="4.3250046" target-x="51.005497" target-y="79.04442"></path><path d="M 66.46 88.08 C 66.46 89.73 65.13 91.06 63.48 91.06 C 61.83 91.06 60.50 89.73 60.50 88.08 C 60.50 86.42 61.83 85.09 63.48 85.09 C 65.13 85.09 66.46 86.42 66.46 88.08" fill="#ebbe1b" fill-rule="evenodd" group-id="1,2" id="Fill-425" node-id="27" stroke="none" target-height="5.972458" target-width="5.9524994" target-x="60.5035" target-y="85.0914"></path><path d="M 77.38 88.13 C 76.85 88.68 76.13 88.98 75.33 88.98 C 73.68 88.98 72.35 87.65 72.35 85.99 C 72.35 84.49 73.46 83.23 74.91 83.03 C 74.98 83.38 75.05 83.76 75.18 84.11 C 75.66 85.62 76.40 86.95 77.38 88.13" fill="#ffe063" fill-rule="evenodd" group-id="1,2" id="Fill-427" node-id="28" stroke="none" target-height="5.947365" target-width="5.0250015" target-x="72.354" target-y="83.03367"></path><path d="M 84.68 56.63 C 84.58 56.58 84.45 56.56 84.35 56.51 C 84.43 56.51 84.48 56.48 84.55 56.48 C 84.58 56.53 84.63 56.58 84.68 56.63" fill="#ffffff" fill-rule="evenodd" group-id="1,2" id="Fill-429" node-id="29" stroke="none" target-height="0.1505661" target-width="0.32499695" target-x="84.35375" target-y="56.484356"></path><path d="M 112.33 22.36 C 105.95 22.41 99.20 22.18 94.28 24.04 C 93.68 24.26 93.11 24.54 92.53 24.84 C 94.05 22.18 95.70 19.39 97.28 17.71 C 98.43 16.46 99.25 15.13 99.81 13.87 C 104.50 16.18 108.73 19.07 112.33 22.36" fill="#ffffff" fill-rule="evenodd" group-id="1,2" id="Fill-431" node-id="30" stroke="none" target-height="10.966227" target-width="19.800003" target-x="92.53" target-y="13.873917"></path><path d="M 136.83 53.37 C 136.83 57.36 136.26 61.25 135.13 64.99 C 136.03 60.07 136.55 54.98 136.65 49.76 C 136.78 50.96 136.83 52.17 136.83 53.37" fill="#ffffff" fill-rule="evenodd" group-id="1,2" id="Fill-433" node-id="31" stroke="none" target-height="15.232265" target-width="1.699997" target-x="135.1295" target-y="49.75832"></path><path d="M 135.13 64.99 C 128.51 102.38 101.38 130.39 68.93 130.39 C 37.06 130.39 10.33 103.41 3.08 67.05 C 10.86 89.46 37.33 105.95 68.78 105.95 C 101.18 105.95 128.31 88.45 135.13 64.99" fill="#b6d3ff" fill-rule="evenodd" group-id="1,2" id="Fill-435" node-id="32" stroke="none" target-height="65.39584" target-width="132.05" target-x="3.0802498" target-y="64.99159"></path><path d="M 136.65 49.76 C 136.55 54.98 136.03 60.07 135.13 64.99 C 128.30 88.45 101.18 105.94 68.78 105.94 C 37.33 105.94 10.86 89.46 3.08 67.05 C 1.53 62.68 0.73 58.11 0.73 53.37 C 0.73 51.44 0.86 49.51 1.13 47.63 C 4.85 21.30 33.73 0.80 68.78 0.80 C 80.68 0.80 91.83 3.16 101.58 7.32 L 101.60 7.32 C 109.88 10.84 117.11 15.66 122.83 21.45 C 119.78 22.18 116.13 22.31 112.33 22.36 C 108.73 19.07 104.51 16.18 99.81 13.87 C 100.53 12.29 100.78 10.86 100.68 9.98 C 100.46 8.43 99.51 8.35 99.51 8.35 C 99.51 8.35 99.48 8.33 99.45 8.30 C 99.15 8.00 97.18 6.32 90.21 7.88 C 89.15 8.10 88.03 8.50 86.85 9.03 C 81.20 7.57 75.18 6.80 68.93 6.80 C 60.25 6.80 52.03 8.30 44.65 10.99 C 42.68 10.23 40.56 9.83 38.30 9.83 C 28.20 9.83 20.01 18.09 20.01 28.23 L 20.01 28.25 C 18.78 29.83 17.68 31.46 16.73 33.17 C 10.68 36.63 6.60 43.18 6.60 50.69 C 6.60 56.84 9.35 62.36 13.68 66.04 C 14.41 66.70 15.21 67.27 16.03 67.78 C 24.48 84.01 44.98 95.46 68.93 95.46 C 75.25 95.46 81.33 94.65 87.01 93.17 C 89.58 93.52 92.38 93.30 95.13 92.42 C 95.98 92.14 96.81 91.84 97.58 91.47 C 98.38 91.09 99.15 90.64 99.88 90.16 C 101.43 90.44 103.90 90.66 106.36 90.14 C 110.43 89.26 124.78 78.64 126.65 72.42 C 127.58 69.41 127.58 66.75 126.91 64.24 C 126.53 62.61 125.86 61.05 124.98 59.55 C 125.66 56.81 126.00 54.00 126.00 51.11 C 126.00 50.39 125.98 49.66 125.93 48.93 C 125.60 43.64 124.08 38.57 121.55 33.90 C 123.83 30.86 125.28 27.75 126.20 25.17 C 132.13 32.37 135.88 40.75 136.65 49.76" fill="#e4eef6" fill-rule="evenodd" group-id="1,2" id="Fill-437" node-id="33" stroke="none" target-height="105.14529" target-width="135.9225" target-x="0.73125005" target-y="0.79951525"></path><path d="M 104.48 85.79 C 103.30 87.48 101.73 88.96 99.88 90.16 C 99.15 90.64 98.38 91.09 97.58 91.47 C 96.81 91.84 95.98 92.14 95.13 92.42 C 92.38 93.30 89.58 93.52 87.01 93.17 C 83.10 92.67 79.63 90.89 77.38 88.13 C 76.41 86.95 75.66 85.62 75.18 84.11 C 75.05 83.76 74.98 83.39 74.91 83.03 L 75.05 83.03 C 75.05 83.06 75.08 83.08 75.11 83.11 C 75.63 84.64 76.71 85.92 78.16 86.90 C 81.81 89.38 87.83 89.96 93.96 88.03 L 93.98 88.03 C 95.23 87.63 96.41 87.15 97.51 86.60 C 103.33 83.71 107.05 78.92 106.78 74.53 C 107.88 78.39 106.93 82.43 104.48 85.79" fill="#d83227" fill-rule="evenodd" group-id="1,2" id="Fill-439" node-id="34" stroke="none" target-height="18.996414" target-width="32.972504" target-x="74.906" target-y="74.527435"></path><path d="M 20.33 31.54 C 19.05 31.97 17.86 32.49 16.73 33.17 C 17.68 31.47 18.78 29.83 20.01 28.25 C 20.01 29.38 20.11 30.46 20.33 31.54" fill="#ffffff" fill-rule="evenodd" group-id="1,2" id="Fill-441" node-id="35" stroke="none" target-height="4.9184895" target-width="3.6000004" target-x="16.7305" target-y="28.253225"></path><path d="M 84.35 56.51 C 83.70 56.61 83.05 56.76 82.41 56.96 C 76.53 58.84 72.88 64.56 73.28 70.61 C 70.66 70.61 66.38 70.19 63.16 67.70 C 58.16 63.84 54.30 63.21 49.75 64.01 C 47.01 64.49 43.86 64.26 41.80 64.01 C 44.93 60.45 46.83 55.78 46.83 50.69 C 46.83 48.68 46.53 46.75 45.98 44.92 C 48.88 43.59 51.38 41.50 53.23 38.89 C 53.98 39.22 54.88 39.80 55.50 40.72 C 56.73 42.56 55.23 44.54 55.98 46.80 C 56.10 47.15 56.30 47.47 56.60 47.78 C 58.00 49.33 61.08 50.06 61.08 50.06 C 61.08 50.06 62.98 49.66 66.60 49.86 C 67.63 49.91 68.48 50.03 69.23 50.24 C 70.60 50.56 71.70 51.06 73.03 51.74 C 73.56 51.99 74.10 52.29 74.75 52.59 C 76.68 53.52 81.16 55.28 84.35 56.51" fill="#409d4d" fill-rule="evenodd" group-id="1,2" id="Fill-443" node-id="36" stroke="none" target-height="31.719246" target-width="42.549995" target-x="41.804" target-y="38.89247"></path><path d="M 56.63 28.23 C 56.63 32.19 55.38 35.88 53.23 38.89 C 51.38 41.50 48.88 43.59 45.98 44.92 C 45.65 43.74 45.21 42.63 44.65 41.55 C 49.63 39.19 53.05 34.12 53.05 28.23 C 53.05 20.25 46.73 13.75 38.83 13.47 C 38.66 13.45 38.48 13.45 38.30 13.45 C 31.88 13.45 26.40 17.59 24.40 23.38 C 23.86 24.89 23.58 26.52 23.58 28.23 C 23.58 29.06 23.66 29.88 23.80 30.69 C 22.61 30.86 21.46 31.16 20.33 31.54 C 20.11 30.46 20.01 29.38 20.01 28.25 L 20.01 28.23 C 20.01 18.09 28.20 9.83 38.30 9.83 C 40.55 9.83 42.68 10.23 44.65 10.99 C 51.28 13.42 56.10 19.65 56.55 27.02 C 56.60 27.42 56.63 27.83 56.63 28.23" fill="#2c7e45" fill-rule="evenodd" group-id="1,2" id="Fill-445" node-id="37" stroke="none" target-height="35.081886" target-width="36.6225" target-x="20.007" target-y="9.833226"></path><path d="M 43.63 28.63 C 41.75 29.13 39.41 27.50 39.41 27.50 C 40.50 24.99 42.38 24.36 42.38 24.36 C 43.40 24.09 44.63 24.82 44.95 25.99 C 45.28 27.15 44.68 28.33 43.63 28.63 M 41.83 33.15 C 40.86 33.85 39.53 33.72 38.90 32.85 C 37.75 31.26 38.43 28.48 38.43 28.48 C 41.16 28.60 42.41 30.14 42.41 30.14 C 43.03 31.01 42.80 32.42 41.83 33.15 M 36.36 23.16 C 36.36 22.08 37.38 21.08 38.60 21.08 C 39.81 21.08 40.78 21.95 40.78 23.03 C 40.78 25.02 38.60 26.85 38.60 26.85 C 36.46 25.14 36.36 23.16 36.36 23.16 M 32.95 27.73 C 31.98 27.27 31.53 25.92 32.05 24.82 C 32.58 23.71 33.78 23.21 34.75 23.69 C 36.53 24.51 37.23 27.30 37.23 27.30 C 34.78 28.48 32.95 27.73 32.95 27.73 M 38.83 13.47 C 38.66 13.45 38.48 13.45 38.30 13.45 C 31.88 13.45 26.40 17.59 24.41 23.38 C 23.86 24.89 23.58 26.52 23.58 28.23 C 23.58 29.06 23.66 29.88 23.80 30.69 C 24.75 30.56 25.73 30.49 26.73 30.49 C 28.93 30.49 31.08 30.84 33.06 31.52 C 32.93 30.94 33.03 30.36 33.38 29.88 C 34.58 28.33 37.43 28.23 37.43 28.23 C 38.08 30.89 36.95 32.52 36.95 32.52 C 36.81 32.69 36.63 32.87 36.40 32.97 C 39.93 34.93 42.83 37.94 44.65 41.55 C 49.63 39.19 53.06 34.13 53.06 28.23 C 53.06 20.25 46.73 13.75 38.83 13.47" fill="#dbefc0" fill-rule="evenodd" group-id="1,2" id="Fill-447" node-id="38" stroke="none" target-height="28.10566" target-width="29.477499" target-x="23.579" target-y="13.447314"></path><path d="M 37.13 63.11 C 34.33 65.49 30.68 66.92 26.73 66.92 C 22.18 66.92 18.05 65.04 15.13 61.98 C 14.16 61.00 13.33 59.92 12.68 58.72 L 12.68 58.69 C 11.30 56.33 10.55 53.60 10.55 50.69 C 10.55 47.55 11.43 44.64 12.98 42.18 L 12.98 42.16 C 14.90 38.99 17.91 36.56 21.45 35.36 C 22.58 34.93 23.78 34.68 25.00 34.55 L 25.00 34.53 C 25.55 34.48 26.16 34.45 26.73 34.45 C 32.78 34.45 38.08 37.81 40.83 42.78 C 41.43 43.84 41.91 44.99 42.23 46.20 C 42.66 47.63 42.88 49.13 42.88 50.69 C 42.88 55.66 40.66 60.12 37.13 63.11 M 45.98 44.92 C 45.65 43.74 45.20 42.63 44.66 41.55 C 42.83 37.94 39.93 34.93 36.41 32.97 C 35.35 32.39 34.23 31.89 33.05 31.52 C 31.08 30.84 28.93 30.49 26.73 30.49 C 25.73 30.49 24.76 30.56 23.80 30.69 C 22.61 30.86 21.45 31.16 20.33 31.54 C 19.05 31.97 17.86 32.49 16.73 33.17 C 10.68 36.63 6.61 43.18 6.61 50.69 C 6.61 56.84 9.36 62.36 13.68 66.05 C 14.40 66.70 15.21 67.28 16.03 67.78 C 19.13 69.76 22.80 70.89 26.73 70.89 C 32.76 70.89 38.16 68.23 41.80 64.01 C 44.93 60.45 46.83 55.78 46.83 50.69 C 46.83 48.68 46.53 46.75 45.98 44.92" fill="#2c7e45" fill-rule="evenodd" group-id="1,2" id="Fill-449" node-id="39" stroke="none" target-height="40.401886" target-width="40.225002" target-x="6.6050005" target-y="30.486872"></path><path d="M 33.46 51.82 C 31.03 52.47 28.06 50.36 28.06 50.36 C 29.43 47.15 31.83 46.37 31.83 46.37 C 33.18 46.00 34.73 46.92 35.16 48.43 C 35.56 49.93 34.81 51.44 33.46 51.82 M 31.13 57.59 C 29.88 58.52 28.20 58.34 27.38 57.21 C 25.90 55.18 26.81 51.62 26.81 51.62 C 30.28 51.79 31.88 53.75 31.88 53.75 C 32.71 54.88 32.38 56.69 31.13 57.59 M 24.13 44.79 C 24.13 43.59 25.16 42.46 26.43 42.18 C 26.63 42.16 26.81 42.13 27.01 42.13 C 28.48 42.13 29.71 43.16 29.78 44.49 C 29.81 44.54 29.81 44.61 29.81 44.67 C 29.81 47.17 27.01 49.53 27.01 49.53 C 24.28 47.33 24.13 44.79 24.13 44.79 M 24.91 56.79 C 24.05 57.89 22.23 58.09 21.01 57.14 C 19.78 56.18 19.48 54.53 20.33 53.42 C 21.88 51.44 25.50 51.32 25.50 51.32 C 26.33 54.70 24.91 56.79 24.91 56.79 M 18.61 46.92 C 19.28 45.52 20.83 44.87 22.08 45.47 C 24.35 46.55 25.26 50.11 25.26 50.11 C 22.13 51.64 19.78 50.66 19.78 50.66 C 18.53 50.06 17.96 48.33 18.61 46.92 M 42.23 46.20 C 41.91 44.99 41.43 43.84 40.83 42.78 C 38.08 37.81 32.78 34.45 26.73 34.45 C 26.16 34.45 25.56 34.48 25.01 34.53 L 25.01 34.55 C 23.78 34.68 22.58 34.93 21.46 35.36 C 17.90 36.56 14.91 38.99 12.98 42.16 L 12.98 42.18 C 11.43 44.64 10.56 47.55 10.56 50.69 C 10.56 53.60 11.31 56.33 12.68 58.69 L 12.68 58.72 C 13.33 59.92 14.15 61.00 15.13 61.98 C 18.06 65.04 22.18 66.92 26.73 66.92 C 30.68 66.92 34.33 65.49 37.13 63.11 C 40.66 60.12 42.88 55.66 42.88 50.69 C 42.88 49.13 42.66 47.63 42.23 46.20" fill="#dbefc0" fill-rule="evenodd" group-id="1,2" id="Fill-451" node-id="40" stroke="none" target-height="32.472073" target-width="32.325" target-x="10.555499" target-y="34.45178"></path><path d="M 29.81 44.66 C 29.81 47.17 27.01 49.53 27.01 49.53 C 24.28 47.32 24.13 44.79 24.13 44.79 C 24.13 43.59 25.16 42.46 26.43 42.18 C 26.63 42.16 26.81 42.13 27.01 42.13 C 28.48 42.13 29.71 43.16 29.78 44.49 C 29.81 44.54 29.81 44.61 29.81 44.66" fill="#ffffff" fill-rule="evenodd" group-id="1,2" id="Fill-453" node-id="41" stroke="none" target-height="7.402832" target-width="5.6775" target-x="24.12825" target-y="42.130394"></path><path d="M 33.46 51.82 C 31.03 52.47 28.06 50.36 28.06 50.36 C 29.43 47.15 31.83 46.37 31.83 46.37 C 33.18 46.00 34.73 46.92 35.16 48.43 C 35.56 49.93 34.81 51.44 33.46 51.82" fill="#ffffff" fill-rule="evenodd" group-id="1,2" id="Fill-455" node-id="42" stroke="none" target-height="6.4743385" target-width="7.5" target-x="28.0555" target-y="45.995174"></path><path d="M 31.13 57.59 C 29.88 58.52 28.20 58.34 27.38 57.21 C 25.90 55.18 26.81 51.62 26.81 51.62 C 30.28 51.79 31.88 53.75 31.88 53.75 C 32.71 54.88 32.38 56.68 31.13 57.59" fill="#ffffff" fill-rule="evenodd" group-id="1,2" id="Fill-457" node-id="43" stroke="none" target-height="6.9009476" target-width="6.8025017" target-x="25.904" target-y="51.615803"></path><path d="M 24.91 56.79 C 24.05 57.89 22.23 58.09 21.00 57.14 C 19.78 56.18 19.48 54.53 20.33 53.42 C 21.88 51.44 25.50 51.32 25.50 51.32 C 26.33 54.70 24.91 56.79 24.91 56.79" fill="#ffffff" fill-rule="evenodd" group-id="1,2" id="Fill-459" node-id="44" stroke="none" target-height="6.7754784" target-width="6.8475018" target-x="19.48075" target-y="51.31517"></path><path d="M 25.25 50.11 C 22.13 51.64 19.78 50.66 19.78 50.66 C 18.53 50.06 17.95 48.33 18.61 46.92 C 19.28 45.52 20.83 44.87 22.08 45.47 C 24.36 46.55 25.25 50.11 25.25 50.11" fill="#ffffff" fill-rule="evenodd" group-id="1,2" id="Fill-461" node-id="45" stroke="none" target-height="6.7754745" target-width="7.299999" target-x="17.955" target-y="44.865425"></path><path d="M 95.93 66.45 C 95.70 66.45 95.50 66.42 95.28 66.42 C 92.83 66.37 90.18 66.72 87.51 67.58 C 83.76 68.75 80.58 70.71 78.33 73.00 C 77.03 74.30 76.03 75.73 75.40 77.19 C 75.33 77.09 75.25 76.99 75.21 76.86 C 74.65 75.96 74.21 74.98 73.88 73.92 C 73.56 72.82 73.33 71.72 73.28 70.61 C 72.88 64.56 76.53 58.84 82.41 56.96 C 83.06 56.76 83.70 56.61 84.35 56.51 C 84.45 56.56 84.58 56.58 84.68 56.63 C 84.63 56.58 84.58 56.53 84.55 56.48 C 84.68 56.46 84.78 56.46 84.91 56.43 C 87.98 56.08 91.03 56.89 93.56 58.54 C 93.53 58.59 93.53 58.62 93.56 58.64 C 93.68 60.95 94.25 63.13 95.23 65.12 C 95.28 65.29 95.38 65.47 95.48 65.64 C 95.60 65.92 95.76 66.20 95.93 66.45" fill="#bc202d" fill-rule="evenodd" group-id="1,2" id="Fill-463" node-id="46" stroke="none" target-height="21.104336" target-width="23.049995" target-x="72.87875" target-y="56.082096"></path><path d="M 126.00 51.11 C 126.00 54.00 125.65 56.81 124.98 59.55 C 124.43 58.57 123.80 57.59 123.13 56.61 C 121.16 53.80 118.88 51.34 117.33 49.81 C 119.65 47.47 121.13 45.19 121.80 44.01 C 122.03 43.61 122.18 43.36 122.20 43.26 C 122.13 43.28 121.85 43.41 121.20 43.59 C 120.11 43.86 117.95 44.26 114.05 44.46 C 110.58 44.64 108.20 44.41 106.78 44.14 C 109.81 43.28 112.38 42.05 114.60 40.55 C 117.51 38.64 119.81 36.31 121.55 33.90 C 124.08 38.57 125.60 43.64 125.93 48.93 C 125.98 49.66 126.00 50.39 126.00 51.11" fill="#fffcfe" fill-rule="evenodd" group-id="1,2" id="Fill-465" node-id="47" stroke="none" target-height="25.646412" target-width="19.222504" target-x="106.782" target-y="33.89895"></path><path d="M 92.28 82.21 C 92.01 83.23 91.50 84.19 90.80 84.97 C 89.61 86.40 87.78 87.30 85.76 87.30 C 82.21 87.30 79.28 84.51 79.03 81.00 C 79.00 80.85 79.00 80.70 79.00 80.52 C 79.00 78.62 79.81 76.86 81.08 75.63 C 82.31 74.45 83.93 73.75 85.76 73.75 C 89.45 73.75 92.48 76.79 92.48 80.52 C 92.48 81.10 92.41 81.68 92.28 82.21 M 106.75 74.40 C 106.75 73.85 106.65 73.32 106.48 72.80 C 105.88 70.94 104.58 69.43 102.75 68.38 C 102.73 68.35 102.71 68.33 102.68 68.33 L 102.65 68.30 C 101.71 67.73 100.58 67.30 99.38 66.97 C 98.30 66.70 97.13 66.52 95.93 66.45 C 95.70 66.45 95.50 66.42 95.28 66.42 C 92.83 66.37 90.18 66.72 87.51 67.58 C 83.76 68.76 80.58 70.71 78.33 73.00 C 77.03 74.30 76.03 75.73 75.40 77.19 C 74.88 78.44 74.61 79.70 74.68 80.93 C 74.68 81.20 74.71 81.48 74.73 81.73 C 74.78 82.11 74.88 82.46 74.98 82.81 C 75.01 82.88 75.03 82.96 75.05 83.03 C 75.05 83.06 75.08 83.08 75.11 83.11 C 75.63 84.64 76.71 85.92 78.16 86.90 C 81.81 89.38 87.83 89.96 93.96 88.03 L 93.98 88.03 C 95.23 87.63 96.40 87.15 97.51 86.60 C 103.33 83.71 107.05 78.92 106.78 74.53 L 106.78 74.45 C 106.78 74.43 106.78 74.43 106.75 74.40" fill="#ff714d" fill-rule="evenodd" group-id="1,2" id="Fill-467" node-id="48" stroke="none" target-height="23.588684" target-width="32.447502" target-x="74.60625" target-y="66.37153"></path><path d="M 92.48 80.52 C 92.48 81.10 92.41 81.68 92.28 82.21 C 92.01 83.23 91.50 84.19 90.80 84.97 C 89.61 86.40 87.78 87.30 85.76 87.30 C 82.21 87.30 79.28 84.51 79.03 81.00 C 79.00 80.85 79.00 80.70 79.00 80.52 C 79.00 78.62 79.81 76.86 81.08 75.63 C 82.31 74.45 83.93 73.75 85.76 73.75 C 89.45 73.75 92.48 76.79 92.48 80.52" fill="#fbc2a7" fill-rule="evenodd" group-id="1,2" id="Fill-469" node-id="49" stroke="none" target-height="13.550949" target-width="13.474998" target-x="79.004" target-y="73.74926"></path><path d="M 121.65 71.27 C 120.66 72.07 119.55 72.75 118.38 73.30 C 116.13 74.40 113.58 75.03 110.88 75.03 C 109.45 75.03 108.08 74.85 106.78 74.53 L 106.78 74.45 C 106.78 74.43 106.78 74.43 106.75 74.40 C 106.75 73.85 106.65 73.32 106.48 72.80 C 105.88 70.94 104.58 69.43 102.75 68.38 C 102.73 68.35 102.71 68.33 102.68 68.33 L 102.65 68.30 C 101.71 67.73 100.58 67.30 99.38 66.97 C 98.30 66.70 97.13 66.52 95.93 66.45 C 95.76 66.20 95.60 65.92 95.48 65.64 C 95.38 65.47 95.28 65.29 95.23 65.12 C 94.25 63.13 93.68 60.95 93.56 58.64 L 93.63 58.64 C 93.60 58.59 93.58 58.57 93.56 58.54 C 93.50 58.24 93.50 57.91 93.50 57.59 C 93.50 54.25 94.45 51.11 96.08 48.45 L 100.38 52.29 L 105.28 56.64 L 120.46 70.19 L 121.65 71.27 Z" fill="#da4a37" fill-rule="evenodd" group-id="1,2" id="Fill-471" node-id="50" stroke="none" target-height="26.57491" target-width="28.149994" target-x="93.50375" target-y="48.45442"></path><path d="M 126.65 72.42 C 124.78 78.64 110.43 89.26 106.36 90.14 C 103.90 90.66 101.43 90.44 99.88 90.16 C 101.73 88.96 103.30 87.48 104.48 85.79 C 106.93 82.43 107.88 78.39 106.78 74.53 C 108.08 74.85 109.45 75.03 110.88 75.03 C 113.58 75.03 116.13 74.40 118.38 73.30 C 119.55 72.75 120.66 72.07 121.65 71.27 L 120.46 70.19 L 105.28 56.64 C 107.08 56.13 108.83 55.53 110.40 54.78 C 113.23 53.45 115.53 51.62 117.33 49.81 C 118.88 51.34 121.16 53.80 123.13 56.61 C 123.80 57.59 124.43 58.57 124.98 59.55 C 125.86 61.05 126.53 62.61 126.91 64.24 C 127.58 66.75 127.58 69.41 126.65 72.42" fill="#409d4d" fill-rule="evenodd" group-id="1,2" id="Fill-473" node-id="51" stroke="none" target-height="40.85359" target-width="27.699997" target-x="99.87875" target-y="49.809513"></path><path d="M 127.76 19.29 C 127.76 19.29 127.43 21.75 126.20 25.17 C 125.28 27.75 123.83 30.86 121.56 33.90 C 119.81 36.31 117.50 38.64 114.61 40.55 C 112.38 42.06 109.81 43.28 106.78 44.14 L 106.75 44.14 C 106.33 44.26 105.93 44.39 105.50 44.49 C 105.50 44.49 102.83 45.19 98.36 45.49 C 93.75 45.82 87.23 45.74 79.86 44.01 L 79.86 43.16 C 79.86 43.16 80.70 40.40 82.41 36.94 C 83.28 35.20 84.33 33.30 85.63 31.49 C 87.48 28.86 89.78 26.40 92.50 24.87 L 92.53 24.84 C 93.11 24.54 93.68 24.26 94.28 24.04 C 99.20 22.18 105.95 22.41 112.33 22.36 C 116.13 22.31 119.78 22.18 122.83 21.45 C 124.73 21.00 126.40 20.30 127.76 19.29" fill="#389d4d" fill-rule="evenodd" group-id="1,2" id="Fill-475" node-id="52" stroke="none" target-height="26.524715" target-width="47.9" target-x="79.855" target-y="19.294796"></path><path d="M 63.48 91.06 C 61.83 91.06 60.51 89.73 60.51 88.08 C 60.51 86.42 61.83 85.09 63.48 85.09 C 65.13 85.09 66.45 86.42 66.45 88.08 C 66.45 89.73 65.13 91.06 63.48 91.06 M 53.18 83.36 C 51.98 83.36 51.01 82.38 51.01 81.20 C 51.01 80.00 51.98 79.04 53.18 79.04 C 54.35 79.04 55.33 80.00 55.33 81.20 C 55.33 82.38 54.35 83.36 53.18 83.36 M 43.18 74.30 C 41.53 74.30 40.20 72.97 40.20 71.31 C 40.20 69.66 41.53 68.33 43.18 68.33 C 44.83 68.33 46.16 69.66 46.16 71.31 C 46.16 72.97 44.83 74.30 43.18 74.30 M 41.60 84.39 C 40.05 84.39 38.78 83.11 38.78 81.55 C 38.78 80.00 40.05 78.72 41.60 78.72 C 43.16 78.72 44.43 80.00 44.43 81.55 C 44.43 83.11 43.16 84.39 41.60 84.39 M 31.65 78.49 C 31.08 78.49 30.63 78.01 30.63 77.46 C 30.63 76.89 31.08 76.43 31.65 76.43 C 32.20 76.43 32.68 76.89 32.68 77.46 C 32.68 78.01 32.20 78.49 31.65 78.49 M 77.38 88.13 C 76.86 88.68 76.13 88.98 75.33 88.98 C 73.68 88.98 72.36 87.65 72.36 85.99 C 72.36 84.49 73.45 83.23 74.91 83.03 L 75.06 83.03 C 75.03 82.96 75.00 82.88 74.98 82.81 C 74.88 82.46 74.78 82.10 74.73 81.73 C 74.70 81.48 74.68 81.20 74.68 80.93 C 74.61 79.70 74.88 78.44 75.41 77.19 C 75.33 77.09 75.25 76.99 75.20 76.86 C 74.66 75.96 74.20 74.98 73.88 73.92 C 73.56 72.82 73.33 71.72 73.28 70.61 C 70.66 70.61 66.38 70.19 63.16 67.70 C 58.16 63.84 54.30 63.21 49.76 64.01 C 47.01 64.49 43.85 64.26 41.80 64.01 C 38.16 68.23 32.76 70.89 26.73 70.89 C 22.80 70.89 19.13 69.76 16.03 67.78 C 24.48 84.01 44.98 95.46 68.93 95.46 C 75.25 95.46 81.33 94.65 87.00 93.17 C 83.11 92.67 79.63 90.89 77.38 88.13" fill="#fdd609" fill-rule="evenodd" group-id="1,2" id="Fill-477" node-id="53" stroke="none" target-height="32.24623" target-width="70.975" target-x="16.03" target-y="63.208885"></path><path d="M 32.68 77.46 C 32.68 78.01 32.21 78.49 31.65 78.49 C 31.08 78.49 30.63 78.01 30.63 77.46 C 30.63 76.89 31.08 76.43 31.65 76.43 C 32.21 76.43 32.68 76.89 32.68 77.46" fill="#ffe063" fill-rule="evenodd" group-id="1,2" id="Fill-479" node-id="54" stroke="none" target-height="2.0577393" target-width="2.0475006" target-x="30.631748" target-y="76.43385"></path><path d="M 121.81 44.01 C 121.13 45.19 119.66 47.47 117.33 49.81 C 115.53 51.62 113.23 53.45 110.40 54.78 C 108.83 55.53 107.08 56.13 105.28 56.63 L 100.38 52.29 L 96.08 48.45 C 96.73 47.37 97.48 46.40 98.36 45.49 C 102.83 45.19 105.50 44.49 105.50 44.49 C 105.93 44.39 106.33 44.26 106.75 44.14 L 106.78 44.14 C 108.21 44.41 110.58 44.64 114.05 44.46 C 117.96 44.26 120.11 43.86 121.21 43.59 C 121.41 43.71 121.61 43.86 121.81 44.01" fill="#7a3a7f" fill-rule="evenodd" group-id="1,2" id="Fill-481" node-id="55" stroke="none" target-height="13.049057" target-width="25.724983" target-x="96.08026" target-y="43.585114"></path><path d="M 96.08 48.45 C 94.46 51.11 93.50 54.25 93.50 57.59 C 93.50 57.91 93.50 58.24 93.56 58.54 C 90.93 56.81 87.75 56.03 84.56 56.48 C 84.48 56.48 84.43 56.51 84.36 56.51 C 81.16 55.28 76.68 53.52 74.75 52.59 C 74.11 52.29 73.56 51.99 73.03 51.74 C 71.70 51.06 70.61 50.56 69.23 50.24 C 68.48 50.03 67.63 49.91 66.61 49.86 C 62.98 49.66 61.08 50.06 61.08 50.06 C 61.08 50.06 58.01 49.33 56.60 47.78 C 56.30 47.47 56.10 47.15 55.98 46.80 C 55.23 44.54 56.73 42.56 55.51 40.72 C 54.88 39.80 53.98 39.22 53.23 38.89 C 55.38 35.88 56.63 32.19 56.63 28.23 C 56.63 27.83 56.60 27.42 56.55 27.02 C 58.28 26.80 61.53 26.50 64.75 26.75 C 61.30 31.87 59.26 39.17 59.18 41.20 C 59.13 43.03 62.08 44.01 66.65 43.76 C 68.06 43.69 69.61 43.51 71.28 43.18 C 74.88 42.48 78.95 39.82 82.41 36.94 C 80.70 40.40 79.86 43.16 79.86 43.16 L 79.86 44.01 C 87.23 45.74 93.75 45.82 98.36 45.49 C 97.48 46.40 96.73 47.37 96.08 48.45" fill="#7a3a7f" fill-rule="evenodd" group-id="1,2" id="Fill-483" node-id="56" stroke="none" target-height="32.04547" target-width="45.125004" target-x="53.23" target-y="26.496119"></path><path d="M 122.21 43.26 C 122.18 43.36 122.03 43.61 121.81 44.01 C 121.61 43.86 121.41 43.71 121.21 43.59 C 121.85 43.41 122.13 43.28 122.21 43.26" fill="#7a3a7f" fill-rule="evenodd" group-id="1,2" id="Fill-485" node-id="57" stroke="none" target-height="0.7528305" target-width="1" target-x="121.2055" target-y="43.259388"></path><path d="M 99.81 13.87 C 99.25 15.13 98.43 16.46 97.28 17.71 C 95.70 19.39 94.05 22.18 92.53 24.84 L 92.51 24.87 C 89.78 26.40 87.48 28.86 85.63 31.49 C 84.33 33.30 83.28 35.20 82.41 36.94 C 78.96 39.82 74.88 42.48 71.28 43.18 C 69.61 43.51 68.06 43.69 66.65 43.76 C 62.08 44.01 59.13 43.03 59.18 41.20 C 59.25 39.17 61.31 31.87 64.75 26.75 C 65.38 25.84 66.03 24.99 66.73 24.26 C 70.73 20.10 79.55 12.19 86.85 9.03 C 88.03 8.50 89.15 8.10 90.21 7.88 C 97.18 6.32 99.15 8.00 99.45 8.30 C 99.48 8.33 99.51 8.35 99.51 8.35 C 99.51 8.35 100.46 8.43 100.68 9.98 C 100.78 10.86 100.53 12.29 99.81 13.87" fill="#89d74f" fill-rule="evenodd" group-id="1,2" id="Fill-487" node-id="58" stroke="none" target-height="37.6917" target-width="41.652496" target-x="59.12825" target-y="6.3207717"></path><path d="M 83.10 48.77 C 83.10 48.77 82.34 55.60 87.45 59.01" fill="none" group-id="1,2" id="Stroke-489" node-id="59" stroke="#ffffff" stroke-linecap="round" stroke-width="0.5" target-height="10.246014" target-width="5.104988" target-x="82.344" target-y="48.766094"></path><path d="M 78.17 50.83 C 78.17 50.83 71.19 51.71 69.25 57.15" fill="none" group-id="1,2" id="Stroke-491" node-id="60" stroke="#ffffff" stroke-linecap="round" stroke-width="0.5" target-height="6.3237762" target-width="8.917496" target-x="69.25475" target-y="50.829346"></path><path d="M 73.56 49.33 C 73.56 49.33 67.63 47.39 66.57 41.69" fill="none" group-id="1,2" id="Stroke-493" node-id="61" stroke="#ffffff" stroke-linecap="round" stroke-width="0.5" target-height="7.6362114" target-width="6.9874954" target-x="66.5705" target-y="41.690994"></path><path d="M 65.07 46.64 C 65.07 46.64 58.77 45.82 54.41 50.89" fill="none" group-id="1,2" id="Stroke-495" node-id="62" stroke="#ffffff" stroke-linecap="round" stroke-width="0.5" target-height="5.0715714" target-width="10.665001" target-x="54.40925" target-y="45.82202"></path><path d="M 50.11 54.09 C 50.11 54.09 51.73 56.84 58.96 57.09" fill="none" group-id="1,2" id="Stroke-497" node-id="63" stroke="#ffffff" stroke-linecap="round" stroke-width="0.5" target-height="3.0063019" target-width="8.857506" target-x="50.105995" target-y="54.085087"></path><path d="M 61.52 52.77 C 61.52 52.77 63.70 56.65 61.33 62.16" fill="none" group-id="1,2" id="Stroke-499" node-id="64" stroke="#ffffff" stroke-linecap="round" stroke-width="0.5" target-height="9.390305" target-width="2.3700027" target-x="61.332" target-y="52.770393"></path><path d="M 77.62 30.36 C 77.62 30.36 91.23 10.05 105.79 7.20" fill="none" group-id="1,2" id="Stroke-501" node-id="65" stroke="#78ba40" stroke-linecap="round" stroke-width="0.5" target-height="23.154545" target-width="28.169998" target-x="77.61825" target-y="7.2023363"></path><path d="M 110.52 32.82 C 110.52 32.82 83.10 37.76 64.95 53.89" fill="none" group-id="1,2" id="Stroke-503" node-id="66" stroke="#78ba40" stroke-linecap="round" stroke-width="0.5" target-height="21.066696" target-width="45.567497" target-x="64.9485" target-y="32.823406"></path><path d="M 75.52 117.74 C 68.47 111.14 59.47 118.34 36.54 109.21 C 23.29 103.94 14.59 94.58 9.67 87.65 C 21.24 113.10 43.42 130.29 68.84 130.29 C 69.34 130.29 69.87 130.29 70.37 130.26 C 75.59 127.63 80.29 122.23 75.52 117.74" fill="#e6ecf8" fill-rule="evenodd" group-id="1,2" id="Fill-505" node-id="67" stroke="none" target-height="42.635292" target-width="70.625" target-x="9.666" target-y="87.65302"></path></g></g></svg>