<?xml version="1.0" standalone="no"?><!DOCTYPE svg PUBLIC "-//W3C//DTD SVG 1.1//EN" "http://www.w3.org/Graphics/SVG/1.1/DTD/svg11.dtd"><svg height="96" node-id="1" sillyvg="true" template-height="96" template-width="96" version="1.1" viewBox="0 0 96 96" width="96" xmlns="http://www.w3.org/2000/svg" xmlns:xlink="http://www.w3.org/1999/xlink"><defs node-id="45"></defs><g node-id="60"><g node-id="61"><g node-id="62"><g node-id="63"><path d="M 0.00 0.00 L 96.00 0.00 L 96.00 96.00 L 0.00 96.00 Z" fill="#ffffff" fill-opacity="0" fill-rule="evenodd" group-id="1,2,3,4" node-id="53" stroke="none" target-height="96" target-width="96" target-x="0" target-y="0"></path></g><path d="M 3.00 3.00 L 93.00 3.00 L 93.00 93.00 L 3.00 93.00 Z" fill="none" group-id="1,2,3" node-id="56" stroke="#dddddd" stroke-linecap="butt" stroke-opacity="0" stroke-width="6" target-height="90" target-width="90" target-x="3" target-y="3"></path><path d="M 6.00 6.00 L 90.00 6.00 L 90.00 90.00 L 6.00 90.00 Z" fill="none" group-id="1,2,3" node-id="58" stroke="#dddddd" stroke-linecap="butt" stroke-opacity="0" stroke-width="12" target-height="84" target-width="84" target-x="6" target-y="6"></path></g><path d="M 13.44 61.88 C 13.08 59.27 14.07 57.80 16.43 57.46 C 19.97 56.95 30.15 56.06 36.69 51.71 C 43.24 47.36 50.38 42.80 52.33 38.96 C 54.27 35.12 57.07 27.01 58.65 26.88 C 60.24 26.75 63.24 29.24 63.87 30.37 C 64.50 31.51 65.32 32.49 67.95 33.80 C 70.58 35.12 72.45 37.21 74.54 37.29 C 76.63 37.37 78.48 37.59 78.64 38.31 C 78.74 38.79 79.66 42.39 81.38 49.11 C 82.21 50.65 82.71 53.23 82.89 56.84 C 83.07 60.46 83.14 62.59 83.12 63.24 C 83.58 63.69 83.51 63.96 82.89 64.06 C 81.97 64.21 64.49 64.71 56.53 65.04 C 48.57 65.38 41.32 66.81 31.43 66.04 C 21.54 65.28 15.91 63.44 14.58 63.24 C 13.69 63.11 13.31 62.65 13.44 61.88 Z" fill="#e0e3ee" fill-rule="evenodd" group-id="1,2" id="路径-4" node-id="13" stroke="none" target-height="40.06421" target-width="70.50578" target-x="13.075602" target-y="26.7478"></path><path d="M 63.87 30.37 C 64.16 30.88 64.48 31.36 64.98 31.86 C 64.94 32.28 64.81 32.73 64.60 33.19 C 60.40 37.69 58.00 40.48 57.39 41.56 C 56.49 43.18 51.93 45.11 49.83 47.27 C 47.73 49.43 37.06 55.13 36.40 55.12 C 35.74 55.11 34.49 54.15 34.09 53.38 C 34.07 53.33 34.05 53.27 34.03 53.21 C 34.97 52.76 35.86 52.26 36.69 51.71 C 43.24 47.36 50.38 42.80 52.33 38.96 C 54.27 35.12 57.07 27.01 58.65 26.88 C 60.24 26.75 63.24 29.24 63.87 30.37 Z" fill="#dce8fa" fill-rule="evenodd" group-id="1,2" id="形状结合" node-id="14" stroke="none" target-height="28.384687" target-width="30.950912" target-x="34.033913" target-y="26.7478"></path><path d="M 60.75 27.58 L 60.77 27.65 C 60.79 27.81 60.77 27.91 60.66 27.90 C 60.40 27.87 58.80 28.21 58.07 29.54 L 57.58 30.46 C 57.06 31.44 56.65 32.29 56.48 32.51 C 56.25 32.80 56.25 33.40 55.85 33.45 C 55.62 33.49 55.30 33.42 54.87 33.24 L 55.42 31.99 C 56.63 29.26 57.81 26.95 58.65 26.88 C 59.23 26.83 59.98 27.13 60.75 27.58 Z" fill="#43abf4" fill-rule="evenodd" group-id="1,2" id="路径" node-id="15" stroke="none" target-height="6.6541615" target-width="5.9184" target-x="54.8748" target-y="26.832464"></path><path d="M 57.69 28.11 L 55.97 31.74 C 55.83 32.04 55.73 32.24 55.72 32.24 C 55.70 32.26 55.41 32.36 55.23 32.41 L 55.42 31.99 C 56.24 30.15 57.04 28.50 57.74 27.60 C 57.76 27.73 57.78 27.92 57.69 28.11 Z" fill="#ab0000" fill-rule="evenodd" group-id="1,2" id="路径" node-id="16" stroke="none" target-height="4.8173656" target-width="2.5459328" target-x="55.23439" target-y="27.597094"></path><path d="M 35.32 53.38 C 35.66 53.39 38.91 51.07 39.41 50.76 C 39.74 50.55 40.80 49.86 42.59 48.67 C 43.71 48.94 44.47 49.01 44.86 48.87 C 45.26 48.73 45.42 47.91 45.34 46.40 C 46.26 45.22 46.83 44.52 47.06 44.29 C 47.41 43.93 50.77 41.03 50.80 41.65 C 50.84 42.26 53.92 42.74 54.82 42.78 C 55.73 42.81 57.06 38.29 56.91 37.78 C 56.81 37.44 55.79 36.77 53.87 35.77 C 54.57 35.20 55.02 34.92 55.22 34.95 C 55.53 34.99 57.59 35.47 57.71 35.77 C 57.84 36.06 59.26 39.10 58.51 40.96 C 57.77 42.82 54.89 45.87 53.87 45.92 C 52.84 45.96 49.70 45.44 48.87 46.57 C 48.04 47.70 46.94 50.67 45.26 51.01 C 43.58 51.35 38.18 54.15 36.99 54.39 C 35.80 54.64 34.98 53.37 35.32 53.38 Z" fill="#000000" fill-rule="evenodd" group-id="1,2" id="路径-24" node-id="17" stroke="none" target-height="19.721298" target-width="24.27425" target-x="34.98161" target-y="34.922092"></path><path d="M 80.27 45.40 C 80.33 45.67 80.25 45.86 80.02 45.96 C 73.99 48.66 68.63 49.79 66.99 48.94 C 64.38 47.59 55.71 44.14 54.97 42.64 C 54.22 41.13 57.94 28.87 61.93 29.99 C 65.91 31.10 67.73 32.17 69.10 33.06 C 70.48 33.96 72.31 35.71 74.58 35.90 C 76.84 36.08 79.14 36.42 78.75 37.97 C 78.48 39.00 78.99 41.48 80.27 45.40 Z" fill="#262327" fill-rule="evenodd" group-id="1,2" id="路径-11" node-id="18" stroke="none" target-height="20.911385" target-width="26.109375" target-x="54.22135" target-y="28.874237"></path><path d="M 61.93 29.99 C 65.91 31.10 67.73 32.17 69.10 33.06 C 70.48 33.96 72.31 35.71 74.58 35.90 C 76.84 36.08 79.14 36.42 78.75 37.97 C 78.71 38.10 78.69 38.26 78.68 38.45 C 78.29 37.84 78.02 37.45 77.86 37.26 C 77.53 36.89 74.17 36.58 72.74 36.27 C 71.31 35.95 68.09 33.64 66.76 32.63 C 65.63 31.78 62.30 30.37 61.24 29.93 C 61.47 29.91 61.70 29.93 61.93 29.99 Z" fill="#808080" fill-rule="evenodd" group-id="1,2" id="形状结合" node-id="19" stroke="none" target-height="8.5395565" target-width="17.89714" target-x="61.243256" target-y="29.9055"></path><path d="M 63.53 31.80 L 62.81 33.28 C 61.00 37.12 59.95 40.05 59.64 42.08 L 59.54 42.83 C 59.18 45.87 59.40 48.03 56.74 48.22 C 53.88 48.43 53.39 47.77 51.39 49.69 C 49.39 51.60 48.13 52.55 46.94 53.08 C 45.75 53.62 42.64 54.50 40.89 55.28 C 39.73 55.81 41.49 59.45 46.18 66.20 C 41.00 66.83 34.87 66.88 27.76 66.35 C 20.06 65.48 15.61 64.05 14.45 63.88 C 13.56 63.74 13.18 63.29 13.31 62.51 C 12.95 59.91 13.94 58.44 16.30 58.10 L 16.93 58.01 C 16.56 58.20 16.88 58.36 17.88 58.47 L 25.40 59.23 C 27.94 59.49 30.27 59.75 31.05 59.93 C 32.74 60.31 33.76 63.26 35.74 61.73 C 37.71 60.20 34.80 58.47 34.66 57.04 L 34.62 56.57 C 34.57 55.50 34.91 55.01 37.71 53.08 C 40.89 50.89 43.91 49.66 45.27 48.52 C 46.63 47.38 49.92 43.76 50.90 43.61 C 51.87 43.46 54.45 44.65 54.92 42.65 L 55.54 39.94 C 56.36 36.47 57.75 31.27 59.13 30.80 C 60.36 30.38 61.83 30.71 63.53 31.80 Z" fill="#780210" fill-rule="evenodd" group-id="1,2" id="路径" node-id="20" stroke="none" target-height="36.495056" target-width="50.57975" target-x="12.945964" target-y="30.382895"></path><path d="M 63.66 31.16 L 62.94 32.64 C 61.13 36.48 60.08 39.42 59.77 41.45 L 59.67 42.19 C 59.31 45.23 59.53 47.39 56.87 47.58 C 54.00 47.79 53.52 47.14 51.52 49.05 C 49.52 50.96 48.26 51.91 47.07 52.44 C 45.88 52.98 42.77 53.86 41.02 54.65 C 39.86 55.17 41.62 58.81 46.31 65.56 C 41.13 66.19 35.00 66.24 27.89 65.71 L 26.40 65.53 C 19.85 64.69 15.95 63.49 14.71 63.26 L 14.58 63.24 C 14.38 63.21 14.20 63.16 14.04 63.11 C 13.85 63.00 13.68 62.90 13.52 62.79 C 13.31 62.59 13.19 62.32 13.16 61.99 C 12.98 59.31 14.07 57.80 16.43 57.46 L 17.30 57.35 L 17.30 57.35 C 16.93 57.57 17.22 57.81 18.17 58.06 C 20.57 58.68 29.50 58.91 31.18 59.29 C 32.87 59.67 33.89 62.62 35.87 61.09 C 37.84 59.56 34.93 57.84 34.79 56.41 L 34.75 55.93 C 34.70 54.87 35.04 54.37 37.84 52.44 C 41.02 50.25 44.04 49.03 45.40 47.89 C 46.76 46.75 50.05 43.13 51.03 42.98 C 52.00 42.83 54.58 44.01 55.05 42.02 L 55.67 39.30 C 56.49 35.83 57.88 30.63 59.26 30.17 C 60.49 29.75 61.96 30.08 63.66 31.16 Z" fill="#a02434" fill-rule="evenodd" group-id="1,2" id="路径" node-id="21" stroke="none" target-height="36.495064" target-width="50.67117" target-x="12.984185" target-y="29.745443"></path><path d="M 55.38 40.48 C 55.40 40.48 52.75 38.15 52.93 37.66 C 53.11 37.17 51.50 38.82 51.54 39.07 C 51.57 39.32 54.34 42.02 54.92 42.13 C 55.50 42.24 55.37 40.48 55.38 40.48 Z" fill="#000000" fill-rule="evenodd" group-id="1,2" id="路径-20" node-id="22" stroke="none" target-height="5.067871" target-width="4.0005836" target-x="51.50101" target-y="37.17051"></path><path d="M 42.49 66.65 C 39.62 61.84 37.26 58.86 35.43 57.72 C 32.67 56.01 32.17 55.56 34.42 53.91 C 36.66 52.27 42.92 48.00 43.13 48.34 C 43.34 48.68 43.98 54.57 44.76 56.54 C 45.29 57.85 46.98 61.03 49.83 66.07 L 42.49 66.65 Z" fill="#780210" fill-rule="evenodd" group-id="1,2" id="路径-6" node-id="23" stroke="none" target-height="18.655804" target-width="17.65601" target-x="32.17049" target-y="47.998882"></path><path d="M 42.95 66.35 C 40.08 61.53 37.73 58.55 35.89 57.42 C 33.13 55.71 32.63 55.25 34.88 53.61 C 37.12 51.96 43.39 47.69 43.59 48.03 C 43.80 48.37 44.44 54.26 45.23 56.23 C 45.75 57.55 47.44 60.72 50.29 65.77 L 42.95 66.35 Z" fill="#ae293d" fill-rule="evenodd" group-id="1,2" id="路径-6" node-id="24" stroke="none" target-height="18.655807" target-width="17.656006" target-x="32.632404" target-y="47.692825"></path><path d="M 80.24 43.91 C 80.18 43.33 80.18 42.40 79.75 41.99 C 79.32 41.58 68.44 36.17 66.50 35.18 C 64.55 34.19 58.76 32.10 58.05 32.07 C 57.35 32.04 56.26 34.43 55.70 35.97 C 55.13 37.51 54.28 38.38 58.55 41.44 C 62.83 44.50 68.90 48.70 69.26 48.81 C 69.61 48.92 72.64 49.20 80.11 45.84 C 80.34 45.61 80.29 44.50 80.24 43.91 Z" fill="#780210" fill-rule="evenodd" group-id="1,2" id="路径-7" node-id="25" stroke="none" target-height="17.163082" target-width="26.057858" target-x="54.277523" target-y="32.041115"></path><path d="M 80.40 43.48 C 80.34 42.89 80.34 41.96 79.91 41.55 C 79.48 41.14 68.60 35.74 66.66 34.75 C 64.71 33.75 58.92 31.66 58.21 31.63 C 57.51 31.60 56.43 33.99 55.86 35.53 C 55.29 37.07 54.44 37.95 58.71 41.00 C 62.99 44.06 69.06 48.26 69.42 48.37 C 69.78 48.49 72.80 48.77 80.27 45.40 C 80.50 45.17 80.45 44.07 80.40 43.48 Z" fill="#a02434" fill-rule="evenodd" group-id="1,2" id="路径-7" node-id="26" stroke="none" target-height="17.163088" target-width="26.057865" target-x="54.4388" target-y="31.60303"></path><path d="M 66.85 63.99 C 69.18 57.57 70.43 54.23 70.62 53.95 C 70.89 53.55 81.52 49.26 81.72 49.25 C 81.93 49.24 82.70 50.73 82.71 52.00 C 82.72 53.27 83.28 55.53 83.42 56.78 C 83.55 58.03 83.69 62.13 83.12 63.24 C 81.78 63.74 80.65 63.99 79.75 63.99 L 66.85 63.99 Z" fill="#a02434" fill-rule="evenodd" group-id="1,2" id="路径-8" node-id="27" stroke="none" target-height="14.757809" target-width="16.841553" target-x="66.847496" target-y="49.235355"></path><path d="M 81.12 47.27 C 74.77 49.82 69.70 51.59 65.91 52.59 C 60.21 54.09 55.69 56.62 56.45 49.25 C 53.14 51.26 50.98 54.78 53.07 57.41 C 55.16 60.04 61.84 57.21 70.29 53.77 C 75.92 51.48 79.73 49.97 81.72 49.25 L 81.12 47.27 Z" fill="#262327" fill-rule="evenodd" group-id="1,2" id="路径-9" node-id="28" stroke="none" target-height="12.771973" target-width="30.748539" target-x="50.976154" target-y="47.271484"></path><path d="M 36.26 54.77 C 35.56 55.36 35.09 55.20 34.14 54.38 C 33.20 53.55 32.98 53.46 33.20 53.12 C 33.42 52.78 34.45 51.48 34.69 51.66 C 34.93 51.83 36.96 54.19 36.26 54.77 Z" fill="#262327" fill-rule="evenodd" group-id="1,2" id="路径-12" node-id="29" stroke="none" target-height="3.8734207" target-width="3.9781456" target-x="32.97739" target-y="51.482"></path><path d="M 39.96 53.38 C 39.46 53.88 38.74 54.03 38.04 53.38 C 37.34 52.73 34.99 52.15 34.99 52.04 C 34.99 51.93 36.02 51.04 36.40 51.01 C 36.79 50.99 40.46 52.88 39.96 53.38 Z" fill="#262327" fill-rule="evenodd" group-id="1,2" id="路径-13" node-id="30" stroke="none" target-height="3.0398407" target-width="5.474663" target-x="34.985836" target-y="50.991707"></path><path d="M 42.13 51.64 C 41.53 52.18 40.78 52.29 40.01 51.88 C 39.23 51.48 37.46 50.98 37.50 50.74 C 37.54 50.50 39.03 49.12 39.17 49.25 C 39.32 49.37 42.73 51.10 42.13 51.64 Z" fill="#262327" fill-rule="evenodd" group-id="1,2" id="路径-14" node-id="31" stroke="none" target-height="3.1633797" target-width="5.265835" target-x="37.45934" target-y="49.122463"></path><path d="M 42.34 48.01 C 42.28 47.41 42.36 46.98 42.58 46.72 C 44.63 45.15 45.80 44.35 46.09 44.31 C 46.51 44.24 47.42 44.35 47.41 44.48 C 47.40 44.61 46.88 44.66 46.37 44.87 C 45.86 45.09 44.49 47.45 44.71 48.20 C 44.93 48.95 42.44 48.91 42.34 48.01 Z" fill="#c9c7e4" fill-rule="evenodd" group-id="1,2" id="路径-16" node-id="32" stroke="none" target-height="4.7139626" target-width="5.148182" target-x="42.276173" target-y="44.238087"></path><path d="M 41.91 47.25 C 41.40 47.41 40.84 48.01 40.37 48.43 C 39.91 48.85 39.90 49.05 40.01 49.03 C 40.12 49.02 42.28 48.81 42.97 49.24 C 43.65 49.67 45.34 51.10 46.09 50.68 C 46.84 50.26 45.97 48.50 44.99 48.03 C 44.01 47.57 42.42 47.10 41.91 47.25 Z" fill="#262327" fill-rule="evenodd" group-id="1,2" id="路径-15" node-id="33" stroke="none" target-height="4.0042877" target-width="6.9386215" target-x="39.898563" target-y="47.097496"></path><path d="M 49.40 48.03 C 48.84 48.77 47.57 48.11 46.53 47.42 C 45.84 46.96 45.41 46.61 45.26 46.38 C 45.91 45.23 46.40 44.69 46.74 44.76 C 47.25 44.88 49.96 47.30 49.40 48.03 Z" fill="#262327" fill-rule="evenodd" group-id="1,2" id="路径-17" node-id="34" stroke="none" target-height="4.076191" target-width="4.698929" target-x="45.26058" target-y="44.68939"></path><path d="M 52.72 46.17 C 52.27 46.61 50.67 45.81 50.13 45.36 C 49.59 44.91 47.08 44.42 47.07 44.11 C 47.06 43.81 48.53 42.42 48.92 42.50 C 49.31 42.57 51.61 43.54 52.24 44.29 C 52.87 45.03 53.16 45.73 52.72 46.17 Z" fill="#262327" fill-rule="evenodd" group-id="1,2" id="路径-18" node-id="35" stroke="none" target-height="4.1910973" target-width="6.1023674" target-x="47.060463" target-y="42.421307"></path><path d="M 57.82 44.76 C 57.41 45.40 56.09 44.99 54.76 44.14 C 53.42 43.29 51.63 42.54 50.63 42.48 C 49.63 42.43 49.30 42.79 49.28 42.48 C 49.27 42.18 50.78 40.13 51.27 40.28 C 51.75 40.43 55.22 41.77 56.46 42.57 C 57.69 43.37 58.23 44.11 57.82 44.76 Z" fill="#262327" fill-rule="evenodd" group-id="1,2" id="路径-19" node-id="36" stroke="none" target-height="5.2766457" target-width="8.959183" target-x="49.27132" target-y="40.126675"></path><path d="M 59.21 37.71 C 59.34 36.93 58.58 36.20 56.88 35.84 C 55.17 35.48 54.01 35.97 53.46 36.31 C 52.91 36.65 51.44 38.00 51.31 38.48 C 51.22 38.79 51.36 39.25 51.72 39.85 C 52.59 38.79 53.42 38.17 54.22 37.99 C 55.42 37.72 56.42 37.61 57.36 37.99 C 58.29 38.36 59.09 38.48 59.21 37.71 Z" fill="#262327" fill-rule="evenodd" group-id="1,2" id="路径-21" node-id="37" stroke="none" target-height="4.37199" target-width="8.114063" target-x="51.221615" target-y="35.479393"></path><path d="M 83.13 62.74 L 83.87 69.19 C 83.99 70.29 83.20 71.28 82.11 71.41 C 82.06 71.41 82.01 71.41 81.96 71.42 C 38.07 73.14 14.71 71.35 11.88 66.05 C 11.76 65.70 11.76 65.20 11.88 64.56 C 12.41 62.22 12.88 61.17 13.28 61.42 C 13.88 61.79 24.70 66.39 43.32 64.54 C 55.74 63.31 69.01 62.71 83.13 62.74 Z" fill="#780210" fill-rule="evenodd" group-id="1,2" id="路径-3" node-id="38" stroke="none" target-height="11.971085" target-width="72.23536" target-x="11.755127" target-y="61.16765"></path><path d="M 83.12 63.24 L 83.85 69.18 C 83.98 70.27 83.20 71.27 82.10 71.40 C 82.05 71.41 81.99 71.42 81.94 71.42 C 38.06 73.14 14.71 71.35 11.88 66.05 C 11.76 65.70 11.76 65.20 11.88 64.56 C 12.40 62.55 12.87 61.67 13.27 61.92 C 13.88 62.29 24.69 66.89 43.32 65.04 C 55.73 63.81 69.00 63.21 83.12 63.24 Z" fill="#e2e6ec" fill-rule="evenodd" group-id="1,2" id="路径-3" node-id="39" stroke="none" target-height="11.469315" target-width="72.22491" target-x="11.755127" target-y="61.668945"></path><path d="M 12.54 62.56 L 12.50 62.54 C 16.50 64.53 22.16 65.76 29.46 66.24 C 32.70 66.45 35.66 66.45 38.97 66.27 L 40.82 66.15 L 42.90 65.99 L 42.90 65.99 L 48.76 65.49 C 53.88 65.05 58.07 64.80 63.13 64.66 L 73.91 64.41 L 77.47 64.34 C 80.04 64.30 81.97 64.29 83.25 64.31 L 83.30 64.71 L 81.50 64.70 C 77.96 64.71 71.84 64.83 63.14 65.06 C 58.72 65.18 54.97 65.39 50.67 65.73 L 43.70 66.33 C 41.84 66.48 40.39 66.59 38.99 66.67 C 35.67 66.85 32.70 66.85 29.44 66.64 C 22.43 66.18 16.93 65.03 12.92 63.18 L 12.39 62.92 C 12.44 62.79 12.49 62.67 12.54 62.56 Z" fill="#a4abb6" fill-rule="evenodd" group-id="1,2" id="路径" node-id="40" stroke="none" target-height="4.3060837" target-width="70.911995" target-x="12.3857565" target-y="62.54036"></path><path d="M 11.93 64.38 C 13.20 65.71 15.37 66.92 17.53 67.51 C 19.99 68.17 26.26 70.06 45.05 70.52 C 56.26 70.79 70.41 70.57 81.54 69.68 C 82.28 69.62 83.10 69.42 83.99 69.08 L 83.84 69.13 L 83.85 69.18 C 83.98 70.27 83.20 71.27 82.10 71.40 C 82.05 71.41 81.99 71.42 81.94 71.42 C 38.06 73.14 14.71 71.35 11.88 66.05 C 11.76 65.70 11.76 65.20 11.88 64.56 Z" fill="#848fcc" fill-rule="evenodd" group-id="1,2" id="形状结合" node-id="41" stroke="none" target-height="8.753532" target-width="72.23475" target-x="11.755127" target-y="64.38473"></path><path d="M 60.10 33.40 C 59.03 32.87 56.84 32.22 55.35 32.98 C 53.86 33.74 53.72 34.62 53.89 35.71 C 54.18 35.79 54.40 35.79 54.54 35.71 C 55.18 34.89 55.86 34.53 56.58 34.61 C 57.67 34.73 59.90 35.72 60.49 35.28 C 61.08 34.84 61.18 33.93 60.10 33.40 Z" fill="#262327" fill-rule="evenodd" group-id="1,2" id="路径-22" node-id="42" stroke="none" target-height="3.5682678" target-width="7.452736" target-x="53.72259" target-y="32.219612"></path><path d="M 63.90 37.91 C 64.51 38.33 65.11 38.73 65.67 39.12 L 66.41 38.81 L 66.72 39.45 C 67.12 39.04 67.33 38.83 67.37 38.81 C 67.41 38.80 67.68 39.06 68.19 39.60 C 69.17 39.11 70.12 39.18 71.02 39.80 C 71.93 40.42 72.28 41.23 72.10 42.23 L 73.05 42.67 L 72.69 43.31 L 73.41 43.48 L 73.29 44.36 C 74.24 45.03 74.70 45.37 74.67 45.38 C 74.54 45.41 73.42 45.15 73.33 45.07 C 73.23 45.00 72.62 45.25 72.51 45.22 C 72.44 45.20 72.23 45.15 71.87 45.07 L 71.54 45.22 L 71.04 44.87 L 70.69 45.22 L 69.62 44.69 L 69.06 44.52 L 66.85 43.07 L 66.64 42.65 L 66.33 42.13 L 66.33 41.88 L 65.87 41.48 L 65.87 41.15 L 65.73 40.78 L 65.87 40.48 L 65.56 40.21 L 65.40 39.84 L 65.01 39.45 L 63.90 37.91 Z" fill="#66232e" fill-rule="evenodd" group-id="1,2" id="形状结合" node-id="43" stroke="none" target-height="7.50309" target-width="10.804901" target-x="63.897873" target-y="37.907635"></path></g></g></svg>