<?xml version="1.0" standalone="no"?><!DOCTYPE svg PUBLIC "-//W3C//DTD SVG 1.1//EN" "http://www.w3.org/Graphics/SVG/1.1/DTD/svg11.dtd"><svg height="96" node-id="1" sillyvg="true" template-height="96" template-width="96" version="1.1" viewBox="0 0 96 96" width="96" xmlns="http://www.w3.org/2000/svg" xmlns:xlink="http://www.w3.org/1999/xlink"><defs node-id="37"></defs><g node-id="52"><g node-id="53"><g node-id="54"><g node-id="55"><path d="M 0.00 0.00 L 96.00 0.00 L 96.00 96.00 L 0.00 96.00 Z" fill="#ffffff" fill-opacity="0" fill-rule="evenodd" group-id="1,2,3,4" node-id="45" stroke="none" target-height="96" target-width="96" target-x="0" target-y="0"></path></g><path d="M 3.00 3.00 L 93.00 3.00 L 93.00 93.00 L 3.00 93.00 Z" fill="none" group-id="1,2,3" node-id="48" stroke="#dddddd" stroke-linecap="butt" stroke-opacity="0" stroke-width="6" target-height="90" target-width="90" target-x="3" target-y="3"></path><path d="M 6.00 6.00 L 90.00 6.00 L 90.00 90.00 L 6.00 90.00 Z" fill="none" group-id="1,2,3" node-id="50" stroke="#dddddd" stroke-linecap="butt" stroke-opacity="0" stroke-width="12" target-height="84" target-width="84" target-x="6" target-y="6"></path></g><path d="M 14.00 24.00 L 82.00 24.00 C 83.10 24.00 84.00 24.90 84.00 26.00 L 84.00 74.00 C 84.00 75.10 83.10 76.00 82.00 76.00 L 14.00 76.00 C 12.90 76.00 12.00 75.10 12.00 74.00 L 12.00 26.00 C 12.00 24.90 12.90 24.00 14.00 24.00 Z" fill="#ff4a1c" fill-rule="evenodd" group-id="1,2" id="矩形" node-id="13" stroke="none" target-height="52" target-width="72" target-x="12" target-y="24"></path><path d="M 12.00 72.00 C 12.00 73.10 12.90 74.00 14.00 74.00 L 14.00 74.00 L 82.00 74.00 C 83.10 74.00 84.00 73.10 84.00 72.00 L 84.00 72.00 L 84.00 74.00 C 84.00 75.10 83.10 76.00 82.00 76.00 L 14.00 76.00 C 12.90 76.00 12.00 75.10 12.00 74.00 Z" fill="#9b0000" fill-rule="evenodd" group-id="1,2" id="形状结合" node-id="14" stroke="none" target-height="4" target-width="72" target-x="12" target-y="72"></path><path d="M 11.00 22.00 L 84.00 22.00 C 85.10 22.00 86.00 22.90 86.00 24.00 L 86.00 39.00 C 86.00 39.55 85.55 40.00 85.00 40.00 L 19.00 40.00 C 14.03 40.00 10.00 35.97 10.00 31.00 L 10.00 23.00 C 10.00 22.45 10.45 22.00 11.00 22.00 Z" fill="#9b0000" fill-rule="evenodd" group-id="1,2" id="矩形备份" node-id="15" stroke="none" target-height="18" target-width="76" target-x="10" target-y="22"></path><path d="M 84.00 22.00 C 85.10 22.00 86.00 22.90 86.00 24.00 L 86.00 37.00 C 86.00 37.55 85.55 38.00 85.00 38.00 L 18.00 38.00 C 13.58 38.00 10.00 34.42 10.00 30.00 L 10.00 23.00 C 10.00 22.45 10.45 22.00 11.00 22.00 L 42.25 22.00 C 43.14 25.45 46.27 28.00 50.00 28.00 C 53.73 28.00 56.86 25.45 57.75 22.00 L 84.00 22.00 Z" fill="#ff4a1c" fill-rule="evenodd" group-id="1,2" id="形状结合" node-id="16" stroke="none" target-height="16.00036" target-width="76" target-x="10" target-y="21.99964"></path><path d="M 61.23 26.40 C 59.59 28.33 58.02 30.72 58.00 32.50 C 57.99 33.18 58.21 33.76 58.72 34.21 C 59.46 34.85 60.28 35.07 61.09 35.07 C 62.28 35.07 63.46 34.60 64.38 34.23 C 65.93 33.61 83.10 26.15 83.10 26.15 C 83.27 26.07 83.24 25.96 83.03 26.01 C 82.95 26.03 64.34 31.08 64.34 31.08 C 63.98 31.18 63.62 31.23 63.25 31.23 C 61.82 31.24 60.55 30.45 60.56 28.77 C 60.56 28.12 60.76 27.33 61.23 26.40 L 61.23 26.40 Z" fill="#ffffff" fill-rule="nonzero" group-id="1,2" id="路径" node-id="17" stroke="none" target-height="9.1121235" target-width="25.273983" target-x="57.993984" target-y="25.962214"></path><path d="M 60.00 50.00 L 60.00 70.00 L 16.00 70.00 L 16.00 50.00 L 60.00 50.00 Z M 59.00 51.00 L 17.00 51.00 L 17.00 69.00 L 59.00 69.00 L 59.00 51.00 Z" fill="#ffffff" fill-rule="nonzero" group-id="1,2" id="矩形" node-id="18" stroke="none" target-height="20" target-width="44" target-x="16" target-y="50"></path><path d="M 16.00 50.00 L 24.00 50.00 L 24.00 70.00 L 16.00 70.00 Z" fill="#ffffff" fill-rule="evenodd" group-id="1,2" id="矩形" node-id="19" stroke="none" target-height="20" target-width="8" target-x="16" target-y="50"></path><path d="M 26.00 52.00 L 56.00 52.00 L 56.00 54.00 L 26.00 54.00 Z" fill="#ffffff" fill-rule="evenodd" group-id="1,2" id="矩形" node-id="20" stroke="none" target-height="2" target-width="30" target-x="26" target-y="52"></path><path d="M 26.00 64.00 L 46.00 64.00 L 46.00 65.00 L 26.00 65.00 Z" fill="#ffffff" fill-rule="evenodd" group-id="1,2" id="矩形备份-3" node-id="21" stroke="none" target-height="1" target-width="20" target-x="26" target-y="64"></path><path d="M 26.00 66.00 L 36.00 66.00 L 36.00 68.00 L 26.00 68.00 Z" fill="#ffffff" fill-rule="evenodd" group-id="1,2" id="矩形备份-4" node-id="22" stroke="none" target-height="2" target-width="10" target-x="26" target-y="66"></path><path d="M 50.00 67.00 L 56.00 67.00 L 56.00 68.00 L 50.00 68.00 Z" fill="#ffffff" fill-rule="evenodd" group-id="1,2" id="矩形备份-5" node-id="23" stroke="none" target-height="1" target-width="6" target-x="50" target-y="67.00165"></path><path d="M 36.00 58.00 L 42.00 58.00 L 42.00 59.00 L 36.00 59.00 Z" fill="#ffffff" fill-rule="evenodd" group-id="1,2" id="矩形备份-6" node-id="24" stroke="none" target-height="1" target-width="6" target-x="36" target-y="58"></path><path d="M 18.00 52.00 L 22.00 52.00 L 22.00 53.00 L 18.00 53.00 Z" fill="#000000" fill-rule="evenodd" group-id="1,2" id="矩形备份-10" node-id="25" stroke="none" target-height="1" target-width="4" target-x="18" target-y="52"></path><path d="M 18.00 54.00 L 22.00 54.00 L 22.00 55.00 L 18.00 55.00 Z" fill="#000000" fill-rule="evenodd" group-id="1,2" id="矩形备份-11" node-id="26" stroke="none" target-height="1" target-width="4" target-x="18" target-y="54"></path><path d="M 18.00 56.00 L 22.00 56.00 L 22.00 57.00 L 18.00 57.00 Z" fill="#000000" fill-rule="evenodd" group-id="1,2" id="矩形备份-12" node-id="27" stroke="none" target-height="1" target-width="4" target-x="18" target-y="56"></path><path d="M 18.00 60.00 L 22.00 60.00 L 22.00 61.00 L 18.00 61.00 Z" fill="#000000" fill-rule="evenodd" group-id="1,2" id="矩形备份-13" node-id="28" stroke="none" target-height="1" target-width="4" target-x="18" target-y="60"></path><path d="M 18.00 62.00 L 22.00 62.00 L 22.00 63.00 L 18.00 63.00 Z" fill="#000000" fill-rule="evenodd" group-id="1,2" id="矩形备份-14" node-id="29" stroke="none" target-height="1" target-width="4" target-x="18" target-y="62"></path><path d="M 18.00 64.00 L 22.00 64.00 L 22.00 65.00 L 18.00 65.00 Z" fill="#000000" fill-rule="evenodd" group-id="1,2" id="矩形备份-15" node-id="30" stroke="none" target-height="1" target-width="4" target-x="18" target-y="64"></path><path d="M 18.00 66.00 L 22.00 66.00 L 22.00 67.00 L 18.00 67.00 Z" fill="#000000" fill-rule="evenodd" group-id="1,2" id="矩形备份-16" node-id="31" stroke="none" target-height="1" target-width="4" target-x="18" target-y="66"></path><path d="M 46.00 58.00 L 52.00 58.00 L 52.00 59.00 L 46.00 59.00 Z" fill="#ffffff" fill-rule="evenodd" group-id="1,2" id="矩形备份-8" node-id="32" stroke="none" target-height="1" target-width="6" target-x="46" target-y="58"></path><path d="M 36.00 60.00 L 42.00 60.00 L 42.00 61.00 L 36.00 61.00 Z" fill="#ffffff" fill-rule="evenodd" group-id="1,2" id="矩形备份-7" node-id="33" stroke="none" target-height="1" target-width="6" target-x="36" target-y="60"></path><path d="M 46.00 60.00 L 52.00 60.00 L 52.00 61.00 L 46.00 61.00 Z" fill="#ffffff" fill-rule="evenodd" group-id="1,2" id="矩形备份-9" node-id="34" stroke="none" target-height="1" target-width="6" target-x="46" target-y="60"></path><path d="M 28.56 61.66 L 28.56 56.00 L 27.49 56.00 C 27.44 56.17 27.38 56.31 27.30 56.42 C 27.23 56.53 27.13 56.63 27.02 56.69 C 26.90 56.76 26.76 56.81 26.59 56.84 C 26.43 56.87 26.23 56.88 26.00 56.88 L 26.00 57.81 L 27.07 57.81 L 27.07 61.66 L 28.56 61.66 Z M 31.85 61.75 C 32.18 61.75 32.47 61.71 32.71 61.63 C 32.95 61.55 33.15 61.40 33.31 61.19 C 33.47 60.97 33.58 60.68 33.66 60.31 C 33.74 59.94 33.78 59.46 33.78 58.89 C 33.78 58.32 33.74 57.85 33.66 57.47 C 33.58 57.10 33.47 56.80 33.31 56.58 C 33.15 56.37 32.95 56.21 32.71 56.13 C 32.47 56.04 32.18 56.00 31.85 56.00 C 31.52 56.00 31.23 56.04 30.99 56.13 C 30.75 56.21 30.55 56.37 30.39 56.58 C 30.23 56.80 30.11 57.10 30.04 57.47 C 29.96 57.85 29.92 58.32 29.92 58.89 C 29.92 59.46 29.96 59.94 30.04 60.31 C 30.11 60.68 30.23 60.97 30.39 61.19 C 30.55 61.40 30.75 61.55 30.99 61.63 C 31.23 61.71 31.52 61.75 31.85 61.75 Z M 31.85 60.85 C 31.69 60.85 31.58 60.78 31.51 60.64 C 31.44 60.49 31.41 60.22 31.41 59.82 L 31.41 57.95 C 31.41 57.55 31.44 57.28 31.51 57.14 C 31.58 57.00 31.69 56.93 31.85 56.93 C 32.00 56.93 32.11 57.00 32.18 57.14 C 32.25 57.28 32.29 57.55 32.29 57.95 L 32.29 59.82 C 32.29 60.22 32.25 60.49 32.18 60.64 C 32.11 60.78 32.00 60.85 31.85 60.85 Z" fill="#ffffff" fill-rule="nonzero" group-id="1,2" id="10" node-id="35" stroke="none" target-height="5.751999" target-width="7.776001" target-x="26" target-y="56"></path></g></g></svg>