<?xml version="1.0" standalone="no"?><!DOCTYPE svg PUBLIC "-//W3C//DTD SVG 1.1//EN" "http://www.w3.org/Graphics/SVG/1.1/DTD/svg11.dtd"><svg height="1080" node-id="1" sillyvg="true" template-height="1080" template-width="1080" version="1.1" viewBox="0 0 1080 1080" width="1080" xmlns="http://www.w3.org/2000/svg" xmlns:xlink="http://www.w3.org/1999/xlink"><defs node-id="42"></defs><path d="M 302.38 749.75 L 280.03 791.75 L 238.74 791.75 L 244.80 751.22 Z" fill="#f9f1cb" fill-rule="nonzero" id="path1693" node-id="7" stroke="none" target-height="42" target-width="63.64" target-x="238.74" target-y="749.75"></path><path d="M 714.17 605.81 C 714.17 605.81 708.95 630.86 703.17 656.97 C 697.39 683.08 684.82 726.34 683.89 739.97 C 682.96 753.60 683.22 802.25 683.22 805.97 C 683.22 809.69 681.34 815.08 694.47 818.03 C 702.18 819.78 710.27 817.79 716.30 812.67 C 716.30 812.67 719.38 765.13 723.40 750.13 C 727.42 735.13 735.72 698.03 736.92 694.28 C 738.12 690.53 741.07 684.10 741.07 684.10 L 740.44 661.80 C 740.44 661.80 745.18 658.80 748.78 674.30 C 752.38 689.80 758.78 747.60 761.47 764.65 C 764.16 781.70 769.23 815.79 771.13 816.54 C 773.03 817.29 791.39 819.01 792.72 818.82 C 794.05 818.63 798.05 814.07 798.05 814.07 C 798.05 814.07 798.21 764.07 798.21 758.40 C 798.03 754.36 797.13 750.38 795.56 746.65 C 795.56 746.65 781.92 750.82 777.56 709.72 C 773.20 668.62 777.56 595.72 777.56 595.72 C 777.56 595.72 769.41 604.81 743.66 607.27 C 717.91 609.73 714.14 605.77 714.14 605.77 Z" fill="#89574f" fill-rule="nonzero" id="path1691" node-id="8" stroke="none" target-height="224.05713" target-width="116.869995" target-x="681.34" target-y="595.72"></path><path d="M 430.78 389.25 C 431.18 386.97 438.15 376.66 458.24 377.46 C 478.33 378.26 487.70 385.90 513.55 382.55 C 539.40 379.20 560.86 376.16 562.44 385.10 C 564.08 394.39 572.50 420.85 575.29 425.95 C 578.38 431.59 575.56 439.47 568.86 446.30 C 562.16 453.13 560.43 455.81 560.43 455.81 L 553.26 445.43 C 553.26 445.43 534.40 473.43 528.15 492.91 C 521.90 512.39 514.33 549.61 502.96 568.91 C 491.59 588.21 473.44 590.43 460.72 584.44 C 448.00 578.45 449.40 570.63 450.87 558.04 C 452.34 545.45 456.76 516.52 457.43 515.04 C 458.10 513.56 465.20 492.14 462.79 478.48 C 460.38 464.82 460.92 457.31 466.27 457.18 C 471.62 457.05 480.87 456.64 482.61 462.00 C 484.35 467.36 482.75 483.16 497.61 482.36 C 512.47 481.56 527.75 471.91 535.38 464.28 C 543.01 456.65 553.46 443.78 554.53 438.70 C 555.60 433.62 552.66 425.17 552.66 425.17 C 552.66 425.17 533.10 437.36 520.51 430.93 C 507.92 424.50 504.57 410.57 504.57 410.57 C 504.57 410.57 504.17 404.68 496.27 403.34 C 488.37 402.00 480.60 407.46 482.34 414.00 C 484.08 420.54 495.34 423.37 489.34 429.27 C 483.34 435.17 468.34 439.58 456.66 431.01 C 444.98 422.44 443.54 418.68 444.34 412.39 C 445.14 406.10 446.22 396.72 443.27 393.39 C 440.32 390.06 430.82 389.24 430.82 389.24 Z" fill="#9a702d" fill-rule="nonzero" id="path1677" node-id="9" stroke="none" target-height="214.26999" target-width="147.6" target-x="430.78" target-y="376.16"></path><path d="M 721.67 372.77 C 721.67 372.77 699.08 390.92 698.42 393.67 C 697.76 396.42 701.26 400.01 703.25 401.53 C 705.24 403.05 716.25 409.01 716.51 409.20 C 716.77 409.39 725.79 412.80 726.26 413.75 C 726.73 414.70 729.58 431.93 729.58 431.93 C 729.58 431.93 735.07 430.70 735.64 430.79 C 736.21 430.88 743.02 438.37 743.02 438.37 C 743.02 438.37 741.90 437.73 737.34 442.55 C 732.78 447.37 718.59 461.00 717.92 467.73 C 717.25 474.46 724.22 480.32 737.61 495.99 C 751.00 511.66 766.27 530.28 769.21 533.49 C 772.15 536.70 772.29 563.76 775.51 573.40 C 776.09 575.67 776.43 577.99 776.51 580.33 C 776.59 580.08 776.90 579.03 776.90 579.03 C 776.90 579.03 786.81 601.26 784.13 635.55 C 781.45 669.84 783.88 704.91 789.76 725.81 C 795.57 746.51 826.52 753.24 827.15 753.38 C 840.96 752.05 856.74 747.92 860.34 746.17 C 865.34 743.76 867.34 740.41 868.64 731.44 C 869.94 722.47 865.00 683.00 859.49 667.29 C 853.98 651.58 844.89 615.19 838.73 603.29 C 832.57 591.39 828.45 559.18 828.45 559.18 C 828.45 559.18 824.45 560.04 818.85 560.84 C 813.25 561.64 782.54 553.36 776.52 548.94 C 770.50 544.52 771.00 536.58 771.00 536.58 C 771.00 536.58 784.12 544.21 796.71 547.83 C 809.30 551.45 805.28 552.25 824.00 545.83 C 842.72 539.41 844.79 518.19 840.78 500.37 C 836.77 482.55 825.64 467.03 815.86 447.37 C 806.08 427.71 790.42 398.89 786.26 396.08 C 782.10 393.27 740.19 390.18 736.26 387.24 C 732.33 384.30 723.40 372.77 721.66 372.77 L 721.66 372.77 Z M 758.79 430.68 C 760.35 430.59 761.91 430.93 763.29 431.68 C 769.16 435.08 780.90 449.86 786.11 448.68 C 791.32 447.50 795.01 444.80 793.21 451.62 C 792.36 455.22 791.09 458.70 789.43 462.00 L 753.15 435.20 L 745.20 435.29 C 745.72 435.00 752.88 430.89 758.79 430.73 Z" fill="#72ccd1" fill-rule="nonzero" id="path1670" node-id="10" stroke="none" target-height="380.61002" target-width="172.18" target-x="697.76" target-y="372.77"></path><path d="M 634.21 317.62 C 634.21 317.62 621.33 315.62 621.21 308.25 C 621.09 300.88 629.93 294.61 632.67 289.40 C 635.41 284.19 634.76 278.51 643.67 275.67 C 652.58 272.83 668.57 274.91 669.52 275.10 C 670.47 275.29 683.52 279.36 683.52 279.74 C 683.52 280.12 694.98 281.83 697.52 293.57 C 699.05 300.60 699.85 307.77 699.88 314.97 L 690.03 327.97 C 687.80 324.64 686.25 320.90 685.49 316.97 C 684.16 310.34 683.31 306.74 682.84 306.74 C 682.37 306.74 668.54 309.49 667.97 309.87 C 667.40 310.25 670.97 306.87 658.59 304.47 C 646.21 302.07 645.34 309.02 642.21 312.47 C 639.93 314.72 637.20 316.47 634.21 317.62 Z" fill="#9a702d" fill-rule="nonzero" id="path1664" node-id="11" stroke="none" target-height="55.140015" target-width="78.78998" target-x="621.09" target-y="272.83"></path><path d="M 623.00 319.14 C 622.24 321.32 623.09 335.33 627.07 338.08 C 629.60 339.84 632.03 341.74 634.36 343.76 L 632.85 320.09 Z" fill="#9a702d" fill-rule="nonzero" id="path1666" node-id="12" stroke="none" target-height="24.619995" target-width="12.119995" target-x="622.24" target-y="319.14"></path><path d="M 705.71 328.00 C 705.71 328.00 700.71 333.58 701.54 336.90 C 702.37 340.22 706.28 348.36 706.28 348.36 C 706.28 348.36 710.35 350.36 710.45 348.92 C 710.55 347.48 705.71 328.00 705.71 328.00 Z" fill="#9a702d" fill-rule="nonzero" id="path1668" node-id="13" stroke="none" target-height="22.360016" target-width="9.839966" target-x="700.71" target-y="328"></path><path d="M 399.89 616.16 C 398.22 616.45 396.52 616.54 394.83 616.45 L 389.77 616.45 L 392.92 622.45 L 395.92 622.45 C 398.30 622.45 400.82 621.62 400.84 623.45 C 401.35 622.18 399.84 620.88 399.91 616.11 Z" fill="#efca87" fill-rule="nonzero" id="path1660" node-id="14" stroke="none" target-height="7.340027" target-width="11.580017" target-x="389.77" target-y="616.11"></path><path d="M 327.66 512.33 C 327.66 512.33 297.26 532.42 281.59 557.33 C 265.92 582.24 271.01 604.20 283.33 625.33 C 295.65 646.46 317.88 677.83 327.93 694.71 C 337.98 711.59 344.27 766.71 344.27 766.71 L 333.55 730.90 C 333.55 730.90 335.29 753.40 325.38 775.50 C 315.47 797.60 310.65 802.00 306.23 824.25 C 301.81 846.50 304.09 848.76 311.05 854.25 C 318.01 859.74 326.05 861.48 327.39 861.48 C 328.73 861.48 358.46 859.07 359.39 858.80 C 360.32 858.53 367.83 858.53 367.83 858.00 C 367.83 857.47 354.97 853.00 354.17 842.33 C 353.37 831.66 349.35 803.89 349.35 803.89 C 349.35 803.89 358.05 835.89 364.08 843.40 C 370.11 850.91 376.53 858.13 383.77 857.46 C 391.01 856.79 421.67 849.02 421.67 849.02 C 421.67 849.02 421.80 843.26 415.67 832.28 C 409.54 821.30 402.55 800.41 402.55 800.41 C 402.55 800.41 417.95 823.85 424.38 832.95 C 430.81 842.05 438.57 844.47 447.68 845.41 C 456.79 846.35 477.93 844.20 482.00 843.00 C 486.07 841.80 484.67 823.44 480.25 817.69 C 475.83 811.94 453.33 777.59 445.00 748.00 C 436.67 718.41 430.61 691.75 430.61 691.75 C 423.05 688.62 415.72 684.94 408.69 680.75 C 397.84 674.19 398.91 657.44 398.91 657.44 C 398.91 657.44 400.38 640.44 394.62 633.74 C 388.86 627.04 379.76 599.99 375.87 591.82 C 371.98 583.65 374.27 550.17 374.27 550.17 C 374.27 550.17 354.45 545.61 344.00 533.29 C 333.55 520.97 327.65 512.29 327.66 512.29 Z" fill="#f37a81" fill-rule="nonzero" id="path1684" node-id="15" stroke="none" target-height="349.19" target-width="220.15002" target-x="265.92" target-y="512.29"></path><path d="M 243.66 625.50 L 241.39 663.38 L 273.48 657.62 L 256.92 626.26 Z" fill="#f9f1cb" fill-rule="nonzero" id="path1695" node-id="16" stroke="none" target-height="37.880005" target-width="32.09001" target-x="241.39" target-y="625.5"></path><path d="M 462.92 465.72 C 462.92 465.72 462.79 498.40 459.98 508.72 C 457.17 519.04 453.82 527.34 453.68 529.08 C 453.54 530.82 447.12 575.29 447.12 575.29 C 447.12 575.29 441.63 574.08 435.74 573.41 C 432.57 573.15 429.48 572.29 426.63 570.87 C 426.63 570.87 415.11 576.35 406.94 568.87 C 398.77 561.39 408.69 562.04 409.22 552.40 C 409.75 542.76 409.76 486.51 409.09 478.20 C 408.42 469.89 407.09 457.72 406.81 456.11 C 406.53 454.50 401.72 458.79 401.72 458.79 C 401.72 458.79 402.79 518.92 402.53 521.20 C 402.27 523.48 401.86 537.14 401.86 537.14 C 401.86 537.14 394.86 542.62 389.13 543.96 C 383.40 545.30 363.55 540.32 350.00 523.00 C 336.45 505.68 332.85 491.66 335.00 486.84 C 337.15 482.02 353.21 473.71 370.09 465.95 C 386.97 458.19 398.00 437.33 401.86 431.30 C 405.72 425.27 418.73 421.52 418.73 421.52 L 428.24 417.52 C 428.24 417.52 430.52 433.73 439.09 433.33 C 447.66 432.93 445.92 421.68 445.92 421.68 L 451.68 429.85 L 448.46 453.55 L 444.31 484.36 C 444.31 484.36 448.65 485.99 454.36 482.48 C 460.07 478.97 462.92 465.74 462.92 465.74 Z" fill="#c2dc82" fill-rule="nonzero" id="path1679" node-id="17" stroke="none" target-height="158.82999" target-width="130.07" target-x="332.85" target-y="417.52"></path><path d="M 556.67 569.65 C 556.67 569.65 542.92 544.24 532.12 562.42 C 521.32 580.60 522.84 634.00 523.41 638.00 C 523.98 642.00 526.82 760.54 526.82 762.62 C 526.82 764.70 529.82 863.01 529.82 865.28 C 529.82 867.55 528.30 903.54 534.93 905.81 C 541.56 908.08 563.53 906.81 563.53 906.81 L 561.63 794.12 Z" fill="#f9f1cb" fill-rule="nonzero" id="path1699" node-id="18" stroke="none" target-height="363.84003" target-width="42.210022" target-x="521.32" target-y="544.24"></path><path d="M 644.38 380.65 C 637.88 380.70 631.39 381.29 624.98 382.42 C 598.86 386.70 569.53 389.92 569.53 389.92 L 563.37 392.73 C 563.37 392.73 570.87 415.23 573.37 419.92 C 575.87 424.61 574.58 437.46 574.58 437.46 C 574.58 437.46 575.52 438.00 584.22 437.73 C 592.92 437.46 632.84 433.18 643.15 441.35 C 653.46 449.52 656.68 456.21 657.08 456.75 C 657.76 457.45 658.33 458.25 658.76 459.12 L 660.22 422.28 C 660.22 422.28 670.54 438.75 670.16 477.38 C 669.78 516.01 669.02 554.47 663.53 582.31 C 658.04 610.15 652.74 647.47 647.81 672.66 C 645.00 686.86 643.08 701.22 642.08 715.66 C 643.24 727.37 644.82 738.14 646.08 742.05 C 648.76 750.22 658.27 747.67 664.29 748.05 C 667.73 748.31 671.18 748.26 674.61 747.92 C 674.61 747.92 688.94 681.63 690.01 675.20 C 691.08 668.77 705.75 610.74 705.75 609.98 C 705.75 609.22 707.45 594.26 707.45 594.26 C 707.45 594.26 699.87 588.01 700.63 574.37 C 701.39 560.73 710.29 531.94 710.29 531.94 C 710.29 531.94 677.29 468.87 675.29 458.83 C 673.29 448.79 669.42 418.11 671.88 410.35 C 673.93 404.40 676.33 398.58 679.08 392.92 L 677.00 385.92 L 658.74 383.00 C 658.74 383.00 655.12 380.71 644.38 380.68 Z" fill="#72ccd1" fill-rule="nonzero" id="path1686" node-id="19" stroke="none" target-height="369.57004" target-width="146.91998" target-x="563.37" target-y="380.65"></path><path d="M 222.45 583.83 C 222.45 583.83 211.09 558.64 202.56 564.51 C 194.03 570.38 192.33 575.87 192.33 614.70 C 192.33 653.53 194.60 800.89 194.60 810.36 C 194.60 819.83 195.93 901.27 195.93 901.27 C 195.93 901.27 194.23 908.66 207.67 907.14 C 216.04 906.08 224.03 903.03 230.97 898.24 L 228.70 791.24 L 226.43 719.64 L 224.34 631.00 Z" fill="#f9f1cb" fill-rule="nonzero" id="path1697" node-id="20" stroke="none" target-height="350.01996" target-width="38.64" target-x="192.33" target-y="558.64"></path><path d="M 443.29 654.29 C 443.29 654.29 450.87 634.59 462.23 630.42 C 473.59 626.25 511.00 630.72 511.00 630.72 L 511.40 652.72 Z" fill="#f9f1cb" fill-rule="nonzero" id="path1707" node-id="21" stroke="none" target-height="28.039978" target-width="68.109955" target-x="443.29" target-y="626.25"></path><path d="M 513.55 747.00 L 514.08 786.65 L 472.00 785.55 C 472.00 785.55 481.51 748.55 494.37 748.32 C 500.79 748.30 507.19 747.86 513.55 747.00 Z" fill="#f9f1cb" fill-rule="nonzero" id="path1709" node-id="22" stroke="none" target-height="39.649963" target-width="42.080017" target-x="472" target-y="747"></path><path d="M 647.85 749.18 C 647.85 749.18 668.00 773.26 660.94 778.00 C 653.88 782.74 579.10 780.83 579.10 780.83 L 578.10 745.83 Z" fill="#f9f1cb" fill-rule="nonzero" id="path1711" node-id="23" stroke="none" target-height="36.910034" target-width="89.900024" target-x="578.1" target-y="745.83"></path><path d="M 573.22 619.82 C 573.22 619.82 632.51 617.92 635.16 620.38 C 637.81 622.84 632.70 649.74 625.69 651.63 C 618.68 653.52 573.79 651.45 573.79 651.45 Z" fill="#f9f1cb" fill-rule="nonzero" id="path1714" node-id="24" stroke="none" target-height="35.600037" target-width="64.59003" target-x="573.22" target-y="617.92"></path><path d="M 926.81 287.93 C 924.38 287.87 921.96 288.21 919.64 288.93 C 887.26 298.59 880.82 334.93 874.94 357.49 C 869.06 380.05 868.69 419.24 876.65 438.37 C 884.61 457.50 883.09 477.57 880.44 473.79 C 877.79 470.01 868.69 514.51 878.92 552.79 C 884.89 575.63 900.15 594.93 921.00 606.00 C 919.03 598.88 917.76 591.59 917.21 584.22 C 916.07 570.96 908.69 565.47 901.11 551.07 C 893.53 536.67 900.73 537.07 900.73 537.07 L 922.32 559.43 L 921.37 475.90 C 921.37 475.90 918.73 396.73 922.13 379.11 C 925.53 361.49 932.55 376.27 932.55 376.27 C 932.55 376.27 938.42 370.97 942.21 405.82 C 945.64 437.38 947.52 597.26 954.87 640.37 L 957.36 636.70 C 957.36 636.70 965.50 637.46 987.48 618.52 C 1009.46 599.58 1013.42 576.52 1007.93 566.43 C 1002.44 556.34 1003.76 535.37 1004.71 498.43 C 1005.66 461.49 991.26 442.74 981.79 425.32 C 972.32 407.90 961.15 342.17 961.15 342.17 C 961.15 342.17 953.43 288.73 926.84 287.95 Z" fill="#f9f1cb" fill-rule="nonzero" id="path1716" node-id="25" stroke="none" target-height="352.49747" target-width="144.72992" target-x="868.69" target-y="287.87253"></path><path d="M 888.00 274.15 C 888.00 274.15 871.90 286.46 864.90 275.86 C 857.90 265.26 836.49 276.05 838.76 288.36 C 841.03 300.67 842.17 306.54 833.26 312.98 C 824.35 319.42 785.91 329.65 785.91 329.65 L 860.38 324.45 C 860.38 324.45 876.16 286.00 888.00 274.15 Z" fill="#f9f1cb" fill-rule="nonzero" id="path1722" node-id="26" stroke="none" target-height="64.389984" target-width="102.089966" target-x="785.91003" target-y="265.26"></path><path d="M 433.06 253.89 C 433.06 253.89 407.50 230.40 386.28 239.89 C 365.06 249.38 357.11 217.89 338.17 217.54 C 319.23 217.19 326.05 233.26 326.05 233.26 C 326.05 233.26 291.96 214.13 277.75 235.16 C 263.54 256.19 243.28 259.59 243.28 259.59 C 243.28 259.59 289.69 263.00 324.00 261.09 C 358.31 259.18 433.09 253.89 433.09 253.89 Z" fill="#f9f1cb" fill-rule="nonzero" id="path1724" node-id="27" stroke="none" target-height="48.869995" target-width="189.81" target-x="243.28" target-y="214.13"></path><path d="M 221.12 406.55 C 221.12 406.55 211.27 378.14 191.95 392.91 C 172.63 407.68 184.00 417.34 184.00 417.34 L 168.66 429.66 C 168.66 429.66 241.77 429.47 248.21 428.90 C 254.65 428.33 271.69 422.46 271.69 422.46 C 271.69 422.46 249.34 419.05 242.90 417.91 C 236.46 416.77 230.78 406.17 230.78 406.17 C 230.78 406.17 224.91 401.24 221.12 406.55 Z" fill="#f9f1cb" fill-rule="nonzero" id="path1728" node-id="28" stroke="none" target-height="51.51999" target-width="103.03" target-x="168.66" target-y="378.14"></path><path d="M 1008.57 920.05 C 1008.57 931.88 917.06 942.78 769.64 948.50 C 622.22 954.22 442.18 953.87 299.54 947.58 C 156.90 941.29 74.22 930.00 83.64 918.23 L 545.74 920.05 Z" fill="#f9f1cb" fill-rule="nonzero" id="path2533" node-id="29" stroke="none" target-height="35.98999" target-width="934.3501" target-x="74.22" target-y="918.23"></path><path d="M 954.71 815.54 C 954.71 815.54 947.21 872.33 942.39 889.47 C 937.57 906.61 936.50 916.79 936.50 916.79 L 973.62 918.32 C 973.62 918.32 959.80 890.85 955.82 861.12 C 951.84 831.39 954.71 815.54 954.71 815.54 Z" fill="#f9f1cb" fill-rule="nonzero" id="path1732" node-id="30" stroke="none" target-height="102.78003" target-width="37.119995" target-x="936.5" target-y="815.54"></path><path d="M 308.89 153.00 C 296.47 153.00 290.61 155.56 280.79 165.38 C 271.23 174.94 268.39 181.15 268.39 192.53 L 268.39 201.08 L 264.39 199.68 C 258.83 197.74 247.58 198.56 242.26 201.29 C 237.23 203.92 233.05 207.93 230.20 212.84 C 226.13 220.67 227.74 235.84 233.46 243.58 L 236.00 247.00 L 222.94 248.78 C 204.00 251.34 195.41 255.14 197.31 260.10 C 198.57 263.37 203.31 263.81 244.42 264.47 C 308.28 265.47 333.42 265.52 346.92 264.53 C 353.79 264.02 373.81 262.47 391.42 261.08 C 409.03 259.69 433.31 257.85 445.42 257.00 C 475.42 254.87 494.42 252.87 506.92 250.53 C 512.70 249.45 518.54 248.43 519.92 248.28 C 523.03 247.93 523.74 245.00 521.05 243.56 C 519.95 242.97 513.05 241.79 505.74 240.94 C 498.43 240.09 483.74 238.30 473.15 236.94 C 462.56 235.58 448.71 234.49 442.40 234.49 L 430.89 234.49 L 430.89 231.65 C 430.89 226.75 426.75 220.34 421.89 217.79 C 416.64 215.02 412.17 214.93 404.89 217.45 C 401.89 218.45 399.26 219.20 399.09 219.03 C 398.92 218.86 399.53 215.03 400.44 210.49 C 402.34 201.13 401.86 194.49 398.77 187.49 C 396.20 181.67 393.52 178.88 387.38 175.64 C 382.90 173.27 381.30 172.99 371.88 172.99 C 359.88 172.99 354.61 174.51 347.31 180.09 C 345.77 181.36 344.11 182.50 342.37 183.48 C 342.10 183.48 341.88 182.37 341.88 181.02 C 341.88 176.60 337.88 167.78 333.81 163.14 C 331.01 160.16 327.73 157.68 324.10 155.80 C 319.10 153.34 317.23 152.99 308.88 152.99 Z M 309.11 158.60 C 319.82 158.63 329.52 164.92 333.91 174.69 C 336.68 181.04 337.72 193.46 335.91 198.83 C 335.26 200.83 335.02 202.93 335.38 203.51 C 336.50 205.32 339.00 202.43 341.99 195.86 C 343.52 192.50 346.25 188.49 348.07 186.95 C 359.07 177.64 378.07 175.80 387.63 183.12 C 389.76 184.90 391.54 187.06 392.88 189.50 C 396.88 197.34 394.55 219.01 388.88 226.68 C 387.39 228.68 386.88 230.42 387.30 232.06 C 388.11 235.31 390.38 235.12 392.44 231.64 C 394.50 228.16 405.13 222.64 411.20 221.87 C 416.82 221.12 420.29 222.65 423.32 227.23 C 425.64 230.30 426.51 234.23 425.72 238.00 C 425.41 239.91 426.12 240.00 441.40 240.60 C 455.29 241.12 494.40 245.34 493.51 246.22 C 493.07 246.66 453.80 250.16 434.40 251.48 C 425.60 252.09 402.85 253.91 383.84 255.54 C 364.83 257.17 339.84 258.94 328.34 259.48 C 316.84 260.02 306.27 260.39 304.90 260.31 L 290.90 259.46 C 284.57 259.08 264.32 258.70 245.90 258.62 C 203.65 258.44 200.02 257.38 229.90 253.99 C 237.32 253.15 243.96 252.26 244.65 251.99 C 246.97 251.17 245.91 248.29 241.47 243.35 C 235.89 237.15 233.47 230.22 234.20 222.83 C 234.91 215.89 237.91 211.15 243.73 207.73 C 253.43 202.02 269.25 205.24 277.22 214.55 C 280.97 218.93 281.43 219.15 282.22 216.98 C 283.15 214.56 281.08 210.46 277.08 206.80 C 273.39 203.42 273.37 203.35 273.44 195.62 C 273.44 189.11 274.00 186.80 276.54 181.41 C 282.37 169.11 295.18 159.52 306.92 158.67 C 307.64 158.67 308.36 158.60 309.07 158.60 Z M 310.19 215.53 C 307.40 215.63 304.65 216.29 302.12 217.47 C 296.71 219.93 287.38 229.17 286.69 232.76 C 286.41 234.27 286.66 235.83 287.41 237.17 C 288.53 238.70 288.80 238.57 290.21 235.85 C 293.41 229.66 304.83 221.49 310.29 221.49 C 316.23 221.49 321.89 226.68 321.89 232.17 C 321.98 233.81 322.32 235.44 322.89 236.98 C 324.11 240.18 325.58 239.48 326.69 235.19 C 327.34 232.65 328.33 231.70 331.50 230.59 C 336.31 228.90 342.90 229.78 342.90 232.11 C 342.90 234.69 345.37 233.02 345.71 230.22 C 346.29 225.28 337.56 222.22 330.14 224.79 L 326.00 226.20 L 324.00 222.84 C 321.13 218.01 315.80 215.18 310.19 215.50 Z M 856.09 226.34 C 851.24 226.31 846.44 227.40 842.09 229.55 C 828.78 236.20 818.85 253.09 818.91 268.95 C 818.91 273.85 820.83 284.20 822.35 287.74 C 822.95 289.13 822.61 289.49 820.69 289.49 C 819.37 289.49 816.19 290.81 813.69 292.43 C 808.69 295.59 803.46 303.43 802.33 309.25 C 801.99 311.04 801.41 312.70 801.03 312.93 C 800.65 313.16 790.47 316.34 778.40 319.99 C 748.27 329.09 744.17 331.14 748.13 335.11 C 749.29 336.27 750.50 336.38 754.02 335.61 C 756.45 335.07 763.39 334.17 769.44 333.61 C 782.53 332.37 857.70 329.92 858.44 330.71 C 858.73 331.01 858.31 335.47 857.44 340.63 C 853.44 365.80 853.01 391.22 856.31 411.00 C 857.14 416.00 860.07 428.92 862.84 439.82 C 868.73 463.12 868.93 466.95 865.31 487.00 C 863.93 494.70 862.52 506.00 862.19 512.00 C 860.68 539.90 868.78 572.00 881.11 587.00 C 889.11 596.77 901.47 606.30 914.60 612.92 C 917.49 614.37 919.86 616.12 919.86 616.80 C 919.86 617.48 920.73 626.36 921.78 636.53 C 922.83 646.70 924.21 666.73 924.83 681.03 C 925.45 695.33 926.83 723.26 927.91 743.10 C 930.24 786.37 930.40 820.10 928.38 839.17 C 927.57 846.79 925.99 861.80 924.87 872.53 C 922.77 892.63 922.14 896.27 918.75 907.78 L 916.75 914.45 L 929.36 914.30 C 925.36 914.11 923.83 913.79 923.83 913.25 C 924.29 910.46 924.93 907.71 925.72 905.00 C 928.56 894.48 929.13 890.05 934.35 837.52 C 936.01 820.85 936.21 790.07 934.83 764.02 C 933.53 739.32 932.07 708.69 930.83 679.52 C 929.11 639.58 924.34 599.58 919.27 582.52 C 918.37 579.52 917.43 575.90 917.18 574.52 C 916.93 573.14 913.62 566.61 909.83 560.01 C 897.45 538.48 897.23 534.86 909.20 549.59 C 921.40 564.59 921.69 564.89 923.41 563.47 C 924.76 562.35 924.88 551.98 924.49 471.80 C 924.22 417.05 924.42 380.04 924.99 377.98 C 925.86 374.83 927.47 372.79 928.37 373.70 C 930.15 375.47 931.04 393.90 931.85 445.01 C 933.26 535.38 933.85 557.53 934.85 563.51 C 935.41 567.10 935.75 570.72 935.85 574.35 C 935.91 581.02 938.49 618.48 940.44 641.01 C 941.24 650.36 942.35 671.01 942.90 687.01 C 944.27 727.01 945.79 753.66 949.40 800.51 C 950.18 810.69 951.09 823.96 951.40 830.01 C 952.99 858.65 955.53 879.57 958.55 889.01 C 959.43 891.76 961.90 898.15 964.03 903.21 C 966.16 908.27 967.90 912.88 967.90 913.46 C 967.90 913.68 967.10 913.86 965.66 914.01 L 974.77 914.01 L 971.25 906.01 C 962.07 885.08 960.09 874.44 957.38 831.51 C 956.53 818.03 955.18 798.90 954.38 789.01 C 951.76 756.31 949.93 723.46 948.82 689.09 C 947.82 658.40 947.82 655.09 949.31 654.28 C 952.39 652.56 955.94 647.97 957.06 644.28 C 957.69 642.19 958.84 640.53 959.64 640.53 C 962.29 640.53 974.39 633.53 981.43 627.97 C 994.86 617.32 1005.69 605.67 1009.69 597.57 C 1013.25 590.39 1013.38 589.75 1013.34 579.57 C 1013.53 572.60 1012.51 565.65 1010.34 559.03 C 1007.11 547.93 1006.93 543.46 1007.80 498.53 C 1008.37 469.08 1008.04 467.87 990.60 435.53 C 985.33 425.77 981.60 414.91 975.88 393.29 C 968.11 363.64 966.40 352.79 964.31 320.03 C 962.23 287.48 959.70 278.78 949.25 268.24 C 936.76 255.66 921.05 252.71 905.19 259.97 L 899.83 262.42 L 897.49 260.00 C 894.27 256.78 887.84 255.13 883.37 256.36 L 879.88 257.36 L 879.88 253.19 C 879.79 244.19 873.04 232.19 866.02 228.57 C 862.93 227.10 859.56 226.35 856.14 226.38 Z M 856.00 232.51 C 862.60 232.61 867.93 236.88 872.42 245.51 C 874.97 250.40 876.98 259.34 875.70 260.12 C 873.96 261.20 868.89 269.82 868.89 271.70 C 868.89 274.64 870.55 273.82 876.12 268.09 C 882.27 261.77 886.39 260.44 892.24 262.88 L 895.91 264.41 L 885.54 274.71 C 876.54 283.71 874.60 286.20 870.59 294.40 C 867.62 300.78 865.15 307.38 863.20 314.14 L 860.39 324.50 L 840.30 324.50 C 829.30 324.50 811.92 324.76 801.80 325.07 L 783.39 325.63 L 791.39 322.71 C 805.59 317.51 805.82 317.38 806.50 313.71 C 806.84 311.89 808.84 307.71 810.94 304.48 C 816.56 295.79 823.16 293.16 828.61 297.48 C 830.95 299.32 833.89 300.16 833.89 299.00 C 833.00 297.11 831.98 295.29 830.83 293.55 C 828.62 289.56 827.05 285.25 826.17 280.78 C 822.23 261.58 830.71 242.13 846.17 234.94 C 849.23 233.40 852.59 232.57 856.01 232.50 Z M 922.00 262.29 C 930.06 262.38 937.78 265.62 944.31 271.97 C 953.71 281.10 956.31 290.22 957.87 319.97 C 959.57 351.87 961.20 362.56 968.94 392.47 C 975.09 416.27 978.79 427.05 984.57 437.97 C 1002.37 471.60 1002.42 471.78 1001.24 504.97 C 1000.06 538.16 1000.39 546.28 1003.40 558.10 C 1008.48 578.10 1008.56 585.32 1003.79 595.17 C 998.34 606.42 971.99 629.35 959.70 633.53 C 953.59 635.60 952.07 636.97 951.31 641.01 C 950.97 642.84 950.13 644.55 948.90 645.95 C 947.22 647.47 947.09 647.27 946.50 642.27 C 945.72 635.61 943.40 604.83 941.50 575.47 C 939.89 550.91 938.74 499.69 938.37 436.47 C 938.04 378.61 936.20 366.47 927.77 366.47 C 924.77 366.47 920.24 371.23 918.99 375.70 C 917.60 380.70 918.28 528.21 919.78 544.47 C 920.26 549.70 920.57 554.07 920.48 554.19 C 918.64 552.18 916.93 550.05 915.36 547.82 C 909.14 539.55 902.36 533.47 899.30 533.47 C 895.94 533.47 893.55 537.47 894.45 541.68 C 895.45 546.48 900.37 555.77 906.93 565.47 L 912.68 573.97 L 915.68 591.22 C 917.32 600.71 918.37 608.47 918.01 608.47 C 914.88 606.93 911.84 605.21 908.91 603.32 C 897.91 596.60 883.57 582.32 879.57 574.03 C 871.47 557.27 868.57 542.92 868.49 519.47 C 868.49 504.47 868.85 499.69 871.31 485.97 C 874.87 466.11 874.63 461.97 868.57 437.92 C 862.41 413.44 860.94 404.48 860.28 387.47 C 859.00 355.07 867.30 310.82 878.00 292.82 C 881.89 286.28 893.44 274.24 900.45 269.41 C 907.46 264.58 914.89 262.18 922.01 262.26 Z M 330.82 280.00 C 328.53 280.00 328.32 288.86 329.28 344.00 C 330.12 392.05 329.11 447.48 327.28 455.84 C 326.71 458.39 326.88 458.64 329.03 458.34 C 332.17 457.90 333.46 452.67 334.91 434.63 C 337.04 408.19 335.61 292.50 333.04 282.90 C 332.62 281.31 331.63 280.00 330.84 280.00 Z M 368.77 310.69 C 366.67 310.69 365.91 316.39 364.53 340.54 C 362.06 383.47 361.53 405.39 362.98 407.12 C 366.49 411.34 367.83 402.26 369.98 360.00 C 371.30 333.62 370.98 311.34 369.25 310.77 C 369.11 310.72 368.96 310.69 368.81 310.69 Z M 294.41 339.69 C 293.49 339.83 292.67 340.34 292.14 341.10 C 290.95 342.66 290.79 345.66 291.27 357.51 C 291.87 372.05 294.14 393.44 295.44 396.81 L 295.44 396.81 C 295.82 397.81 296.64 398.42 297.26 398.21 C 298.55 397.77 298.57 394.53 297.45 362.69 C 296.79 344.06 296.45 340.27 295.13 339.78 C 294.90 339.70 294.65 339.66 294.41 339.68 Z M 192.89 367.00 C 187.34 367.00 184.09 367.63 180.39 369.29 C 174.71 371.84 168.57 377.38 166.86 381.51 C 165.86 383.96 165.39 384.19 163.23 383.37 C 161.11 382.74 158.91 382.42 156.70 382.43 C 153.35 382.43 152.05 383.05 149.35 385.91 C 145.10 390.41 144.20 395.53 146.35 402.91 C 148.14 409.08 154.41 416.40 157.89 416.40 C 160.49 416.40 160.44 414.21 157.79 411.81 C 152.01 406.58 149.59 394.61 153.45 390.34 C 155.04 388.58 156.18 388.29 159.81 388.70 C 163.44 389.11 164.92 389.96 167.91 393.30 C 173.69 399.75 175.52 398.57 171.91 390.70 C 170.00 386.50 170.00 386.49 172.20 383.23 C 180.26 371.23 199.93 369.14 210.90 379.05 C 217.33 384.86 219.69 397.05 216.46 407.74 C 214.69 413.65 216.17 414.91 219.76 410.54 C 221.70 408.19 223.18 407.39 225.57 407.39 C 229.36 407.39 233.65 411.39 234.57 415.72 C 235.43 419.84 238.32 421.12 248.39 421.84 C 253.33 422.20 258.74 422.77 260.39 423.12 L 263.39 423.74 L 259.90 424.64 C 257.97 425.13 232.77 425.73 203.90 425.96 C 153.02 426.37 151.55 426.33 156.39 424.64 C 159.67 423.50 161.51 422.25 161.74 421.00 C 162.07 419.23 161.61 419.15 154.61 419.78 C 142.70 420.86 132.23 422.95 129.40 424.78 C 126.27 426.78 126.33 430.29 129.52 431.88 L 129.52 431.88 C 132.29 433.25 242.99 432.72 254.89 431.27 C 263.00 430.27 276.99 426.27 279.65 424.12 C 280.50 423.39 280.94 422.30 280.84 421.19 C 280.74 420.08 280.10 419.09 279.14 418.53 C 278.14 418.04 269.80 417.31 260.51 416.92 C 242.51 416.17 238.89 415.46 238.89 412.62 C 238.89 409.05 234.06 403.49 229.99 402.39 C 227.86 401.82 225.50 401.58 224.75 401.87 C 223.69 402.28 223.38 400.81 223.32 395.13 C 223.14 377.29 211.86 366.84 192.89 366.94 Z M 203.18 537.67 C 202.51 537.66 201.84 537.72 201.18 537.86 C 197.02 538.86 186.40 552.61 179.46 561.37 C 174.72 567.37 174.98 571.37 174.72 575.66 L 175.28 596.44 L 176.00 623.19 L 160.18 623.66 C 151.47 623.93 143.18 624.66 141.65 625.24 C 136.88 627.24 135.88 630.82 135.65 647.24 C 135.27 670.04 135.41 670.16 159.07 668.71 C 168.07 668.16 175.54 667.83 175.71 667.98 C 176.21 668.41 178.19 745.51 177.71 745.98 C 177.47 746.22 170.83 746.72 162.95 747.09 C 146.62 747.87 144.52 748.80 142.86 755.96 C 141.65 761.25 141.64 786.64 142.86 789.85 C 143.39 791.24 145.61 793.29 147.80 794.40 C 152.11 796.60 167.53 799.45 175.16 799.45 L 179.91 799.45 L 180.09 828.20 C 180.19 844.02 180.31 862.35 180.35 868.95 C 180.39 875.55 180.58 888.38 180.76 897.45 C 181.06 911.93 180.84 916.45 179.43 916.69 C 178.26 916.92 177.90 917.04 177.90 914.88 C 177.90 912.72 176.20 906.64 171.90 901.34 C 165.34 893.34 161.90 887.17 161.90 883.43 C 161.90 882.12 163.28 876.18 164.97 870.24 C 168.51 857.75 168.58 852.12 165.23 851.64 C 162.31 851.23 155.54 857.42 151.82 863.91 L 148.92 868.91 L 148.92 864.91 C 148.92 859.49 150.61 840.63 152.48 825.37 C 154.20 811.37 153.60 807.37 149.81 807.37 C 142.35 807.37 130.62 823.01 125.05 840.37 C 122.68 847.78 119.95 862.64 119.84 868.75 C 119.77 872.56 119.55 872.20 116.97 864.14 C 112.40 849.91 109.28 847.29 104.53 853.67 C 102.75 856.07 102.47 857.79 102.53 865.67 C 102.61 871.30 103.32 876.90 104.66 882.37 C 105.76 886.50 106.54 890.00 106.39 890.16 C 104.74 890.03 103.11 889.69 101.54 889.16 C 97.44 888.06 96.73 888.16 94.91 889.78 C 93.89 890.64 93.18 891.82 92.91 893.13 C 92.91 894.78 99.17 906.44 102.07 910.21 C 102.89 911.15 103.52 912.25 103.91 913.44 C 103.91 913.58 103.13 913.72 101.91 913.86 L 111.10 914.32 L 105.92 905.27 C 103.07 900.27 100.92 896.04 101.12 895.82 C 101.32 895.60 103.40 895.91 105.71 896.49 C 109.17 897.37 110.36 898.35 112.58 902.19 C 114.29 905.09 116.17 907.89 118.19 910.58 L 121.12 914.32 L 130.35 914.32 L 126.21 910.07 C 116.21 899.86 107.94 878.55 107.94 863.20 C 107.94 856.15 109.59 858.41 113.36 870.59 C 117.53 884.10 122.28 895.33 123.82 895.33 C 125.73 895.33 125.98 893.33 126.31 875.14 C 126.58 860.14 127.05 855.28 128.87 848.33 C 131.68 837.64 138.67 823.20 143.87 817.33 L 147.87 812.83 L 147.87 816.32 C 147.87 818.25 147.25 824.77 146.47 830.83 C 145.30 839.83 144.47 865.48 144.95 876.32 C 144.90 879.41 144.70 882.49 144.35 885.56 C 143.83 890.41 143.99 892.71 144.89 893.81 C 147.15 896.52 148.89 895.60 148.89 891.72 C 148.89 886.31 151.69 876.51 155.00 870.32 C 158.31 864.13 162.48 858.57 161.46 861.72 C 159.35 868.18 156.89 879.22 156.89 882.19 C 156.89 885.71 158.07 890.31 160.39 895.82 C 161.08 897.47 164.39 901.93 167.77 905.72 C 170.42 909.01 172.49 912.73 173.89 916.72 L 173.89 916.72 C 173.89 916.78 173.71 916.83 173.40 916.89 C 178.37 917.15 183.34 917.15 188.31 916.89 C 187.97 916.87 187.65 916.75 187.37 916.56 C 187.01 915.99 186.32 876.66 185.84 833.10 C 185.36 789.54 184.48 740.40 183.90 723.90 C 183.32 707.40 182.44 666.25 181.90 632.46 L 181.00 571.08 L 184.86 564.48 C 189.75 556.11 196.86 547.48 200.70 545.20 L 203.70 543.45 L 206.70 547.20 C 213.82 556.20 222.99 571.66 222.38 573.57 C 221.20 577.29 224.74 766.38 226.90 814.96 C 227.44 827.06 228.07 854.40 228.31 875.71 L 228.75 917.71 L 236.19 917.71 L 235.56 913.44 C 235.21 911.10 234.69 889.76 234.40 869.97 C 234.11 850.18 233.40 825.27 232.79 814.65 C 232.18 804.03 231.94 795.11 232.21 794.84 C 232.68 794.37 304.67 792.42 305.14 792.84 L 305.14 792.84 L 307.14 786.21 L 286.27 786.81 C 274.79 787.15 257.91 787.63 248.75 787.88 L 232.11 788.34 L 231.64 784.64 C 231.38 782.64 231.09 774.79 230.99 767.28 L 230.81 753.64 L 242.61 752.89 C 249.09 752.49 262.97 752.43 273.45 752.78 C 283.93 753.13 298.63 752.95 306.32 752.37 C 314.01 751.79 321.81 751.52 322.04 751.74 C 322.05 751.76 322.05 751.80 322.04 751.82 C 322.84 749.01 323.47 746.16 323.92 743.27 C 323.31 744.99 320.39 745.27 309.10 745.82 C 302.10 746.19 284.45 746.44 269.87 746.37 C 255.29 746.30 240.59 746.58 237.19 746.97 L 231.01 747.68 L 230.65 737.31 C 230.45 731.61 230.19 715.24 230.06 700.94 C 229.93 686.64 229.58 672.85 229.24 670.29 L 228.64 665.65 L 239.01 665.06 C 258.90 663.94 287.41 663.47 291.38 664.20 C 293.85 664.66 295.04 665.20 297.62 668.59 L 290.58 657.00 L 273.49 657.65 L 273.49 657.65 C 264.10 658.01 250.22 658.56 242.66 658.88 L 228.91 659.46 L 228.91 627.23 L 232.03 627.85 C 233.75 628.20 244.03 628.49 254.78 628.49 L 274.41 628.49 L 270.79 621.63 C 270.83 621.75 270.86 621.87 270.89 621.99 C 270.89 622.65 238.48 622.43 232.76 621.73 L 229.13 621.28 L 228.39 594.65 L 227.90 577.00 C 227.84 569.09 225.90 565.12 222.50 559.47 C 214.69 546.66 209.19 539.53 206.40 538.26 C 205.38 537.86 204.29 537.66 203.20 537.67 Z M 175.89 629.30 L 175.89 645.38 C 175.89 654.22 175.73 661.45 175.54 661.45 C 175.35 661.45 169.38 661.91 162.29 662.45 C 155.20 662.99 148.29 663.67 146.89 663.93 C 141.56 664.93 140.89 663.43 140.89 650.63 C 140.89 639.99 141.89 632.13 143.23 630.74 C 143.53 630.45 150.99 630.00 159.82 629.74 Z M 201.00 635.39 C 199.07 635.44 197.22 636.61 195.48 638.89 C 191.88 643.60 192.04 647.58 195.94 650.89 C 205.04 658.54 215.11 647.30 206.94 638.58 C 204.94 636.41 202.94 635.35 200.94 635.41 Z M 202.11 641.14 C 203.27 641.24 203.86 642.71 203.86 645.53 C 203.86 647.41 200.98 648.24 199.53 646.79 C 198.08 645.34 198.90 642.50 200.76 641.51 C 201.16 641.26 201.63 641.13 202.11 641.14 Z M 177.23 752.67 C 177.63 752.64 178.03 752.65 178.43 752.72 C 178.53 752.85 178.92 762.07 179.28 773.21 C 179.64 784.35 179.60 793.39 179.17 793.30 C 178.74 793.21 173.89 792.84 168.39 792.48 C 158.58 791.82 156.16 791.38 150.64 789.27 L 147.89 788.21 L 147.89 773.40 C 147.89 765.25 148.30 757.50 148.80 756.18 C 149.70 753.84 150.11 753.76 163.98 753.18 C 169.86 752.91 174.98 752.74 177.23 752.73 Z M 207.17 759.90 C 203.58 759.76 200.13 761.34 197.90 764.16 C 194.61 768.35 195.83 775.16 200.26 777.28 C 204.69 779.40 208.89 778.65 212.49 775.05 C 216.49 771.05 216.94 767.05 213.91 763.20 C 212.26 761.16 209.79 759.96 207.17 759.90 Z M 206.66 765.54 C 207.58 765.70 208.39 766.23 208.90 767.00 C 209.90 768.24 209.84 768.88 208.37 770.50 C 206.23 772.87 204.58 773.02 202.88 770.97 C 201.88 769.72 201.94 769.09 203.41 767.47 C 204.62 766.13 205.66 765.47 206.66 765.57 Z M 881.18 816.61 C 879.98 816.61 878.62 817.61 876.90 819.43 C 870.33 826.43 864.98 848.43 864.16 871.77 L 863.60 887.58 L 859.66 880.32 C 852.25 866.65 848.25 863.22 844.32 867.16 C 840.13 871.34 845.01 895.22 852.85 908.92 L 856.02 914.45 L 856.02 914.45 C 856.02 914.45 863.56 914.45 869.39 914.23 C 865.93 913.96 864.99 913.33 863.10 911.84 C 857.59 907.50 850.17 889.76 848.51 876.96 C 847.86 871.96 847.86 871.96 849.62 874.46 C 850.62 875.83 854.34 881.90 857.96 887.95 C 862.69 895.86 865.08 898.95 866.46 898.95 C 868.27 898.95 868.46 897.83 869.02 880.95 C 869.71 861.20 871.75 846.95 875.51 835.57 C 880.69 819.99 880.82 820.33 880.64 848.45 C 880.40 886.45 881.96 889.40 893.87 872.91 C 897.45 867.91 901.20 862.76 902.18 861.41 C 903.94 859.00 903.96 859.14 903.51 868.95 C 902.89 877.16 901.72 885.31 900.00 893.36 C 898.31 901.29 896.92 909.27 896.92 911.11 L 896.92 914.44 C 898.61 914.52 900.29 914.34 901.92 913.89 C 901.78 913.86 901.65 913.80 901.55 913.70 C 901.30 913.29 902.61 906.22 904.46 898.00 C 910.93 869.33 911.01 852.61 904.68 852.47 C 902.68 852.42 896.21 859.70 891.68 867.10 C 888.87 871.70 886.37 875.46 886.13 875.46 C 885.89 875.46 885.84 863.40 886.03 848.67 C 886.35 824.36 886.22 821.67 884.61 819.17 C 883.47 817.43 882.40 816.57 881.19 816.61 Z" fill="#efca87" fill-rule="nonzero" id="path1736" node-id="31" stroke="none" target-height="764.72003" target-width="920.6158" target-x="92.91001" target-y="152.99"></path><path d="M 536.58 537.55 C 534.80 537.55 532.87 538.34 530.49 539.95 C 528.49 541.27 524.68 544.95 524.38 545.05 L 524.11 545.49 C 522.13 549.69 520.55 554.08 519.40 558.58 C 522.55 552.93 530.05 547.38 533.75 545.19 L 536.75 543.44 L 539.70 547.20 C 546.82 556.20 555.99 571.66 555.39 573.57 C 554.20 577.29 557.74 766.38 559.90 814.95 C 560.44 827.05 561.08 854.39 561.32 875.70 L 561.76 916.54 L 569.18 916.54 L 568.50 911.43 C 567.89 906.84 565.75 823.30 565.50 795.99 L 565.41 784.99 L 617.91 784.85 C 646.79 784.77 671.15 784.39 672.05 784.01 C 672.23 783.93 675.54 783.89 675.69 783.90 L 673.51 777.16 L 660.96 777.96 C 647.87 778.79 565.09 779.28 564.34 778.53 C 564.10 778.30 563.91 771.36 563.91 763.11 L 563.91 748.11 L 580.16 748.85 C 594.71 749.51 627.31 750.29 648.16 750.57 C 646.44 748.35 644.95 745.95 643.72 743.42 L 615.00 743.24 C 599.24 743.13 581.29 742.89 575.10 742.71 L 563.85 742.39 L 563.85 736.67 C 563.85 733.53 563.62 728.48 563.39 725.46 C 563.16 722.44 562.73 705.19 562.45 687.14 L 561.93 654.33 L 601.52 654.54 L 642.61 654.74 L 643.46 646.59 C 643.42 646.69 643.37 646.79 643.31 646.89 C 642.80 647.42 624.02 647.99 601.41 648.21 L 561.89 648.59 L 561.89 622.00 L 604.38 622.00 C 641.66 622.00 646.81 622.18 646.45 623.50 C 646.45 623.50 646.45 623.61 646.45 623.63 C 648.67 620.12 649.79 616.03 649.67 611.88 L 649.67 611.71 C 648.67 614.92 645.98 614.50 642.82 614.92 C 640.06 615.28 620.82 615.81 600.03 616.10 L 562.24 616.62 L 561.58 599.90 C 561.22 590.70 560.92 579.90 560.92 575.90 C 560.92 569.33 560.57 568.00 557.27 562.31 C 551.88 553.00 543.10 540.71 540.62 539.00 C 539.47 538.12 538.07 537.63 536.62 537.58 Z M 515.18 568.65 L 515.18 568.65 L 515.18 568.65 Z M 515.18 568.65 L 507.60 580.00 L 508.24 596.88 C 508.97 615.95 509.43 615.30 505.36 616.07 C 501.29 616.84 436.46 617.24 436.46 616.49 C 436.46 616.49 436.54 616.04 436.56 615.97 L 436.38 616.03 L 435.18 623.03 L 508.89 623.03 L 508.89 649.53 L 491.64 649.53 C 482.15 649.53 468.09 649.97 460.39 650.53 C 434.78 652.29 427.46 652.30 426.74 651.76 C 425.65 654.05 426.45 657.76 426.00 660.24 C 426.03 660.18 426.06 660.12 426.08 660.05 C 427.13 657.75 427.43 657.71 442.15 657.61 C 450.39 657.61 457.58 657.25 458.15 656.92 C 458.72 656.59 470.28 656.24 483.90 656.15 L 508.66 655.99 L 509.30 678.52 C 509.66 690.92 510.23 710.62 510.58 722.30 L 511.21 743.55 L 506.82 743.55 C 504.40 743.55 500.18 743.74 497.42 743.95 C 490.42 744.50 445.49 742.66 444.64 741.77 C 444.62 741.75 444.60 741.72 444.59 741.69 C 444.59 741.69 444.47 742.37 444.47 742.37 C 444.47 742.37 445.58 745.89 446.96 749.62 C 446.91 749.37 446.95 749.11 447.09 748.89 C 447.63 748.77 448.18 748.74 448.73 748.78 C 451.73 748.78 460.47 749.01 468.01 749.46 C 478.01 750.05 492.01 750.53 499.01 750.53 L 511.78 750.53 L 512.08 765.28 C 512.25 773.39 512.15 780.34 511.88 780.71 C 511.61 781.08 500.03 781.54 486.16 781.71 L 458.79 782.03 C 460.14 784.90 461.71 787.66 463.46 790.30 C 463.15 789.83 462.91 789.32 462.74 788.78 C 462.74 787.78 470.25 787.53 488.41 787.53 C 506.36 787.53 512.04 787.83 512.34 788.78 C 512.56 789.47 512.99 817.34 513.29 850.72 C 513.59 884.10 513.96 914.08 514.11 914.80 C 514.26 915.52 512.43 915.91 506.59 916.15 L 523.21 916.15 C 521.51 915.99 520.49 915.80 520.35 915.57 C 520.00 915.00 519.35 877.03 518.83 833.74 C 518.31 790.45 517.49 741.00 516.90 724.00 C 516.31 707.00 515.44 666.67 514.97 634.50 C 514.30 588.79 514.23 572.79 515.18 568.72 Z M 536.07 636.38 C 534.79 636.48 533.55 636.82 532.40 637.38 C 525.05 640.38 523.55 646.32 528.97 650.89 C 537.56 658.11 547.82 647.89 540.64 639.28 C 539.00 637.28 537.74 636.39 536.07 636.41 Z M 535.14 641.12 C 536.30 641.22 536.89 642.69 536.89 645.52 C 536.89 647.39 534.02 648.22 532.56 646.77 C 531.10 645.32 531.93 642.48 533.79 641.49 C 534.20 641.24 534.66 641.11 535.14 641.12 Z M 540.52 759.88 C 536.93 759.74 533.49 761.32 531.26 764.14 C 527.97 768.33 529.18 775.14 533.61 777.26 C 538.04 779.38 542.24 778.64 545.84 775.04 C 549.84 771.04 550.29 767.04 547.26 763.18 C 545.61 761.14 543.14 759.94 540.52 759.88 Z M 540.01 765.52 C 540.92 765.67 541.74 766.19 542.26 766.95 C 543.26 768.20 543.19 768.83 541.72 770.45 C 539.58 772.83 537.93 772.97 536.23 770.92 C 535.23 769.67 535.29 769.04 536.76 767.42 C 538.00 766.11 539.00 765.48 540.00 765.55 Z" fill="#efca87" fill-rule="nonzero" id="path1701" node-id="32" stroke="none" target-height="378.99" target-width="250.03998" target-x="425.65002" target-y="537.55"></path><path d="M 748.83 747.71 C 748.86 747.87 748.88 748.03 748.89 748.19 C 748.89 748.75 745.50 749.71 741.35 750.33 C 737.51 750.92 733.63 751.30 729.75 751.45 C 726.62 751.45 725.92 751.23 726.23 750.10 C 724.82 752.40 724.03 755.03 723.93 757.73 L 732.66 757.03 C 737.46 756.65 742.35 756.11 743.51 755.82 C 743.74 755.76 743.97 755.72 744.20 755.69 C 745.59 755.59 745.71 757.12 746.12 767.13 C 746.39 773.63 746.51 779.13 746.38 779.24 C 745.91 779.83 736.06 780.15 729.38 779.77 L 722.38 779.38 L 722.27 784.83 L 722.27 784.83 C 722.35 784.76 726.46 785.04 731.42 785.45 C 735.43 785.86 739.46 785.95 743.48 785.73 L 746.55 785.25 L 747.73 815.10 C 748.37 831.52 749.12 860.59 749.33 879.71 L 749.75 919.28 C 749.75 919.28 755.84 919.79 758.43 919.13 C 757.14 918.95 756.92 918.13 756.49 915.88 C 756.13 913.96 755.44 885.60 754.95 858.76 C 754.46 831.92 753.84 809.28 753.57 808.45 C 752.95 806.58 752.18 763.98 752.93 763.98 L 752.93 763.98 C 752.93 763.98 749.93 753.50 748.85 747.71 Z" fill="#efca87" fill-rule="nonzero" id="path1772" node-id="33" stroke="none" target-height="172.0799" target-width="36.160034" target-x="722.27" target-y="747.7101"></path><path d="M 681.13 829.23 C 681.13 829.23 694.01 835.96 702.43 836.52 C 710.85 837.08 711.43 832.83 711.43 832.17 L 711.43 823.83 L 682.36 821.83 L 681.50 829.41 Z" fill="#f2d0b9" fill-rule="nonzero" id="path1458" node-id="34" stroke="none" target-height="15.25" target-width="30.299988" target-x="681.13" target-y="821.83"></path><path d="M 769.86 823.17 L 795.43 819.57 L 795.81 827.15 C 795.81 827.15 789.94 832.45 780.37 830.15 C 770.80 827.85 769.86 823.17 769.86 823.17 Z" fill="#f2d0b9" fill-rule="nonzero" id="path1460" node-id="35" stroke="none" target-height="12.880005" target-width="25.950073" target-x="769.86" target-y="819.57"></path><path d="M 425.00 586.11 L 404.65 595.49 L 405.72 581.42 L 427.55 581.42 Z" fill="#f2d0b9" fill-rule="nonzero" id="path1549" node-id="36" stroke="none" target-height="14.070007" target-width="22.899994" target-x="404.65" target-y="581.42"></path><path d="M 425.00 586.11 L 425.81 594.95 L 439.33 591.47 L 437.59 587.72 Z" fill="#f2d0b9" fill-rule="nonzero" id="path1551" node-id="37" stroke="none" target-height="8.840027" target-width="14.329987" target-x="425" target-y="586.11"></path><path d="M 508.47 445.00 C 508.47 449.17 505.09 452.55 500.92 452.55 C 496.75 452.55 493.37 449.17 493.37 445.00 C 493.37 440.83 496.75 437.45 500.92 437.45 C 505.09 437.45 508.47 440.83 508.47 445.00 Z" fill="#e8a1a4" fill-rule="nonzero" id="path7004-5-5-1-7-6-4" node-id="38" stroke="none" target-height="15.099976" target-width="15.099976" target-x="493.37" target-y="437.45"></path><path d="M 681.77 344.50 C 681.77 347.55 679.94 350.31 677.12 351.48 C 674.30 352.65 671.05 352.01 668.88 349.85 C 666.72 347.69 666.08 344.45 667.24 341.62 C 668.41 338.80 671.17 336.96 674.22 336.96 C 678.39 336.96 681.76 340.33 681.77 344.50 Z" fill="#e8a1a4" fill-rule="nonzero" id="path7004-5-5-1-7-6-7" node-id="39" stroke="none" target-height="15.694183" target-width="15.698303" target-x="666.07574" target-y="336.96"></path><path d="M 646.10 265.43 C 641.40 265.54 637.28 266.59 634.29 268.57 C 629.54 271.71 625.47 277.34 623.11 284.07 C 621.72 287.58 619.93 290.91 617.76 294.00 C 612.43 301.36 608.88 307.86 608.88 310.26 C 608.88 313.15 614.30 319.12 618.20 320.52 C 621.32 321.65 621.37 321.78 621.07 327.31 C 620.67 334.73 624.46 342.50 630.81 347.31 C 633.84 349.51 636.16 352.56 637.46 356.08 C 638.56 358.84 639.86 361.51 641.35 364.08 C 642.28 365.49 642.89 366.77 642.71 366.92 C 642.53 367.07 636.71 367.92 629.88 368.92 C 623.05 369.92 609.33 372.18 599.50 374.10 C 589.67 376.02 577.50 377.80 572.42 378.18 C 564.53 378.79 557.05 371.01 547.47 371.01 L 521.47 370.93 C 499.83 370.86 493.13 370.48 481.92 368.68 C 451.53 363.80 433.44 366.85 421.43 378.86 C 417.27 383.02 415.82 385.26 415.34 388.26 C 414.80 391.64 414.12 392.50 410.56 394.26 C 396.28 401.26 388.36 413.32 392.40 421.84 L 394.07 425.35 L 389.53 432.12 C 379.79 446.64 369.01 455.12 349.53 463.69 C 329.85 472.32 325.48 476.60 325.31 487.48 C 325.25 491.12 324.61 495.21 323.88 496.56 C 322.97 498.45 322.33 500.45 321.96 502.51 C 321.45 505.61 319.77 507.22 306.90 516.95 C 298.33 523.49 290.13 530.50 282.34 537.95 C 273.97 546.30 271.55 549.45 268.07 556.51 C 258.70 575.83 259.01 598.45 268.92 617.51 C 269.63 618.85 270.26 620.24 270.81 621.66 L 274.43 628.52 L 282.52 642.75 L 290.57 657.00 L 297.64 668.65 C 298.96 670.39 300.64 672.84 303.08 676.50 C 307.31 682.83 313.60 692.93 317.08 698.97 L 323.40 709.97 L 323.27 725.58 C 323.27 730.93 323.08 736.02 322.88 739.38 C 322.77 741.38 320.41 753.23 319.96 754.72 C 317.39 762.67 314.38 770.48 310.96 778.11 L 307.17 786.31 C 307.17 786.31 302.09 798.17 299.94 804.26 C 294.70 819.15 294.18 830.79 293.14 841.96 C 292.57 846.85 294.44 851.71 298.14 854.96 C 301.12 857.60 304.58 859.63 308.33 860.96 C 311.43 861.96 313.96 863.25 313.96 863.70 C 313.61 865.23 313.10 866.71 312.45 868.14 C 311.24 871.32 310.21 874.56 309.37 877.86 C 308.51 881.21 306.80 885.09 305.56 886.46 C 302.46 889.90 298.08 900.26 296.56 907.74 L 295.22 914.00 L 265.69 914.27 L 236.16 914.53 L 228.73 914.53 L 208.37 914.53 C 197.59 914.53 190.67 914.27 188.31 913.80 C 183.34 914.06 178.37 914.06 173.40 913.80 C 171.31 914.19 162.53 914.48 152.09 914.48 L 111.09 914.48 L 101.89 914.02 C 99.00 914.33 93.29 914.60 86.69 914.70 L 69.40 915.00 C 64.65 915.00 63.15 920.00 69.40 920.00 L 89.88 920.50 C 101.15 920.78 313.36 921.15 561.44 921.33 C 965.00 921.62 1012.64 921.49 1013.78 920.13 C 1014.50 919.18 1014.83 917.99 1014.70 916.80 C 1014.38 915.16 1012.59 914.96 994.56 914.50 L 974.76 914.00 L 965.65 914.00 C 962.50 914.33 955.99 914.50 945.90 914.50 C 938.03 914.50 932.84 914.43 929.43 914.27 L 916.81 914.43 L 916.81 914.50 L 909.41 914.50 C 906.90 914.58 904.39 914.39 901.92 913.94 C 900.29 914.39 898.61 914.57 896.92 914.49 L 881.64 914.49 C 875.49 914.49 871.83 914.49 869.39 914.28 C 863.56 914.53 856.02 914.50 856.02 914.50 L 811.91 914.50 L 810.00 910.70 C 807.55 905.88 801.22 887.14 800.29 881.96 C 799.89 879.75 799.64 864.45 799.72 847.96 C 799.84 821.25 800.04 817.96 801.47 817.62 C 802.90 817.28 802.99 816.27 802.47 811.12 C 801.89 804.91 801.47 779.29 801.72 763.35 L 801.84 754.73 L 807.59 756.08 C 815.44 757.93 820.65 757.81 834.44 755.45 C 848.23 753.09 859.02 750.07 863.44 747.34 C 868.11 744.50 870.44 738.55 871.20 727.46 C 872.30 711.76 869.48 691.07 863.20 668.96 C 861.81 663.96 855.98 645.56 850.26 627.96 C 836.13 584.52 831.77 567.16 831.77 554.43 C 831.77 549.86 831.96 549.54 836.08 547.13 C 846.77 540.67 853.68 529.45 854.64 517.00 C 855.22 507.70 853.26 500.45 845.58 483.48 C 830.04 449.09 799.22 391.70 794.41 388.18 C 791.53 386.08 775.56 382.18 760.75 379.97 C 751.61 378.61 743.01 377.07 741.65 376.55 C 740.29 376.03 737.48 373.32 735.43 370.55 C 733.38 367.78 731.27 365.47 730.75 365.47 C 729.19 365.80 727.67 366.31 726.22 366.97 C 721.22 369.05 721.13 368.97 720.36 364.22 C 719.55 359.22 716.43 351.66 714.53 350.08 C 713.81 349.47 712.70 345.26 712.08 340.73 C 711.46 336.20 710.40 331.47 709.73 330.23 C 708.64 328.23 707.99 322.58 708.03 315.47 C 708.12 299.87 705.79 286.65 702.03 281.47 C 698.76 276.97 694.16 275.28 686.67 275.84 C 680.67 276.29 679.43 276.04 674.67 273.48 C 670.38 271.33 665.95 269.48 661.40 267.94 C 656.47 266.24 651.29 265.39 646.08 265.44 Z M 646.26 270.85 C 651.56 270.85 658.35 272.60 667.39 275.95 C 676.43 279.30 682.60 280.95 687.76 281.39 C 698.23 282.29 699.44 284.12 702.12 302.97 L 703.39 311.97 L 699.39 312.97 C 696.20 313.77 694.75 314.97 692.24 318.81 L 689.08 323.64 L 686.88 313.96 L 685.47 307.78 C 685.03 305.10 683.38 303.71 680.09 304.06 C 678.09 304.28 673.09 305.97 667.88 306.93 C 659.88 308.41 657.31 308.74 651.71 307.50 C 647.05 306.50 643.11 307.50 640.14 311.39 C 636.00 316.76 635.04 316.47 629.81 316.47 C 622.66 316.47 617.29 314.89 615.45 312.27 C 614.09 310.32 614.25 309.62 617.56 303.56 C 619.45 300.08 621.54 296.71 623.83 293.47 C 625.42 291.30 626.77 288.95 627.83 286.47 C 628.87 284.00 630.09 281.62 631.48 279.33 C 635.02 273.61 639.39 270.84 646.21 270.87 Z M 680.60 308.76 C 681.99 308.64 681.89 309.68 681.91 312.09 C 681.91 317.35 684.25 326.82 686.28 329.91 C 689.20 334.37 693.89 332.29 693.89 326.53 C 693.89 323.53 699.18 317.96 701.23 318.75 C 704.34 319.94 703.04 326.31 698.73 331.05 C 697.03 332.92 696.99 333.29 698.36 334.43 C 699.37 335.57 699.92 337.04 699.89 338.56 C 700.18 341.34 700.85 344.06 701.89 346.65 L 703.89 351.88 L 701.15 354.74 L 698.42 357.61 L 697.92 353.28 C 697.52 349.79 697.04 348.95 695.42 348.95 C 693.80 348.95 693.36 349.79 692.92 355.95 C 692.52 361.59 691.68 364.31 688.62 369.95 C 686.52 373.80 683.68 377.95 682.31 379.20 C 679.45 381.78 671.85 382.20 666.12 380.15 C 660.91 378.26 654.43 372.48 649.98 365.77 C 642.71 354.77 635.92 336.00 635.92 326.84 C 635.92 322.35 636.17 321.84 638.92 320.60 C 641.10 319.36 642.91 317.57 644.17 315.40 C 646.09 312.06 646.73 311.63 648.90 312.24 C 653.66 313.59 669.18 312.84 673.90 311.04 C 677.55 309.65 679.53 308.85 680.61 308.76 Z M 624.85 321.68 L 624.85 321.68 C 625.08 321.70 625.30 321.76 625.50 321.86 C 626.59 322.23 627.74 322.43 628.89 322.46 C 630.51 322.46 630.78 323.46 631.07 330.71 C 631.26 335.24 631.32 339.11 631.22 339.30 C 630.80 340.06 627.01 331.63 625.53 326.61 C 624.36 322.69 624.14 321.61 624.85 321.68 Z M 705.26 331.83 C 705.92 331.95 706.26 333.91 706.91 339.11 C 707.30 341.46 707.49 343.83 707.47 346.21 C 707.31 346.37 706.26 343.67 705.13 340.21 C 703.65 335.72 703.37 333.58 704.13 332.67 C 704.60 332.10 705.00 331.77 705.26 331.83 Z M 655.00 339.00 C 653.00 339.00 652.26 339.94 650.63 344.22 C 649.54 347.09 648.92 350.12 649.24 350.97 C 649.56 351.82 651.05 352.50 652.84 352.50 C 657.26 352.50 659.44 348.78 658.27 343.22 C 657.53 339.64 657.00 339.00 655.00 339.00 Z M 711.06 355.82 C 712.48 355.82 713.06 357.24 715.06 363.41 L 717.68 371.41 L 711.36 376.00 C 705.89 380.00 702.06 383.92 695.98 391.71 C 694.85 393.16 694.82 394.23 695.79 397.48 C 696.89 401.17 696.79 401.70 694.35 404.90 C 690.58 409.85 685.70 425.90 686.48 430.76 C 687.64 437.99 697.27 445.35 707.76 447.03 C 712.06 447.72 712.53 448.36 710.94 451.34 C 710.24 452.66 710.61 454.03 712.39 456.65 C 713.71 458.59 715.49 460.45 716.33 460.77 C 717.54 461.24 717.66 461.91 716.88 463.96 C 714.56 470.06 715.50 472.39 725.16 484.51 C 730.24 490.88 738.44 501.90 743.39 509.01 C 748.61 516.46 754.36 523.53 760.57 530.18 L 768.75 538.43 L 770.82 556.74 C 771.96 566.82 772.89 577.56 772.89 580.61 L 772.89 586.17 L 764.64 589.28 C 760.23 590.96 755.70 592.33 751.10 593.39 C 741.26 595.26 727.77 595.54 722.31 594.00 C 713.31 591.45 705.89 587.55 704.85 584.82 C 702.92 579.73 703.85 567.32 707.31 552.43 L 710.67 537.93 L 714.26 545.68 C 716.62 550.77 718.41 553.43 719.50 553.43 C 723.87 553.43 717.31 536.83 698.56 500.43 C 684.98 474.06 682.82 469.43 677.72 455.93 C 673.16 443.84 672.11 437.36 672.99 426.76 C 674.06 413.90 677.75 399.28 680.09 398.67 C 682.09 398.14 682.38 395.61 680.97 390.67 C 680.10 387.67 680.25 387.33 683.76 385.37 C 688.00 383.00 691.90 377.27 694.29 370.00 C 695.41 366.55 696.92 364.30 699.16 362.76 C 700.94 361.53 703.52 359.64 704.89 358.56 C 706.39 357.41 708.08 356.54 709.89 355.99 C 710.26 355.88 710.65 355.83 711.04 355.82 Z M 728.87 371.26 L 733.41 376.31 C 737.46 380.81 738.67 381.52 744.67 382.88 C 748.37 383.72 754.77 384.88 758.89 385.51 C 770.01 387.14 787.09 390.51 789.50 391.51 C 792.44 392.73 806.72 418.44 830.88 466.05 C 843.94 491.77 848.88 505.10 848.88 514.47 C 848.88 529.26 839.18 541.47 823.95 545.96 C 818.24 547.63 806.28 547.91 799.37 546.54 C 789.06 544.48 773.69 535.25 763.31 524.87 C 757.87 519.00 752.83 512.78 748.22 506.24 C 736.04 489.08 731.22 482.88 725.09 476.38 L 719.72 470.70 L 721.66 466.38 C 723.56 462.67 725.78 459.13 728.31 455.81 C 732.92 449.72 742.48 440.55 744.21 440.55 C 744.70 440.55 746.43 439.42 748.07 438.04 L 751.07 435.53 L 757.81 442.12 C 772.46 456.43 795.91 471.55 803.46 471.55 C 808.60 471.55 807.78 469.04 801.63 465.93 C 791.97 461.03 791.72 460.77 793.41 457.50 C 794.29 455.65 794.79 453.65 794.88 451.60 C 794.88 446.96 792.13 447.75 789.78 453.05 C 788.69 455.53 787.53 457.55 787.22 457.55 C 785.64 457.55 760.94 438.37 754.08 431.82 C 753.02 430.82 752.03 430.89 749.08 432.17 C 742.97 434.81 742.08 434.88 741.46 432.79 C 741.12 431.72 739.36 430.05 737.54 429.07 C 734.88 427.63 733.82 427.51 732.06 428.46 C 730.06 429.54 729.89 429.40 729.89 426.53 C 729.70 423.15 729.32 419.78 728.73 416.44 C 727.73 410.27 727.23 409.26 724.68 407.95 C 723.20 407.14 721.50 406.83 719.83 407.07 C 718.49 407.50 716.57 406.61 713.63 404.22 C 711.20 402.25 708.55 400.57 705.73 399.22 C 703.58 398.33 701.73 396.76 701.34 395.39 C 700.71 393.39 701.54 392.21 706.99 387.27 C 711.46 383.34 716.18 379.71 721.12 376.38 Z M 456.63 372.60 L 456.63 372.60 C 465.76 372.73 474.87 373.54 483.89 375.00 C 500.89 377.51 503.99 377.69 521.89 377.14 C 556.24 376.09 561.83 379.20 562.89 399.97 C 563.41 409.82 563.48 410.07 567.89 416.47 C 573.53 424.72 573.89 430.07 569.43 438.27 C 567.67 441.44 565.65 444.45 563.37 447.27 L 560.19 450.94 L 559.00 444.34 C 558.25 438.99 557.87 433.59 557.86 428.18 C 557.86 417.80 556.70 415.25 553.93 419.53 C 550.48 424.87 543.38 431.53 538.56 433.91 C 532.68 436.84 524.45 436.40 518.97 434.11 C 514.64 432.30 508.82 426.01 504.76 419.23 C 502.76 415.86 500.76 413.49 505.40 410.82 C 510.04 408.15 509.97 406.40 508.61 405.88 C 507.60 405.52 506.51 405.48 505.48 405.79 C 504.59 406.13 503.78 405.56 503.39 404.33 C 502.39 401.26 490.51 395.60 483.26 402.85 C 480.32 405.79 479.87 406.91 479.87 411.10 C 479.87 416.42 481.87 420.29 486.51 423.99 L 489.33 426.24 L 486.84 428.34 C 483.03 431.55 474.58 433.74 468.97 432.97 C 462.64 432.10 454.90 427.56 450.44 422.11 L 446.82 417.71 L 447.08 406.64 C 447.32 396.75 447.08 395.28 445.26 392.77 C 442.04 388.44 439.10 387.28 432.86 387.89 C 429.86 388.18 426.12 388.70 424.61 389.05 C 420.43 390.05 421.14 387.77 426.73 382.39 C 433.67 375.70 442.42 372.58 456.60 372.55 Z M 639.63 374.17 C 646.55 374.11 650.40 375.90 655.54 380.30 L 658.72 383.02 L 650.07 389.51 C 640.22 396.91 637.00 401.29 638.69 405.01 C 639.29 406.32 643.36 409.90 647.69 413.01 L 655.69 418.59 L 656.82 425.32 C 657.53 430.78 657.81 436.29 657.66 441.79 L 657.36 451.54 L 654.83 447.29 C 653.43 444.96 650.96 440.43 649.33 437.23 C 645.33 429.43 639.26 422.75 637.63 424.38 C 636.69 425.32 637.15 426.90 639.71 431.57 C 641.52 434.85 642.71 437.57 642.40 437.57 C 640.92 437.15 639.47 436.61 638.08 435.96 C 630.90 432.86 605.83 432.96 582.74 436.16 L 578.11 436.80 L 578.56 429.93 C 579.04 422.62 578.63 421.47 571.56 410.18 C 569.38 406.71 568.56 403.80 567.87 397.18 C 567.39 392.50 566.53 387.80 565.96 386.74 C 564.96 384.91 565.44 384.74 574.08 384.08 C 579.21 383.67 584.30 382.83 589.29 381.56 C 595.24 380.07 601.27 378.93 607.36 378.16 C 613.96 377.29 623.18 376.02 627.86 375.34 C 631.75 374.70 635.68 374.32 639.62 374.21 Z M 666.63 386.89 C 667.59 386.94 668.55 387.06 669.50 387.24 C 675.36 388.24 676.43 390.81 673.62 397.24 C 669.62 406.37 667.83 416.35 667.85 429.43 C 667.85 450.07 669.85 455.90 692.13 500.34 L 706.32 528.66 L 702.57 543.34 C 699.27 556.22 698.82 559.43 698.85 569.52 C 698.90 582.77 699.92 588.36 702.74 590.64 C 704.27 591.88 704.67 593.26 704.46 596.64 C 704.14 602.85 694.93 646.00 688.00 674.00 C 679.62 707.82 674.84 728.72 673.49 737.41 L 672.32 744.91 L 665.86 745.00 C 656.80 745.13 651.66 744.45 650.32 743.34 C 647.41 740.93 642.49 709.34 643.32 689.41 C 644.06 672.41 645.81 658.86 651.89 623.41 C 657.89 588.41 660.65 568.62 661.89 551.91 C 663.81 525.00 664.76 478.81 663.75 461.41 C 663.23 452.34 662.67 438.94 662.51 431.64 C 662.18 416.36 662.51 417.03 650.62 408.20 L 643.82 403.15 L 646.11 400.68 C 649.43 397.67 652.94 394.86 656.61 392.28 C 662.68 387.89 664.30 386.76 666.71 386.80 Z M 434.30 393.16 C 436.65 393.22 438.53 393.76 439.65 394.89 C 441.13 396.38 441.30 398.63 441.02 412.80 C 440.84 421.71 440.33 429.37 439.89 429.80 C 438.76 430.97 435.75 426.26 431.78 417.10 C 429.91 412.77 427.78 409.00 427.01 408.71 C 425.21 408.02 424.01 410.03 424.58 412.88 C 424.96 414.88 424.27 415.44 419.18 417.34 C 412.18 419.95 404.47 421.25 400.35 420.50 C 396.00 419.72 395.90 416.11 400.05 409.92 C 405.75 401.42 423.14 393.42 433.27 393.13 Z M 704.03 404.73 C 705.51 404.81 707.14 406.05 709.39 408.20 C 712.88 411.55 714.63 412.51 717.28 412.51 C 723.41 412.51 723.84 413.03 723.84 420.51 C 723.84 424.26 724.24 428.38 724.72 429.65 C 725.47 431.65 724.79 432.84 719.97 438.03 C 714.66 443.76 714.20 444.03 711.84 442.86 C 709.67 441.89 707.43 441.11 705.13 440.51 C 702.07 439.52 699.20 438.03 696.63 436.11 C 692.40 432.86 692.34 432.73 692.43 426.89 C 692.51 422.32 693.24 419.60 695.66 414.97 C 699.49 407.62 701.56 404.55 704.03 404.69 Z M 494.76 404.90 C 496.25 404.89 497.70 405.38 498.89 406.28 L 501.22 408.17 L 499.00 411.20 C 496.18 415.01 496.59 417.00 501.84 425.12 C 513.49 443.12 533.42 447.36 549.20 433.50 L 552.90 430.25 L 552.90 432.87 C 552.90 434.42 550.17 439.65 546.18 445.72 C 534.06 464.14 519.00 476.53 505.00 479.53 C 500.71 480.45 499.40 480.32 495.53 478.61 C 489.38 475.89 486.91 471.00 486.91 461.55 C 486.91 454.13 485.86 452.29 483.07 454.81 C 481.55 456.18 480.88 456.20 477.38 454.96 C 472.38 453.19 461.23 453.07 457.92 454.74 C 454.76 456.34 453.98 459.45 456.73 459.45 C 458.67 459.45 458.67 459.59 456.47 468.21 C 455.60 471.93 454.47 475.58 453.08 479.14 C 451.90 481.33 448.26 483.14 447.18 482.05 C 446.86 481.74 447.80 474.16 449.27 465.21 C 452.35 446.50 452.63 440.45 450.44 440.45 C 449.52 440.45 448.44 442.45 447.44 445.70 C 445.03 454.21 439.92 486.51 438.82 500.24 C 437.63 515.08 437.16 517.06 431.18 532.81 L 426.68 544.67 L 428.32 551.20 C 429.08 554.38 430.10 557.49 431.39 560.49 C 432.68 562.99 432.63 563.49 430.79 565.83 C 429.58 567.35 426.67 569.03 423.63 569.93 C 420.73 570.75 417.67 570.80 414.75 570.07 C 408.54 567.85 405.01 564.72 404.27 560.75 C 403.89 558.75 404.09 552.82 404.72 547.54 C 406.09 535.94 405.66 460.44 404.20 455.95 C 403.66 454.30 402.58 452.95 401.79 452.95 C 400.58 452.95 400.36 459.16 400.29 494.21 C 400.22 533.70 400.13 535.54 398.29 536.99 C 393.29 540.88 390.29 541.89 383.70 541.81 C 377.47 541.72 376.56 541.41 369.79 536.91 C 361.46 531.37 346.13 516.43 340.56 508.42 C 329.37 492.33 328.27 489.42 331.28 483.65 C 333.90 478.65 338.51 475.39 350.94 469.84 C 363.94 464.03 373.33 458.32 381.08 451.50 C 385.98 447.19 395.43 435.19 398.25 429.70 C 399.77 426.70 400.33 426.44 404.64 426.44 C 410.99 426.18 417.22 424.69 423.00 422.06 C 424.05 421.43 425.19 420.97 426.39 420.70 C 426.48 420.84 427.78 423.53 429.29 426.70 C 430.80 429.87 433.19 433.34 434.61 434.45 C 439.61 438.45 445.20 436.28 446.47 429.90 L 447.06 426.96 L 451.39 431.11 C 462.83 442.11 481.25 442.22 492.03 431.44 C 494.72 428.76 496.90 425.76 496.90 424.77 C 496.90 423.78 495.21 422.01 492.90 420.67 C 490.50 419.29 488.53 417.27 487.19 414.85 C 485.69 411.69 485.67 411.06 487.02 408.65 C 488.22 406.49 491.27 405.01 494.21 404.88 C 494.43 404.87 494.65 404.87 494.87 404.88 Z M 733.50 432.43 L 736.20 435.00 L 738.86 437.65 L 735.08 440.38 C 731.08 443.25 720.89 454.23 720.89 455.61 C 720.89 456.99 719.25 456.47 717.43 454.45 C 715.61 452.43 715.82 452.29 720.69 446.20 C 723.50 442.69 726.49 439.33 729.64 436.13 Z M 633.00 439.19 L 639.46 442.46 C 645.93 445.75 649.46 449.40 656.46 460.24 L 659.25 464.53 L 658.56 493.74 C 657.41 543.09 655.76 565.95 651.38 593.45 C 649.74 603.81 645.29 629.82 644.38 635.45 C 643.54 640.69 641.13 654.74 641.13 654.74 L 640.53 659.34 C 638.83 671.69 637.96 684.14 637.92 696.61 C 637.92 710.71 640.08 731.40 642.39 739.08 L 643.71 743.45 C 645.37 746.73 646.09 750.58 648.15 750.61 C 649.52 750.61 650.85 750.61 652.15 750.61 C 658.15 750.68 662.82 750.69 665.15 750.61 C 671.89 750.44 672.91 750.61 672.97 752.15 C 672.97 753.10 673.15 759.15 673.27 765.50 C 673.27 765.50 673.75 787.02 674.05 800.92 C 674.43 818.04 674.51 818.65 676.79 820.50 C 678.42 821.93 679.39 823.97 679.47 826.14 C 679.65 828.20 680.72 837.74 681.84 847.33 C 682.96 856.92 684.18 869.58 684.53 875.45 L 685.18 886.11 L 675.00 891.88 C 663.00 898.63 657.33 901.20 641.35 907.19 C 634.75 909.67 628.64 912.31 627.77 913.08 C 626.50 914.19 620.55 914.46 597.65 914.46 L 541.36 914.46 C 532.69 914.46 526.54 914.30 523.21 913.99 L 506.59 913.99 C 504.08 914.09 500.91 914.17 496.70 914.24 L 479.03 914.51 L 478.71 912.24 C 478.44 910.34 476.89 909.47 469.36 906.97 C 463.14 904.85 457.22 901.92 451.77 898.25 C 440.87 890.99 439.91 889.91 443.77 889.14 C 449.18 888.06 455.91 879.23 455.91 873.22 C 455.91 869.64 453.17 866.47 450.08 866.47 C 446.53 866.47 443.70 868.53 438.89 874.61 C 435.26 879.20 434.89 879.40 434.44 877.26 C 433.87 874.81 430.91 855.03 430.91 853.67 C 430.91 853.00 445.21 853.05 479.91 853.81 C 484.81 853.92 489.65 850.13 490.99 845.13 C 493.51 835.79 489.99 827.06 475.05 804.94 C 470.77 798.62 467.11 792.89 465.62 790.23 C 463.87 787.59 462.30 784.83 460.95 781.96 L 456.00 769.47 C 451.11 756.98 449.15 751.47 449.00 749.54 C 447.61 745.82 446.52 742.29 446.52 742.29 C 446.52 742.29 446.63 741.64 446.63 741.62 C 445.42 739.62 433.50 695.31 433.69 693.48 C 433.78 692.65 434.11 689.69 434.42 686.89 C 434.95 682.22 434.59 681.04 429.96 672.06 C 425.83 664.06 425.15 662.06 425.96 660.16 C 426.40 657.64 430.38 644.67 432.22 636.97 L 435.57 622.97 L 436.95 615.97 C 437.08 615.08 437.85 610.97 438.86 605.72 C 439.76 601.45 440.43 597.13 440.86 592.78 C 440.86 591.04 441.94 589.24 444.03 587.50 C 446.49 585.45 447.57 580.61 447.97 578.45 C 450.09 580.11 452.09 581.92 453.97 583.85 C 461.74 591.44 468.60 594.42 480.09 595.23 C 489.63 595.91 496.20 595.72 502.27 589.50 C 518.80 572.56 521.98 559.61 525.82 544.64 C 525.96 544.07 526.51 541.70 526.82 540.31 C 528.47 533.47 534.65 512.21 538.47 500.56 C 544.17 483.15 549.47 472.43 555.86 465.09 C 558.56 462.02 561.08 458.80 563.40 455.43 C 564.35 453.80 565.51 452.31 566.86 451.00 C 568.69 449.27 570.36 447.39 571.86 445.37 L 575.78 440.37 L 604.35 439.78 Z M 553.30 445.43 L 554.64 448.62 C 555.26 450.16 556.04 451.64 556.98 453.01 C 557.68 453.86 556.34 455.85 552.35 459.90 C 542.35 470.10 535.06 488.14 521.85 535.69 C 515.62 558.12 512.12 567.69 507.56 574.83 C 503.87 580.59 497.38 586.00 491.62 588.13 C 485.55 590.37 472.57 589.22 463.88 585.69 C 459.02 583.44 455.08 579.57 452.74 574.75 C 450.86 570.51 450.87 570.38 453.41 554.22 C 454.81 545.28 456.62 533.65 457.41 528.38 C 458.20 523.11 459.75 516.82 460.82 514.38 C 463.75 507.76 465.06 494.91 464.72 476.20 L 464.41 459.45 L 468.00 459.45 C 470.78 459.61 473.54 460.13 476.18 461.02 C 480.46 462.48 480.82 462.88 481.43 466.77 C 482.58 474.24 483.98 477.26 487.93 480.83 C 495.33 487.52 504.46 487.76 516.62 481.60 C 527.07 476.31 540.82 463.70 548.68 452.20 Z M 526.62 451.43 C 524.98 451.50 523.45 452.31 522.49 453.65 C 520.93 455.88 520.34 462.51 521.60 463.77 C 522.35 464.24 523.23 464.47 524.12 464.43 C 526.18 464.43 527.83 461.07 528.66 455.18 C 529.16 451.68 529.02 451.43 526.66 451.43 Z M 460.07 479.00 L 459.42 490.50 C 458.42 508.43 455.65 516.63 449.31 520.55 C 445.80 522.72 445.00 522.86 443.05 521.62 C 441.97 520.93 441.91 519.68 442.74 515.38 C 443.31 512.38 444.06 505.73 444.41 500.50 C 445.19 488.61 445.48 487.58 447.81 488.19 C 450.52 488.90 455.68 485.88 458.02 482.19 Z M 328.34 500.50 C 328.59 500.50 330.77 503.50 333.18 507.25 C 343.18 522.68 357.88 536.86 370.28 543.06 C 376.00 545.92 376.67 546.50 374.28 546.50 C 367.54 546.50 349.28 535.06 340.56 525.42 C 333.68 517.82 327.89 507.93 327.89 503.78 C 327.89 501.97 328.09 500.51 328.35 500.51 Z M 323.24 512.12 C 323.85 511.99 334.14 526.64 333.68 526.98 C 333.52 527.10 331.00 528.48 328.07 530.05 C 324.18 532.39 320.62 535.26 317.50 538.56 C 308.56 548.21 299.93 567.70 301.50 574.75 C 302.16 577.81 304.94 578.55 304.94 575.66 C 304.94 572.25 308.77 562.66 313.05 555.29 C 318.36 546.19 325.67 538.37 332.55 534.43 L 337.85 531.43 L 343.44 535.99 C 346.52 538.50 350.09 541.24 351.38 542.08 C 353.66 543.57 353.68 543.73 352.25 548.32 C 347.76 562.75 355.46 590.86 364.53 593.14 C 368.30 594.08 368.44 593.04 365.11 588.84 C 359.81 582.18 357.49 573.64 357.46 560.84 C 357.46 547.49 357.98 546.50 363.78 549.46 C 365.57 550.46 367.50 551.16 369.51 551.54 C 370.77 551.54 371.00 552.08 370.45 553.79 C 368.79 559.03 368.75 574.06 370.38 581.04 C 373.67 595.14 386.07 623.50 394.08 635.22 C 396.85 639.22 396.19 639.81 396.93 651.99 C 397.35 658.73 398.14 665.05 401.04 669.05 C 403.04 671.75 408.15 675.50 411.79 677.92 C 415.67 680.54 419.32 683.49 422.69 686.74 C 426.90 691.09 427.04 691.46 433.88 717.09 C 447.80 769.25 455.26 787.09 474.08 813.23 C 481.38 823.37 485.55 832.32 486.40 839.67 C 487.19 846.57 485.72 848.54 479.79 848.54 L 475.79 848.54 L 477.85 845.64 C 480.11 842.47 480.57 839.54 478.80 839.54 C 478.19 839.54 476.16 840.88 474.30 842.54 C 468.18 847.91 462.18 848.90 443.61 847.61 C 428.51 846.61 427.27 846.33 425.28 844.10 C 418.60 836.64 403.03 800.27 397.28 778.81 C 396.49 775.81 394.88 777.92 394.88 781.89 C 394.88 791.96 410.00 832.39 418.01 843.72 C 418.77 844.69 419.40 845.76 419.88 846.89 C 419.88 847.17 417.52 847.89 414.63 848.51 C 411.74 849.13 403.84 851.23 397.07 853.19 C 386.43 856.28 383.64 856.72 376.50 856.41 C 369.71 856.13 367.56 855.62 364.50 853.56 C 358.58 849.56 357.07 845.56 355.32 828.83 C 353.79 814.16 351.62 802.33 349.97 799.69 C 348.21 796.85 346.65 799.69 347.29 804.53 C 347.63 807.12 348.76 817.35 349.80 827.26 C 351.80 845.91 352.80 849.58 357.60 854.72 C 360.60 857.93 360.47 857.99 347.91 859.53 C 344.43 860.01 340.92 860.30 337.41 860.40 C 328.61 859.67 327.80 859.40 328.32 857.75 C 330.59 850.56 331.63 835.93 330.25 830.75 C 329.09 826.43 327.39 829.21 326.73 836.48 C 325.94 845.19 324.04 855.67 322.92 857.48 C 320.92 860.69 299.98 852.48 298.17 847.83 C 297.04 844.83 299.67 824.37 302.38 815.02 C 304.44 808.40 306.83 801.89 309.55 795.52 C 312.05 789.75 316.31 779.95 318.99 773.74 C 325.17 759.50 327.84 749.23 328.73 736.26 L 329.43 726.03 L 332.68 735.60 C 334.47 740.87 337.46 751.38 339.32 758.96 C 342.50 771.96 344.02 775.72 345.47 774.28 C 346.38 773.36 343.16 754.68 339.90 741.97 C 333.38 716.53 324.83 698.71 304.90 669.03 C 297.45 657.92 280.79 630.56 277.75 624.44 C 265.00 598.75 263.75 578.29 273.57 558.53 C 278.38 548.89 290.24 536.88 309.02 522.63 C 316.53 516.92 322.92 512.21 323.22 512.14 Z M 447.85 526.00 L 447.85 526.00 C 451.85 526.00 451.85 526.30 451.46 528.45 C 451.19 529.82 450.68 533.65 450.32 536.95 C 449.96 540.25 448.81 547.65 447.78 553.39 C 446.84 558.26 446.21 563.19 445.89 568.14 C 445.89 570.51 445.48 572.45 444.97 572.45 C 444.21 572.49 443.45 572.63 442.72 572.87 C 441.96 573.10 441.16 573.13 440.39 572.96 C 439.84 572.77 438.11 572.34 436.55 571.96 C 434.43 571.49 433.97 571.02 434.74 570.09 C 437.16 567.18 437.74 563.72 436.31 560.94 C 434.31 557.07 432.70 545.94 433.52 541.60 C 434.36 538.29 435.52 535.08 437.00 532.00 L 439.81 526.06 L 445.87 525.99 L 447.87 525.99 Z M 400.11 541.00 L 399.30 547.50 C 398.11 557.04 398.53 563.24 400.63 567.01 C 401.36 568.30 401.36 569.89 400.63 571.18 C 399.83 572.94 399.98 574.37 401.28 577.24 C 402.85 580.74 402.86 582.24 401.43 598.46 C 400.58 608.06 399.90 616.05 399.90 616.21 C 399.90 616.84 398.44 628.81 398.04 629.80 C 397.47 631.25 396.91 630.72 395.13 627.05 L 392.92 622.50 L 389.77 616.50 L 386.86 610.00 C 376.86 588.00 373.06 572.83 374.49 560.75 C 375.35 553.40 375.49 553.03 378.39 552.11 C 380.24 551.48 381.95 550.53 383.46 549.29 C 384.82 548.17 386.51 547.52 388.27 547.42 C 391.45 547.42 394.41 546.05 397.75 543.04 Z M 774.61 541.62 C 776.36 542.25 778.04 543.07 779.61 544.06 C 795.05 553.06 806.46 555.51 821.17 553.14 L 825.91 552.38 L 825.91 556.19 C 825.91 568.84 830.60 587.34 844.44 629.57 C 861.18 680.63 865.91 701.97 865.91 726.34 C 865.91 736.62 865.79 737.22 863.16 740.28 C 860.06 743.89 855.69 745.28 837.03 748.52 C 819.33 751.61 807.63 750.96 798.68 746.38 C 787.84 740.86 785.68 737.60 782.45 722.12 C 778.60 703.52 777.56 689.56 778.27 665.55 C 780.14 601.70 780.17 591.31 778.47 573.55 C 777.55 563.97 776.19 552.94 775.47 549.05 C 774.75 545.16 774.28 541.80 774.47 541.60 C 774.47 541.60 774.55 541.60 774.64 541.60 Z M 406.44 572.45 C 407.68 572.85 408.87 573.37 410.00 574.00 C 412.18 575.13 415.14 575.48 420.45 575.25 C 424.52 575.07 427.85 575.17 427.85 575.48 C 427.85 575.79 426.26 576.81 424.32 577.73 C 419.24 580.15 410.42 579.99 407.85 577.42 C 406.02 575.59 405.10 572.42 406.40 572.42 Z M 434.21 576.81 C 434.50 576.81 434.79 576.89 435.03 577.05 C 435.78 577.52 438.55 577.58 440.89 578.43 L 443.64 579.43 L 442.64 581.71 C 441.16 583.22 439.58 584.44 439.14 584.41 C 436.96 584.31 431.86 581.41 431.86 580.25 C 431.86 578.31 432.99 576.82 434.17 576.81 Z M 408.47 583.64 C 409.50 583.80 410.51 584.09 411.47 584.51 C 413.96 585.20 416.56 585.36 419.11 585.00 C 421.72 584.66 423.85 584.74 423.85 585.17 C 423.85 585.60 422.05 595.09 419.85 606.27 C 415.70 627.41 412.85 646.67 412.85 653.58 C 412.85 656.53 413.85 659.05 416.39 662.94 C 417.85 665.28 419.53 667.48 421.39 669.51 C 422.22 670.20 424.49 673.61 426.39 677.09 C 430.77 684.92 430.50 687.33 425.83 682.09 C 423.43 679.56 420.71 677.37 417.73 675.57 C 412.48 672.57 405.67 666.70 403.37 663.19 C 401.22 659.90 401.27 653.59 403.64 632.92 C 404.77 623.02 406.22 607.92 406.85 599.42 C 407.48 590.92 408.12 583.80 408.26 583.64 C 408.40 583.48 408.31 583.64 408.37 583.64 Z M 430.34 586.78 L 430.34 586.78 C 431.74 586.98 433.10 587.43 434.34 588.11 C 436.80 589.28 437.81 590.33 437.43 591.32 C 437.11 592.13 435.28 599.80 433.36 608.32 C 431.44 616.84 428.00 631.60 425.73 641.00 C 423.46 650.40 421.33 658.36 420.93 658.79 C 419.65 660.20 417.48 656.39 417.71 653.15 C 418.32 644.63 428.95 588.15 430.17 586.89 C 430.22 586.85 430.28 586.83 430.34 586.83 Z M 773.34 591.78 C 773.90 591.71 773.94 592.39 773.94 594.12 C 773.94 596.88 773.52 597.12 765.69 599.71 C 761.16 601.19 754.38 603.08 750.63 603.92 C 736.99 606.97 720.17 605.15 713.25 599.86 C 709.14 596.73 708.92 594.86 712.89 596.92 C 717.62 599.36 727.89 601.40 735.44 601.43 C 747.44 601.43 764.24 597.43 771.69 592.65 C 772.19 592.27 772.74 591.97 773.34 591.78 Z M 709.00 603.42 L 711.58 605.42 C 721.36 613.11 754.67 612.72 770.19 604.73 C 771.76 603.92 773.28 603.51 773.58 603.81 C 773.88 604.11 773.58 618.88 772.84 636.63 C 771.37 673.47 771.84 700.37 774.26 711.41 C 775.15 715.54 777.31 723.84 779.05 729.86 C 781.88 739.61 782.72 741.32 786.79 745.46 C 788.68 747.49 790.74 749.35 792.96 751.02 C 794.33 751.78 794.75 755.94 795.77 778.91 C 796.43 793.76 797.21 807.75 797.50 810.00 L 798.03 814.09 L 792.69 816.50 C 788.13 818.56 785.80 818.91 776.69 818.91 C 770.83 818.91 765.80 818.68 765.52 818.40 C 765.24 818.12 763.15 804.62 760.88 788.40 C 758.61 772.18 756.32 757.01 755.81 754.68 C 755.30 752.35 753.06 736.38 750.87 719.18 C 745.43 676.61 742.17 654.86 740.87 652.44 C 740.37 651.42 739.43 650.68 738.32 650.44 C 736.50 650.44 736.32 658.60 737.93 670.02 C 738.84 676.56 738.76 678.23 737.43 680.85 C 736.56 682.55 733.81 693.17 731.30 704.44 C 728.79 715.71 724.94 732.08 722.72 740.81 C 720.50 749.54 718.49 759.20 718.25 762.31 C 718.01 765.42 717.36 772.67 716.83 778.44 C 716.30 784.21 715.55 796.07 715.19 804.78 C 714.54 820.31 714.48 820.63 712.12 821.53 L 712.12 821.53 C 709.75 822.43 699.72 822.53 694.85 821.76 C 693.47 821.53 688.79 821.37 685.35 819.32 L 679.00 815.51 L 678.40 789.13 C 678.40 773.63 678.25 756.68 678.08 751.45 C 677.74 740.78 680.08 728.94 690.91 685.45 C 695.91 665.62 703.31 632.21 707.91 609.19 Z M 664.00 611.30 C 662.43 611.22 661.89 611.90 661.89 613.35 C 661.89 615.64 668.74 619.42 674.69 620.42 C 686.46 622.42 696.90 620.61 697.69 616.42 C 697.93 615.17 696.15 614.91 686.69 614.83 C 678.27 614.76 673.99 614.24 669.81 612.78 C 667.94 612.05 665.99 611.55 664.00 611.30 Z M 790.06 626.57 C 789.00 626.50 788.86 627.16 789.06 628.57 C 789.45 631.21 793.49 634.33 798.00 635.49 C 803.69 636.94 819.15 635.84 824.16 633.62 C 832.92 629.75 831.44 626.83 821.88 629.10 C 814.10 630.94 800.10 630.38 794.40 628.00 C 793.02 627.33 791.56 626.85 790.06 626.57 Z M 740.71 695.14 C 741.57 695.08 742.14 700.38 743.40 710.96 C 744.25 718.10 745.84 729.18 746.92 735.57 C 747.92 741.36 753.85 778.83 755.24 788.45 C 758.24 809.05 760.50 820.28 762.02 822.13 C 762.79 822.93 763.83 823.41 764.94 823.46 C 765.83 823.41 766.70 823.74 767.33 824.37 C 767.64 824.87 768.81 833.54 769.94 843.62 C 771.07 853.70 772.77 865.78 773.72 870.45 L 775.46 878.96 L 772.73 889.46 C 771.23 895.23 768.92 903.10 767.60 906.96 L 765.21 913.96 L 761.16 914.27 C 760.24 914.36 759.32 914.36 758.40 914.27 C 755.81 914.93 749.73 914.42 749.72 914.42 L 718.06 914.42 L 717.41 910.17 C 716.41 903.71 711.98 888.53 709.91 884.46 C 708.45 881.59 708.24 879.93 708.91 876.38 C 710.29 868.96 713.91 835.72 713.91 830.38 C 713.91 826.67 714.28 825.38 715.37 825.38 C 717.96 825.38 718.69 822.21 720.37 803.38 C 721.31 793.21 722.14 784.84 722.22 784.76 L 722.22 784.76 L 722.32 779.31 L 722.62 771.60 C 722.79 767.36 725.24 751.46 726.20 750.03 C 726.20 749.91 726.24 749.78 726.32 749.64 C 728.23 744.73 732.39 728.74 736.26 711.36 C 738.67 700.54 739.82 695.13 740.68 695.08 Z M 794.26 822.62 L 794.26 822.62 C 794.32 822.61 794.39 822.61 794.45 822.62 C 795.36 823.54 795.01 883.35 794.08 885.03 C 793.30 886.42 791.79 886.87 787.60 886.94 L 782.13 887.03 L 780.53 878.97 C 778.71 869.84 777.58 861.80 775.39 842.40 C 774.55 834.98 773.62 828.12 773.31 827.15 C 772.83 825.63 773.47 825.40 778.14 825.40 C 781.75 825.31 785.33 824.78 788.81 823.83 C 790.58 823.24 792.41 822.82 794.26 822.58 Z M 684.76 824.71 L 690.04 826.08 C 694.04 826.96 698.12 827.42 702.22 827.45 L 709.12 827.45 L 708.50 831.70 C 707.79 836.54 703.89 877.90 703.89 880.59 C 703.89 881.59 702.41 883.49 700.59 884.87 C 698.46 886.44 696.16 887.79 693.74 888.87 L 690.20 890.35 L 689.57 874.15 C 689.02 859.98 687.13 839.54 685.34 828.33 Z M 423.38 853.00 C 423.89 852.92 424.41 852.97 424.89 853.16 C 425.28 853.60 426.10 858.21 426.72 863.41 C 427.34 868.61 427.72 872.92 427.61 873.01 C 427.08 873.38 415.28 868.19 414.26 867.14 C 413.05 865.88 409.45 855.54 410.04 855.02 C 410.86 854.30 419.75 853.02 423.38 853.02 Z M 403.66 856.77 C 404.32 856.77 404.97 857.65 405.32 859.05 C 405.67 860.45 407.56 865.69 409.46 870.50 L 412.92 879.24 L 410.82 884.10 C 408.07 890.48 407.38 897.57 408.87 904.36 C 409.55 907.18 409.82 910.61 409.48 911.98 L 408.85 914.46 L 363.38 914.46 L 353.89 909.10 C 348.66 906.16 342.24 902.38 339.60 900.70 L 334.80 897.65 L 339.80 895.99 C 342.87 894.98 345.64 893.21 347.85 890.86 C 351.18 887.06 351.40 886.27 349.85 883.39 C 348.45 880.79 341.58 880.80 335.48 883.39 L 330.90 885.39 L 334.90 879.11 C 336.92 875.96 338.74 872.68 340.34 869.30 C 341.77 865.89 342.04 865.75 348.25 865.17 C 352.46 864.70 356.61 863.83 360.65 862.56 C 365.56 860.91 367.30 860.74 370.45 861.61 C 376.88 863.39 392.08 861.18 403.45 856.84 C 403.54 856.80 403.63 856.79 403.73 856.79 Z M 321.20 864.66 C 322.43 864.66 324.31 864.78 327.27 865.03 C 331.74 865.41 335.50 865.81 335.64 865.92 C 334.88 867.95 333.94 869.91 332.82 871.77 C 331.76 873.91 330.51 875.94 329.08 877.84 C 328.70 878.07 326.08 876.16 323.16 873.61 C 318.89 869.82 318.04 868.54 318.54 866.61 C 318.91 865.20 319.15 864.66 321.20 864.61 Z M 449.20 872.60 C 449.68 872.60 449.86 873.10 449.86 874.06 C 449.86 876.65 446.91 880.89 443.45 883.26 C 441.97 884.36 440.26 885.11 438.45 885.46 C 436.26 885.46 436.94 884.41 443.79 877.21 C 446.80 874.05 448.43 872.60 449.23 872.59 Z M 316.20 873.54 L 319.89 876.87 C 321.61 878.46 323.44 879.92 325.39 881.22 C 327.06 882.15 326.96 882.58 324.05 887.31 C 321.14 892.04 321.05 892.48 322.64 893.40 C 324.00 894.19 324.05 894.40 322.86 894.40 C 320.86 894.40 312.86 890.76 312.74 889.75 C 312.29 886.75 312.65 884.25 314.31 879.24 Z M 416.53 874.74 C 416.90 874.72 417.27 874.79 417.61 874.94 C 419.70 875.65 421.83 876.26 423.99 876.76 C 428.45 877.84 428.65 878.05 429.74 882.76 C 430.22 884.67 430.59 886.60 430.86 888.55 C 430.86 890.17 426.47 889.55 423.18 887.40 C 418.26 884.25 413.81 875.05 416.53 874.75 Z M 344.48 886.56 C 345.03 886.61 344.58 887.00 343.36 888.01 C 341.48 889.39 339.47 890.58 337.36 891.55 C 333.42 893.39 329.68 893.83 326.99 892.76 C 325.49 892.17 337.53 887.48 342.36 886.76 C 343.06 886.63 343.77 886.55 344.48 886.54 Z M 705.61 887.50 L 708.20 896.85 C 709.63 901.99 711.09 908.06 711.46 910.33 L 712.12 914.46 L 676.82 914.46 C 657.41 914.46 641.71 914.28 641.94 914.06 C 642.17 913.84 646.44 912.06 651.43 910.17 C 660.62 906.76 669.44 902.44 677.77 897.28 C 682.20 894.59 684.51 893.71 685.22 894.43 C 687.91 897.11 696.84 894.89 702.48 890.13 Z M 415.71 888.85 L 415.71 888.85 C 416.32 888.85 417.21 889.42 418.80 890.76 C 422.57 893.92 428.19 895.15 432.14 893.66 C 434.84 892.66 435.59 893.00 443.46 899.01 C 452.82 906.14 459.61 909.90 467.86 912.53 L 473.36 914.27 L 444.78 914.37 L 416.21 914.46 L 415.03 909.38 C 413.65 903.38 413.51 891.56 414.79 889.54 C 415.06 889.11 415.33 888.87 415.71 888.85 Z M 795.71 892.15 C 796.71 892.09 797.35 893.52 798.88 898.22 C 800.12 902.04 801.65 905.75 803.45 909.34 C 804.34 910.87 805.14 912.46 805.84 914.09 C 805.84 914.30 798.84 914.46 790.22 914.46 C 776.70 914.46 774.76 914.27 775.80 913.02 C 778.38 909.90 785.52 908.15 792.86 908.83 C 798.66 909.37 799.86 909.22 799.86 907.99 C 799.86 904.64 790.91 901.67 784.46 902.88 C 781.93 903.52 779.52 904.59 777.34 906.04 C 775.34 907.43 773.46 908.39 773.25 908.19 C 773.04 907.99 774.11 904.19 775.62 899.74 C 777.91 893.00 778.62 891.90 779.62 893.07 C 780.62 894.24 793.99 892.91 794.93 892.40 C 795.16 892.26 795.41 892.18 795.68 892.15 Z M 307.88 892.32 L 310.88 894.85 C 314.52 897.75 319.25 898.94 323.83 898.11 C 325.46 897.79 327.04 898.00 327.41 898.59 C 327.78 899.18 332.85 902.80 338.70 906.65 C 344.55 910.50 349.52 913.84 349.75 914.06 C 349.98 914.28 338.75 914.46 324.89 914.46 C 303.33 914.46 299.70 914.25 300.17 913.03 C 300.47 912.24 301.17 909.80 301.79 907.62 C 302.79 904.34 303.98 901.13 305.36 897.99 Z" fill="#483613" fill-rule="nonzero" id="path1761" node-id="40" stroke="none" target-height="656.2264" target-width="951.68335" target-x="63.15" target-y="265.39362"></path></svg>