<?xml version="1.0" standalone="no"?><!DOCTYPE svg PUBLIC "-//W3C//DTD SVG 1.1//EN" "http://www.w3.org/Graphics/SVG/1.1/DTD/svg11.dtd"><svg height="505" node-id="1" sillyvg="true" template-height="505" template-width="600" version="1.1" viewBox="0 0 600 505" width="600" xmlns="http://www.w3.org/2000/svg" xmlns:xlink="http://www.w3.org/1999/xlink"><defs node-id="163"><mask height="42.879242" id="mask-8" maskUnits="userSpaceOnUse" node-id="31" width="31.059937" x="107.645294" y="240.23453"><path d="M 136.12 243.81 L 136.12 279.54 L 110.23 279.54 Z" fill="#ffffff" fill-rule="evenodd" node-id="168" stroke="none" target-height="35.732727" target-width="25.883278" target-x="110.23362" target-y="243.8078"></path></mask></defs><path d="M 445.03 223.59 C 445.03 312.32 373.13 384.26 284.44 384.26 C 195.75 384.26 123.85 312.32 123.85 223.59 C 123.85 134.85 195.75 62.92 284.44 62.92 C 373.13 62.92 445.03 134.85 445.03 223.59" fill="#faf8dc" fill-rule="evenodd" id="Fill-1" node-id="10" stroke="none" target-height="321.33585" target-width="321.18167" target-x="123.85135" target-y="62.92008"></path><path d="M 482.38 274.77 L 510.21 245.67 L 510.22 254.26 C 510.22 256.09 509.68 257.88 508.66 259.40 C 505.16 264.66 496.72 277.23 493.68 280.70 C 490.12 284.79 487.62 289.94 477.95 289.94 L 482.38 274.77 Z" fill="#253940" fill-rule="evenodd" id="Fill-21" node-id="23" stroke="none" target-height="44.26854" target-width="32.271484" target-x="477.94556" target-y="245.67241"></path><path d="M 477.95 289.94 L 89.84 289.94 C 86.34 289.94 83.50 287.10 83.50 283.60 L 83.50 277.50 L 484.29 277.50 L 484.29 283.60 C 484.29 287.10 481.45 289.94 477.95 289.94" fill="#31444b" fill-rule="evenodd" id="Fill-23" node-id="24" stroke="none" target-height="12.437408" target-width="400.78693" target-x="83.498314" target-y="277.5037"></path><path d="M 477.20 280.70 L 86.68 280.70 C 84.09 280.70 82.59 277.76 84.11 275.66 L 103.05 249.52 C 106.17 245.20 111.18 242.64 116.51 242.64 L 507.04 242.64 C 509.63 242.64 511.13 245.58 509.61 247.68 L 490.67 273.83 C 487.54 278.15 482.53 280.70 477.20 280.70" fill="#5d6c71" fill-rule="evenodd" id="Fill-25" node-id="25" stroke="none" target-height="38.060715" target-width="428.54218" target-x="82.586815" target-y="242.64384"></path><path d="M 452.09 279.54 L 110.23 279.54 L 136.12 243.81 L 477.97 243.81 Z" fill="#ed6d53" fill-rule="evenodd" id="Fill-27" node-id="26" stroke="none" target-height="35.732697" target-width="367.7353" target-x="110.233536" target-y="243.80771"></path><path d="M 97.13 285.53 L 123.60 285.53 L 123.60 283.32 L 97.13 283.32 Z" fill="#20353c" fill-rule="evenodd" id="Fill-29" node-id="27" stroke="none" target-height="2.2062073" target-width="26.464203" target-x="97.1347" target-y="283.32468"></path><path d="M 84.55 275.99 L 103.49 249.84 C 106.51 245.68 111.37 243.20 116.51 243.20 L 507.04 243.20 C 508.04 243.20 508.92 243.73 509.37 244.63 C 509.83 245.52 509.75 246.55 509.16 247.36 L 490.22 273.51 C 487.21 277.67 482.34 280.15 477.20 280.15 L 86.68 280.15 C 85.67 280.15 84.80 279.62 84.34 278.72 C 83.88 277.82 83.96 276.80 84.55 275.99 M 86.68 281.26 L 477.20 281.26 C 482.69 281.26 487.89 278.60 491.12 274.15 L 510.05 248.01 C 510.11 247.93 510.16 247.84 510.21 247.75 L 510.21 246.01 C 510.21 246.00 510.21 245.98 510.21 245.96 L 510.21 245.67 L 510.21 245.68 C 510.13 244.09 508.85 242.64 507.04 242.64 L 116.51 242.64 C 111.18 242.64 106.17 245.20 103.05 249.52 L 84.11 275.66 C 83.69 276.24 83.51 276.88 83.51 277.50 L 83.50 277.50 L 83.50 279.45 C 84.17 280.57 85.36 281.26 86.68 281.26" fill="#8d989b" fill-rule="evenodd" id="Fill-31" node-id="28" stroke="none" target-height="38.611862" target-width="426.71442" target-x="83.49855" target-y="242.64397"></path><path d="M 111.61 259.97 C 111.61 260.25 111.07 260.48 110.41 260.48 C 109.75 260.48 109.22 260.25 109.22 259.97 C 109.22 259.69 109.75 259.47 110.41 259.47 C 111.07 259.47 111.61 259.69 111.61 259.97" fill="#0d232b" fill-rule="evenodd" id="Fill-32" node-id="29" stroke="none" target-height="1.011383" target-width="2.388916" target-x="109.21854" target-y="259.46774"></path><g node-id="173"><g node-id="180"><path d="M 136.12 243.81 L 136.12 279.54 L 110.23 279.54 Z" fill="#d76149" fill-rule="evenodd" group-id="4,11" id="Fill-33" node-id="34" stroke="none" target-height="35.732727" target-width="25.883278" target-x="110.23362" target-y="243.8078"></path></g></g><path d="M 279.71 279.60 L 285.29 279.60 L 285.29 237.68 L 279.71 237.68 Z" fill="#8eb7c6" fill-rule="evenodd" id="Fill-35" node-id="35" stroke="none" target-height="41.921555" target-width="5.581238" target-x="279.70673" target-y="237.67946"></path><path d="M 326.95 216.78 L 240.21 216.78 L 240.21 120.41 C 240.21 111.27 247.68 103.79 256.82 103.79 L 310.33 103.79 C 319.47 103.79 326.95 111.27 326.95 120.41 L 326.95 216.78 Z" fill="#a3d6ca" fill-rule="evenodd" id="Fill-36" node-id="36" stroke="none" target-height="112.99124" target-width="86.74036" target-x="240.20612" target-y="103.78963"></path><path d="M 326.95 219.25 L 240.21 219.25 L 240.21 122.88 C 240.21 113.74 247.68 106.26 256.82 106.26 L 310.33 106.26 C 319.47 106.26 326.95 113.74 326.95 122.88 L 326.95 219.25 Z" fill="#7ac4b2" fill-rule="evenodd" id="Fill-37" node-id="37" stroke="none" target-height="112.991234" target-width="86.74036" target-x="240.20612" target-y="106.25785"></path><path d="M 255.05 145.01 C 254.86 145.56 255.98 188.22 255.98 188.22 L 312.85 188.22 L 312.75 142.81 L 255.05 145.01 Z" fill="#faf8dc" fill-rule="evenodd" id="Fill-39" node-id="38" stroke="none" target-height="45.4187" target-width="57.984085" target-x="254.86253" target-y="142.80536"></path><g node-id="174"><path d="M 310.23 176.22 C 310.23 176.22 301.27 179.67 300.03 183.94 C 299.39 186.16 298.95 186.50 298.83 188.22 L 312.85 188.22 L 312.76 145.10 L 307.79 148.14 C 307.79 148.14 310.78 168.36 310.23 176.22" fill="#e6bb65" fill-opacity="0.9072033" fill-rule="evenodd" group-id="5" id="Fill-40" node-id="39" stroke="none" target-height="43.123123" target-width="14.012207" target-x="298.83435" target-y="145.10074"></path></g><path d="M 284.33 180.72 C 282.96 174.52 261.18 171.76 261.18 171.76 L 260.63 148.09 L 254.91 145.99 C 254.90 153.89 255.86 188.18 255.86 188.18 L 287.45 188.18 C 287.15 184.40 285.12 184.27 284.33 180.72" fill="#e6bb65" fill-rule="evenodd" id="Fill-41" node-id="40" stroke="none" target-height="42.186874" target-width="32.55208" target-x="254.90196" target-y="145.98923"></path><path d="M 295.34 90.93 C 300.56 90.71 298.67 82.56 298.56 79.06 C 298.44 75.56 299.98 73.21 294.93 67.79 C 288.69 61.09 285.18 66.07 279.58 66.68 C 273.99 67.30 271.03 73.08 271.98 78.73 C 272.93 84.38 268.27 91.19 277.18 97.25 C 287.66 104.37 295.34 90.93 295.34 90.93" fill="#093140" fill-rule="evenodd" id="Fill-42" node-id="41" stroke="none" target-height="43.282455" target-width="32.292847" target-x="268.27158" target-y="61.090034"></path><path d="M 278.84 130.07 C 280.14 131.49 281.65 132.91 283.46 133.74 C 286.11 133.73 288.74 133.83 291.22 133.78 C 293.52 132.93 295.42 131.50 297.28 129.67 C 300.64 126.37 302.83 124.46 305.27 120.37 C 296.42 117.45 294.98 116.99 294.07 113.53 C 293.06 109.70 294.04 89.34 294.04 89.34 L 276.38 89.64 C 276.38 89.64 275.77 109.74 275.24 113.09 C 274.91 115.12 272.51 116.53 269.07 118.07 C 271.89 122.36 275.34 126.27 278.84 130.07" fill="#ffd6cb" fill-rule="evenodd" id="Fill-43" node-id="42" stroke="none" target-height="44.49034" target-width="36.20047" target-x="269.06525" target-y="89.33969"></path><path d="M 276.37 89.64 C 276.37 89.64 276.21 95.11 275.98 100.82 C 277.77 104.74 281.14 107.30 286.24 107.34 C 289.81 107.37 292.14 106.00 293.62 103.73 C 293.67 96.94 294.04 89.34 294.04 89.34 L 276.37 89.64 Z" fill="#f6bcac" fill-rule="evenodd" id="Fill-46" node-id="43" stroke="none" target-height="18.028862" target-width="18.057343" target-x="275.97812" target-y="89.33973"></path><path d="M 281.38 89.55 C 281.40 92.72 278.84 95.29 275.68 95.30 C 272.51 95.32 269.94 92.76 269.93 89.59 C 269.91 86.43 272.47 83.85 275.63 83.84 C 278.80 83.83 281.37 86.38 281.38 89.55" fill="#ffd6cb" fill-rule="evenodd" id="Fill-47" node-id="44" stroke="none" target-height="11.488113" target-width="11.482605" target-x="269.91327" target-y="83.827805"></path><path d="M 278.67 89.56 C 278.68 91.23 277.33 92.59 275.67 92.59 C 274.00 92.60 272.64 91.25 272.64 89.58 C 272.63 87.92 273.98 86.56 275.64 86.55 C 277.31 86.55 278.67 87.89 278.67 89.56" fill="#f6bcac" fill-rule="evenodd" id="Fill-48" node-id="45" stroke="none" target-height="6.054039" target-width="6.0511475" target-x="272.62885" target-y="86.545"></path><path d="M 300.74 89.45 C 300.75 92.62 298.19 95.19 295.03 95.20 C 291.86 95.22 289.29 92.66 289.28 89.49 C 289.27 86.33 291.82 83.75 294.98 83.74 C 298.15 83.73 300.72 86.28 300.74 89.45" fill="#ffd6cb" fill-rule="evenodd" id="Fill-49" node-id="46" stroke="none" target-height="11.488106" target-width="11.482605" target-x="289.26553" target-y="83.72841"></path><path d="M 298.03 89.46 C 298.03 91.13 296.69 92.49 295.02 92.49 C 293.35 92.50 291.99 91.15 291.99 89.48 C 291.98 87.82 293.33 86.46 295.00 86.45 C 296.66 86.45 298.02 87.79 298.03 89.46" fill="#f6bcac" fill-rule="evenodd" id="Fill-50" node-id="47" stroke="none" target-height="6.0540314" target-width="6.051117" target-x="291.98105" target-y="86.445564"></path><path d="M 296.32 89.40 C 296.35 97.48 294.41 104.02 286.66 103.96 C 278.59 103.89 274.86 97.56 274.83 89.48 C 274.80 81.40 275.29 71.42 286.24 71.56 C 296.73 71.69 296.29 81.32 296.32 89.40" fill="#ffd6cb" fill-rule="evenodd" id="Fill-51" node-id="48" stroke="none" target-height="32.6025" target-width="21.926636" target-x="274.8001" target-y="71.418976"></path><path d="M 281.54 86.19 C 281.54 86.64 281.18 87.00 280.73 87.00 C 280.28 87.00 279.92 86.64 279.92 86.20 C 279.92 85.75 280.28 85.39 280.73 85.38 C 281.17 85.38 281.53 85.74 281.54 86.19" fill="#000000" fill-rule="evenodd" id="Fill-52" node-id="49" stroke="none" target-height="1.621048" target-width="1.6202698" target-x="279.91776" target-y="85.38263"></path><path d="M 292.54 86.31 C 292.54 86.70 292.22 87.02 291.83 87.02 C 291.44 87.03 291.12 86.71 291.11 86.32 C 291.11 85.92 291.43 85.60 291.82 85.60 C 292.22 85.60 292.54 85.92 292.54 86.31" fill="#000000" fill-rule="evenodd" id="Fill-53" node-id="50" stroke="none" target-height="1.4277191" target-width="1.4273987" target-x="291.1131" target-y="85.59839"></path><path d="M 277.35 82.87 C 280.87 80.53 284.43 82.88 283.85 83.41 C 283.45 83.78 283.17 82.39 278.33 83.13 C 277.65 83.28 277.45 83.31 277.52 83.30 C 277.27 83.34 277.14 83.01 277.35 82.87" fill="#093140" fill-rule="evenodd" id="Fill-56" node-id="51" stroke="none" target-height="3.2511978" target-width="7.2896423" target-x="277.1411" target-y="80.526474"></path><path d="M 288.47 82.91 C 291.99 80.57 295.55 82.92 294.97 83.46 C 294.57 83.82 294.29 82.44 289.45 83.18 C 288.77 83.32 288.57 83.36 288.64 83.35 C 288.39 83.38 288.26 83.05 288.47 82.91" fill="#093140" fill-rule="evenodd" id="Fill-57" node-id="52" stroke="none" target-height="3.2511902" target-width="7.289673" target-x="288.25974" target-y="80.57242"></path><path d="M 283.32 94.89 C 283.32 95.34 284.60 95.69 286.18 95.69 C 287.75 95.69 289.03 95.33 289.03 94.89 C 289.03 94.44 287.73 94.78 286.15 94.78 C 284.58 94.78 283.32 94.45 283.32 94.89" fill="#ed6d53" fill-rule="evenodd" id="Fill-58" node-id="53" stroke="none" target-height="1.2486038" target-width="5.7128296" target-x="283.31836" target-y="94.44336"></path><path d="M 277.33 74.95 C 283.77 78.76 283.92 79.07 287.21 78.73 C 290.50 78.39 294.74 74.13 294.74 74.13 C 294.74 74.13 291.18 69.43 286.27 69.84 C 281.36 70.25 277.33 74.95 277.33 74.95 L 277.33 74.95 Z M 296.28 83.21 C 296.32 84.11 296.43 87.80 296.24 88.90 L 297.99 87.86 L 298.08 83.48 L 296.28 83.21 Z M 275.01 83.66 C 274.98 84.56 274.73 87.84 274.94 88.93 L 273.46 88.59 L 273.22 83.96 L 275.01 83.66 Z" fill="#093140" fill-rule="evenodd" id="Fill-59" node-id="54" stroke="none" target-height="19.501251" target-width="24.859344" target-x="273.21622" target-y="69.431244"></path><path d="M 288.74 89.74 C 289.99 87.65 291.19 85.56 292.23 83.35 L 288.99 83.35 C 287.71 83.35 286.66 84.40 286.66 85.68 L 286.66 87.43 C 286.66 88.63 287.58 89.61 288.74 89.74 M 293.18 89.76 L 293.56 89.76 C 294.84 89.76 295.89 88.71 295.89 87.43 L 295.89 85.68 C 295.89 85.39 295.83 85.11 295.73 84.85 C 294.96 86.54 294.09 88.17 293.18 89.76 M 284.15 83.69 C 282.82 85.71 281.53 87.76 280.18 89.76 L 282.95 89.76 C 284.23 89.76 285.28 88.71 285.28 87.43 L 285.28 85.68 C 285.28 84.84 284.82 84.10 284.15 83.69 M 276.36 88.57 C 276.17 88.23 276.05 87.85 276.05 87.43 L 276.05 85.68 C 276.05 84.40 277.09 83.35 278.38 83.35 L 279.80 83.35 C 278.66 85.10 277.54 86.86 276.36 88.57" fill="#ffffff" fill-rule="evenodd" id="Fill-60" node-id="55" stroke="none" target-height="6.4122467" target-width="19.847961" target-x="276.045" target-y="83.34773"></path><path d="M 278.38 83.90 C 277.39 83.90 276.60 84.70 276.60 85.68 L 276.60 87.43 C 276.60 88.41 277.39 89.21 278.38 89.21 L 282.95 89.21 C 283.93 89.21 284.73 88.41 284.73 87.43 L 284.73 85.68 C 284.73 84.70 283.93 83.90 282.95 83.90 L 278.38 83.90 Z M 282.95 90.31 L 278.38 90.31 C 276.79 90.31 275.49 89.02 275.49 87.43 L 275.49 85.68 C 275.49 84.09 276.79 82.80 278.38 82.80 L 282.95 82.80 C 284.54 82.80 285.83 84.09 285.83 85.68 L 285.83 87.43 C 285.83 89.02 284.54 90.31 282.95 90.31 L 282.95 90.31 Z" fill="#0d232b" fill-rule="evenodd" id="Fill-61" node-id="56" stroke="none" target-height="7.5153503" target-width="10.337341" target-x="275.49362" target-y="82.79607"></path><path d="M 288.99 83.90 C 288.01 83.90 287.21 84.70 287.21 85.68 L 287.21 87.43 C 287.21 88.41 288.01 89.21 288.99 89.21 L 293.56 89.21 C 294.54 89.21 295.34 88.41 295.34 87.43 L 295.34 85.68 C 295.34 84.70 294.54 83.90 293.56 83.90 L 288.99 83.90 Z M 293.56 90.31 L 288.99 90.31 C 287.40 90.31 286.11 89.02 286.11 87.43 L 286.11 85.68 C 286.11 84.09 287.40 82.80 288.99 82.80 L 293.56 82.80 C 295.15 82.80 296.44 84.09 296.44 85.68 L 296.44 87.43 C 296.44 89.02 295.15 90.31 293.56 90.31 L 293.56 90.31 Z" fill="#0d232b" fill-rule="evenodd" id="Fill-62" node-id="57" stroke="none" target-height="7.5153503" target-width="10.337341" target-x="286.10675" target-y="82.79607"></path><path d="M 286.07 86.02 L 288.70 90.90 C 289.01 91.48 288.61 92.19 287.95 92.21 L 284.96 92.31 L 286.07 86.02 Z" fill="#eab3a4" fill-rule="evenodd" id="Fill-63" node-id="58" stroke="none" target-height="6.293625" target-width="4.0467224" target-x="284.96237" target-y="86.01875"></path><path d="M 282.02 185.84 L 280.59 186.18 L 275.21 163.51 L 276.64 163.17 Z" fill="#41b093" fill-rule="evenodd" id="Fill-64" node-id="59" stroke="none" target-height="23.009033" target-width="6.8142395" target-x="275.2072" target-y="163.17253"></path><path d="M 271.12 86.08 C 271.12 85.03 271.41 84.25 271.96 83.85 C 272.47 83.48 273.16 83.44 274.01 83.72 C 275.00 84.05 276.18 84.59 276.23 84.62 L 275.77 85.62 C 275.76 85.61 274.59 85.08 273.67 84.77 C 273.33 84.65 272.87 84.56 272.60 84.75 C 272.49 84.83 272.36 84.91 272.30 85.11 C 271.87 85.29 271.12 86.08 271.12 86.08" fill="#0d232b" fill-rule="evenodd" id="Fill-65" node-id="60" stroke="none" target-height="2.642311" target-width="5.112549" target-x="271.11722" target-y="83.43745"></path><path d="M 299.64 86.09 C 299.64 86.09 298.96 85.34 298.59 84.99 C 298.58 84.80 298.56 84.61 298.52 84.45 C 298.20 84.39 297.17 84.64 296.01 85.24 L 295.50 84.26 C 296.07 83.97 297.99 83.04 298.98 83.44 C 299.25 83.55 299.45 83.76 299.54 84.02 C 299.80 84.81 299.66 85.97 299.64 86.09" fill="#0d232b" fill-rule="evenodd" id="Fill-66" node-id="61" stroke="none" target-height="3.0519257" target-width="4.3016357" target-x="295.50125" target-y="83.03823"></path><path d="M 266.17 176.46 C 266.17 176.46 276.65 174.52 278.50 176.30 C 280.35 178.07 281.72 183.31 281.72 183.31 C 281.72 183.31 282.69 184.84 282.61 185.73 C 282.53 186.62 282.29 188.22 282.29 188.22 L 264.32 188.22 L 264.24 180.25 L 266.17 176.46 Z" fill="#ffd6cb" fill-rule="evenodd" id="Fill-67" node-id="62" stroke="none" target-height="13.699448" target-width="18.453735" target-x="264.2369" target-y="174.52463"></path><path d="M 285.23 86.13 L 286.80 86.13 L 286.80 85.03 L 285.23 85.03 Z" fill="#0d232b" fill-rule="evenodd" id="Fill-68" node-id="63" stroke="none" target-height="1.1031036" target-width="1.5621948" target-x="285.23383" target-y="85.025444"></path><path d="M 273.24 115.04 C 273.24 115.04 250.34 119.11 241.82 141.88 C 233.08 165.24 228.22 176.45 234.28 182.52 C 242.44 190.68 255.60 188.04 266.63 188.22 C 266.63 188.22 265.34 184.73 265.52 180.86 C 265.71 177.00 266.81 173.51 266.81 173.51 L 250.82 172.50 L 260.75 148.14 L 307.79 148.14 C 307.79 148.14 311.47 149.61 314.59 159.90 C 317.82 170.53 316.61 188.22 316.61 188.22 L 325.95 188.22 C 329.87 188.22 333.03 185.20 332.98 181.28 C 332.84 170.56 332.00 166.54 327.82 152.18 C 321.94 131.96 308.90 118.63 296.03 116.05 C 296.03 116.05 289.97 124.79 285.56 125.15 C 281.14 125.52 273.24 115.04 273.24 115.04" fill="#fcc14a" fill-rule="evenodd" id="Fill-69" node-id="64" stroke="none" target-height="75.63707" target-width="104.80997" target-x="228.2164" target-y="115.04158"></path><path d="M 302.19 188.22 C 302.19 188.22 301.91 182.61 304.67 179.76 C 307.43 176.91 312.64 176.02 314.52 176.00 C 316.40 175.99 318.45 174.68 318.45 174.68 C 318.45 174.68 325.62 174.95 326.54 181.68 C 327.46 188.40 326.54 188.22 326.54 188.22 L 302.19 188.22 Z" fill="#ffd6cb" fill-rule="evenodd" id="Fill-70" node-id="65" stroke="none" target-height="13.725952" target-width="25.54541" target-x="301.91153" target-y="174.6772"></path><path d="M 243.23 237.68 C 237.36 237.68 232.56 232.88 232.56 227.01 L 232.56 221.51 C 232.56 215.64 237.36 210.83 243.23 210.83 L 325.43 210.83 C 331.29 210.83 336.09 215.64 336.09 221.51 L 336.09 227.01 C 336.09 232.88 331.29 237.68 325.43 237.68 L 243.23 237.68 Z" fill="#7ac4b2" fill-rule="evenodd" id="Fill-71" node-id="66" stroke="none" target-height="26.844604" target-width="103.536285" target-x="232.55814" target-y="210.83476"></path><path d="M 307.24 219.41 L 267.17 219.41 C 263.03 219.41 259.64 216.02 259.64 211.88 L 259.64 205.50 C 259.64 201.36 263.03 197.96 267.17 197.96 L 307.24 197.96 C 311.39 197.96 314.78 201.36 314.78 205.50 L 314.78 211.88 C 314.78 216.02 311.39 219.41 307.24 219.41" fill="#035e80" fill-rule="evenodd" id="Fill-72" node-id="67" stroke="none" target-height="21.447296" target-width="55.133545" target-x="259.6426" target-y="197.96396"></path><path d="M 253.39 201.27 C 267.43 198.03 270.67 212.31 271.04 228.12 C 271.40 243.93 274.71 279.60 274.71 279.60 L 250.09 279.60 C 250.09 279.60 245.31 243.93 244.57 228.85 C 243.84 213.78 243.84 203.48 253.39 201.27" fill="#035e80" fill-rule="evenodd" id="Fill-73" node-id="68" stroke="none" target-height="81.568954" target-width="30.874908" target-x="243.83719" target-y="198.0319"></path><path d="M 307.32 200.78 C 317.48 199.15 325.44 205.32 320.66 227.01 C 315.88 248.71 306.69 279.60 306.69 279.60 L 283.17 279.60 C 283.17 279.60 292.26 236.11 294.74 224.62 C 297.13 213.59 298.13 202.25 307.32 200.78" fill="#035e80" fill-rule="evenodd" id="Fill-74" node-id="69" stroke="none" target-height="80.449585" target-width="42.268982" target-x="283.16635" target-y="199.15146"></path><path d="M 236.76 187.94 L 175.66 187.94 L 175.66 175.53 L 236.76 175.53 C 238.70 178.10 238.99 185.26 236.76 187.94" fill="#46acc3" fill-rule="evenodd" id="Fill-76" node-id="70" stroke="none" target-height="12.41095" target-width="63.32463" target-x="175.66232" target-y="175.5324"></path><path d="M 175.66 186.75 L 189.81 186.75 L 189.81 176.54 L 175.66 176.54 Z" fill="#e6e5ce" fill-rule="evenodd" id="Fill-77" node-id="71" stroke="none" target-height="10.204712" target-width="14.144592" target-x="175.66185" target-y="176.54327"></path><path d="M 240.35 175.53 L 182.47 175.53 L 182.47 164.78 L 240.35 164.78 C 241.81 167.10 241.82 173.23 240.35 175.53" fill="#fcc14a" fill-rule="evenodd" id="Fill-79" node-id="72" stroke="none" target-height="10.756256" target-width="59.34903" target-x="182.47115" target-y="164.77611"></path><path d="M 182.47 174.68 L 201.02 174.68 L 201.02 165.51 L 182.47 165.51 Z" fill="#e6e5ce" fill-rule="evenodd" id="Fill-80" node-id="73" stroke="none" target-height="9.162109" target-width="18.546219" target-x="182.47095" target-y="165.51498"></path><path d="M 233.73 164.78 L 178.11 164.78 L 178.11 155.40 L 233.73 155.40 C 234.71 157.55 235.20 162.87 233.73 164.78" fill="#035e80" fill-rule="evenodd" id="Fill-82" node-id="74" stroke="none" target-height="9.377182" target-width="57.093277" target-x="178.10654" target-y="155.39888"></path><path d="M 178.11 163.31 L 189.81 163.31 L 189.81 156.59 L 178.11 156.59 Z" fill="#035e80" fill-rule="evenodd" id="Fill-83" node-id="75" stroke="none" target-height="6.711151" target-width="11.699966" target-x="178.10648" target-y="156.59407"></path><path d="M 177.94 164.06 L 189.85 164.06 L 189.85 156.12 L 177.94 156.12 Z" fill="#e6e5ce" fill-rule="evenodd" id="Fill-84" node-id="76" stroke="none" target-height="7.9423523" target-width="11.907852" target-x="177.94128" target-y="156.11626"></path><path d="M 378.45 184.40 L 327.63 184.40 L 332.45 154.90 C 332.75 153.09 334.31 151.77 336.15 151.77 L 380.80 151.77 C 382.37 151.77 383.56 153.17 383.31 154.71 L 378.45 184.40 Z" fill="#e6e5ce" fill-rule="evenodd" id="Fill-85" node-id="77" stroke="none" target-height="32.636505" target-width="55.93103" target-x="327.62766" target-y="151.76563"></path><path d="M 314.36 188.22 L 378.45 188.22 L 378.45 184.40 L 318.01 184.40 C 316.00 184.40 314.36 186.04 314.36 188.06 L 314.36 188.22 Z" fill="#9eb1b8" fill-rule="evenodd" id="Fill-86" node-id="78" stroke="none" target-height="3.822113" target-width="64.085754" target-x="314.36105" target-y="184.40195"></path><path d="M 361.91 168.60 C 361.91 171.06 359.92 173.05 357.47 173.05 C 355.01 173.05 353.02 171.06 353.02 168.60 C 353.02 166.15 355.01 164.16 357.47 164.16 C 359.92 164.16 361.91 166.15 361.91 168.60" fill="#faf8dc" fill-rule="evenodd" id="Fill-87" node-id="79" stroke="none" target-height="8.89444" target-width="8.8905945" target-x="353.02338" target-y="164.1556"></path><path d="M 183.30 279.60 L 175.41 279.60 L 186.44 200.78 L 194.33 200.78 Z" fill="#d6b88d" fill-rule="evenodd" id="Fill-88" node-id="80" stroke="none" target-height="78.82182" target-width="18.914124" target-x="175.41153" target-y="200.77922"></path><path d="M 398.16 279.60 L 406.05 279.60 L 395.02 200.78 L 387.14 200.78 Z" fill="#d6b88d" fill-rule="evenodd" id="Fill-89" node-id="81" stroke="none" target-height="78.82182" target-width="18.914154" target-x="387.13528" target-y="200.77922"></path><path d="M 411.84 201.27 L 169.93 201.27 C 169.14 201.27 168.49 200.63 168.49 199.83 L 168.49 189.48 C 168.49 188.68 169.14 188.04 169.93 188.04 L 411.84 188.04 C 412.63 188.04 413.28 188.68 413.28 189.48 L 413.28 199.83 C 413.28 200.63 412.63 201.27 411.84 201.27" fill="#d6b88d" fill-rule="evenodd" id="Fill-90" node-id="82" stroke="none" target-height="13.238434" target-width="244.7937" target-x="168.4881" target-y="188.0352"></path><path d="M 411.84 188.04 L 169.93 188.04 C 169.14 188.04 168.49 188.68 168.49 189.48 L 168.49 191.13 C 168.49 190.34 169.14 189.69 169.93 189.69 L 411.84 189.69 C 412.63 189.69 413.28 190.34 413.28 191.13 L 413.28 189.48 C 413.28 188.68 412.63 188.04 411.84 188.04" fill="#e6e5ce" fill-rule="evenodd" id="Fill-91" node-id="83" stroke="none" target-height="3.09581" target-width="244.7937" target-x="168.4881" target-y="188.03522"></path><path d="M 185.44 207.89 L 193.33 207.89 L 194.33 200.78 L 186.44 200.78 Z" fill="#c1a379" fill-rule="evenodd" id="Fill-92" node-id="84" stroke="none" target-height="7.1104736" target-width="8.881088" target-x="185.44463" target-y="200.77917"></path><path d="M 395.02 200.78 L 387.14 200.78 L 388.13 207.89 L 396.02 207.89 Z" fill="#c1a379" fill-rule="evenodd" id="Fill-93" node-id="85" stroke="none" target-height="7.1104736" target-width="8.881073" target-x="387.1352" target-y="200.77922"></path><path d="M 117.71 142.58 L 107.66 177.85 L 74.72 193.97 C 72.34 189.11 71.00 183.63 71.00 177.85 C 71.00 157.60 87.41 141.18 107.66 141.18 C 111.14 141.18 114.51 141.67 117.71 142.58" fill="#639bb0" fill-rule="evenodd" id="Fill-94" node-id="86" stroke="none" target-height="52.792877" target-width="46.70616" target-x="71" target-y="141.18118"></path><path d="M 107.66 177.85 L 144.31 177.85 C 144.31 177.94 144.31 178.03 144.31 178.12 C 132.46 178.24 107.66 177.85 107.66 177.85" fill="#f29d7e" fill-rule="evenodd" id="Fill-95" node-id="87" stroke="none" target-height="0.38905334" target-width="36.65296" target-x="107.65632" target-y="177.85175"></path><path d="M 136.73 155.53 L 107.66 177.85 L 117.71 142.58 C 125.37 144.76 132.00 149.37 136.73 155.53" fill="#faf8dc" fill-rule="evenodd" id="Fill-96" node-id="88" stroke="none" target-height="35.271317" target-width="29.075203" target-x="107.65644" target-y="142.5803"></path><path d="M 144.31 177.85 L 107.66 177.85 L 136.73 155.53 C 141.48 161.71 144.31 169.45 144.31 177.85" fill="#fcc14a" fill-rule="evenodd" id="Fill-97" node-id="89" stroke="none" target-height="22.32544" target-width="36.652954" target-x="107.65616" target-y="155.5263"></path><path d="M 144.31 178.12 C 144.28 182.20 143.59 186.12 142.32 189.79 L 107.66 177.85 C 107.66 177.85 132.46 178.24 144.31 178.12" fill="#7ac4b2" fill-rule="evenodd" id="Fill-98" node-id="90" stroke="none" target-height="11.935684" target-width="36.6494" target-x="107.65616" target-y="177.8517"></path><path d="M 142.32 189.79 C 137.37 204.18 123.72 214.53 107.66 214.53 C 93.19 214.53 80.69 206.15 74.72 193.97 L 107.66 177.85 L 142.32 189.79 Z" fill="#e85f5b" fill-rule="evenodd" id="Fill-99" node-id="91" stroke="none" target-height="36.673706" target-width="67.59742" target-x="74.72457" target-y="177.85194"></path><path d="M 416.15 86.21 L 416.15 92.23 C 404.76 92.23 395.53 101.47 395.53 112.86 C 395.53 118.54 397.83 123.69 401.54 127.42 L 397.28 131.67 C 392.48 126.85 389.51 120.20 389.51 112.86 C 389.51 98.14 401.43 86.21 416.15 86.21" fill="#f9d4d3" fill-rule="evenodd" id="Fill-100" node-id="92" stroke="none" target-height="45.46219" target-width="26.637695" target-x="389.5074" target-y="86.210236"></path><path d="M 442.78 112.86 C 442.78 127.58 430.85 139.51 416.15 139.51 C 408.77 139.51 402.10 136.51 397.28 131.67 L 401.54 127.42 C 405.28 131.17 410.44 133.49 416.15 133.49 C 427.53 133.49 436.76 124.25 436.76 112.86 C 436.76 101.47 427.53 92.23 416.15 92.23 L 416.15 86.21 C 430.85 86.21 442.78 98.14 442.78 112.86" fill="#e85f5b" fill-rule="evenodd" id="Fill-101" node-id="93" stroke="none" target-height="53.29779" target-width="45.50284" target-x="397.27713" target-y="86.210236"></path><path d="M 436.76 112.86 C 436.76 124.25 427.53 133.49 416.14 133.49 C 410.44 133.49 405.28 131.17 401.54 127.42 C 397.83 123.69 395.53 118.54 395.53 112.86 C 395.53 101.47 404.76 92.23 416.14 92.23 C 427.53 92.23 436.76 101.47 436.76 112.86" fill="#faf8dc" fill-rule="evenodd" id="Fill-102" node-id="94" stroke="none" target-height="41.25299" target-width="41.23047" target-x="395.52988" target-y="92.232635"></path><path d="M 477.54 86.21 L 477.54 92.23 C 466.15 92.23 456.92 101.47 456.92 112.86 C 456.92 118.54 459.22 123.69 462.94 127.42 L 458.67 131.67 C 453.87 126.85 450.90 120.20 450.90 112.86 C 450.90 98.14 462.83 86.21 477.54 86.21" fill="#bbd4dd" fill-rule="evenodd" id="Fill-103" node-id="95" stroke="none" target-height="45.46219" target-width="26.637695" target-x="450.9026" target-y="86.210236"></path><path d="M 504.18 112.86 C 504.18 127.58 492.25 139.51 477.54 139.51 C 470.17 139.51 463.50 136.51 458.67 131.67 L 462.94 127.42 C 466.67 131.17 471.83 133.49 477.54 133.49 C 488.93 133.49 498.16 124.25 498.16 112.86 C 498.16 101.47 488.93 92.23 477.54 92.23 L 477.54 86.21 C 492.25 86.21 504.18 98.14 504.18 112.86" fill="#035e80" fill-rule="evenodd" id="Fill-104" node-id="96" stroke="none" target-height="53.29779" target-width="45.502808" target-x="458.67236" target-y="86.210236"></path><path d="M 498.16 112.86 C 498.16 124.25 488.93 133.49 477.54 133.49 C 471.83 133.49 466.67 131.17 462.94 127.42 C 459.22 123.69 456.93 118.54 456.93 112.86 C 456.93 101.47 466.15 92.23 477.54 92.23 C 488.93 92.23 498.16 101.47 498.16 112.86" fill="#faf8dc" fill-rule="evenodd" id="Fill-105" node-id="97" stroke="none" target-height="41.25299" target-width="41.23047" target-x="456.92505" target-y="92.232635"></path><path d="M 377.64 111.99 C 374.70 115.95 369.99 118.52 364.68 118.52 C 355.76 118.52 348.53 111.29 348.53 102.36 C 348.53 93.44 355.76 86.21 364.68 86.21 L 364.68 89.86 L 364.68 102.95 L 374.71 109.82 L 377.64 111.99 Z" fill="#b3dfd4" fill-rule="evenodd" id="Fill-106" node-id="98" stroke="none" target-height="32.310318" target-width="29.115509" target-x="348.52847" target-y="86.210434"></path><path d="M 380.82 102.36 C 380.82 105.97 379.64 109.30 377.64 111.99 L 374.71 109.82 L 364.68 102.95 L 364.68 89.86 L 364.68 86.21 C 373.59 86.21 380.82 93.44 380.82 102.36" fill="#41b093" fill-rule="evenodd" id="Fill-107" node-id="99" stroke="none" target-height="25.782219" target-width="16.146576" target-x="364.67676" target-y="86.210205"></path><path d="M 375.85 102.36 C 375.85 104.86 375.03 107.17 373.65 109.02 C 371.61 111.77 368.35 113.54 364.68 113.54 C 361.58 113.54 358.79 112.29 356.77 110.25 C 354.75 108.23 353.51 105.44 353.51 102.36 C 353.51 96.19 358.51 91.19 364.68 91.19 C 370.85 91.19 375.85 96.19 375.85 102.36" fill="#ffffff" fill-rule="evenodd" id="Fill-108" node-id="100" stroke="none" target-height="22.3535" target-width="22.341187" target-x="353.5061" target-y="91.18861"></path><path d="M 470.42 219.00 L 478.91 219.00 L 478.91 151.77 L 470.42 151.77 Z" fill="#3a829c" fill-rule="evenodd" id="Fill-109" node-id="101" stroke="none" target-height="67.23331" target-width="8.488647" target-x="470.41962" target-y="151.7657"></path><path d="M 459.94 219.00 L 468.43 219.00 L 468.43 164.29 L 459.94 164.29 Z" fill="#3f859e" fill-rule="evenodd" id="Fill-110" node-id="102" stroke="none" target-height="54.704163" target-width="8.488647" target-x="459.94" target-y="164.29485"></path><path d="M 491.38 219.00 L 499.87 219.00 L 499.87 164.29 L 491.38 164.29 Z" fill="#3f859e" fill-rule="evenodd" id="Fill-111" node-id="103" stroke="none" target-height="54.704163" target-width="8.488647" target-x="491.37885" target-y="164.29485"></path><path d="M 449.46 219.00 L 457.95 219.00 L 457.95 174.84 L 449.46 174.84 Z" fill="#035e80" fill-rule="evenodd" id="Fill-112" node-id="104" stroke="none" target-height="44.15782" target-width="8.488647" target-x="449.46" target-y="174.84119"></path><path d="M 480.90 219.00 L 489.39 219.00 L 489.39 174.84 L 480.90 174.84 Z" fill="#035e80" fill-rule="evenodd" id="Fill-113" node-id="105" stroke="none" target-height="44.15782" target-width="8.488647" target-x="480.89923" target-y="174.84119"></path><path d="M 438.98 219.00 L 447.47 219.00 L 447.47 187.43 L 438.98 187.43 Z" fill="#3a829c" fill-rule="evenodd" id="Fill-114" node-id="106" stroke="none" target-height="31.569778" target-width="8.488647" target-x="438.98038" target-y="187.42923"></path><path d="M 501.86 219.00 L 510.35 219.00 L 510.35 187.43 L 501.86 187.43 Z" fill="#3a829c" fill-rule="evenodd" id="Fill-115" node-id="107" stroke="none" target-height="31.569778" target-width="8.488678" target-x="501.85883" target-y="187.42923"></path><path d="M 428.50 219.00 L 436.99 219.00 L 436.99 198.17 L 428.50 198.17 Z" fill="#267592" fill-rule="evenodd" id="Fill-116" node-id="108" stroke="none" target-height="20.826569" target-width="8.488678" target-x="428.5008" target-y="198.17244"></path><path d="M 422.37 222.59 L 517.86 222.59 L 517.86 219.00 L 422.37 219.00 Z" fill="#e6e5ce" fill-rule="evenodd" id="Fill-117" node-id="109" stroke="none" target-height="3.591217" target-width="95.48944" target-x="422.37457" target-y="218.99901"></path><path d="M 303.10 47.00 C 307.56 47.00 311.18 43.38 311.18 38.92 C 311.18 34.45 307.56 30.83 303.10 30.83 C 302.13 30.83 301.20 31.01 300.34 31.32 C 298.94 25.96 294.06 22.00 288.25 22.00 C 282.64 22.00 277.89 25.70 276.31 30.80 C 275.01 30.03 273.49 29.57 271.86 29.57 C 267.05 29.57 263.15 33.47 263.15 38.29 C 263.15 43.10 267.05 47.00 271.86 47.00 L 303.10 47.00 Z" fill="#ceeae3" fill-rule="evenodd" id="Fill-118" node-id="110" stroke="none" target-height="25.002144" target-width="48.03244" target-x="263.14917" target-y="22"></path><path d="M 166.62 111.83 L 180.99 111.83 L 180.99 48.69 L 166.62 48.69 Z" fill="#ffffff" fill-rule="evenodd" id="Fill-119" node-id="111" stroke="none" target-height="63.14508" target-width="14.375381" target-x="166.61519" target-y="48.688988"></path><path d="M 183.75 111.83 L 198.12 111.83 L 198.12 46.87 L 183.75 46.87 Z" fill="#ffffff" fill-rule="evenodd" id="Fill-120" node-id="112" stroke="none" target-height="64.96263" target-width="14.375397" target-x="183.74858" target-y="46.871433"></path><path d="M 200.88 111.83 L 215.26 111.83 L 215.26 36.64 L 200.88 36.64 Z" fill="#ffffff" fill-rule="evenodd" id="Fill-121" node-id="113" stroke="none" target-height="75.19502" target-width="14.375381" target-x="200.88239" target-y="36.63904"></path><path d="M 149.48 111.83 L 163.86 111.83 L 163.86 65.15 L 149.48 65.15 Z" fill="#ffffff" fill-rule="evenodd" id="Fill-122" node-id="114" stroke="none" target-height="46.682716" target-width="14.375381" target-x="149.48138" target-y="65.15135"></path><path d="M 132.35 111.83 L 146.72 111.83 L 146.72 70.36 L 132.35 70.36 Z" fill="#ffffff" fill-rule="evenodd" id="Fill-123" node-id="115" stroke="none" target-height="41.47242" target-width="14.375381" target-x="132.34798" target-y="70.36165"></path><path d="M 115.21 111.83 L 129.59 111.83 L 129.59 82.18 L 115.21 82.18 Z" fill="#ffffff" fill-rule="evenodd" id="Fill-124" node-id="116" stroke="none" target-height="29.650208" target-width="14.375389" target-x="115.21418" target-y="82.18386"></path><path d="M 98.08 111.83 L 112.46 111.83 L 112.46 92.27 L 98.08 92.27 Z" fill="#ffffff" fill-rule="evenodd" id="Fill-125" node-id="117" stroke="none" target-height="19.560547" target-width="14.375381" target-x="98.08078" target-y="92.27352"></path><path d="M 166.62 111.83 L 180.99 111.83 L 180.99 62.95 L 166.62 62.95 Z" fill="#f1917e" fill-rule="evenodd" id="Fill-126" node-id="118" stroke="none" target-height="48.884174" target-width="14.375381" target-x="166.61519" target-y="62.950283"></path><path d="M 183.75 111.83 L 198.12 111.83 L 198.12 61.54 L 183.75 61.54 Z" fill="#f1917e" fill-rule="evenodd" id="Fill-127" node-id="119" stroke="none" target-height="50.291325" target-width="14.375397" target-x="183.74858" target-y="61.543133"></path><path d="M 200.88 111.83 L 215.26 111.83 L 215.26 45.99 L 200.88 45.99 Z" fill="#f1917e" fill-rule="evenodd" id="Fill-128" node-id="120" stroke="none" target-height="65.84156" target-width="14.375381" target-x="200.88239" target-y="45.992897"></path><path d="M 149.48 111.83 L 163.86 111.83 L 163.86 72.06 L 149.48 72.06 Z" fill="#f1917e" fill-rule="evenodd" id="Fill-129" node-id="121" stroke="none" target-height="39.77466" target-width="14.375381" target-x="149.48138" target-y="72.0598"></path><path d="M 132.35 111.83 L 146.72 111.83 L 146.72 76.18 L 132.35 76.18 Z" fill="#f1917e" fill-rule="evenodd" id="Fill-130" node-id="122" stroke="none" target-height="35.658768" target-width="14.375381" target-x="132.34798" target-y="76.17569"></path><path d="M 115.21 111.83 L 129.59 111.83 L 129.59 88.88 L 115.21 88.88 Z" fill="#f1917e" fill-rule="evenodd" id="Fill-131" node-id="123" stroke="none" target-height="22.954071" target-width="14.375389" target-x="115.21418" target-y="88.88039"></path><path d="M 98.08 111.83 L 112.46 111.83 L 112.46 96.69 L 98.08 96.69 Z" fill="#f1917e" fill-rule="evenodd" id="Fill-132" node-id="124" stroke="none" target-height="15.1429825" target-width="14.375381" target-x="98.08078" target-y="96.691475"></path><path d="M 166.61 111.83 L 180.99 111.83 L 180.99 77.37 L 166.61 77.37 Z" fill="#fcc85e" fill-rule="evenodd" id="Fill-133" node-id="125" stroke="none" target-height="34.460373" target-width="14.375381" target-x="166.61479" target-y="77.374084"></path><path d="M 183.75 111.83 L 198.12 111.83 L 198.12 71.12 L 183.75 71.12 Z" fill="#fcc85e" fill-rule="evenodd" id="Fill-134" node-id="126" stroke="none" target-height="40.71447" target-width="14.375397" target-x="183.74858" target-y="71.11999"></path><path d="M 200.88 111.83 L 215.26 111.83 L 215.26 77.20 L 200.88 77.20 Z" fill="#fcc85e" fill-rule="evenodd" id="Fill-135" node-id="127" stroke="none" target-height="34.63671" target-width="14.375381" target-x="200.88199" target-y="77.19775"></path><path d="M 149.48 111.83 L 163.86 111.83 L 163.86 88.17 L 149.48 88.17 Z" fill="#fcc85e" fill-rule="evenodd" id="Fill-136" node-id="128" stroke="none" target-height="23.666153" target-width="14.375381" target-x="149.48138" target-y="88.168304"></path><path d="M 132.35 111.83 L 146.72 111.83 L 146.72 92.73 L 132.35 92.73 Z" fill="#fcc85e" fill-rule="evenodd" id="Fill-137" node-id="129" stroke="none" target-height="19.103485" target-width="14.375381" target-x="132.34758" target-y="92.73097"></path><path d="M 115.21 111.83 L 129.59 111.83 L 129.59 98.18 L 115.21 98.18 Z" fill="#fcc85e" fill-rule="evenodd" id="Fill-138" node-id="130" stroke="none" target-height="13.657547" target-width="14.375389" target-x="115.21418" target-y="98.17691"></path><path d="M 98.08 111.83 L 112.46 111.83 L 112.46 99.03 L 98.08 99.03 Z" fill="#fcc85e" fill-rule="evenodd" id="Fill-139" node-id="131" stroke="none" target-height="12.806297" target-width="14.375389" target-x="98.080376" target-y="99.02816"></path><path d="M 166.61 111.83 L 180.99 111.83 L 180.99 99.12 L 166.61 99.12 Z" fill="#315a69" fill-rule="evenodd" id="Fill-140" node-id="132" stroke="none" target-height="12.716148" target-width="14.375381" target-x="166.61479" target-y="99.11831"></path><path d="M 183.75 111.83 L 198.12 111.83 L 198.12 89.58 L 183.75 89.58 Z" fill="#315a69" fill-rule="evenodd" id="Fill-141" node-id="133" stroke="none" target-height="22.259392" target-width="14.375381" target-x="183.7482" target-y="89.575066"></path><path d="M 200.88 111.83 L 215.26 111.83 L 215.26 86.99 L 200.88 86.99 Z" fill="#315a69" fill-rule="evenodd" id="Fill-142" node-id="134" stroke="none" target-height="24.8424" target-width="14.375381" target-x="200.88199" target-y="86.99206"></path><path d="M 149.48 111.83 L 163.86 111.83 L 163.86 101.49 L 149.48 101.49 Z" fill="#315a69" fill-rule="evenodd" id="Fill-143" node-id="135" stroke="none" target-height="10.346649" target-width="14.375381" target-x="149.48099" target-y="101.48781"></path><path d="M 132.35 111.83 L 146.72 111.83 L 146.72 103.48 L 132.35 103.48 Z" fill="#315a69" fill-rule="evenodd" id="Fill-144" node-id="136" stroke="none" target-height="8.351959" target-width="14.375381" target-x="132.34758" target-y="103.4825"></path><path d="M 115.21 111.83 L 129.59 111.83 L 129.59 101.73 L 115.21 101.73 Z" fill="#315a69" fill-rule="evenodd" id="Fill-145" node-id="137" stroke="none" target-height="10.105072" target-width="14.375389" target-x="115.21378" target-y="101.729385"></path><path d="M 98.08 111.83 L 112.46 111.83 L 112.46 107.90 L 98.08 107.90 Z" fill="#315a69" fill-rule="evenodd" id="Fill-146" node-id="138" stroke="none" target-height="3.939148" target-width="14.375389" target-x="98.080376" target-y="107.89531"></path><path d="M 91.04 115.21 L 223.55 115.21 L 223.55 111.83 L 91.04 111.83 Z" fill="#184657" fill-rule="evenodd" id="Fill-147" node-id="139" stroke="none" target-height="3.3729782" target-width="132.50516" target-x="91.042854" target-y="111.83407"></path><path d="M 105.27 92.72 C 105.11 92.72 104.96 92.64 104.88 92.50 C 104.75 92.29 104.83 92.01 105.04 91.89 L 122.17 81.80 L 139.28 69.99 C 139.32 69.97 139.36 69.94 139.40 69.93 L 156.44 64.75 L 173.62 48.36 C 173.69 48.29 173.79 48.25 173.89 48.24 L 191.05 46.43 L 207.84 36.25 C 208.05 36.13 208.33 36.19 208.45 36.41 C 208.58 36.62 208.52 36.90 208.30 37.02 L 191.43 47.26 C 191.37 47.29 191.31 47.31 191.24 47.32 L 174.13 49.12 L 156.98 65.48 C 156.93 65.53 156.87 65.56 156.80 65.58 L 139.73 70.77 L 122.66 82.55 L 105.50 92.66 C 105.42 92.70 105.35 92.72 105.27 92.72" fill="#184657" fill-rule="evenodd" id="Fill-148" node-id="140" stroke="none" target-height="56.598007" target-width="103.8291" target-x="104.75429" target-y="36.125763"></path><path d="M 104.08 92.27 C 104.08 91.62 104.61 91.10 105.27 91.10 C 105.92 91.10 106.46 91.62 106.46 92.27 C 106.46 92.92 105.92 93.45 105.27 93.45 C 104.61 93.45 104.08 92.92 104.08 92.27" fill="#ffffff" fill-rule="evenodd" id="Fill-149" node-id="141" stroke="none" target-height="2.351715" target-width="2.375084" target-x="104.080414" target-y="91.0979"></path><path d="M 105.27 91.55 C 104.86 91.55 104.53 91.87 104.53 92.27 C 104.53 92.67 104.86 93.00 105.27 93.00 C 105.67 93.00 106.01 92.67 106.01 92.27 C 106.01 91.87 105.67 91.55 105.27 91.55 M 105.27 93.90 C 104.37 93.90 103.63 93.17 103.63 92.27 C 103.63 91.38 104.37 90.65 105.27 90.65 C 106.17 90.65 106.91 91.38 106.91 92.27 C 106.91 93.17 106.17 93.90 105.27 93.90" fill="#184657" fill-rule="evenodd" id="Fill-150" node-id="142" stroke="none" target-height="3.251587" target-width="3.2745285" target-x="103.63077" target-y="90.647964"></path><path d="M 138.35 70.36 C 138.35 69.71 138.88 69.19 139.54 69.19 C 140.19 69.19 140.72 69.71 140.72 70.36 C 140.72 71.01 140.19 71.54 139.54 71.54 C 138.88 71.54 138.35 71.01 138.35 70.36" fill="#ffffff" fill-rule="evenodd" id="Fill-151" node-id="143" stroke="none" target-height="2.3517075" target-width="2.3750763" target-x="138.3477" target-y="69.185875"></path><path d="M 139.54 69.64 C 139.13 69.64 138.80 69.96 138.80 70.36 C 138.80 70.76 139.13 71.09 139.54 71.09 C 139.94 71.09 140.27 70.76 140.27 70.36 C 140.27 69.96 139.94 69.64 139.54 69.64 M 139.54 71.99 C 138.63 71.99 137.90 71.26 137.90 70.36 C 137.90 69.47 138.63 68.74 139.54 68.74 C 140.44 68.74 141.17 69.47 141.17 70.36 C 141.17 71.26 140.44 71.99 139.54 71.99" fill="#184657" fill-rule="evenodd" id="Fill-152" node-id="144" stroke="none" target-height="3.251587" target-width="3.2745361" target-x="137.89793" target-y="68.73574"></path><path d="M 172.63 48.69 C 172.63 48.04 173.16 47.51 173.82 47.51 C 174.48 47.51 175.01 48.04 175.01 48.69 C 175.01 49.34 174.48 49.86 173.82 49.86 C 173.16 49.86 172.63 49.34 172.63 48.69" fill="#ffffff" fill-rule="evenodd" id="Fill-153" node-id="145" stroke="none" target-height="2.3517075" target-width="2.375061" target-x="172.63199" target-y="47.51321"></path><path d="M 173.82 47.96 C 173.41 47.96 173.08 48.29 173.08 48.69 C 173.08 49.09 173.41 49.41 173.82 49.41 C 174.23 49.41 174.56 49.09 174.56 48.69 C 174.56 48.29 174.23 47.96 173.82 47.96 M 173.82 50.31 C 172.92 50.31 172.18 49.59 172.18 48.69 C 172.18 47.79 172.92 47.06 173.82 47.06 C 174.72 47.06 175.46 47.79 175.46 48.69 C 175.46 49.59 174.72 50.31 173.82 50.31" fill="#184657" fill-rule="evenodd" id="Fill-154" node-id="146" stroke="none" target-height="3.2515907" target-width="3.2745209" target-x="172.18228" target-y="47.06327"></path><path d="M 207.08 36.64 C 207.08 35.99 207.61 35.46 208.27 35.46 C 208.92 35.46 209.46 35.99 209.46 36.64 C 209.46 37.29 208.92 37.82 208.27 37.82 C 207.61 37.82 207.08 37.29 207.08 36.64" fill="#ffffff" fill-rule="evenodd" id="Fill-155" node-id="147" stroke="none" target-height="2.3517075" target-width="2.3750763" target-x="207.08168" target-y="35.463425"></path><path d="M 208.27 35.91 C 207.86 35.91 207.53 36.24 207.53 36.64 C 207.53 37.04 207.86 37.37 208.27 37.37 C 208.68 37.37 209.01 37.04 209.01 36.64 C 209.01 36.24 208.68 35.91 208.27 35.91 M 208.27 38.27 C 207.37 38.27 206.63 37.54 206.63 36.64 C 206.63 35.74 207.37 35.01 208.27 35.01 C 209.17 35.01 209.91 35.74 209.91 36.64 C 209.91 37.54 209.17 38.27 208.27 38.27" fill="#184657" fill-rule="evenodd" id="Fill-156" node-id="148" stroke="none" target-height="3.2515907" target-width="3.2745209" target-x="206.63184" target-y="35.013523"></path><path d="M 121.21 82.18 C 121.21 81.53 121.75 81.01 122.40 81.01 C 123.06 81.01 123.59 81.53 123.59 82.18 C 123.59 82.83 123.06 83.36 122.40 83.36 C 121.75 83.36 121.21 82.83 121.21 82.18" fill="#ffffff" fill-rule="evenodd" id="Fill-157" node-id="149" stroke="none" target-height="2.3517075" target-width="2.3750916" target-x="121.214134" target-y="81.0082"></path><path d="M 122.40 81.46 C 121.99 81.46 121.66 81.78 121.66 82.18 C 121.66 82.58 121.99 82.91 122.40 82.91 C 122.81 82.91 123.14 82.58 123.14 82.18 C 123.14 81.78 122.81 81.46 122.40 81.46 M 122.40 83.81 C 121.50 83.81 120.76 83.08 120.76 82.18 C 120.76 81.29 121.50 80.56 122.40 80.56 C 123.30 80.56 124.04 81.29 124.04 82.18 C 124.04 83.08 123.30 83.81 122.40 83.81" fill="#184657" fill-rule="evenodd" id="Fill-158" node-id="150" stroke="none" target-height="3.251587" target-width="3.2745438" target-x="120.76432" target-y="80.558105"></path><path d="M 155.48 65.15 C 155.48 64.50 156.01 63.98 156.67 63.98 C 157.33 63.98 157.86 64.50 157.86 65.15 C 157.86 65.80 157.33 66.33 156.67 66.33 C 156.01 66.33 155.48 65.80 155.48 65.15" fill="#ffffff" fill-rule="evenodd" id="Fill-159" node-id="151" stroke="none" target-height="2.3517113" target-width="2.3750916" target-x="155.48169" target-y="63.97546"></path><path d="M 156.67 64.43 C 156.26 64.43 155.93 64.75 155.93 65.15 C 155.93 65.55 156.26 65.88 156.67 65.88 C 157.08 65.88 157.41 65.55 157.41 65.15 C 157.41 64.75 157.08 64.43 156.67 64.43 M 156.67 66.78 C 155.77 66.78 155.03 66.05 155.03 65.15 C 155.03 64.26 155.77 63.53 156.67 63.53 C 157.57 63.53 158.31 64.26 158.31 65.15 C 158.31 66.05 157.57 66.78 156.67 66.78" fill="#184657" fill-rule="evenodd" id="Fill-160" node-id="152" stroke="none" target-height="3.2515945" target-width="3.2745361" target-x="155.03192" target-y="63.52556"></path><path d="M 189.75 46.87 C 189.75 46.22 190.28 45.70 190.94 45.70 C 191.59 45.70 192.12 46.22 192.12 46.87 C 192.12 47.52 191.59 48.05 190.94 48.05 C 190.28 48.05 189.75 47.52 189.75 46.87" fill="#ffffff" fill-rule="evenodd" id="Fill-161" node-id="153" stroke="none" target-height="2.3517075" target-width="2.3750763" target-x="189.74895" target-y="45.69558"></path><path d="M 190.94 46.15 C 190.53 46.15 190.20 46.47 190.20 46.87 C 190.20 47.27 190.53 47.60 190.94 47.60 C 191.34 47.60 191.67 47.27 191.67 46.87 C 191.67 46.47 191.34 46.15 190.94 46.15 M 190.94 48.50 C 190.03 48.50 189.30 47.77 189.30 46.87 C 189.30 45.98 190.03 45.25 190.94 45.25 C 191.84 45.25 192.57 45.98 192.57 46.87 C 192.57 47.77 191.84 48.50 190.94 48.50" fill="#184657" fill-rule="evenodd" id="Fill-162" node-id="154" stroke="none" target-height="3.2515945" target-width="3.2745209" target-x="189.2991" target-y="45.245674"></path><path d="M 326.45 72.85 C 326.29 72.85 326.12 72.80 325.97 72.69 C 325.60 72.42 325.52 71.91 325.78 71.54 L 349.77 38.34 C 349.90 38.15 350.12 38.03 350.35 38.00 C 350.59 37.98 350.82 38.06 351.00 38.22 L 368.36 54.15 L 379.79 36.41 C 380.00 36.08 380.41 35.95 380.78 36.08 L 396.06 41.83 L 413.02 22.29 C 413.32 21.94 413.84 21.91 414.18 22.21 C 414.53 22.51 414.57 23.03 414.27 23.37 L 396.94 43.35 C 396.71 43.61 396.34 43.71 396.02 43.58 L 380.82 37.87 L 369.21 55.87 C 369.08 56.08 368.87 56.21 368.62 56.25 C 368.38 56.28 368.14 56.20 367.96 56.03 L 350.56 40.07 L 327.12 72.51 C 326.96 72.73 326.71 72.85 326.45 72.85" fill="#184657" fill-rule="evenodd" id="Fill-163" node-id="155" stroke="none" target-height="50.942127" target-width="89.04947" target-x="325.51608" target-y="21.907482"></path><path d="M 496.40 66.92 C 495.38 66.92 494.56 67.74 494.56 68.76 C 494.56 69.77 495.38 70.59 496.40 70.59 C 497.41 70.59 498.24 69.77 498.24 68.76 C 498.24 67.74 497.41 66.92 496.40 66.92 M 470.12 66.92 C 469.10 66.92 468.28 67.74 468.28 68.76 C 468.28 69.77 469.10 70.59 470.12 70.59 C 471.13 70.59 471.96 69.77 471.96 68.76 C 471.96 67.74 471.13 66.92 470.12 66.92 M 443.84 66.92 C 442.82 66.92 442.00 67.74 442.00 68.76 C 442.00 69.77 442.82 70.59 443.84 70.59 C 444.85 70.59 445.68 69.77 445.68 68.76 C 445.68 67.74 444.85 66.92 443.84 66.92 M 496.40 45.59 C 495.38 45.59 494.56 46.41 494.56 47.43 C 494.56 48.44 495.38 49.27 496.40 49.27 C 497.41 49.27 498.24 48.44 498.24 47.43 C 498.24 46.41 497.41 45.59 496.40 45.59 M 470.12 45.59 C 469.10 45.59 468.28 46.41 468.28 47.43 C 468.28 48.44 469.10 49.27 470.12 49.27 C 471.13 49.27 471.96 48.44 471.96 47.43 C 471.96 46.41 471.13 45.59 470.12 45.59 M 443.84 45.59 C 442.82 45.59 442.00 46.41 442.00 47.43 C 442.00 48.44 442.82 49.27 443.84 49.27 C 444.85 49.27 445.68 48.44 445.68 47.43 C 445.68 46.41 444.85 45.59 443.84 45.59 M 496.40 24.26 C 495.38 24.26 494.56 25.08 494.56 26.10 C 494.56 27.11 495.38 27.94 496.40 27.94 C 497.41 27.94 498.24 27.11 498.24 26.10 C 498.24 25.08 497.41 24.26 496.40 24.26 M 470.12 24.26 C 469.10 24.26 468.28 25.08 468.28 26.10 C 468.28 27.11 469.10 27.94 470.12 27.94 C 471.13 27.94 471.96 27.11 471.96 26.10 C 471.96 25.08 471.13 24.26 470.12 24.26 M 445.68 26.10 C 445.68 27.11 444.85 27.94 443.84 27.94 C 442.82 27.94 442.00 27.11 442.00 26.10 C 442.00 25.08 442.82 24.26 443.84 24.26 C 444.85 24.26 445.68 25.08 445.68 26.10" fill="#035e80" fill-rule="evenodd" id="Fill-164" node-id="156" stroke="none" target-height="46.334785" target-width="56.236145" target-x="442.00113" target-y="24.259666"></path><g node-id="175"><g node-id="181"><path d="M 225.04 362.46 C 229.82 394.09 238.64 419.46 238.64 419.46 L 238.64 460.65 C 238.64 460.65 261.43 472.05 288.26 470.58 C 315.09 469.10 330.53 463.96 330.53 463.96 L 330.53 369.08 L 336.50 343.43 C 336.50 343.43 334.57 317.60 333.47 309.87 C 332.36 302.15 332.98 289.89 332.98 289.89 C 332.98 289.89 223.22 290.86 222.30 289.94 C 222.30 289.94 220.26 330.84 225.04 362.46 Z" fill="#ffd6cb" fill-rule="evenodd" group-id="6,12" id="Fill-5" node-id="159" stroke="none" target-height="182.15115" target-width="116.2404" target-x="220.25893" target-y="289.89447"></path></g><path d="M 334.49 319.01 C 334.24 316.42 333.98 314.01 333.75 312.06 C 333.80 312.07 333.86 312.08 333.92 312.08 C 333.71 311.26 333.56 310.52 333.47 309.87 C 333.09 307.22 332.97 303.26 332.98 299.21 C 332.99 291.47 332.98 289.94 332.98 289.94 C 332.98 289.94 222.59 290.23 222.30 289.94 C 222.30 289.94 220.26 330.84 225.04 362.46 C 225.29 364.15 225.56 365.82 225.84 367.48 C 257.59 368.41 275.02 384.25 275.02 384.25 C 275.02 384.25 277.23 378.73 288.81 371.56 C 300.39 364.39 321.61 359.98 329.88 348.67 C 334.64 342.17 337.84 330.57 339.71 321.88 C 338.31 325.11 336.94 328.32 335.63 331.26 C 335.26 327.34 335.13 323.90 334.49 319.01 Z" fill="#ffc6b6" fill-rule="evenodd" group-id="6" id="Fill-15" node-id="160" stroke="none" target-height="94.30884" target-width="119.44893" target-x="220.25893" target-y="289.9411"></path><path d="M 270.25 406.22 C 271.94 381.64 284.95 361.73 300.75 356.95 C 316.56 352.16 322.81 349.22 328.69 343.71 C 334.57 338.19 343.38 308.12 351.84 299.95 C 362.50 289.65 380.15 289.65 383.82 294.80 C 387.50 299.95 370.59 316.49 367.28 333.78 C 363.97 351.06 362.96 405.21 334.02 424.79 C 309.27 441.53 271.72 434.17 271.72 434.17 C 271.72 434.17 269.51 416.89 270.25 406.22" fill="#ffd6cb" fill-rule="evenodd" group-id="6" id="Fill-17" node-id="161" stroke="none" target-height="151.88422" target-width="117.98593" target-x="269.5117" target-y="289.64972"></path></g></svg>