<?xml version="1.0" standalone="no"?><!DOCTYPE svg PUBLIC "-//W3C//DTD SVG 1.1//EN" "http://www.w3.org/Graphics/SVG/1.1/DTD/svg11.dtd"><svg height="500" node-id="1" sillyvg="true" template-height="500" template-width="500" version="1.1" viewBox="0 0 500 500" width="500" xmlns="http://www.w3.org/2000/svg" xmlns:xlink="http://www.w3.org/1999/xlink"><defs node-id="67"><linearGradient gradientUnits="objectBoundingBox" id="linearGradient-2" node-id="7" spreadMethod="pad" x1="0.13362217" x2="0.8257297" y1="0.3024885" y2="0.9025702"><stop offset="0" stop-color="#ffcb70"></stop><stop offset="1" stop-color="#ff891f"></stop></linearGradient><radialGradient cx="0.55771947" cy="0.4645895" fx="0.55771947" fy="0.4645895" gradientUnits="objectBoundingBox" id="radialGradient-7" node-id="42" r="1.1409729" rev="1" spreadMethod="pad"><stop offset="0" stop-color="#fff1a5"></stop><stop offset="1" stop-color="#ffd046"></stop></radialGradient><filter filterUnits="objectBoundingBox" height="405.98987" id="filter-1" node-id="5" width="440.01196" x="-21.908989" y="116.421005"><feGaussianBlur color-interpolation-filters="linearRGB" in="SourceGraphic" result="result1" stdDeviation="46 46"></feGaussianBlur></filter><filter filterUnits="objectBoundingBox" height="247.07999" id="filter-4" node-id="11" width="258.88403" x="130.451" y="127.05698"><feGaussianBlur color-interpolation-filters="linearRGB" in="SourceAlpha" result="shadowBlurInner1" stdDeviation="0.5 0.5"></feGaussianBlur><feOffset color-interpolation-filters="linearRGB" dx="1" dy="0" in="shadowBlurInner1" result="shadowOffsetInner1"></feOffset><feComposite color-interpolation-filters="linearRGB" in="shadowOffsetInner1" in2="SourceAlpha" k1="0" k2="-1" k3="1" k4="0" operator="arithmetic" result="shadowInnerInner1"></feComposite><feColorMatrix color-interpolation-filters="linearRGB" in="shadowInnerInner1" result="shadowMatrixInner1" type="matrix" values="0 0 0 0 1 0 0 0 0 0.874494 0 0 0 0 0.45316312 0 0 0 1 0"></feColorMatrix><feGaussianBlur color-interpolation-filters="linearRGB" in="SourceAlpha" result="shadowBlurInner2" stdDeviation="6 6"></feGaussianBlur><feOffset color-interpolation-filters="linearRGB" dx="-3" dy="1" in="shadowBlurInner2" result="shadowOffsetInner2"></feOffset><feComposite color-interpolation-filters="linearRGB" in="shadowOffsetInner2" in2="SourceAlpha" k1="0" k2="-1" k3="1" k4="0" operator="arithmetic" result="shadowInnerInner2"></feComposite><feColorMatrix color-interpolation-filters="linearRGB" in="shadowInnerInner2" result="shadowMatrixInner2" type="matrix" values="0 0 0 0 1 0 0 0 0 0.85581833 0 0 0 0 0.46920732 0 0 0 0.9378551 0"></feColorMatrix><feGaussianBlur color-interpolation-filters="linearRGB" in="SourceAlpha" result="shadowBlurInner3" stdDeviation="3 3"></feGaussianBlur><feOffset color-interpolation-filters="linearRGB" dx="0" dy="-1" in="shadowBlurInner3" result="shadowOffsetInner3"></feOffset><feComposite color-interpolation-filters="linearRGB" in="shadowOffsetInner3" in2="SourceAlpha" k1="0" k2="-1" k3="1" k4="0" operator="arithmetic" result="shadowInnerInner3"></feComposite><feColorMatrix color-interpolation-filters="linearRGB" in="shadowInnerInner3" result="shadowMatrixInner3" type="matrix" values="0 0 0 0 1 0 0 0 0 0.86287326 0 0 0 0 0.5588034 0 0 0 0.32924497 0"></feColorMatrix><feMerge color-interpolation-filters="linearRGB" result="result13"><feMergeNode in="shadowMatrixInner1"></feMergeNode><feMergeNode in="shadowMatrixInner2"></feMergeNode><feMergeNode in="shadowMatrixInner3"></feMergeNode></feMerge></filter><filter filterUnits="objectBoundingBox" height="230.04797" id="filter-6" node-id="29" width="216.09003" x="171.07501" y="119.56897"><feMorphology color-interpolation-filters="linearRGB" in="SourceAlpha" operator="erode" radius="1 1" result="shadowSpreadInner1"></feMorphology><feGaussianBlur color-interpolation-filters="linearRGB" in="shadowSpreadInner1" result="shadowBlurInner1" stdDeviation="2 2"></feGaussianBlur><feOffset color-interpolation-filters="linearRGB" dx="0" dy="1" in="shadowBlurInner1" result="shadowOffsetInner1"></feOffset><feComposite color-interpolation-filters="linearRGB" in="shadowOffsetInner1" in2="SourceAlpha" k1="0" k2="-1" k3="1" k4="0" operator="arithmetic" result="shadowInnerInner1"></feComposite><feColorMatrix color-interpolation-filters="linearRGB" in="shadowInnerInner1" result="shadowMatrixInner1" type="matrix" values="0 0 0 0 1 0 0 0 0 0.8934995 0 0 0 0 0.3549352 0 0 0 0.87726724 0"></feColorMatrix><feGaussianBlur color-interpolation-filters="linearRGB" in="SourceAlpha" result="shadowBlurInner2" stdDeviation="0.5 0.5"></feGaussianBlur><feOffset color-interpolation-filters="linearRGB" dx="1" dy="-1" in="shadowBlurInner2" result="shadowOffsetInner2"></feOffset><feComposite color-interpolation-filters="linearRGB" in="shadowOffsetInner2" in2="SourceAlpha" k1="0" k2="-1" k3="1" k4="0" operator="arithmetic" result="shadowInnerInner2"></feComposite><feColorMatrix color-interpolation-filters="linearRGB" in="shadowInnerInner2" result="shadowMatrixInner2" type="matrix" values="0 0 0 0 1 0 0 0 0 0.90139085 0 0 0 0 0.5337271 0 0 0 0.92212087 0"></feColorMatrix><feMerge color-interpolation-filters="linearRGB" result="result10"><feMergeNode in="shadowMatrixInner1"></feMergeNode><feMergeNode in="shadowMatrixInner2"></feMergeNode></feMerge></filter><filter filterUnits="objectBoundingBox" height="209.90802" id="filter-9" node-id="46" width="198.016" x="180.007" y="129.52698"><feGaussianBlur color-interpolation-filters="linearRGB" in="SourceAlpha" result="shadowBlurInner1" stdDeviation="5 5"></feGaussianBlur><feOffset color-interpolation-filters="linearRGB" dx="1" dy="6" in="shadowBlurInner1" result="shadowOffsetInner1"></feOffset><feComposite color-interpolation-filters="linearRGB" in="shadowOffsetInner1" in2="SourceAlpha" k1="0" k2="-1" k3="1" k4="0" operator="arithmetic" result="shadowInnerInner1"></feComposite><feColorMatrix color-interpolation-filters="linearRGB" in="shadowInnerInner1" result="result4" type="matrix" values="0 0 0 0 1 0 0 0 0 0.6963848 0 0 0 0 0.24399771 0 0 0 0.15739729 0"></feColorMatrix></filter><filter filterUnits="objectBoundingBox" height="136.99197" id="filter-10" node-id="51" width="219.05002" x="123.55499" y="260.98495"><feGaussianBlur color-interpolation-filters="linearRGB" in="SourceGraphic" result="result1" stdDeviation="13 13"></feGaussianBlur></filter></defs><path d="M 0.00 0.00 L 500.00 0.00 L 500.00 500.00 L 0.00 500.00 Z" fill="#ffffff" fill-rule="evenodd" node-id="163" stroke="none" target-height="500" target-width="500" target-x="0" target-y="0"></path><g node-id="203"><path d="M 179.59 379.70 C 223.71 393.19 267.73 377.15 277.90 343.89 C 288.07 310.63 260.56 272.74 216.44 259.26 C 172.32 245.78 128.30 261.81 118.13 295.07 C 107.96 328.33 135.47 366.22 179.59 379.70 Z" fill="#ffad65" fill-opacity="0.69673294" fill-rule="evenodd" filter="url(#filter-1)" group-id="1" id="椭圆形备份" node-id="55" stroke="none" target-height="147.41035" target-width="180.11897" target-x="107.95552" target-y="245.77577"></path></g><g node-id="204"><g node-id="208"><path d="M 180.90 335.32 C 230.18 381.27 307.60 378.34 353.82 328.78 C 400.04 279.21 386.25 209.59 336.97 163.63 C 287.69 117.68 221.59 112.80 175.37 162.37 C 129.15 211.93 131.63 289.37 180.90 335.32 Z" fill="url(#linearGradient-2)" fill-rule="evenodd" group-id="2,6" node-id="172" stroke="none" target-height="268.46527" target-width="270.88977" target-x="129.14655" target-y="112.80495"></path></g><path d="M 180.90 335.32 C 230.18 381.27 307.60 378.34 353.82 328.78 C 400.04 279.21 386.25 209.59 336.97 163.63 C 287.69 117.68 221.59 112.80 175.37 162.37 C 129.15 211.93 131.63 289.37 180.90 335.32 Z" fill="#000000" fill-rule="evenodd" filter="url(#filter-4)" group-id="2,7" node-id="177" stroke="none" target-height="268.46527" target-width="270.88977" target-x="129.14655" target-y="112.80495"></path></g><g node-id="205"><g node-id="210"><path d="M 353.38 330.14 C 394.32 297.99 394.22 229.10 353.15 176.27 C 312.08 123.43 245.60 106.67 204.65 138.82 C 163.71 170.97 163.81 239.86 204.88 292.70 C 245.95 345.53 312.43 362.30 353.38 330.14 Z" fill="#fff7cc" fill-rule="evenodd" group-id="3,8" node-id="184" stroke="none" target-height="255.62816" target-width="230.60431" target-x="163.71286" target-y="106.666885"></path></g><path d="M 353.38 330.14 C 394.32 297.99 394.22 229.10 353.15 176.27 C 312.08 123.43 245.60 106.67 204.65 138.82 C 163.71 170.97 163.81 239.86 204.88 292.70 C 245.95 345.53 312.43 362.30 353.38 330.14 Z" fill="#000000" fill-rule="evenodd" filter="url(#filter-6)" group-id="3,9" node-id="189" stroke="none" target-height="255.62816" target-width="230.60431" target-x="163.71286" target-y="106.666885"></path></g><g node-id="206"><g node-id="212"><path d="M 289.10 238.18 C 304.15 275.64 315.44 303.73 322.97 322.46 C 324.22 325.96 322.32 328.38 320.96 328.77 C 309.33 332.06 296.68 332.31 283.90 329.77 C 282.48 329.48 279.61 327.99 280.28 322.54 C 282.24 303.80 285.18 275.68 289.10 238.18 Z M 291.75 237.10 C 320.84 261.64 342.66 280.05 357.21 292.32 C 359.90 294.48 359.71 298.70 358.84 300.12 C 354.82 306.67 349.71 312.49 343.52 317.34 C 340.08 320.05 336.42 322.35 332.59 324.27 C 330.98 325.08 327.25 325.34 325.49 321.05 C 317.99 302.40 306.74 274.41 291.75 237.10 Z M 286.45 236.08 C 282.46 274.19 279.48 302.77 277.48 321.82 C 277.05 325.68 273.00 326.95 271.09 326.29 C 256.11 321.13 241.38 312.20 228.40 299.89 C 227.11 298.67 226.14 294.67 228.41 292.42 C 241.31 279.90 260.65 261.12 286.45 236.08 Z M 294.13 235.37 C 325.88 243.92 349.69 250.33 365.57 254.61 C 369.65 255.67 370.07 259.19 370.01 260.86 C 369.70 270.17 368.04 279.09 365.02 287.30 C 364.30 289.29 360.97 291.10 358.28 289.48 C 344.03 277.45 322.64 259.42 294.13 235.37 Z M 283.71 234.75 C 258.22 259.49 239.11 278.04 226.37 290.41 C 222.25 293.47 219.16 290.20 218.67 289.62 C 217.35 288.07 216.06 286.49 214.79 284.86 C 208.49 276.77 203.31 268.24 199.23 259.53 C 198.27 257.49 197.77 253.33 201.25 252.37 C 219.58 248.45 247.06 242.58 283.71 234.75 Z M 364.11 222.51 C 366.99 231.07 368.83 239.69 369.62 248.13 C 369.76 249.70 368.26 252.20 365.64 251.66 C 349.81 247.39 326.06 241.00 294.39 232.47 C 322.30 226.50 343.24 222.03 357.19 219.05 C 361.60 218.11 363.60 220.98 364.11 222.51 Z M 194.12 208.43 C 213.69 213.70 243.04 221.61 282.17 232.15 C 246.19 239.83 219.21 245.60 201.22 249.44 C 197.03 250.22 194.26 247.31 193.71 245.63 C 190.05 234.51 188.15 223.31 188.01 212.54 C 188.21 208.17 192.12 207.89 194.12 208.43 Z M 347.14 189.25 C 351.90 196.00 355.92 203.01 359.19 210.14 C 359.97 211.82 360.02 215.41 356.46 216.27 C 342.32 219.29 321.12 223.82 292.85 229.86 C 312.13 211.15 326.59 197.11 336.23 187.75 C 342.52 182.19 346.44 188.27 347.14 189.25 Z M 208.15 166.59 C 224.65 180.51 249.41 201.40 282.43 229.25 C 243.32 218.71 214.00 210.81 194.44 205.55 C 188.94 204.04 188.66 200.00 188.93 198.09 C 190.46 187.50 193.85 177.61 199.12 168.97 C 199.44 168.45 203.07 162.65 208.15 166.59 Z M 306.69 151.71 C 316.69 157.54 326.24 165.09 334.87 174.23 C 335.32 174.70 340.43 180.20 335.63 184.35 C 325.51 194.17 310.34 208.90 290.11 228.54 C 293.52 195.92 296.08 171.45 297.78 155.14 C 298.92 148.07 305.82 151.20 306.69 151.71 Z M 251.59 144.85 C 263.76 171.21 274.84 198.77 284.81 227.51 C 251.76 199.63 226.97 178.72 210.44 164.78 C 206.60 161.16 207.99 157.42 209.46 156.01 C 211.06 154.45 212.76 152.96 214.55 151.56 C 222.17 145.58 230.82 141.56 240.05 139.38 C 241.27 139.09 248.38 136.81 251.59 144.85 Z M 260.33 137.48 C 269.24 137.82 278.38 139.61 287.42 142.77 C 288.60 143.18 296.44 144.62 295.01 154.21 C 293.33 170.26 290.81 194.33 287.46 226.43 C 272.83 190.05 261.86 162.75 254.55 144.56 C 251.94 137.66 259.48 137.45 260.33 137.48 Z" fill="url(#radialGradient-7)" fill-rule="evenodd" group-id="4,10" node-id="196" stroke="none" target-height="195.50114" target-width="182.05177" target-x="188.015" target-y="136.81194"></path></g><path d="M 289.10 238.18 C 304.15 275.64 315.44 303.73 322.97 322.46 C 324.22 325.96 322.32 328.38 320.96 328.77 C 309.33 332.06 296.68 332.31 283.90 329.77 C 282.48 329.48 279.61 327.99 280.28 322.54 C 282.24 303.80 285.18 275.68 289.10 238.18 Z M 291.75 237.10 C 320.84 261.64 342.66 280.05 357.21 292.32 C 359.90 294.48 359.71 298.70 358.84 300.12 C 354.82 306.67 349.71 312.49 343.52 317.34 C 340.08 320.05 336.42 322.35 332.59 324.27 C 330.98 325.08 327.25 325.34 325.49 321.05 C 317.99 302.40 306.74 274.41 291.75 237.10 Z M 286.45 236.08 C 282.46 274.19 279.48 302.77 277.48 321.82 C 277.05 325.68 273.00 326.95 271.09 326.29 C 256.11 321.13 241.38 312.20 228.40 299.89 C 227.11 298.67 226.14 294.67 228.41 292.42 C 241.31 279.90 260.65 261.12 286.45 236.08 Z M 294.13 235.37 C 325.88 243.92 349.69 250.33 365.57 254.61 C 369.65 255.67 370.07 259.19 370.01 260.86 C 369.70 270.17 368.04 279.09 365.02 287.30 C 364.30 289.29 360.97 291.10 358.28 289.48 C 344.03 277.45 322.64 259.42 294.13 235.37 Z M 283.71 234.75 C 258.22 259.49 239.11 278.04 226.37 290.41 C 222.25 293.47 219.16 290.20 218.67 289.62 C 217.35 288.07 216.06 286.49 214.79 284.86 C 208.49 276.77 203.31 268.24 199.23 259.53 C 198.27 257.49 197.77 253.33 201.25 252.37 C 219.58 248.45 247.06 242.58 283.71 234.75 Z M 364.11 222.51 C 366.99 231.07 368.83 239.69 369.62 248.13 C 369.76 249.70 368.26 252.20 365.64 251.66 C 349.81 247.39 326.06 241.00 294.39 232.47 C 322.30 226.50 343.24 222.03 357.19 219.05 C 361.60 218.11 363.60 220.98 364.11 222.51 Z M 194.12 208.43 C 213.69 213.70 243.04 221.61 282.17 232.15 C 246.19 239.83 219.21 245.60 201.22 249.44 C 197.03 250.22 194.26 247.31 193.71 245.63 C 190.05 234.51 188.15 223.31 188.01 212.54 C 188.21 208.17 192.12 207.89 194.12 208.43 Z M 347.14 189.25 C 351.90 196.00 355.92 203.01 359.19 210.14 C 359.97 211.82 360.02 215.41 356.46 216.27 C 342.32 219.29 321.12 223.82 292.85 229.86 C 312.13 211.15 326.59 197.11 336.23 187.75 C 342.52 182.19 346.44 188.27 347.14 189.25 Z M 208.15 166.59 C 224.65 180.51 249.41 201.40 282.43 229.25 C 243.32 218.71 214.00 210.81 194.44 205.55 C 188.94 204.04 188.66 200.00 188.93 198.09 C 190.46 187.50 193.85 177.61 199.12 168.97 C 199.44 168.45 203.07 162.65 208.15 166.59 Z M 306.69 151.71 C 316.69 157.54 326.24 165.09 334.87 174.23 C 335.32 174.70 340.43 180.20 335.63 184.35 C 325.51 194.17 310.34 208.90 290.11 228.54 C 293.52 195.92 296.08 171.45 297.78 155.14 C 298.92 148.07 305.82 151.20 306.69 151.71 Z M 251.59 144.85 C 263.76 171.21 274.84 198.77 284.81 227.51 C 251.76 199.63 226.97 178.72 210.44 164.78 C 206.60 161.16 207.99 157.42 209.46 156.01 C 211.06 154.45 212.76 152.96 214.55 151.56 C 222.17 145.58 230.82 141.56 240.05 139.38 C 241.27 139.09 248.38 136.81 251.59 144.85 Z M 260.33 137.48 C 269.24 137.82 278.38 139.61 287.42 142.77 C 288.60 143.18 296.44 144.62 295.01 154.21 C 293.33 170.26 290.81 194.33 287.46 226.43 C 272.83 190.05 261.86 162.75 254.55 144.56 C 251.94 137.66 259.48 137.45 260.33 137.48 Z" fill="#000000" fill-rule="evenodd" filter="url(#filter-9)" group-id="4,11" node-id="201" stroke="none" target-height="195.50114" target-width="182.05177" target-x="188.015" target-y="136.81194"></path></g><path d="M 168.01 305.48 C 213.86 344.37 257.20 359.63 298.01 351.26" fill="none" filter="url(#filter-10)" group-id="5" id="路径-22" node-id="65" stroke="#ffe360" stroke-linecap="round" stroke-width="11" target-height="54.14804" target-width="130.00002" target-x="168.015" target-y="305.48096"></path></svg>