
<svg xmlns="http://www.w3.org/2000/svg" version="1.1" xmlns:xlink="http://www.w3.org/1999/xlink" preserveAspectRatio="none" x="0px" y="0px" width="1024px" height="1024px" viewBox="0 0 1024 1024">
<defs>
<g id="Layer0_0_MEMBER_0_FILL">
<path fill="#FDB46B" stroke="none" d="
M 826.2 164.3
Q 827.25 172.1 833.2 179.6 839.65 187.7 848 190.1 857.75 192.95 867.05 186.7 878 179.4 886.9 160.35 893.4 146.45 897.05 141.2 903.15 132.5 909.4 133.05
L 909.75 129.45
Q 901.8 128.75 894.85 138.15 890.65 143.75 883.65 158.8 875.35 176.55 865.15 183.45 856.55 189.25 847.5 186.8 839.85 184.7 833.9 177.5 828.45 170.9 827.6 164.25
L 826.2 164.3 Z"/>
</g>

<g id="Layer0_0_MEMBER_1_FILL">
<path fill="#FEC673" stroke="none" d="
M 881.55 170.45
Q 884.4 165.7 886.9 160.35 893.4 146.45 897.05 141.2 903.15 132.5 909.4 133.05
L 909.75 129.45
Q 901.8 128.75 894.85 138.15 890.65 143.75 883.65 158.8 882.55 161.2 880.95 164.15 881.8 167.25 881.55 170.45 Z"/>
</g>

<g id="Layer0_0_MEMBER_2_FILL">
<path fill="#F28B5C" stroke="none" d="
M 1004.3 180.55
Q 1005.4 174.2 1002.6 165.3 999.8 156.2 996.5 156.85 993.55 157.45 990.9 169.75 988.55 180.8 989 184.75 989.55 189.55 992.25 201.6 996.35 220 996.8 222.25
L 1004.9 222.25
Q 1000.15 204.55 1004.3 180.55 Z"/>
</g>

<g id="Layer0_0_MEMBER_3_FILL">
<path fill="#BA5B3E" stroke="none" d="
M 1031.45 97.2
Q 1030.15 92.5 1027.85 91.9
L 1027.45 94.85
Q 1026.75 97.8 1025.15 98 1025.5 96.55 1025.2 94.95 1024.6 91.7 1021.4 90.85
L 1021.75 93.05
Q 1021.7 95.4 1019.6 96.25 1019.3 94.9 1018.2 93.7 1016 91.4 1012.05 92.45
L 1013.65 94.3
Q 1014.45 96.6 1010.55 98.7
L 1030.15 114.9
Q 1036.05 108.95 1037.45 105.45 1039.6 100.05 1034.9 94.9
L 1034.6 98.3
Q 1033.95 101.75 1032.25 101.8 1032.1 99.55 1031.45 97.2 Z"/>
</g>

<g id="Layer0_0_MEMBER_4_FILL">
<path fill="#F28B5C" stroke="none" d="
M 919.6 132.5
Q 914.75 132.75 913.25 137.4 910.3 146.7 908.5 165.95
L 906.4 188.05
Q 905.95 190.4 911.25 202.45 917.4 216.45 918.6 222.25
L 927 222.25
Q 924.9 215.35 922.9 207.7 918.9 192.35 919.4 188.55 919.55 187.4 921.35 185.15 925.05 180.45 925.85 179.35 933.35 168.95 938.7 152.9 940.2 148.45 937.1 143.3 934.3 138.7 929.15 135.5 923.95 132.3 919.6 132.5 Z"/>
</g>

<g id="Layer0_0_MEMBER_5_FILL">
<path fill="#FDB46B" stroke="none" d="
M 995.2 121.5
Q 982.55 128.85 973.7 131.4 959.75 135.4 936.3 132.55 924.7 130.9 919.95 130.25 911.9 129.1 908.9 129.4 903.4 129.95 900 135.15 897 139.7 896.45 146.25 895.9 152.5 897.85 156.95 899.9 161.7 903.8 161.5 911.05 161.1 919.85 165.3 922.3 166.5 936.55 174.85 947.7 181.4 956.4 184.4 968.85 188.6 982.1 188.2 991.15 187.9 1003.4 171.05 1015.35 154.55 1016.3 142.6
L 1006.1 114.6
Q 1001.55 117.8 995.2 121.5 Z"/>
</g>

<g id="Layer0_0_MEMBER_6_FILL">
<path fill="#F28B5C" stroke="none" d="
M 1000.7 169.65
Q 989.85 181.65 982.1 181.9 967.9 182.3 954.6 178.1 945.3 175.1 933.35 168.55 918.15 160.2 915.55 159 906.1 154.8 898.35 155.2
L 897.25 155.15
Q 898.1 158.35 899.75 160.15 901.55 162.1 903.95 162 911.2 161.6 920 165.8 922.45 167 936.7 175.35 947.85 181.9 956.55 184.9 969 189.1 982.25 188.7 990.7 188.4 1002.35 173.1 1013.6 158.35 1016.05 145.9 1010.9 158.35 1000.7 169.65 Z"/>
</g>

<g id="Layer0_0_MEMBER_7_FILL">
<path fill="#F28B5C" stroke="none" d="
M 976.05 164.8
L 975.55 188.4 985.25 187.95
Q 986.6 180.65 981.45 172 979.85 169.3 977.8 166.8
L 976.05 164.8 Z"/>
</g>

<g id="Layer0_0_MEMBER_8_FILL">
<path fill="#FDB46B" stroke="none" d="
M 977.55 180.55
Q 978.65 174.2 975.85 165.3 973.05 156.2 969.75 156.85 966.8 157.45 964.15 169.75 961.8 180.7 962.25 184.75 962.8 189.55 965.5 201.6 969.6 220 970.05 222.25
L 978.15 222.25
Q 973.4 204.55 977.55 180.55 Z"/>
</g>

<g id="Layer0_0_MEMBER_9_FILL">
<path fill="#FEC673" stroke="none" d="
M 979.65 138.55
Q 974.3 138.45 973.65 138.5 970.95 138.75 969.4 140.3 966.1 143.75 964.5 159.5 964 164.55 962.25 176.95 961.25 186.9 963.5 187.3 966.4 187.8 976.35 177.2 986.6 166.3 988.85 159.45 991.9 150.3 987.55 143.85 984 138.65 979.65 138.55 Z"/>
</g>

<g id="Layer0_0_MEMBER_10_FILL">
<path fill="#FDB46B" stroke="none" d="
M 983.45 222.25
Q 983.65 220.85 983.3 219.5 982.55 216.7 979.6 216.7 976.7 216.7 973.9 219.5
L 971.7 222.25 983.45 222.25 Z"/>
</g>

<g id="Layer0_0_MEMBER_11_FILL">
<path fill="#FEC673" stroke="none" d="
M 982.05 127.7
Q 979 128.75 973.3 130.35 959.3 134.35 936.1 132.05 935.05 131.95 919.9 130.1 911.9 129.1 908.9 129.4 904.4 129.85 901.25 133.5 898.4 136.8 897.15 141.9 894.3 152 906.7 157.4 917.25 162 936.65 162.45 953.85 162.9 970.45 160.1 986.9 157.3 991.65 153.25 998.25 147.55 995.45 135.75 993.75 128.5 990.75 124 987.15 125.95 982.05 127.7 Z"/>
</g>

<g id="Layer0_0_MEMBER_12_FILL">
<path fill="#F28B5C" stroke="none" d="
M 931.3 219.5
Q 930.55 216.7 927.65 216.7 924.75 216.7 922.2 219.5
L 920.2 222.25 931.5 222.25
Q 931.7 220.85 931.3 219.5 Z"/>
</g>

<g id="Layer0_0_MEMBER_13_FILL">
<path fill="#F28B5C" stroke="none" d="
M 1009.8 222.25
Q 1010 220.85 1009.65 219.5 1008.9 216.7 1005.95 216.7 1003.05 216.7 1000.7 219.5
L 998.9 222.25 1009.8 222.25 Z"/>
</g>

<g id="Layer0_0_MEMBER_14_FILL">
<path fill="#BA5B3E" stroke="none" d="
M 1015.45 95.55
Q 1010.15 93.35 1001.7 95.95 984.75 101.1 968.95 125 965.05 130.85 965.8 141.9 966.5 152.85 971.45 164.75 976.75 177.45 985.2 187.1 994.6 197.85 1006.15 202.5 1021.7 182.2 1027.95 163.15 1034.55 142.9 1031.25 122.4 1030.55 118.2 1031.45 112.8 1032.45 106.95 1032.35 105.55 1032.05 102.2 1028.7 100 1024.8 97.55 1015.45 95.55 Z"/>
</g>

<g id="Layer0_0_MEMBER_15_FILL">
<path fill="#CF6244" stroke="none" d="
M 1012.9 93.2
Q 1013.8 94.1 1013.75 95.1 1008.25 93.9 1001.65 95.95 991.3 99.15 981.05 109.7 975.9 112.05 971.3 117.3 966.8 122.35 964.35 128.3 971.85 129.1 981.4 127 991.25 124.85 1001.2 120 1011.4 115.05 1019.3 108.5 1026.95 102.2 1030.95 95.65 1029.8 92.45 1027.85 91.9
L 1027.45 94.85
Q 1026.75 97.8 1025.15 98 1025.5 96.55 1025.2 94.95 1024.6 91.7 1021.4 90.85
L 1021.75 93.05
Q 1021.7 95.4 1019.6 96.25 1019.3 94.9 1018.2 93.7 1016 91.4 1012.05 92.45
L 1012.9 93.2 Z"/>
</g>

<g id="Layer0_0_MEMBER_16_FILL">
<path fill="#AB4730" stroke="none" d="
M 1031.25 122.4
L 1030.95 119.15
Q 1024.55 138.15 1010.1 147.5 995.9 156.75 980.7 152.3 975.4 151 972.95 150.2 968.65 148.75 966.25 146.3 968.7 163.2 978.8 178.65 990.2 196.05 1006.15 202.5 1021.7 182.2 1027.95 163.15 1034.55 142.9 1031.25 122.4 Z"/>
</g>

<g id="Layer0_0_MEMBER_17_FILL">
<path fill="#BA5B3E" stroke="none" d="
M 1019.3 145.1
Q 1020.65 134.15 1016.5 127.2
L 1006.7 137.3 1010.05 146.4
Q 1013.25 156.6 1012.6 162.05 1017.95 155.65 1019.3 145.1 Z"/>
</g>

<g id="Layer0_0_MEMBER_18_FILL">
<path fill="#BA5B3E" stroke="none" d="
M 1007.3 129.65
L 998.45 140.55 1002.55 149.35
Q 1006.6 159.2 1006.45 164.7 1011.2 157.85 1011.6 147.25 1012.05 136.25 1007.3 129.65 Z"/>
</g>

<g id="Layer0_0_MEMBER_19_FILL">
<path fill="#AB4730" stroke="none" d="
M 1028.85 156.75
Q 1030.9 164.7 1031.05 169.95 1034.85 162.9 1034.65 152.8 1034.45 142.35 1029.95 136.7
L 1026.85 149.8 1028.85 156.75 Z"/>
</g>

<g id="Layer0_0_MEMBER_20_FILL">
<path fill="#AB4730" stroke="none" d="
M 1022.75 172.5
Q 1023.55 181.4 1022.8 187 1028.1 180.15 1029.65 169.3 1031.25 158.05 1027.4 151.2
L 1021.8 164.7 1022.75 172.5 Z"/>
</g>

<g id="Layer0_0_MEMBER_21_FILL">
<path fill="#FDB46B" stroke="none" d="
M 1029.35 111.35
Q 1023.1 106.8 1020.85 109.8 1014.2 118.75 1014.5 126.4 1014.75 131.85 1019.15 138.8 1021.8 143 1035.65 143 1040.55 143.05 1044.2 140.2 1047.4 137.65 1047.05 135.4 1046.8 133.95 1045.3 132.65 1043.2 131.15 1042.05 130.35 1037.35 127 1036.55 121.85 1035.65 116 1029.35 111.35 Z"/>
</g>

<g id="Layer0_0_MEMBER_22_FILL">
<path fill="#FEC673" stroke="none" d="
M 1029.4 111.1
Q 1023.1 106.75 1020.85 109.8 1017.25 114.65 1015.95 119.2 1014.2 124.05 1018.65 128.05 1021.65 130.75 1026.65 132.5 1029.25 133.45 1036.45 133.65 1044 133.85 1046.85 134.65 1046.45 133.65 1041.7 129.8 1037.5 126.35 1036.7 121.35 1035.85 115.55 1029.4 111.1 Z"/>
</g>

<g id="Layer0_0_MEMBER_23_FILL">
<path fill="#FDB46B" stroke="none" d="
M 1034.6 136.45
Q 1026.6 136.35 1026.55 137.3 1026.45 141.2 1030.05 145.3 1033.7 149.45 1037.05 149.2 1042.6 148.75 1043.15 142.7 1043.35 140.8 1043 138.6
L 1042.6 136.75
Q 1038.6 136.5 1034.6 136.45 Z"/>
</g>

<g id="Layer0_0_MEMBER_24_FILL">
<path fill="#FDB46B" stroke="none" d="
M 1042.65 145.15
L 1038.7 145.45
Q 1036.7 148.5 1033.45 151.2
L 1037.7 150.7
Q 1042.05 149.35 1042.65 145.15 Z"/>
</g>

<g id="Layer0_0_MEMBER_25_FILL">
<path fill="#FDB46B" stroke="none" d="
M 1041.45 145.85
L 1037.55 145.2
Q 1034.85 147.65 1031.05 149.5
L 1034.8 149.65
Q 1039.05 149.1 1041.45 145.85 Z"/>
</g>

<g id="Layer0_0_MEMBER_26_FILL">
<path fill="#FDB46B" stroke="none" d="
M 1035.4 145.05
Q 1032 146.25 1027.75 146.5
L 1031.15 148.05
Q 1035.3 149.2 1038.75 147.15
L 1035.4 145.05 Z"/>
</g>

<g id="Layer0_0_MEMBER_27_FILL">
<path fill="#FDB46B" stroke="none" d="
M 1033.55 143.2
Q 1029.9 144.65 1025.7 144.45
L 1029 146.05
Q 1033 147.3 1036.65 145.6
L 1033.55 143.2 Z"/>
</g>

<g id="Layer0_0_MEMBER_28_FILL">
<path fill="#FDB46B" stroke="none" d="
M 1029.25 140.5
Q 1024.85 140.95 1020.6 140.75
L 1024.7 143.35
Q 1029.5 145.6 1033.2 143.9
L 1029.25 140.5 Z"/>
</g>

<g id="Layer0_0_MEMBER_29_FILL">
<path fill="#FEC673" stroke="none" d="
M 1032.4 131.45
Q 1028.85 134.1 1025.1 136.15
L 1029.95 136.25
Q 1035.25 135.65 1037.5 132.3
L 1032.4 131.45 Z"/>
</g>

<g id="Layer0_0_MEMBER_30_FILL">
<path fill="#FEC673" stroke="none" d="
M 1027.65 129.7
Q 1023.55 131.35 1019.45 132.3
L 1024.1 133.65
Q 1029.35 134.5 1032.4 131.85
L 1027.65 129.7 Z"/>
</g>

<g id="Layer0_0_MEMBER_31_FILL">
<path fill="#D67245" stroke="none" d="
M 827.45 168
Q 828.95 167.95 829.45 165.95 829.85 164.35 829.45 162.25 829.1 160.4 826.85 158.3
L 824.7 156.55
Q 825.4 157.75 824.75 159.95 823.9 162.75 823.9 163.6 823.95 165.25 825.15 166.7 826.35 168.05 827.45 168 Z"/>
</g>

<g id="Layer0_0_MEMBER_32_FILL">
<path fill="#CF6244" stroke="none" d="
M 974.5 129.7
L 975.85 115.7
Q 969.05 119.8 965.1 130.05 961.3 139.95 962.9 148.15 964.9 143.05 969.9 135.85 972.4 132.25 974.5 129.7 Z"/>
</g>

<g id="Layer0_0_MEMBER_33_FILL">
<path fill="#CF6244" stroke="none" d="
M 972.65 126.05
Q 976.1 123.35 978.85 121.5
L 984.2 108.55
Q 976.5 110.5 969.75 119.15 963.25 127.5 962.35 135.8 965.75 131.5 972.65 126.05 Z"/>
</g>

<g id="Layer0_0_MEMBER_34_FILL">
<path fill="#BA5B3E" stroke="none" d="
M 975.1 139.8
L 975.45 125.8
Q 968.95 130.4 965.8 140.85 962.7 151 964.8 159.05 966.45 153.8 970.95 146.3 973.2 142.5 975.1 139.8 Z"/>
</g>

<g id="Layer0_0_MEMBER_35_FILL">
<path fill="#AB4730" stroke="none" d="
M 973.6 177.45
Q 973.55 172 975.45 163.45
L 977.35 156 973.35 142.55
Q 968.6 148.9 968.85 159.9 969.05 170.5 973.6 177.45 Z"/>
</g>

<g id="Layer0_0_MEMBER_36_FILL">
<path fill="#BA5B3E" stroke="none" d="
M 978.4 147
L 979 133
Q 972.45 137.45 969.05 147.9 965.8 158 967.8 166.05 969.5 160.85 974.15 153.4 976.45 149.7 978.4 147 Z"/>
</g>

<g id="Layer0_0_MEMBER_37_FILL">
<path fill="#AB4730" stroke="none" d="
M 981.55 188.55
Q 980.35 183.15 980.45 174.3
L 980.8 166.55 974.15 154.15
Q 970.85 161.45 973.35 172.25 975.75 182.65 981.55 188.55 Z"/>
</g>

<g id="Layer0_0_MEMBER_38_FILL">
<path fill="#AB4730" stroke="none" d="
M 987.45 192.65
Q 986.1 187.35 985.9 178.6
L 986 170.9 978.9 158.8
Q 975.8 166.1 978.65 176.7 981.4 186.95 987.45 192.65 Z"/>
</g>

<g id="Layer0_0_MEMBER_39_FILL">
<path fill="#AB4730" stroke="none" d="
M 993.7 187.65
L 992.1 180.1 982.45 169.9
Q 981.05 177.75 986.2 187.4 991.1 196.8 998.3 201 995.8 196.15 993.7 187.65 Z"/>
</g>

<g id="Layer0_0_MEMBER_40_FILL">
<path fill="#AB4730" stroke="none" d="
M 1010.15 185.05
L 1008.7 192.35
Q 1006.75 200.6 1004.4 205.5 1011.15 200.65 1015.75 191.3 1020.55 181.55 1019.15 174.35
L 1010.15 185.05 Z"/>
</g>

<g id="Layer0_0_MEMBER_41_FILL">
<path fill="#AB4730" stroke="none" d="
M 1015.9 184.6
Q 1015.9 192.85 1014.75 197.95 1020.2 192.15 1022.5 182.3 1024.95 172.15 1022 165.5
L 1015.7 177.4 1015.9 184.6 Z"/>
</g>

<g id="Layer0_0_MEMBER_42_FILL">
<path fill="#F28B5C" stroke="none" d="
M 916.65 166.75
L 920.35 168
Q 923.9 161.45 924.5 152.3
L 924.4 144.45 916.65 166.75 Z"/>
</g>

<g id="Layer0_0_MEMBER_43_FILL">
<path fill="#FDB46B" stroke="none" d="
M 906.7 130.45
Q 901.85 130.7 899.9 135.45 896.05 144.95 892.45 164.65 888.3 187.2 888.3 187.25 887.6 189.65 891.75 201.95 896.6 216.3 897.3 222.25
L 905.7 222.25
Q 904.3 215.3 903.05 207.6 900.55 192.15 901.4 188.25 901.65 187.1 903.7 184.7 907.8 179.75 908.7 178.6 917.05 167.7 923.9 151.3 925.8 146.75 923.2 141.5 920.85 136.8 915.95 133.55 911.1 130.25 906.7 130.45 Z"/>
</g>

<g id="Layer0_0_MEMBER_44_FILL">
<path fill="#FDB46B" stroke="none" d="
M 910.4 222.25
Q 910.6 220.85 910.2 219.5 909.45 216.7 906.55 216.7 903.65 216.7 901.55 219.5
L 900 222.25 910.4 222.25 Z"/>
</g>

<g id="Layer0_0_MEMBER_45_FILL">
<path fill="#FEC673" stroke="none" d="
M 908.85 129
Q 905.55 129.1 903.4 130.75 898.5 134.6 894.8 151.55 892.35 162.75 891.8 168.25 890.9 176.9 893.45 177.7 896.6 178.65 908 169.9 919.9 160.8 923.15 153.7 927.6 144.05 923.6 136.45 920.4 130.35 915.65 129.7 910.45 129 908.85 129 Z"/>
</g>

<g id="Layer0_0_MEMBER_46_FILL">
<path fill="#FEC673" stroke="none" d="
M 1043.35 135.1
Q 1045.3 139.1 1046 138.5 1047.1 137.55 1047.8 135.75 1048.5 133.9 1047.9 133.35 1047.1 132.65 1044.85 131.55 1042.35 130.3 1041.9 130.65 1041.4 131.05 1043.35 135.1 Z"/>
</g>

<g id="Layer0_0_MEMBER_47_FILL">
<path fill="#D16C3B" stroke="none" d="
M 1044.15 136.3
Q 1045.3 138.8 1045.75 138.4 1046.5 137.8 1047.15 136.3 1047.75 134.85 1047.35 134.5 1046.95 134.1 1045.25 133.7 1043.6 133.3 1043.3 133.5 1042.95 133.8 1044.15 136.3 Z"/>
</g>

<g id="Layer0_0_MEMBER_48_FILL">
<path fill="#BA5B3E" stroke="none" d="
M 979.75 146.3
L 975.75 132.85
Q 971 139.2 971.2 150.15 971.45 160.75 975.95 167.75 975.9 162.3 977.8 153.75
L 979.75 146.3 Z"/>
</g>

<g id="Layer0_0_MEMBER_49_FILL">
<path fill="#BA5B3E" stroke="none" d="
M 985.2 176.05
Q 984.4 170.6 987.3 160.5
L 990.3 151.45 980.45 141.45
Q 976.55 148.35 978.2 159.2 979.8 169.7 985.2 176.05 Z"/>
</g>

<g id="Layer0_0_MEMBER_50_FILL">
<path fill="#BA5B3E" stroke="none" d="
M 996.6 176.5
Q 994.9 171.3 996 160.8
L 997.45 151.35 986.05 143.2
Q 983.4 150.65 986.85 161.05 990.2 171.15 996.6 176.5 Z"/>
</g>

<g id="Layer0_0_MEMBER_51_FILL">
<path fill="#BA5B3E" stroke="none" d="
M 1005.95 146.3
L 995.3 137.15
Q 992 144.4 994.55 155.05 997 165.4 1002.9 171.25 1001.7 165.9 1003.7 155.55
L 1005.95 146.3 Z"/>
</g>

<g id="Layer0_0_MEMBER_52_FILL">
<path fill="#BA5B3E" stroke="none" d="
M 1023 137.7
Q 1020.2 133.75 1019.4 124.75
L 1019.2 116.55 1011.3 120.4
Q 1010.3 124.85 1014.05 130.1 1017.65 135.15 1023 137.7 Z"/>
</g>

<g id="Layer0_0_MEMBER_53_FILL">
<path fill="#BA5B3E" stroke="none" d="
M 1024.25 145.75
Q 1021.45 141.8 1019.4 129.85
L 1017.95 118.65 1012.55 128.4
Q 1011.6 132.85 1015.35 138.15 1018.9 143.2 1024.25 145.75 Z"/>
</g>

<g id="Layer0_0_MEMBER_54_FILL">
<path fill="#BA5B3E" stroke="none" d="
M 1022.15 129.5
Q 1020.05 125.9 1020.6 116.55
L 1021.6 107.95 1014.4 114.1
Q 1013.2 117.9 1015.6 122.5 1017.9 126.95 1022.15 129.5 Z"/>
</g>

<g id="Layer0_0_MEMBER_55_FILL">
<path fill="#BA5B3E" stroke="none" d="
M 1029.6 106.15
Q 1027.3 108.35 1023.9 108.15
L 1020.95 107.5 1019.6 114.85
Q 1022.65 115.05 1025.6 112.4 1028.5 109.8 1029.6 106.15 Z"/>
</g>

<g id="Layer0_0_MEMBER_56_FILL">
<path fill="#D16C3B" stroke="none" d="
M 1042.75 144.95
L 1043.25 143.4
Q 1041.1 144.35 1038.7 143.9 1036.15 143.45 1034.8 141.7 1034.75 141.9 1034.3 142.2 1035.75 144.55 1038.45 145.35 1041 146.05 1042.75 144.95 Z"/>
</g>

<g id="Layer0_0_MEMBER_57_FILL">
<path fill="#D16C3B" stroke="none" d="
M 1036.5 143.95
L 1034.65 141.75
Q 1034.25 142 1033.95 142.35 1033.35 143.05 1033.75 143.55 1034.55 144.7 1036.5 143.95 Z"/>
</g>

<g id="Layer0_0_MEMBER_58_FILL">
<path fill="#FED68D" stroke="none" d="
M 1042.2 144.55
Q 1044.75 143.85 1045.65 140.85 1046.95 136.65 1045.5 134.9 1044.45 133.6 1041.35 133.3 1038.2 133.05 1035.95 133.55 1033.1 134.15 1032.5 135.85 1031.7 138.1 1033.25 140.5 1034.7 142.7 1037.3 143.9 1039.95 145.15 1042.2 144.55 Z"/>
</g>

<g id="Layer0_0_MEMBER_59_MEMBER_0_FILL">
<path fill="#FDB46B" stroke="none" d="
M 1032.6 127.75
Q 1034.95 126.15 1035.05 125 1035.15 124 1033.8 123.05 1032.45 122.1 1030.55 121.8 1028.45 121.3 1027.75 121.3 1026.75 121.35 1025.7 122.6 1024.9 123.55 1025.7 126.1 1026.55 128.85 1028.3 129.1 1030.15 129.4 1032.6 127.75 Z"/>
</g>

<g id="Layer0_0_MEMBER_59_MEMBER_1_FILL">
<path fill="#F09658" stroke="none" d="
M 1032.15 126.4
Q 1032.9 125.7 1032.95 124.65 1033 123.65 1032.35 122.85 1031.7 122.1 1030.75 122 1029.75 121.95 1029.05 122.65 1028.3 123.35 1028.2 124.35 1028.15 125.35 1028.8 126.15 1029.45 126.95 1030.4 127 1031.4 127.1 1032.15 126.4 Z"/>
</g>

<g id="Layer0_0_MEMBER_59_MEMBER_2_FILL">
<path fill="#673825" stroke="none" d="
M 1031.6 125.7
Q 1032.05 125.25 1032.1 124.6 1032.15 123.95 1031.7 123.45 1031.3 122.95 1030.7 122.9 1030.05 122.85 1029.6 123.3 1029.1 123.75 1029.05 124.4 1029 125.05 1029.45 125.55 1029.85 126.05 1030.45 126.1 1031.1 126.15 1031.6 125.7 Z"/>
</g>

<g id="Layer0_0_MEMBER_59_MEMBER_3_FILL">
<path fill="#FEC673" stroke="none" d="
M 1031.1 124.9
Q 1031.55 124.9 1031.55 124.45 1031.65 124 1031.15 123.9 1030.65 123.9 1030.65 124.4 1030.65 124.9 1031.1 124.9 Z"/>
</g>

<g id="Layer0_0_MEMBER_59_MEMBER_4_FILL">
<path fill="#FEC673" stroke="none" d="
M 1027.7 120.45
Q 1024.9 121.25 1025.45 122.25 1025.6 122.55 1028.05 122.95 1030.7 123.35 1031.05 123.5 1031.5 123.7 1033.7 125 1035.75 126.1 1036.05 125.5 1036.4 124.75 1034.75 122.65 1033.1 120.55 1031.85 120.15 1030.4 119.75 1027.7 120.45 Z"/>
</g>

<g id="Layer0_0_MEMBER_60_FILL">
<path fill="#FED7A2" stroke="none" d="
M 976.95 220.8
Q 976.8 221.5 976.8 222.2
L 978.95 222.2
Q 979 219.2 977.9 219.3 977.2 219.35 976.95 220.8 Z"/>
</g>

<g id="Layer0_0_MEMBER_61_FILL">
<path fill="#FED7A2" stroke="none" d="
M 979.25 220.8
Q 979.1 221.5 979.1 222.2
L 981.25 222.2
Q 981.35 219.2 980.25 219.3 979.55 219.35 979.25 220.8 Z"/>
</g>

<g id="Layer0_0_MEMBER_62_FILL">
<path fill="#FED7A2" stroke="none" d="
M 981.4 220.8
Q 981.25 221.5 981.25 222.2
L 983.4 222.2
Q 983.5 219.2 982.35 219.3 981.65 219.35 981.4 220.8 Z"/>
</g>

<g id="Layer0_0_MEMBER_63_FILL">
<path fill="#FED7A2" stroke="none" d="
M 903.55 220.8
Q 903.4 221.5 903.4 222.2
L 905.55 222.2
Q 905.6 219.2 904.5 219.3 903.8 219.35 903.55 220.8 Z"/>
</g>

<g id="Layer0_0_MEMBER_64_FILL">
<path fill="#FED7A2" stroke="none" d="
M 905.9 220.8
Q 905.75 221.5 905.75 222.2
L 907.85 222.2
Q 907.95 219.2 906.85 219.3 906.15 219.35 905.9 220.8 Z"/>
</g>

<g id="Layer0_0_MEMBER_65_FILL">
<path fill="#FED7A2" stroke="none" d="
M 908 220.8
Q 907.85 221.5 907.85 222.2
L 910 222.2
Q 910.1 219.2 909 219.3 908.3 219.35 908 220.8 Z"/>
</g>

<g id="Layer0_0_MEMBER_66_FILL">
<path fill="#F09658" stroke="none" d="
M 1025.25 121.8
L 1024.5 123.25 1028.35 123.65
Q 1032.8 124.4 1035.85 126.05 1035.2 125.3 1033.5 124.35 1030.2 122.5 1025.25 121.8 Z"/>
</g>

<g id="Layer0_0_MEMBER_67_FILL">
<path fill="#CF6244" stroke="none" d="
M 973.45 141.45
Q 974.8 137.35 978.4 131.5 980.2 128.6 981.75 126.5
L 982.2 115.5
Q 977.05 119 974.4 127.2 971.85 135.1 973.45 141.45 Z"/>
</g>

<g id="Layer0_0_MEMBER_68_FILL">
<path fill="#CF6244" stroke="none" d="
M 983.5 142.75
Q 983.55 138.45 985.15 131.8
L 986.8 126 983.9 115.4
Q 980.05 120.3 980.05 128.9 980.05 137.2 983.5 142.75 Z"/>
</g>

<g id="Layer0_0_MEMBER_69_FILL">
<path fill="#CF6244" stroke="none" d="
M 995.65 140.9
Q 994.2 136.85 994.7 127.8
L 995.55 119.55 986.45 115.15
Q 984.55 121.05 987.55 129.15 990.5 136.9 995.65 140.9 Z"/>
</g>

<g id="Layer0_0_MEMBER_70_FILL">
<path fill="#CF6244" stroke="none" d="
M 1004.3 139.9
Q 1002.85 135.85 1003.4 126.85
L 1004.25 118.6 995.1 114.15
Q 993.25 120.1 996.25 128.15 999.15 135.95 1004.3 139.9 Z"/>
</g>

<g id="Layer0_0_MEMBER_71_FILL">
<path fill="#CF6244" stroke="none" d="
M 1016.95 120.05
Q 1018.15 110.2 1015.15 104.35
L 1007.4 112.3 1009.9 121.05
Q 1012.25 130.8 1011.7 135.75 1015.75 129.6 1016.95 120.05 Z"/>
</g>

<g id="Layer0_0_MEMBER_72_FILL">
<path fill="#CF6244" stroke="none" d="
M 1020.8 106.65
Q 1019.7 112.35 1018.2 114.8 1021.85 112.5 1024.75 107.8 1027.75 102.9 1027.6 99.1
L 1021.6 101.45 1020.8 106.65 Z"/>
</g>

<g id="Layer0_0_MEMBER_73_FILL">
<path fill="#CF6244" stroke="none" d="
M 1008.05 131.45
Q 1007.5 126.4 1010.45 115.95
L 1013.45 106.55 1004.85 99.2
Q 1001.35 105.7 1002.5 115.8 1003.6 125.55 1008.05 131.45 Z"/>
</g>

<g id="Layer0_0_MEMBER_74_FILL">
<path fill="#FDB46B" stroke="none" d="
M 1016.5 113.35
Q 1018.85 110.3 1018.65 108.85 1018.45 107.15 1015.8 105.65 1012.85 104.05 1010.65 105.9 1008.4 107.85 1009.35 112.4 1010.25 116.8 1012.1 116.65 1014.05 116.5 1016.5 113.35 Z"/>
</g>

<g id="Layer0_0_MEMBER_75_FILL">
<path fill="#F28C58" stroke="none" d="
M 1013.1 115.2
Q 1014.45 115.1 1016.15 112.9 1017.8 110.8 1017.65 109.85 1017.45 108.65 1015.5 107.65 1013.35 106.55 1011.8 107.85 1010.2 109.2 1010.95 112.3 1011.75 115.35 1013.1 115.2 Z"/>
</g>

<g id="Layer0_0_MEMBER_76_FILL">
<path fill="#ED836E" stroke="none" d="
M 982.35 111.4
Q 991.4 104.45 998.5 101.25 1005.05 98.3 1014.15 96.65 1005.15 94.5 994.8 100.45 986.6 105.2 982.35 111.4 Z"/>
</g>
</defs>

<g transform="matrix( 4.0499420166015625, 0, 0, 4.0499420166015625, -3278.9,-122) ">
<use xlink:href="#Layer0_0_MEMBER_0_FILL"/>
</g>

<g transform="matrix( 4.0499420166015625, 0, 0, 4.0499420166015625, -3278.9,-122) ">
<use xlink:href="#Layer0_0_MEMBER_1_FILL"/>
</g>

<g transform="matrix( 4.0499420166015625, 0, 0, 4.0499420166015625, -3278.9,-122) ">
<use xlink:href="#Layer0_0_MEMBER_2_FILL"/>
</g>

<g transform="matrix( 4.0499420166015625, 0, 0, 4.0499420166015625, -3278.9,-122) ">
<use xlink:href="#Layer0_0_MEMBER_3_FILL"/>
</g>

<g transform="matrix( 4.0499420166015625, 0, 0, 4.0499420166015625, -3278.9,-122) ">
<use xlink:href="#Layer0_0_MEMBER_4_FILL"/>
</g>

<g transform="matrix( 4.0499420166015625, 0, 0, 4.0499420166015625, -3278.9,-122) ">
<use xlink:href="#Layer0_0_MEMBER_5_FILL"/>
</g>

<g transform="matrix( 4.0499420166015625, 0, 0, 4.0499420166015625, -3278.9,-122) ">
<use xlink:href="#Layer0_0_MEMBER_6_FILL"/>
</g>

<g transform="matrix( 4.0499420166015625, 0, 0, 4.0499420166015625, -3278.9,-122) ">
<use xlink:href="#Layer0_0_MEMBER_7_FILL"/>
</g>

<g transform="matrix( 4.0499420166015625, 0, 0, 4.0499420166015625, -3278.9,-122) ">
<use xlink:href="#Layer0_0_MEMBER_8_FILL"/>
</g>

<g transform="matrix( 4.0499420166015625, 0, 0, 4.0499420166015625, -3278.9,-122) ">
<use xlink:href="#Layer0_0_MEMBER_9_FILL"/>
</g>

<g transform="matrix( 4.0499420166015625, 0, 0, 4.0499420166015625, -3278.9,-122) ">
<use xlink:href="#Layer0_0_MEMBER_10_FILL"/>
</g>

<g transform="matrix( 4.0499420166015625, 0, 0, 4.0499420166015625, -3278.9,-122) ">
<use xlink:href="#Layer0_0_MEMBER_11_FILL"/>
</g>

<g transform="matrix( 4.0499420166015625, 0, 0, 4.0499420166015625, -3278.9,-122) ">
<use xlink:href="#Layer0_0_MEMBER_12_FILL"/>
</g>

<g transform="matrix( 4.0499420166015625, 0, 0, 4.0499420166015625, -3278.9,-122) ">
<use xlink:href="#Layer0_0_MEMBER_13_FILL"/>
</g>

<g transform="matrix( 4.0499420166015625, 0, 0, 4.0499420166015625, -3278.9,-122) ">
<use xlink:href="#Layer0_0_MEMBER_14_FILL"/>
</g>

<g transform="matrix( 4.0499420166015625, 0, 0, 4.0499420166015625, -3278.9,-122) ">
<use xlink:href="#Layer0_0_MEMBER_15_FILL"/>
</g>

<g transform="matrix( 4.0499420166015625, 0, 0, 4.0499420166015625, -3278.9,-122) ">
<use xlink:href="#Layer0_0_MEMBER_16_FILL"/>
</g>

<g transform="matrix( 4.0499420166015625, 0, 0, 4.0499420166015625, -3278.9,-122) ">
<use xlink:href="#Layer0_0_MEMBER_17_FILL"/>
</g>

<g transform="matrix( 4.0499420166015625, 0, 0, 4.0499420166015625, -3278.9,-122) ">
<use xlink:href="#Layer0_0_MEMBER_18_FILL"/>
</g>

<g transform="matrix( 4.0499420166015625, 0, 0, 4.0499420166015625, -3278.9,-122) ">
<use xlink:href="#Layer0_0_MEMBER_19_FILL"/>
</g>

<g transform="matrix( 4.0499420166015625, 0, 0, 4.0499420166015625, -3278.9,-122) ">
<use xlink:href="#Layer0_0_MEMBER_20_FILL"/>
</g>

<g transform="matrix( 4.0499420166015625, 0, 0, 4.0499420166015625, -3278.9,-122) ">
<use xlink:href="#Layer0_0_MEMBER_21_FILL"/>
</g>

<g transform="matrix( 4.0499420166015625, 0, 0, 4.0499420166015625, -3278.9,-122) ">
<use xlink:href="#Layer0_0_MEMBER_22_FILL"/>
</g>

<g transform="matrix( 4.0499420166015625, 0, 0, 4.0499420166015625, -3278.9,-122) ">
<use xlink:href="#Layer0_0_MEMBER_23_FILL"/>
</g>

<g transform="matrix( 4.0499420166015625, 0, 0, 4.0499420166015625, -3278.9,-122) ">
<use xlink:href="#Layer0_0_MEMBER_24_FILL"/>
</g>

<g transform="matrix( 4.0499420166015625, 0, 0, 4.0499420166015625, -3278.9,-122) ">
<use xlink:href="#Layer0_0_MEMBER_25_FILL"/>
</g>

<g transform="matrix( 4.0499420166015625, 0, 0, 4.0499420166015625, -3278.9,-122) ">
<use xlink:href="#Layer0_0_MEMBER_26_FILL"/>
</g>

<g transform="matrix( 4.0499420166015625, 0, 0, 4.0499420166015625, -3278.9,-122) ">
<use xlink:href="#Layer0_0_MEMBER_27_FILL"/>
</g>

<g transform="matrix( 4.0499420166015625, 0, 0, 4.0499420166015625, -3278.9,-122) ">
<use xlink:href="#Layer0_0_MEMBER_28_FILL"/>
</g>

<g transform="matrix( 4.0499420166015625, 0, 0, 4.0499420166015625, -3278.9,-122) ">
<use xlink:href="#Layer0_0_MEMBER_29_FILL"/>
</g>

<g transform="matrix( 4.0499420166015625, 0, 0, 4.0499420166015625, -3278.9,-122) ">
<use xlink:href="#Layer0_0_MEMBER_30_FILL"/>
</g>

<g transform="matrix( 4.0499420166015625, 0, 0, 4.0499420166015625, -3278.9,-122) ">
<use xlink:href="#Layer0_0_MEMBER_31_FILL"/>
</g>

<g transform="matrix( 4.0499420166015625, 0, 0, 4.0499420166015625, -3278.9,-122) ">
<use xlink:href="#Layer0_0_MEMBER_32_FILL"/>
</g>

<g transform="matrix( 4.0499420166015625, 0, 0, 4.0499420166015625, -3278.9,-122) ">
<use xlink:href="#Layer0_0_MEMBER_33_FILL"/>
</g>

<g transform="matrix( 4.0499420166015625, 0, 0, 4.0499420166015625, -3278.9,-122) ">
<use xlink:href="#Layer0_0_MEMBER_34_FILL"/>
</g>

<g transform="matrix( 4.0499420166015625, 0, 0, 4.0499420166015625, -3278.9,-122) ">
<use xlink:href="#Layer0_0_MEMBER_35_FILL"/>
</g>

<g transform="matrix( 4.0499420166015625, 0, 0, 4.0499420166015625, -3278.9,-122) ">
<use xlink:href="#Layer0_0_MEMBER_36_FILL"/>
</g>

<g transform="matrix( 4.0499420166015625, 0, 0, 4.0499420166015625, -3278.9,-122) ">
<use xlink:href="#Layer0_0_MEMBER_37_FILL"/>
</g>

<g transform="matrix( 4.0499420166015625, 0, 0, 4.0499420166015625, -3278.9,-122) ">
<use xlink:href="#Layer0_0_MEMBER_38_FILL"/>
</g>

<g transform="matrix( 4.0499420166015625, 0, 0, 4.0499420166015625, -3278.9,-122) ">
<use xlink:href="#Layer0_0_MEMBER_39_FILL"/>
</g>

<g transform="matrix( 4.0499420166015625, 0, 0, 4.0499420166015625, -3278.9,-122) ">
<use xlink:href="#Layer0_0_MEMBER_40_FILL"/>
</g>

<g transform="matrix( 4.0499420166015625, 0, 0, 4.0499420166015625, -3278.9,-122) ">
<use xlink:href="#Layer0_0_MEMBER_41_FILL"/>
</g>

<g transform="matrix( 4.0499420166015625, 0, 0, 4.0499420166015625, -3278.9,-122) ">
<use xlink:href="#Layer0_0_MEMBER_42_FILL"/>
</g>

<g transform="matrix( 4.0499420166015625, 0, 0, 4.0499420166015625, -3278.9,-122) ">
<use xlink:href="#Layer0_0_MEMBER_43_FILL"/>
</g>

<g transform="matrix( 4.0499420166015625, 0, 0, 4.0499420166015625, -3278.9,-122) ">
<use xlink:href="#Layer0_0_MEMBER_44_FILL"/>
</g>

<g transform="matrix( 4.0499420166015625, 0, 0, 4.0499420166015625, -3278.9,-122) ">
<use xlink:href="#Layer0_0_MEMBER_45_FILL"/>
</g>

<g transform="matrix( 4.0499420166015625, 0, 0, 4.0499420166015625, -3278.9,-122) ">
<use xlink:href="#Layer0_0_MEMBER_46_FILL"/>
</g>

<g transform="matrix( 4.0499420166015625, 0, 0, 4.0499420166015625, -3278.9,-122) ">
<use xlink:href="#Layer0_0_MEMBER_47_FILL"/>
</g>

<g transform="matrix( 4.0499420166015625, 0, 0, 4.0499420166015625, -3278.9,-122) ">
<use xlink:href="#Layer0_0_MEMBER_48_FILL"/>
</g>

<g transform="matrix( 4.0499420166015625, 0, 0, 4.0499420166015625, -3278.9,-122) ">
<use xlink:href="#Layer0_0_MEMBER_49_FILL"/>
</g>

<g transform="matrix( 4.0499420166015625, 0, 0, 4.0499420166015625, -3278.9,-122) ">
<use xlink:href="#Layer0_0_MEMBER_50_FILL"/>
</g>

<g transform="matrix( 4.0499420166015625, 0, 0, 4.0499420166015625, -3278.9,-122) ">
<use xlink:href="#Layer0_0_MEMBER_51_FILL"/>
</g>

<g transform="matrix( 4.0499420166015625, 0, 0, 4.0499420166015625, -3278.9,-122) ">
<use xlink:href="#Layer0_0_MEMBER_52_FILL"/>
</g>

<g transform="matrix( 4.0499420166015625, 0, 0, 4.0499420166015625, -3278.9,-122) ">
<use xlink:href="#Layer0_0_MEMBER_53_FILL"/>
</g>

<g transform="matrix( 4.0499420166015625, 0, 0, 4.0499420166015625, -3278.9,-122) ">
<use xlink:href="#Layer0_0_MEMBER_54_FILL"/>
</g>

<g transform="matrix( 4.0499420166015625, 0, 0, 4.0499420166015625, -3278.9,-122) ">
<use xlink:href="#Layer0_0_MEMBER_55_FILL"/>
</g>

<g transform="matrix( 4.0499420166015625, 0, 0, 4.0499420166015625, -3278.9,-122) ">
<use xlink:href="#Layer0_0_MEMBER_56_FILL"/>
</g>

<g transform="matrix( 4.0499420166015625, 0, 0, 4.0499420166015625, -3278.9,-122) ">
<use xlink:href="#Layer0_0_MEMBER_57_FILL"/>
</g>

<g transform="matrix( 4.0499420166015625, 0, 0, 4.0499420166015625, -3278.9,-122) ">
<use xlink:href="#Layer0_0_MEMBER_58_FILL"/>
</g>

<g transform="matrix( 4.0499420166015625, 0, 0, 4.0499420166015625, -3278.9,-122) ">
<use xlink:href="#Layer0_0_MEMBER_59_MEMBER_0_FILL"/>
</g>

<g transform="matrix( 4.0499420166015625, 0, 0, 4.0499420166015625, -3278.9,-122) ">
<use xlink:href="#Layer0_0_MEMBER_59_MEMBER_1_FILL"/>
</g>

<g transform="matrix( 4.0499420166015625, 0, 0, 4.0499420166015625, -3278.9,-122) ">
<use xlink:href="#Layer0_0_MEMBER_59_MEMBER_2_FILL"/>
</g>

<g transform="matrix( 4.0499420166015625, 0, 0, 4.0499420166015625, -3278.9,-122) ">
<use xlink:href="#Layer0_0_MEMBER_59_MEMBER_3_FILL"/>
</g>

<g transform="matrix( 4.0499420166015625, 0, 0, 4.0499420166015625, -3278.9,-122) ">
<use xlink:href="#Layer0_0_MEMBER_59_MEMBER_4_FILL"/>
</g>

<g transform="matrix( 4.0499420166015625, 0, 0, 4.0499420166015625, -3278.9,-122) ">
<use xlink:href="#Layer0_0_MEMBER_60_FILL"/>
</g>

<g transform="matrix( 4.0499420166015625, 0, 0, 4.0499420166015625, -3278.9,-122) ">
<use xlink:href="#Layer0_0_MEMBER_61_FILL"/>
</g>

<g transform="matrix( 4.0499420166015625, 0, 0, 4.0499420166015625, -3278.9,-122) ">
<use xlink:href="#Layer0_0_MEMBER_62_FILL"/>
</g>

<g transform="matrix( 4.0499420166015625, 0, 0, 4.0499420166015625, -3278.9,-122) ">
<use xlink:href="#Layer0_0_MEMBER_63_FILL"/>
</g>

<g transform="matrix( 4.0499420166015625, 0, 0, 4.0499420166015625, -3278.9,-122) ">
<use xlink:href="#Layer0_0_MEMBER_64_FILL"/>
</g>

<g transform="matrix( 4.0499420166015625, 0, 0, 4.0499420166015625, -3278.9,-122) ">
<use xlink:href="#Layer0_0_MEMBER_65_FILL"/>
</g>

<g transform="matrix( 4.0499420166015625, 0, 0, 4.0499420166015625, -3278.9,-122) ">
<use xlink:href="#Layer0_0_MEMBER_66_FILL"/>
</g>

<g transform="matrix( 4.0499420166015625, 0, 0, 4.0499420166015625, -3278.9,-122) ">
<use xlink:href="#Layer0_0_MEMBER_67_FILL"/>
</g>

<g transform="matrix( 4.0499420166015625, 0, 0, 4.0499420166015625, -3278.9,-122) ">
<use xlink:href="#Layer0_0_MEMBER_68_FILL"/>
</g>

<g transform="matrix( 4.0499420166015625, 0, 0, 4.0499420166015625, -3278.9,-122) ">
<use xlink:href="#Layer0_0_MEMBER_69_FILL"/>
</g>

<g transform="matrix( 4.0499420166015625, 0, 0, 4.0499420166015625, -3278.9,-122) ">
<use xlink:href="#Layer0_0_MEMBER_70_FILL"/>
</g>

<g transform="matrix( 4.0499420166015625, 0, 0, 4.0499420166015625, -3278.9,-122) ">
<use xlink:href="#Layer0_0_MEMBER_71_FILL"/>
</g>

<g transform="matrix( 4.0499420166015625, 0, 0, 4.0499420166015625, -3278.9,-122) ">
<use xlink:href="#Layer0_0_MEMBER_72_FILL"/>
</g>

<g transform="matrix( 4.0499420166015625, 0, 0, 4.0499420166015625, -3278.9,-122) ">
<use xlink:href="#Layer0_0_MEMBER_73_FILL"/>
</g>

<g transform="matrix( 4.0499420166015625, 0, 0, 4.0499420166015625, -3278.9,-122) ">
<use xlink:href="#Layer0_0_MEMBER_74_FILL"/>
</g>

<g transform="matrix( 4.0499420166015625, 0, 0, 4.0499420166015625, -3278.9,-122) ">
<use xlink:href="#Layer0_0_MEMBER_75_FILL"/>
</g>

<g transform="matrix( 4.0499420166015625, 0, 0, 4.0499420166015625, -3278.9,-122) ">
<use xlink:href="#Layer0_0_MEMBER_76_FILL"/>
</g>
</svg>
