<?xml version="1.0" standalone="no"?><!DOCTYPE svg PUBLIC "-//W3C//DTD SVG 1.1//EN" "http://www.w3.org/Graphics/SVG/1.1/DTD/svg11.dtd"><svg height="1072" node-id="1" sillyvg="true" template-height="1072" template-width="1087" version="1.1" viewBox="0 0 1087 1072" width="1087" xmlns="http://www.w3.org/2000/svg" xmlns:xlink="http://www.w3.org/1999/xlink"><defs node-id="162"></defs><path d="M 157.92 710.15 C 150.58 709.42 144.09 704.84 139.16 696.89 C 129.30 681.00 127.20 654.00 132.00 641.42 C 139.31 622.07 167.22 628.54 168.40 628.83 L 166.83 635.36 L 167.61 632.09 L 166.83 635.36 C 166.60 635.31 143.50 629.98 138.28 643.79 C 134.14 654.79 136.17 679.30 144.89 693.34 C 148.74 699.54 153.36 702.94 158.61 703.46 Z" fill="#b4bfd3" fill-rule="nonzero" node-id="165" stroke="none" target-height="88.08008" target-width="41.199997" target-x="127.2" target-y="622.07"></path><path d="M 234.39 625.09 L 234.39 716.41 C 234.23 720.84 230.59 724.34 226.16 724.34 L 162.38 724.34 C 157.95 724.34 154.31 720.84 154.15 716.41 L 154.15 625.09 C 154.15 622.91 155.01 620.81 156.56 619.26 C 158.10 617.72 160.20 616.85 162.38 616.85 L 226.16 616.85 C 228.34 616.85 230.44 617.72 231.98 619.26 C 233.53 620.81 234.39 622.91 234.39 625.09 Z" fill="#e7eaf5" fill-rule="nonzero" node-id="167" stroke="none" target-height="107.49298" target-width="80.245316" target-x="154.14734" target-y="616.85"></path><path d="M 225.44 598.93 L 163.10 598.93 C 158.15 598.96 154.15 602.98 154.15 607.93 L 154.15 607.93 C 154.15 612.88 158.15 616.90 163.10 616.93 L 225.44 616.93 C 230.39 616.90 234.39 612.88 234.39 607.93 L 234.39 607.93 C 234.39 602.98 230.39 598.96 225.44 598.93 Z" fill="#b4bfd3" fill-rule="nonzero" node-id="169" stroke="none" target-height="18" target-width="80.24016" target-x="154.14992" target-y="598.93"></path><path d="M 933.52 718.72 C 932.85 718.71 932.18 718.65 931.52 718.52 L 932.19 714.90 C 935.24 715.47 937.94 714.25 940.19 711.27 C 944.62 705.52 945.98 694.97 943.95 690.68 C 943.22 689.15 939.95 686.05 925.54 690.45 C 925.11 690.62 924.66 690.73 924.20 690.76 L 924.20 687.07 C 924.08 687.05 923.95 687.05 923.83 687.07 L 924.44 686.89 C 937.07 683.04 944.74 683.77 947.25 689.06 C 949.76 694.35 948.49 706.47 943.09 713.48 C 940.44 717.00 937.15 718.75 933.52 718.72 Z" fill="#e7eaf5" fill-rule="nonzero" node-id="171" stroke="none" target-height="35.710022" target-width="25.929993" target-x="923.83" target-y="683.04"></path><g node-id="500"><path d="M 899.30 679.59 L 926.50 679.80 C 930.37 679.84 933.48 682.99 933.45 686.86 L 933.26 710.05 C 933.18 719.44 925.51 726.99 916.12 726.91 L 908.92 726.86 C 899.54 726.78 891.99 719.11 892.06 709.72 L 892.25 686.53 C 892.28 682.66 895.44 679.56 899.30 679.59 Z" fill="#e7eaf5" fill-rule="nonzero" group-id="1" node-id="175" stroke="none" target-height="47.432983" target-width="41.49121" target-x="891.9864" target-y="679.5553"></path></g><path d="M 731.85 547.52 L 988.15 547.52 C 991.46 547.52 994.15 550.21 994.15 553.52 L 994.15 556.31 C 994.15 559.62 991.46 562.31 988.15 562.31 L 731.85 562.31 C 728.54 562.31 725.85 559.62 725.85 556.31 L 725.85 553.52 C 725.85 550.21 728.54 547.52 731.85 547.52 Z" fill="#e7eaf5" fill-rule="nonzero" node-id="178" stroke="none" target-height="14.789978" target-width="268.3" target-x="725.85" target-y="547.52"></path><g node-id="501"><path d="M 442.07 453.21 L 526.76 453.21 L 565.82 511.80 L 565.82 749.08 L 442.07 749.08 L 442.07 453.21 Z" fill="#e7eaf5" fill-opacity="0.44" fill-rule="nonzero" group-id="2" node-id="182" stroke="none" target-height="295.87003" target-width="123.75" target-x="442.07" target-y="453.21"></path></g><path d="M 805.19 164.47 L 438.85 164.47 C 434.30 164.48 430.62 168.16 430.62 172.71 L 430.62 744.36 C 430.62 748.91 434.30 752.59 438.85 752.59 L 805.19 752.59 C 809.74 752.59 813.42 748.91 813.42 744.36 L 813.42 172.71 C 813.42 168.16 809.74 164.48 805.19 164.47 Z M 800.90 732.00 C 800.90 736.55 797.22 740.23 792.67 740.24 L 451.38 740.24 C 446.83 740.24 443.14 736.55 443.14 732.00 L 443.14 185.00 C 443.15 180.45 446.83 176.77 451.38 176.77 L 792.67 176.77 C 797.21 176.78 800.89 180.46 800.90 185.00 Z" fill="#e7eaf5" fill-rule="nonzero" node-id="185" stroke="none" target-height="588.12" target-width="382.80002" target-x="430.61996" target-y="164.47"></path><path d="M 461.83 186.10 L 550.13 186.10 C 554.55 186.10 558.13 189.68 558.13 194.10 L 558.13 262.85 C 558.13 267.27 554.55 270.85 550.13 270.85 L 461.83 270.85 C 457.41 270.85 453.83 267.27 453.83 262.85 L 453.83 194.10 C 453.83 189.68 457.41 186.10 461.83 186.10 Z" fill="#e7eaf5" fill-rule="nonzero" node-id="187" stroke="none" target-height="84.75" target-width="104.30002" target-x="453.83" target-y="186.1"></path><path d="M 578.26 186.10 L 666.56 186.10 C 670.98 186.10 674.56 189.68 674.56 194.10 L 674.56 262.85 C 674.56 267.27 670.98 270.85 666.56 270.85 L 578.26 270.85 C 573.84 270.85 570.26 267.27 570.26 262.85 L 570.26 194.10 C 570.26 189.68 573.84 186.10 578.26 186.10 Z" fill="#e7eaf5" fill-rule="nonzero" node-id="189" stroke="none" target-height="84.75" target-width="104.29999" target-x="570.26" target-y="186.1"></path><path d="M 694.69 186.10 L 782.99 186.10 C 787.41 186.10 790.99 189.68 790.99 194.10 L 790.99 262.85 C 790.99 267.27 787.41 270.85 782.99 270.85 L 694.69 270.85 C 690.27 270.85 686.69 267.27 686.69 262.85 L 686.69 194.10 C 686.69 189.68 690.27 186.10 694.69 186.10 Z" fill="#e7eaf5" fill-rule="nonzero" node-id="191" stroke="none" target-height="84.75" target-width="104.30005" target-x="686.69" target-y="186.1"></path><path d="M 461.83 279.59 L 550.13 279.59 C 554.55 279.59 558.13 283.17 558.13 287.59 L 558.13 356.34 C 558.13 360.76 554.55 364.34 550.13 364.34 L 461.83 364.34 C 457.41 364.34 453.83 360.76 453.83 356.34 L 453.83 287.59 C 453.83 283.17 457.41 279.59 461.83 279.59 Z" fill="#e7eaf5" fill-rule="nonzero" node-id="193" stroke="none" target-height="84.74997" target-width="104.30002" target-x="453.83" target-y="279.59"></path><path d="M 578.26 279.59 L 666.56 279.59 C 670.98 279.59 674.56 283.17 674.56 287.59 L 674.56 356.34 C 674.56 360.76 670.98 364.34 666.56 364.34 L 578.26 364.34 C 573.84 364.34 570.26 360.76 570.26 356.34 L 570.26 287.59 C 570.26 283.17 573.84 279.59 578.26 279.59 Z" fill="#e7eaf5" fill-rule="nonzero" node-id="195" stroke="none" target-height="84.74997" target-width="104.29999" target-x="570.26" target-y="279.59"></path><path d="M 694.69 279.59 L 782.99 279.59 C 787.41 279.59 790.99 283.17 790.99 287.59 L 790.99 356.34 C 790.99 360.76 787.41 364.34 782.99 364.34 L 694.69 364.34 C 690.27 364.34 686.69 360.76 686.69 356.34 L 686.69 287.59 C 686.69 283.17 690.27 279.59 694.69 279.59 Z" fill="#e7eaf5" fill-rule="nonzero" node-id="197" stroke="none" target-height="84.74997" target-width="104.30005" target-x="686.69" target-y="279.59"></path><path d="M 443.14 381.55 L 799.79 381.55 L 799.79 392.35 L 443.14 392.35 Z" fill="#e7eaf5" fill-rule="nonzero" node-id="199" stroke="none" target-height="10.799988" target-width="356.65002" target-x="443.14" target-y="381.55"></path><path d="M 707.67 605.37 C 705.49 601.92 704.20 603.06 703.44 605.59 C 703.72 599.46 703.31 591.98 700.39 587.46 C 694.79 578.78 689.92 595.20 689.92 595.20 C 689.92 595.20 693.12 581.02 688.64 569.82 C 684.16 558.62 677.44 574.30 677.44 574.30 C 677.44 574.30 680.13 538.60 669.71 535.58 C 659.29 532.56 657.28 552.18 657.28 552.18 C 657.28 552.18 646.37 535.67 630.69 523.91 C 615.01 512.15 611.69 526.71 620.20 543.23 C 622.89 548.38 627.15 552.54 632.36 555.11 C 626.47 554.92 621.12 556.66 620.26 563.22 C 619.03 572.61 637.58 577.46 652.41 579.83 C 646.72 580.07 641.98 581.71 642.41 586.62 C 642.95 592.36 653.02 595.62 663.18 597.48 C 659.74 598.12 657.59 599.82 658.64 603.41 C 660.95 611.30 677.13 615.48 687.03 617.33 C 680.63 616.73 673.03 617.18 675.72 623.33 C 680.20 633.47 706.00 632.49 706.00 632.49 C 706.00 632.49 713.00 613.77 707.67 605.37 Z" fill="#78b066" fill-rule="nonzero" node-id="201" stroke="none" target-height="121.31995" target-width="101.31" target-x="611.69" target-y="512.15"></path><path d="M 716.59 610.84 C 716.59 610.84 695.40 579.19 698.21 537.00 C 701.02 494.81 737.16 443.16 752.46 458.52 C 767.76 473.88 758.06 500.39 743.88 538.83 C 729.70 577.27 716.59 610.84 716.59 610.84 Z" fill="#94c384" fill-rule="nonzero" node-id="203" stroke="none" target-height="167.68002" target-width="72.359924" target-x="695.4" target-y="443.16"></path><path d="M 726.26 710.76 C 726.14 710.19 714.51 653.07 697.44 616.08 C 680.37 579.09 627.21 535.08 626.67 534.64 C 626.31 534.34 626.26 533.81 626.55 533.46 C 626.85 533.10 627.38 533.04 627.74 533.34 C 628.28 533.78 681.74 578.12 698.97 615.34 C 710.32 639.95 719.28 673.34 724.06 693.34 C 719.50 655.14 710.15 564.67 719.75 533.70 C 732.00 494.19 745.45 483.53 746.00 483.10 C 746.18 482.96 746.40 482.90 746.62 482.93 C 746.84 482.96 747.05 483.08 747.18 483.26 C 747.32 483.44 747.37 483.66 747.34 483.88 C 747.31 484.10 747.20 484.30 747.02 484.43 C 746.89 484.54 733.39 495.30 721.33 534.24 C 709.21 573.36 727.70 709.12 727.89 710.48 Z" fill="#364d4d" fill-rule="nonzero" node-id="205" stroke="none" target-height="227.85526" target-width="121.11493" target-x="626.2595" target-y="482.90475"></path><path d="M 758.00 695.65 C 755.95 695.65 753.92 696.02 752.00 696.74 C 750.36 687.74 743.00 680.95 734.16 680.95 C 728.58 681.00 723.36 683.68 720.06 688.17 C 718.83 687.36 717.50 686.70 716.11 686.22 C 716.11 685.91 716.11 685.60 716.11 685.29 C 716.11 676.70 710.97 669.42 703.82 666.78 C 703.35 656.44 695.40 648.20 685.67 648.20 C 678.80 648.31 672.59 652.33 669.67 658.55 C 667.19 657.23 664.42 656.54 661.61 656.55 C 653.06 656.55 645.89 662.91 643.96 671.46 L 643.44 671.46 C 633.44 671.46 625.26 680.22 625.26 691.02 C 625.26 694.09 625.94 697.11 627.26 699.88 C 622.82 703.74 620.29 709.35 620.34 715.23 C 620.34 726.04 628.48 734.79 638.52 734.79 C 642.29 734.78 645.96 733.53 648.96 731.24 C 654.79 735.18 662.23 735.89 668.70 733.12 C 673.39 736.16 678.87 737.78 684.46 737.78 C 694.42 737.68 703.69 732.66 709.21 724.37 C 709.67 724.37 710.13 724.43 710.60 724.43 C 716.18 724.38 721.40 721.71 724.70 717.21 C 729.26 720.26 735.01 720.93 740.14 719.00 C 741.77 728.00 749.14 734.79 757.97 734.79 C 767.97 734.79 776.15 726.04 776.15 715.23 C 776.15 704.42 768.00 695.65 758.00 695.65 Z" fill="#5b8b77" fill-rule="nonzero" node-id="207" stroke="none" target-height="89.58002" target-width="155.86096" target-x="620.2891" target-y="648.2"></path><path d="M 674.83 712.66 C 673.13 712.66 671.44 712.94 669.83 713.50 C 668.70 707.76 664.35 703.19 658.68 701.78 C 653.00 700.36 647.02 702.36 643.33 706.90 C 642.31 706.26 641.21 705.76 640.06 705.39 C 640.06 705.15 640.06 704.91 640.06 704.67 C 640.06 698.22 635.96 692.49 629.86 690.40 C 629.52 683.63 624.71 677.91 618.09 676.43 C 611.47 674.96 604.68 678.08 601.49 684.06 C 597.39 682.05 592.60 682.00 588.47 683.93 C 584.33 685.86 581.29 689.57 580.20 694.00 L 579.77 694.00 C 571.44 694.01 564.69 700.76 564.69 709.09 C 564.69 711.46 565.25 713.81 566.33 715.92 C 559.96 720.99 558.77 730.20 563.63 736.72 C 568.48 743.25 577.65 744.75 584.33 740.10 C 589.25 743.15 595.32 743.68 600.70 741.55 C 611.98 748.25 626.50 745.34 634.32 734.80 C 634.70 734.80 635.08 734.85 635.47 734.85 C 640.01 734.86 644.31 732.81 647.16 729.28 C 651.02 731.64 655.73 732.14 660.00 730.64 C 661.54 738.44 668.87 743.70 676.75 742.67 C 684.63 741.64 690.36 734.67 689.84 726.74 C 689.33 718.81 682.74 712.64 674.79 712.64 Z" fill="#94c384" fill-rule="nonzero" node-id="209" stroke="none" target-height="73.296265" target-width="131.5946" target-x="558.76556" target-y="674.95526"></path><path d="M 939.68 216.86 L 838.19 216.86 C 835.92 216.86 834.08 218.70 834.07 220.97 L 834.07 366.73 C 834.08 369.00 835.92 370.84 838.19 370.85 L 939.68 370.85 C 941.95 370.84 943.79 369.00 943.79 366.73 L 943.79 221.00 C 943.80 219.90 943.37 218.85 942.60 218.07 C 941.83 217.30 940.78 216.86 939.68 216.86 Z M 936.47 356.45 C 936.47 357.54 936.04 358.59 935.27 359.37 C 934.49 360.14 933.44 360.57 932.35 360.57 L 845.51 360.57 C 844.42 360.57 843.37 360.14 842.60 359.36 C 841.83 358.59 841.40 357.54 841.40 356.45 L 841.40 231.25 C 841.40 230.16 841.83 229.11 842.60 228.34 C 843.37 227.56 844.42 227.13 845.51 227.13 L 932.35 227.13 C 933.44 227.13 934.49 227.56 935.27 228.33 C 936.04 229.11 936.47 230.16 936.47 231.25 Z" fill="#e7eaf5" fill-rule="nonzero" node-id="211" stroke="none" target-height="153.99004" target-width="109.72797" target-x="834.07" target-y="216.85997"></path><path d="M 878.51 267.99 L 899.36 267.99 C 903.78 267.99 907.36 271.57 907.36 275.99 L 907.36 311.71 C 907.36 316.13 903.78 319.71 899.36 319.71 L 878.51 319.71 C 874.09 319.71 870.51 316.13 870.51 311.71 L 870.51 275.99 C 870.51 271.57 874.09 267.99 878.51 267.99 Z" fill="#b4bfd3" fill-rule="nonzero" node-id="213" stroke="none" target-height="51.72" target-width="36.849976" target-x="870.51" target-y="267.99"></path><path d="M 275.66 226.10 L 129.91 226.10 C 127.63 226.10 125.79 227.94 125.79 230.22 L 125.79 331.70 C 125.80 333.97 127.64 335.81 129.91 335.82 L 275.66 335.82 C 277.94 335.82 279.78 333.98 279.78 331.70 L 279.78 230.22 C 279.78 229.13 279.35 228.08 278.58 227.30 C 277.80 226.53 276.75 226.10 275.66 226.10 Z M 269.51 324.38 C 269.51 325.47 269.08 326.52 268.31 327.30 C 267.53 328.07 266.48 328.50 265.39 328.50 L 140.18 328.50 C 139.09 328.50 138.04 328.07 137.27 327.29 C 136.50 326.52 136.07 325.47 136.07 324.38 L 136.07 237.54 C 136.07 235.27 137.91 233.43 140.18 233.42 L 265.39 233.42 C 267.67 233.42 269.51 235.26 269.51 237.54 Z" fill="#e7eaf5" fill-rule="nonzero" node-id="215" stroke="none" target-height="109.72267" target-width="153.99265" target-x="125.79" target-y="226.09734"></path><g node-id="502"><path d="M 228.65 270.53 L 228.65 291.38 C 228.65 295.80 225.07 299.38 220.65 299.38 L 184.93 299.38 C 180.51 299.38 176.93 295.80 176.93 291.38 L 176.93 270.53 C 176.93 266.11 180.51 262.53 184.93 262.53 L 220.65 262.53 C 225.07 262.53 228.65 266.11 228.65 270.53 Z" fill="#e7eaf5" fill-rule="nonzero" group-id="3" node-id="219" stroke="none" target-height="36.850006" target-width="51.72" target-x="176.93" target-y="262.53"></path></g><path d="M 134.73 380.36 L 391.03 380.36 C 394.34 380.36 397.03 383.05 397.03 386.36 L 397.03 389.15 C 397.03 392.46 394.34 395.15 391.03 395.15 L 134.73 395.15 C 131.42 395.15 128.73 392.46 128.73 389.15 L 128.73 386.36 C 128.73 383.05 131.42 380.36 134.73 380.36 Z" fill="#e7eaf5" fill-rule="nonzero" node-id="222" stroke="none" target-height="14.790039" target-width="268.29993" target-x="128.73" target-y="380.35995"></path><path d="M 176.93 526.69 L 176.93 388.46 C 176.93 387.13 178.01 386.05 179.34 386.05 L 196.93 386.05 C 198.26 386.05 199.34 387.13 199.34 388.46 L 199.34 388.46 C 199.34 389.10 199.09 389.72 198.64 390.17 C 198.19 390.62 197.57 390.88 196.93 390.88 L 186.58 390.88 C 185.25 390.88 184.17 391.96 184.17 393.29 L 184.17 526.69 C 184.17 528.02 183.09 529.10 181.76 529.10 L 179.34 529.10 C 178.01 529.10 176.93 528.02 176.93 526.69 Z" fill="#b4bfd3" fill-rule="nonzero" node-id="224" stroke="none" target-height="143.04996" target-width="22.412674" target-x="176.93" target-y="386.05002"></path><path d="M 178.15 518.78 C 179.33 518.14 180.73 518.05 181.98 518.52 C 183.24 518.99 184.23 519.98 184.70 521.23 C 191.13 538.58 183.78 558.01 167.48 566.77 C 151.18 575.53 130.92 570.93 120.00 556.00 C 119.21 554.91 118.93 553.54 119.24 552.23 C 119.54 550.92 120.39 549.81 121.58 549.18 Z" fill="#e7eaf5" fill-rule="nonzero" node-id="226" stroke="none" target-height="57.483765" target-width="72.192444" target-x="118.93404" target-y="518.04626"></path><path d="M 271.48 472.44 L 271.48 472.44 C 269.60 472.44 267.79 471.69 266.46 470.36 C 265.12 469.02 264.38 467.21 264.38 465.33 L 264.38 393.15 C 264.38 389.23 267.56 386.05 271.48 386.05 L 271.48 386.05 C 275.40 386.05 278.58 389.23 278.58 393.15 L 278.58 465.33 C 278.58 467.21 277.84 469.02 276.50 470.36 C 275.17 471.69 273.36 472.44 271.48 472.44 Z" fill="#b4bfd3" fill-rule="nonzero" node-id="228" stroke="none" target-height="86.389984" target-width="14.205292" target-x="264.37735" target-y="386.05002"></path><path d="M 331.53 515.89 C 331.53 548.44 305.14 574.83 272.59 574.83 C 240.04 574.83 213.65 548.44 213.65 515.89 C 213.65 483.34 240.04 456.95 272.59 456.95 C 305.14 456.95 331.53 483.34 331.53 515.89 Z" fill="#b4bfd3" fill-rule="nonzero" node-id="230" stroke="none" target-height="117.880005" target-width="117.87999" target-x="213.65001" target-y="456.95"></path><g node-id="503"><path d="M 306.36 501.91 C 314.09 520.56 305.23 541.94 286.58 549.66 C 267.93 557.39 246.55 548.53 238.83 529.88 C 231.10 511.23 239.96 489.85 258.61 482.13 C 277.26 474.40 298.64 483.26 306.36 501.91 Z" fill="#e7eaf5" fill-rule="nonzero" group-id="4" node-id="234" stroke="none" target-height="82.98535" target-width="82.985306" target-x="231.1002" target-y="474.40186"></path></g><g node-id="504"><path d="M 277.67 484.68 C 294.92 487.48 306.63 503.73 303.83 520.98 C 302.49 529.26 297.91 536.67 291.10 541.58 C 284.29 546.49 275.81 548.49 267.53 547.14 C 259.25 545.80 251.84 541.22 246.93 534.41 C 242.03 527.60 240.03 519.12 241.37 510.84 C 244.17 493.59 260.42 481.88 277.67 484.68 Z" fill="#b4bfd3" fill-rule="nonzero" group-id="5" node-id="239" stroke="none" target-height="66.60672" target-width="66.60687" target-x="240.02509" target-y="481.8796"></path></g><path d="M 288.11 530.74 C 277.63 530.74 267.83 525.55 261.94 516.89 C 256.05 508.22 254.84 497.20 258.69 487.46 C 245.98 493.67 238.94 507.55 241.44 521.47 C 243.93 535.39 255.36 545.96 269.43 547.37 C 283.50 548.78 296.80 540.68 302.00 527.53 C 297.68 529.64 292.92 530.74 288.11 530.74 Z" fill="#8b9bc3" fill-rule="nonzero" node-id="242" stroke="none" target-height="61.318756" target-width="63.05916" target-x="238.94084" target-y="487.46"></path><path d="M 121.01 724.34 L 953.69 724.34 C 962.53 724.34 969.69 731.50 969.69 740.34 L 969.69 861.67 C 969.69 870.51 962.53 877.67 953.69 877.67 L 121.01 877.67 C 112.17 877.67 105.01 870.51 105.01 861.67 L 105.01 740.34 C 105.01 731.50 112.17 724.34 121.01 724.34 Z" fill="#e7eaf5" fill-rule="nonzero" node-id="244" stroke="none" target-height="153.33002" target-width="864.68" target-x="105.01" target-y="724.34"></path><path d="M 109.13 716.11 L 965.57 716.11 C 967.85 716.11 969.69 717.95 969.69 720.23 L 969.69 720.23 C 969.69 722.50 967.85 724.34 965.57 724.34 L 109.13 724.34 C 106.85 724.34 105.01 722.50 105.01 720.23 L 105.01 720.23 C 105.01 717.95 106.85 716.11 109.13 716.11 Z" fill="#b4bfd3" fill-rule="nonzero" node-id="246" stroke="none" target-height="8.2300415" target-width="864.68" target-x="105.01" target-y="716.11"></path><path d="M 127.00 740.02 L 264.16 740.02 C 268.58 740.02 272.16 743.60 272.16 748.02 L 272.16 869.67 C 272.16 874.09 268.58 877.67 264.16 877.67 L 127.00 877.67 C 122.58 877.67 119.00 874.09 119.00 869.67 L 119.00 748.02 C 119.00 743.60 122.58 740.02 127.00 740.02 Z" fill="#ffffff" fill-rule="nonzero" node-id="248" stroke="none" target-height="137.64996" target-width="153.16" target-x="119" target-y="740.0201"></path><path d="M 296.91 740.02 L 434.07 740.02 C 438.49 740.02 442.07 743.60 442.07 748.02 L 442.07 869.67 C 442.07 874.09 438.49 877.67 434.07 877.67 L 296.91 877.67 C 292.49 877.67 288.91 874.09 288.91 869.67 L 288.91 748.02 C 288.91 743.60 292.49 740.02 296.91 740.02 Z" fill="#ffffff" fill-rule="nonzero" node-id="250" stroke="none" target-height="137.64996" target-width="153.16" target-x="288.91" target-y="740.0201"></path><path d="M 466.81 740.02 L 603.97 740.02 C 608.39 740.02 611.97 743.60 611.97 748.02 L 611.97 869.67 C 611.97 874.09 608.39 877.67 603.97 877.67 L 466.81 877.67 C 462.39 877.67 458.81 874.09 458.81 869.67 L 458.81 748.02 C 458.81 743.60 462.39 740.02 466.81 740.02 Z" fill="#ffffff" fill-rule="nonzero" node-id="252" stroke="none" target-height="137.64996" target-width="153.15997" target-x="458.81" target-y="740.0201"></path><path d="M 636.71 740.02 L 773.87 740.02 C 778.29 740.02 781.87 743.60 781.87 748.02 L 781.87 869.67 C 781.87 874.09 778.29 877.67 773.87 877.67 L 636.71 877.67 C 632.29 877.67 628.71 874.09 628.71 869.67 L 628.71 748.02 C 628.71 743.60 632.29 740.02 636.71 740.02 Z" fill="#ffffff" fill-rule="nonzero" node-id="254" stroke="none" target-height="137.64996" target-width="153.15991" target-x="628.71" target-y="740.0201"></path><path d="M 806.62 740.02 L 943.78 740.02 C 948.20 740.02 951.78 743.60 951.78 748.02 L 951.78 869.67 C 951.78 874.09 948.20 877.67 943.78 877.67 L 806.62 877.67 C 802.20 877.67 798.62 874.09 798.62 869.67 L 798.62 748.02 C 798.62 743.60 802.20 740.02 806.62 740.02 Z" fill="#ffffff" fill-rule="nonzero" node-id="256" stroke="none" target-height="137.64996" target-width="153.1601" target-x="798.62" target-y="740.0201"></path><path d="M 250.59 801.49 C 250.59 805.55 247.30 808.84 243.24 808.84 C 239.18 808.84 235.89 805.55 235.89 801.49 C 235.89 797.43 239.18 794.14 243.24 794.14 C 247.30 794.14 250.59 797.43 250.59 801.49 Z" fill="#b4bfd3" fill-rule="nonzero" node-id="258" stroke="none" target-height="14.699951" target-width="14.700012" target-x="235.88998" target-y="794.14"></path><path d="M 572.90 801.22 C 572.90 805.13 569.73 808.30 565.82 808.30 C 561.91 808.30 558.74 805.13 558.74 801.22 C 558.74 797.31 561.91 794.14 565.82 794.14 C 569.73 794.14 572.90 797.31 572.90 801.22 Z" fill="#b4bfd3" fill-rule="nonzero" node-id="260" stroke="none" target-height="14.159973" target-width="14.160034" target-x="558.74" target-y="794.14"></path><path d="M 217.51 871.92 C 217.51 871.92 189.79 867.39 192.59 853.11 C 195.39 838.83 225.34 842.72 224.78 839.80 C 224.22 836.88 216.67 833.52 221.70 832.68 C 226.73 831.84 244.10 832.37 241.30 836.02 C 238.50 839.67 235.70 837.72 238.50 839.68 C 241.30 841.64 255.86 840.52 262.02 853.11 C 268.18 865.70 260.34 873.35 217.51 871.92 Z" fill="#a94151" fill-rule="nonzero" node-id="262" stroke="none" target-height="41.509888" target-width="78.389984" target-x="189.79001" target-y="831.84"></path><path d="M 139.00 841.80 C 139.00 841.80 127.31 811.26 128.11 819.87 C 128.91 828.48 134.91 827.71 124.80 822.07 C 114.69 816.43 112.80 819.85 116.43 823.40 C 120.06 826.95 115.63 820.49 107.15 822.46 C 98.67 824.43 97.42 826.00 101.66 827.87 C 105.90 829.74 115.40 830.39 115.40 830.39 C 115.40 830.39 103.67 831.39 108.31 832.78 C 112.95 834.17 119.31 832.63 119.31 832.63 C 119.31 832.63 112.98 834.70 117.31 835.12 C 121.64 835.54 123.64 834.28 127.59 834.05 C 131.54 833.82 133.30 834.93 135.50 838.24 L 137.70 841.55 Z" fill="#78b066" fill-rule="nonzero" node-id="264" stroke="none" target-height="30.539978" target-width="41.58" target-x="97.42" target-y="811.26"></path><path d="M 126.81 836.00 C 124.36 836.16 127.81 838.90 128.29 839.28 C 127.65 838.79 121.71 834.43 116.06 836.00 C 110.06 837.66 107.00 840.41 109.87 840.73 C 110.69 840.80 111.51 840.71 112.30 840.48 C 109.75 841.81 106.72 843.72 105.95 845.58 C 104.56 848.92 104.19 852.93 108.64 850.76 C 113.09 848.59 119.39 843.33 119.39 843.33 C 119.39 843.33 115.45 847.53 118.77 846.97 C 122.09 846.41 127.14 843.55 127.14 843.55 C 127.14 843.55 125.85 844.43 128.14 844.66 C 130.43 844.89 130.76 839.33 133.99 840.45 C 137.22 841.57 140.89 842.96 140.89 842.96 L 141.89 842.33 C 141.89 842.33 129.44 835.79 126.81 836.00 Z" fill="#5b8b77" fill-rule="nonzero" node-id="266" stroke="none" target-height="18.5" target-width="37.699997" target-x="104.19" target-y="834.43"></path><path d="M 230.40 862.37 C 227.95 863.37 202.92 865.00 151.03 852.37 C 151.03 852.37 136.26 851.11 137.03 842.85 C 137.80 834.59 141.60 833.29 153.56 837.63 L 159.66 839.85 L 163.66 841.28 C 166.30 842.28 169.10 843.23 172.08 844.28 C 173.08 844.62 174.08 844.97 175.08 845.28 C 177.55 846.13 180.15 847.01 182.88 847.90 L 186.34 849.03 C 191.47 850.67 197.06 852.39 203.22 854.18 C 225.80 860.73 232.85 861.36 230.40 862.37 Z" fill="#e7ac65" fill-rule="nonzero" node-id="268" stroke="none" target-height="31.710022" target-width="96.59001" target-x="136.26" target-y="833.29"></path><path d="M 159.66 839.80 L 163.66 841.23 C 162.49 842.73 161.12 844.57 159.90 846.43 C 158.07 849.14 158.83 844.00 159.66 839.80 Z" fill="#d78058" fill-rule="nonzero" node-id="270" stroke="none" target-height="9.340027" target-width="5.5899963" target-x="158.07" target-y="839.8"></path><path d="M 172.00 844.22 C 173.00 844.56 174.00 844.91 175.00 845.22 C 174.11 846.43 173.06 847.52 171.88 848.46 C 170.67 849.23 171.26 846.76 172.00 844.22 Z" fill="#d78058" fill-rule="nonzero" node-id="272" stroke="none" target-height="5.0099487" target-width="4.330002" target-x="170.67" target-y="844.22003"></path><path d="M 186.27 849.00 C 185.47 849.89 184.58 850.70 183.60 851.39 C 182.69 851.91 182.60 850.11 182.81 847.87 Z" fill="#d78058" fill-rule="nonzero" node-id="274" stroke="none" target-height="4.039917" target-width="3.6699982" target-x="182.6" target-y="847.87006"></path><path d="M 134.27 860.81 C 134.27 860.81 114.86 828.12 117.47 837.81 C 120.08 847.50 126.80 845.47 114.11 840.99 C 101.42 836.51 99.93 840.80 104.78 844.16 C 109.63 847.52 103.29 840.99 93.96 844.91 C 84.63 848.83 83.50 850.91 88.73 852.18 C 93.96 853.45 104.97 852.37 104.97 852.37 C 104.97 852.37 91.72 855.80 97.31 856.51 C 102.90 857.22 109.94 854.16 109.94 854.16 C 109.94 854.16 103.10 857.78 108.14 857.41 C 113.18 857.04 115.23 855.20 119.71 854.16 C 124.19 853.12 126.43 854.05 129.60 857.41 L 132.77 860.77 Z" fill="#78b066" fill-rule="nonzero" node-id="276" stroke="none" target-height="32.690063" target-width="50.770004" target-x="83.5" target-y="828.12"></path><path d="M 119.15 856.52 C 116.37 857.18 120.85 859.65 121.50 859.99 C 120.67 859.56 113.00 855.73 106.83 858.63 C 100.30 861.71 97.31 865.47 100.67 865.27 C 101.62 865.19 102.55 864.93 103.41 864.51 C 100.75 866.51 97.65 869.32 97.13 871.60 C 96.19 875.71 96.57 880.37 101.23 877.02 C 105.89 873.67 112.09 866.38 112.09 866.38 C 112.09 866.38 108.40 871.98 112.09 870.67 C 115.78 869.36 121.02 865.11 121.02 865.11 C 121.02 865.11 119.71 866.38 122.32 866.19 C 124.93 866.00 124.32 859.57 128.20 860.19 C 132.08 860.81 136.60 861.71 136.60 861.71 L 137.60 860.78 C 137.60 860.78 122.14 855.81 119.15 856.52 Z" fill="#5b8b77" fill-rule="nonzero" node-id="278" stroke="none" target-height="24.639954" target-width="41.410004" target-x="96.19" target-y="855.73004"></path><path d="M 243.07 866.41 C 240.45 868.05 212.07 874.83 150.13 870.50 C 150.13 870.50 132.96 871.97 132.21 862.35 C 131.46 852.73 135.57 850.50 150.13 853.11 L 157.55 854.46 L 162.37 855.33 C 165.59 855.90 168.99 856.49 172.62 857.09 L 176.21 857.69 C 179.21 858.18 182.36 858.69 185.68 859.16 L 189.86 859.77 C 196.06 860.64 202.80 861.51 210.22 862.35 C 237.47 865.43 245.68 864.78 243.07 866.41 Z" fill="#d78058" fill-rule="nonzero" node-id="280" stroke="none" target-height="24.330017" target-width="114.21997" target-x="131.46" target-y="850.5"></path><path d="M 157.55 854.46 L 162.37 855.33 C 161.37 857.27 160.12 859.65 159.09 862.02 C 157.57 865.48 157.44 859.46 157.55 854.46 Z" fill="#a94151" fill-rule="nonzero" node-id="282" stroke="none" target-height="11.0199585" target-width="4.9299927" target-x="157.44" target-y="854.46"></path><path d="M 172.62 857.09 L 176.21 857.69 C 175.43 859.26 174.44 860.71 173.28 862.02 C 172.00 863.11 172.22 860.15 172.62 857.09 Z" fill="#a94151" fill-rule="nonzero" node-id="284" stroke="none" target-height="6.0200195" target-width="4.2100067" target-x="172" target-y="857.09"></path><path d="M 189.86 859.77 C 189.12 860.95 188.25 862.05 187.27 863.04 C 186.33 863.81 185.91 861.75 185.68 859.16 Z" fill="#a94151" fill-rule="nonzero" node-id="286" stroke="none" target-height="4.6500244" target-width="4.180008" target-x="185.68" target-y="859.16"></path><path d="M 549.00 346.15 C 549.00 346.15 549.84 354.83 544.24 355.95 C 540.53 356.69 535.53 345.90 532.58 338.51 C 532.09 336.18 531.24 333.93 530.08 331.85 L 530.08 331.85 C 529.53 330.88 528.90 329.95 528.19 329.08 C 513.26 310.79 493.10 314.15 493.10 314.15 C 493.10 314.15 480.79 299.22 438.61 309.67 C 435.43 310.46 432.38 311.67 429.52 313.27 L 429.24 312.47 C 428.86 312.61 391.93 326.13 381.46 354.16 C 377.10 365.86 379.85 380.39 389.46 396.16 C 391.40 399.35 393.46 402.30 395.38 404.91 C 396.06 409.18 397.18 412.42 398.70 414.16 C 409.15 426.10 400.20 436.55 400.20 436.55 L 406.91 432.67 C 407.21 436.84 405.72 440.94 402.81 443.95 C 397.96 448.74 387.88 438.60 387.88 438.60 C 387.88 438.60 389.75 442.90 398.33 451.10 C 406.91 459.30 420.97 451.10 420.97 451.10 L 512.54 426.10 C 512.54 426.10 528.97 420.87 524.86 404.10 C 523.54 398.71 524.96 390.93 526.99 382.25 C 532.88 390.38 541.66 384.87 551.55 374.15 C 564.62 359.87 549.00 346.15 549.00 346.15 Z M 394.85 401.40 C 386.25 389.16 376.96 370.89 382.99 354.75 C 391.05 333.14 415.42 320.33 425.41 315.86 C 401.10 333.40 392.68 378.29 394.85 401.40 Z" fill="#1f253f" fill-rule="nonzero" node-id="288" stroke="none" target-height="160.08002" target-width="187.66" target-x="376.96" target-y="299.22"></path><path d="M 519.84 370.23 C 519.84 370.23 524.84 390.66 519.84 401.58 C 514.84 412.50 516.76 419.49 515.64 427.58 C 514.52 435.67 501.36 464.53 496.64 465.09 C 491.92 465.65 478.16 464.25 475.09 468.17 C 472.02 472.09 470.89 488.61 477.89 496.45 C 484.89 504.29 486.95 504.98 486.95 504.98 C 486.95 504.98 477.33 520.24 463.89 522.20 C 450.45 524.16 429.18 528.08 421.34 522.20 C 413.50 516.32 395.58 483.88 395.58 483.88 C 395.58 483.88 412.38 486.09 416.86 478.25 C 421.34 470.41 421.62 449.42 420.22 444.10 C 418.82 438.78 418.82 428.70 423.30 431.50 C 427.78 434.30 433.38 424.22 429.46 419.74 C 425.54 415.26 421.06 413.03 417.70 403.79 C 414.34 394.55 428.00 383.10 436.41 389.00 C 444.82 394.90 442.57 408.32 445.41 404.68 C 448.25 401.04 446.25 385.08 452.97 381.68 C 459.69 378.28 474.53 378.32 481.24 372.17 C 487.95 366.02 489.36 364.33 489.36 364.33 C 489.36 364.33 477.61 376.08 485.16 377.76 C 492.71 379.44 517.88 367.43 519.84 370.23 Z" fill="#e19b84" fill-rule="nonzero" node-id="290" stroke="none" target-height="163.75003" target-width="129.26001" target-x="395.58002" target-y="364.33"></path><path d="M 482.40 465.61 C 482.40 465.61 468.05 465.68 463.29 464.28 C 458.53 462.88 441.45 456.17 438.93 450.85 C 437.46 447.86 436.51 444.64 436.13 441.33 C 436.13 441.33 434.46 451.97 443.69 474.08 C 452.92 496.19 469.48 510.28 468.06 503.38 C 466.64 496.48 464.29 463.00 482.40 465.61 Z" fill="#a94151" fill-rule="nonzero" node-id="292" stroke="none" target-height="68.95001" target-width="47.940063" target-x="434.45996" target-y="441.33"></path><path d="M 476.72 398.31 C 476.11 401.73 473.97 404.20 471.94 403.84 C 469.91 403.48 468.75 400.42 469.35 397.00 C 469.95 393.58 472.10 391.11 474.13 391.47 C 476.16 391.83 477.33 394.90 476.72 398.31 Z" fill="#1f253f" fill-rule="nonzero" node-id="294" stroke="none" target-height="13.089996" target-width="8.579987" target-x="468.75" target-y="391.11002"></path><path d="M 507.94 407.00 C 507.33 410.42 505.19 412.89 503.16 412.53 C 501.13 412.17 499.96 409.11 500.57 405.69 C 501.18 402.27 503.32 399.80 505.35 400.16 C 507.38 400.52 508.54 403.57 507.94 407.00 Z" fill="#1f253f" fill-rule="nonzero" node-id="296" stroke="none" target-height="13.090057" target-width="8.580078" target-x="499.95996" target-y="399.8"></path><path d="M 487.15 430.55 C 486.78 430.55 486.46 430.32 486.35 429.97 C 486.23 429.63 486.35 429.24 486.65 429.03 C 488.89 427.40 490.49 425.50 490.32 425.03 C 488.70 422.60 487.39 419.98 486.42 417.23 C 485.62 414.66 489.58 410.15 490.42 409.23 C 490.74 408.92 491.25 408.91 491.58 409.21 C 491.91 409.51 491.94 410.01 491.66 410.36 C 489.99 412.20 487.66 415.47 488.06 416.69 C 488.98 419.26 490.21 421.72 491.72 424.00 C 493.18 426.00 489.38 429.11 487.72 430.35 C 487.56 430.49 487.36 430.56 487.15 430.55 Z" fill="#a94151" fill-rule="nonzero" node-id="298" stroke="none" target-height="21.65216" target-width="7.5599976" target-x="485.62" target-y="408.90613"></path><path d="M 486.38 447.49 C 484.74 447.48 483.11 447.33 481.49 447.06 C 476.58 446.20 472.41 442.97 470.35 438.43 C 470.21 438.15 470.24 437.82 470.43 437.56 C 470.61 437.31 470.92 437.19 471.23 437.23 C 471.54 437.28 471.80 437.49 471.90 437.79 C 473.77 441.76 477.44 444.60 481.76 445.40 C 488.92 446.57 491.61 444.86 491.64 444.84 C 492.02 444.56 492.55 444.65 492.83 445.03 C 493.11 445.41 493.02 445.94 492.64 446.22 C 492.51 446.28 490.72 447.49 486.38 447.49 Z" fill="#a94151" fill-rule="nonzero" node-id="300" stroke="none" target-height="10.304535" target-width="22.892517" target-x="470.21362" target-y="437.1855"></path><path d="M 469.12 386.89 C 471.13 386.06 473.30 385.71 475.47 385.89 C 476.55 385.97 476.54 384.29 475.47 384.21 C 473.15 384.03 470.83 384.41 468.68 385.30 C 467.68 385.70 468.12 387.30 469.12 386.92 Z" fill="#1f253f" fill-rule="nonzero" node-id="302" stroke="none" target-height="3.2667236" target-width="8.869965" target-x="467.68002" target-y="384.03326"></path><path d="M 505.70 394.28 C 507.58 394.35 509.28 395.37 510.24 396.99 C 510.49 397.35 510.97 397.47 511.36 397.25 C 511.74 397.02 511.88 396.55 511.69 396.15 C 510.43 394.02 508.17 392.68 505.69 392.60 C 504.61 392.55 504.61 394.23 505.69 394.28 Z" fill="#1f253f" fill-rule="nonzero" node-id="304" stroke="none" target-height="4.9160767" target-width="7.273224" target-x="504.61" target-y="392.55"></path><path d="M 393.00 483.77 C 393.00 483.77 400.56 483.60 402.24 487.24 C 403.92 490.88 400.00 505.43 433.06 511.00 C 466.12 516.57 478.68 499.81 485.40 502.05 C 492.12 504.29 451.25 614.58 439.21 624.10 C 427.17 633.62 375.67 612.90 375.11 611.22 C 374.55 609.54 393.00 483.77 393.00 483.77 Z" fill="#e7eaf5" fill-rule="nonzero" node-id="306" stroke="none" target-height="150.01999" target-width="117.57001" target-x="374.55" target-y="483.6"></path><path d="M 660.05 523.89 C 660.05 523.89 669.60 518.59 671.05 513.55 L 672.45 508.55 C 672.45 508.55 685.33 514.43 690.65 511.07 C 695.97 507.71 706.88 484.76 706.88 484.76 C 706.88 484.76 717.24 501.28 710.52 513.03 C 703.80 524.78 692.89 525.63 689.25 529.03 C 685.61 532.43 676.00 543.23 676.00 543.23 Z" fill="#e19b84" fill-rule="nonzero" node-id="308" stroke="none" target-height="58.46997" target-width="57.190002" target-x="660.05" target-y="484.76"></path><path d="M 684.16 548.54 C 680.24 557.54 631.53 622.45 594.02 653.80 C 556.51 685.15 534.11 691.87 524.59 684.00 C 515.07 676.13 505.59 650.41 505.59 650.41 L 503.35 675.61 C 503.35 675.61 459.12 644.25 461.35 619.61 C 461.75 615.20 462.56 608.31 463.70 600.03 C 468.94 562.03 481.11 494.62 492.14 504.28 C 492.14 504.28 536.93 515.47 540.29 523.28 C 543.65 531.09 545.29 622.94 553.73 622.38 C 562.17 621.82 610.27 578.71 626.51 555.75 C 642.75 532.79 651.14 518.75 656.18 521.60 C 661.22 524.45 688.08 539.59 684.16 548.54 Z" fill="#e7eaf5" fill-rule="nonzero" node-id="310" stroke="none" target-height="197.25003" target-width="228.96002" target-x="459.12" target-y="494.61996"></path><g node-id="505"><path d="M 505.56 650.44 L 503.32 675.64 C 503.32 675.64 459.09 644.28 461.32 619.64 C 461.72 615.23 462.53 608.34 463.67 600.06 C 463.67 600.06 477.56 626.92 486.51 635.87 C 495.46 644.82 497.15 595.19 497.15 595.19 Z" fill="#5f73b3" fill-opacity="0.35" fill-rule="nonzero" group-id="6" node-id="314" stroke="none" target-height="80.45001" target-width="46.46997" target-x="459.09" target-y="595.19"></path></g><path d="M 499.86 709.61 C 499.08 722.97 499.18 736.37 500.14 749.72 C 503.50 800.49 505.56 870.50 505.56 870.50 L 322.82 870.50 C 322.82 870.50 331.22 761.33 330.38 715.99 C 330.27 710.05 330.27 704.12 330.38 698.30 C 330.64 680.13 331.73 663.07 332.80 650.10 C 333.44 642.48 334.06 636.28 334.51 632.10 L 334.51 632.10 C 334.91 628.31 335.18 626.19 335.18 626.19 L 335.18 626.19 C 335.51 625.72 356.90 595.37 366.53 568.34 C 375.94 541.91 381.84 486.34 382.19 483.01 C 382.19 482.90 382.19 482.85 382.19 482.85 C 382.19 482.85 399.36 477.99 398.61 482.85 C 397.86 487.71 379.61 572.07 388.91 589.24 C 398.21 606.41 431.09 620.60 446.02 595.24 C 460.95 569.88 471.77 510.30 479.61 502.19 C 487.45 494.08 494.54 501.71 494.91 502.19 C 495.28 502.67 465.05 590.40 466.91 609.06 C 468.77 627.72 483.70 641.15 491.17 648.24 C 498.64 655.33 506.10 655.70 505.54 668.02 C 505.18 676.31 501.30 687.53 499.86 709.61 Z" fill="#3c455d" fill-rule="nonzero" node-id="317" stroke="none" target-height="392.51004" target-width="183.28" target-x="322.82" target-y="477.98996"></path><path d="M 376.46 703.00 C 376.46 703.00 407.46 714.35 430.62 712.67 L 453.83 711.00 C 453.83 711.00 460.54 784.00 448.83 793.70 C 437.12 803.40 369.89 800.85 365.69 789.94 C 361.49 779.03 367.00 699.92 376.46 703.00 Z" fill="#64718e" fill-rule="nonzero" node-id="319" stroke="none" target-height="103.48004" target-width="99.05005" target-x="361.49" target-y="699.92"></path><g node-id="506"><path d="M 322.82 870.50 C 322.82 870.50 331.22 761.33 330.38 715.99 C 330.27 710.05 330.27 704.12 330.38 698.30 C 330.64 680.13 331.73 663.07 332.80 650.10 C 333.44 642.48 334.06 636.28 334.51 632.10 L 334.51 632.10 C 334.51 632.10 353.05 656.59 370.28 656.10 C 387.51 655.61 397.59 663.10 401.45 669.44 C 405.31 675.78 409.33 720.23 405.13 719.44 C 400.93 718.65 349.71 717.76 349.71 727.00 C 349.71 736.24 431.63 733.72 455.71 733.72 C 479.79 733.72 498.40 702.98 498.40 702.98 C 498.40 702.98 498.93 705.39 499.83 709.71 C 499.05 723.07 499.15 736.47 500.11 749.82 C 503.47 800.59 505.53 870.60 505.53 870.60 Z" fill="#1f2430" fill-opacity="0.57" fill-rule="nonzero" group-id="7" node-id="323" stroke="none" target-height="238.5" target-width="182.70999" target-x="322.82" target-y="632.1"></path></g><path d="M 711.00 493.77 C 711.00 493.77 708.65 501.89 704.74 505.06 C 700.83 508.23 688.68 519.43 686.44 518.69 C 684.20 517.95 672.44 508.51 672.44 508.51 C 672.44 508.51 709.54 488.15 711.00 493.77 Z" fill="#a94151" fill-rule="nonzero" node-id="326" stroke="none" target-height="31.28003" target-width="38.559998" target-x="672.44" target-y="488.14996"></path><path d="M 727.08 439.93 C 727.08 439.93 718.08 414.52 709.54 405.93 C 701.00 397.34 693.12 394.75 693.12 394.75 L 680.49 411.75 C 680.49 411.75 686.40 442.54 701.70 445.90 C 710.63 447.93 719.99 445.73 727.08 439.93 Z" fill="#e7ac65" fill-rule="nonzero" node-id="328" stroke="none" target-height="53.181366" target-width="46.589966" target-x="680.49" target-y="394.75"></path><path d="M 672.40 508.51 C 672.40 508.51 635.64 498.90 638.99 495.51 C 642.34 492.12 651.99 465.65 655.59 449.23 C 659.19 432.81 656.09 405.23 660.05 405.93 C 664.01 406.63 702.13 416.76 712.74 426.46 C 723.35 436.16 727.08 437.66 727.08 439.90 C 727.08 442.14 706.83 484.69 706.83 484.69 C 706.83 484.69 693.86 513.00 689.38 514.00 C 684.90 515.00 672.40 508.51 672.40 508.51 Z" fill="#f1d87f" fill-rule="nonzero" node-id="330" stroke="none" target-height="109.76999" target-width="91.43994" target-x="635.64" target-y="405.23"></path><path d="M 704.75 497.66 C 704.75 497.66 695.45 503.36 698.45 486.61 C 701.45 469.86 705.01 463.71 707.93 465.30 C 710.85 466.89 712.56 467.64 715.09 478.83 C 717.62 490.02 709.94 497.41 704.75 497.66 Z" fill="#e19b84" fill-rule="nonzero" node-id="332" stroke="none" target-height="39.649994" target-width="22.169983" target-x="695.45" target-y="463.71"></path><path d="M 667.73 464.00 C 667.73 464.00 663.82 442.36 669.97 435.08 C 676.12 427.80 680.27 439.56 684.55 438.44 C 688.83 437.32 692.63 436.53 694.42 439.93 C 696.21 443.33 696.20 442.56 702.42 444.60 C 708.64 446.64 707.68 453.55 705.26 458.60 C 702.84 463.65 690.14 477.60 688.46 477.60 C 686.78 477.60 667.92 474.27 667.73 464.00 Z" fill="#e7ac65" fill-rule="nonzero" node-id="334" stroke="none" target-height="49.799988" target-width="44.820007" target-x="663.82" target-y="427.8"></path><path d="M 666.51 472.59 C 666.51 472.59 687.21 479.49 686.80 482.85 C 686.39 486.21 684.34 487.05 681.54 486.63 C 678.74 486.21 663.44 478.56 663.44 477.63 C 663.44 476.70 665.45 472.23 666.51 472.59 Z" fill="#d78058" fill-rule="nonzero" node-id="336" stroke="none" target-height="14.819977" target-width="23.77002" target-x="663.44" target-y="472.23"></path><path d="M 677.81 468.59 C 677.81 468.59 687.33 442.59 689.57 444.04 C 691.81 445.49 678.00 476.35 677.81 468.59 Z" fill="#d78058" fill-rule="nonzero" node-id="338" stroke="none" target-height="33.76001" target-width="14" target-x="677.81" target-y="442.59"></path><path d="M 675.13 468.11 C 675.13 468.11 680.80 442.54 678.37 439.93 C 675.94 437.32 673.89 438.62 673.71 443.66 C 673.53 448.70 671.69 472.22 675.13 468.11 Z" fill="#d78058" fill-rule="nonzero" node-id="340" stroke="none" target-height="34.900024" target-width="9.109985" target-x="671.69" target-y="437.32"></path><path d="M 682.93 471.11 C 682.93 471.11 699.65 450.11 701.33 453.60 C 703.01 457.09 680.77 475.60 682.93 471.11 Z" fill="#d78058" fill-rule="nonzero" node-id="342" stroke="none" target-height="25.49002" target-width="22.23999" target-x="680.77" target-y="450.11"></path><path d="M 323.66 789.52 C 315.83 789.37 308.40 785.99 303.14 780.18 C 298.83 775.33 297.22 769.62 298.60 764.11 C 301.84 751.11 317.02 752.39 322.73 752.86 C 323.41 752.92 324.00 752.97 324.31 752.97 L 324.31 755.77 C 323.89 755.77 323.31 755.77 322.50 755.65 C 313.88 754.94 303.68 755.33 301.32 764.79 C 300.17 769.38 301.56 774.18 305.23 778.32 C 310.36 784.09 318.94 787.48 326.10 786.57 L 326.45 789.35 C 325.52 789.47 324.59 789.52 323.66 789.52 Z" fill="#3c455d" fill-rule="nonzero" node-id="344" stroke="none" target-height="38.413757" target-width="29.230011" target-x="297.22" target-y="751.11"></path><path d="M 501.22 789.52 C 509.05 789.37 516.48 785.99 521.74 780.18 C 526.05 775.33 527.66 769.62 526.28 764.11 C 523.04 751.11 507.86 752.39 502.15 752.86 C 501.47 752.92 500.88 752.97 500.57 752.97 L 500.57 755.77 C 501.00 755.77 501.57 755.77 502.38 755.65 C 511.00 754.94 521.20 755.33 523.56 764.79 C 524.71 769.38 523.32 774.18 519.65 778.32 C 514.52 784.09 505.94 787.48 498.79 786.57 L 498.43 789.35 C 499.36 789.47 500.29 789.52 501.22 789.52 Z" fill="#3c455d" fill-rule="nonzero" node-id="346" stroke="none" target-height="38.413757" target-width="29.22998" target-x="498.43" target-y="751.11"></path><path d="M 390.40 669.39 C 390.12 665.12 388.09 661.55 382.95 659.39 C 373.61 655.48 350.36 653.21 332.78 650.09 C 320.15 647.84 310.44 645.16 310.91 641.09 C 312.03 631.39 325.47 594.43 328.45 603.39 C 331.43 612.35 335.17 626.16 335.18 626.16 C 335.51 625.69 356.90 595.34 366.53 568.31 C 375.94 541.88 381.84 486.31 382.19 482.98 C 371.74 482.54 356.07 482.77 345.99 486.98 C 334.99 491.55 326.78 504.39 320.27 513.79 C 310.97 527.22 303.49 542.32 293.77 555.18 C 287.35 563.68 281.69 572.77 276.15 581.86 C 264.77 600.51 249.01 622.59 244.58 644.39 C 244.30 645.52 244.14 646.68 244.10 647.85 C 244.10 663.15 257.54 676.59 267.61 682.19 C 272.88 685.12 302.61 693.19 330.36 698.32 C 355.67 703.06 379.30 705.41 381.08 699.32 C 381.56 697.68 382.22 695.91 382.97 694.05 C 386.13 686.16 390.87 676.73 390.40 669.39 Z" fill="#e7eaf5" fill-rule="nonzero" node-id="348" stroke="none" target-height="222.87003" target-width="146.76994" target-x="244.10002" target-y="482.54"></path><path d="M 512.51 752.62 L 500.08 837.08 L 498.84 845.51 C 498.20 849.86 493.92 853.11 488.84 853.11 L 337.92 853.11 C 332.92 853.11 328.67 849.94 327.92 845.66 L 312.36 752.77 C 312.28 752.32 312.25 751.87 312.26 751.42 C 312.26 746.74 316.73 742.82 322.34 742.82 L 502.52 742.82 C 508.59 742.82 513.28 747.42 512.51 752.62 Z" fill="#e7eaf5" fill-rule="nonzero" node-id="350" stroke="none" target-height="110.28998" target-width="201.03156" target-x="312.24847" target-y="742.82"></path><path d="M 416.47 707.65 C 416.47 707.65 404.23 610.65 399.59 594.31 C 394.95 577.97 379.02 582.59 376.73 592.74 C 374.44 602.89 387.49 627.74 390.81 648.02 C 394.13 668.30 406.46 742.48 406.46 742.48 L 422.38 742.82 Z M 392.53 610.42 C 389.37 610.85 386.27 607.30 385.61 602.48 C 384.95 597.66 386.99 593.41 390.16 592.98 C 393.33 592.55 396.42 596.11 397.08 600.92 C 397.74 605.73 395.70 610.00 392.53 610.42 Z" fill="#f1d87f" fill-rule="nonzero" node-id="352" stroke="none" target-height="164.85004" target-width="47.939972" target-x="374.44003" target-y="577.97"></path><path d="M 416.83 709.79 L 407.58 698.87 C 407.58 698.87 400.86 704.19 395.26 698.87 C 391.85 695.63 386.57 694.47 382.97 694.06 C 386.13 686.16 390.87 676.73 390.40 669.39 C 395.53 670.99 404.91 674.39 409.26 678.71 C 415.42 684.87 419.62 686.18 419.90 691.50 C 420.18 696.82 416.83 709.79 416.83 709.79 Z" fill="#e19b84" fill-rule="nonzero" node-id="354" stroke="none" target-height="40.399902" target-width="37.20999" target-x="382.97003" target-y="669.39"></path><path d="M 339.08 862.35 L 481.69 862.35 C 483.90 862.35 485.69 864.14 485.69 866.35 L 485.69 866.47 C 485.69 868.68 483.90 870.47 481.69 870.47 L 339.08 870.47 C 336.87 870.47 335.08 868.68 335.08 866.47 L 335.08 866.35 C 335.08 864.14 336.87 862.35 339.08 862.35 Z" fill="#e7eaf5" fill-rule="nonzero" node-id="356" stroke="none" target-height="8.119995" target-width="150.61002" target-x="335.08" target-y="862.35"></path><path d="M 356.82 862.35 L 361.30 853.11 L 374.74 853.11 L 372.87 862.35 L 356.82 862.35 Z" fill="#b4bfd3" fill-rule="nonzero" node-id="358" stroke="none" target-height="9.23999" target-width="17.920013" target-x="356.82" target-y="853.11"></path><path d="M 464.69 862.35 L 460.22 853.11 L 446.78 853.11 L 448.64 862.35 L 464.69 862.35 Z" fill="#b4bfd3" fill-rule="nonzero" node-id="360" stroke="none" target-height="9.23999" target-width="17.910004" target-x="446.78" target-y="853.11"></path><path d="M 385.13 857.73 L 433.57 857.73 C 434.67 857.73 435.57 858.63 435.57 859.73 L 435.57 860.35 C 435.57 861.45 434.67 862.35 433.57 862.35 L 385.13 862.35 C 384.03 862.35 383.13 861.45 383.13 860.35 L 383.13 859.73 C 383.13 858.63 384.03 857.73 385.13 857.73 Z" fill="#8b9bc3" fill-rule="nonzero" node-id="362" stroke="none" target-height="4.619995" target-width="52.439972" target-x="383.13" target-y="857.73"></path><g node-id="507"><path d="M 500.08 837.08 L 498.84 845.51 C 498.20 849.86 493.92 853.11 488.84 853.11 L 337.92 853.11 C 332.92 853.11 328.67 849.94 327.92 845.66 L 312.36 752.77 C 312.28 752.32 312.25 751.87 312.26 751.42 C 321.94 787.05 348.66 837.08 422.36 837.08 Z" fill="#b4bfd3" fill-opacity="0.44" fill-rule="nonzero" group-id="8" node-id="366" stroke="none" target-height="101.69" target-width="187.83151" target-x="312.24847" target-y="751.42"></path></g><path d="M 75.63 870.50 L 1011.42 870.50 C 1013.70 870.50 1015.54 872.34 1015.54 874.62 L 1015.54 880.72 C 1015.54 883.00 1013.70 884.84 1011.42 884.84 L 75.63 884.84 C 73.35 884.84 71.51 883.00 71.51 880.72 L 71.51 874.62 C 71.51 872.34 73.35 870.50 75.63 870.50 Z" fill="#e7eaf5" fill-rule="nonzero" node-id="369" stroke="none" target-height="14.340027" target-width="944.03" target-x="71.51" target-y="870.5"></path><path d="M 161.17 897.34 L 641.77 897.34 C 643.18 897.34 644.54 897.90 645.54 898.90 C 646.54 899.90 647.10 901.26 647.10 902.67 L 647.10 902.68 C 647.10 904.09 646.54 905.45 645.54 906.45 C 644.54 907.45 643.18 908.01 641.77 908.01 L 161.17 908.01 C 159.76 908.01 158.40 907.45 157.40 906.45 C 156.40 905.45 155.84 904.09 155.84 902.68 L 155.84 902.67 C 155.84 901.26 156.40 899.90 157.40 898.90 C 158.40 897.90 159.76 897.34 161.17 897.34 Z" fill="#e7eaf5" fill-rule="nonzero" node-id="371" stroke="none" target-height="10.670044" target-width="491.25998" target-x="155.84" target-y="897.34"></path><path d="M 690.02 897.34 L 907.60 897.34 C 909.01 897.34 910.37 897.90 911.37 898.90 C 912.37 899.90 912.93 901.26 912.93 902.67 L 912.93 902.68 C 912.93 904.09 912.37 905.45 911.37 906.45 C 910.37 907.45 909.01 908.01 907.60 908.01 L 690.02 908.01 C 688.61 908.01 687.25 907.45 686.25 906.45 C 685.25 905.45 684.69 904.09 684.69 902.68 L 684.69 902.67 C 684.69 901.26 685.25 899.90 686.25 898.90 C 687.25 897.90 688.61 897.34 690.02 897.34 Z" fill="#e7eaf5" fill-rule="nonzero" node-id="373" stroke="none" target-height="10.670044" target-width="228.23999" target-x="684.69" target-y="897.34"></path><path d="M 1015.54 874.62 L 1015.54 877.47 L 71.54 877.47 L 71.54 874.62 C 71.54 872.34 73.38 870.50 75.66 870.50 L 1011.46 870.50 C 1013.72 870.52 1015.54 872.36 1015.54 874.62 Z" fill="#b4bfd3" fill-rule="nonzero" node-id="375" stroke="none" target-height="6.9699707" target-width="944.0001" target-x="71.54" target-y="870.5"></path><path d="M 900.22 606.12 C 896.85 625.47 877.92 676.36 878.34 702.86 C 878.76 729.36 894.27 782.50 895.63 814.67 C 896.36 831.98 896.30 846.83 896.10 856.85 C 895.92 865.46 895.63 870.50 895.63 870.50 L 711.52 870.50 C 711.52 870.50 714.35 790.06 720.03 752.22 C 720.39 749.81 720.78 747.52 721.18 745.33 C 725.56 721.33 732.03 709.33 733.65 696.26 C 734.27 691.39 734.14 686.45 733.28 681.61 C 732.44 677.07 731.34 672.57 730.00 668.15 C 729.55 666.59 729.09 665.01 728.64 663.43 L 728.64 663.43 C 724.27 648.04 720.54 631.11 731.39 601.87 C 734.32 594.00 737.70 586.30 741.53 578.82 C 758.05 546.63 783.39 517.67 812.22 515.33 C 812.86 515.27 813.51 515.24 814.15 515.21 C 850.62 513.77 878.34 511.82 878.34 511.82 C 880.64 511.99 882.91 512.36 885.14 512.95 C 893.35 515.01 906.62 520.83 911.14 537.03 C 917.88 561.12 903.58 586.77 900.22 606.12 Z" fill="#e7eaf5" fill-rule="nonzero" node-id="377" stroke="none" target-height="358.68" target-width="206.35999" target-x="711.52" target-y="511.82"></path><path d="M 922.19 369.56 C 904.42 366.23 895.79 378.19 892.68 384.09 C 894.42 377.31 898.86 361.88 904.32 356.97 C 908.36 353.26 912.87 350.11 917.73 347.59 C 918.04 347.44 918.17 347.07 918.03 346.75 C 917.96 346.60 917.83 346.48 917.67 346.42 C 917.52 346.37 917.34 346.38 917.19 346.45 C 912.21 349.00 907.59 352.21 903.47 356.00 C 897.41 361.45 892.76 378.43 891.21 384.70 C 890.74 374.83 886.88 338.08 855.31 325.02 C 822.06 311.26 809.39 330.24 807.31 333.81 C 797.94 326.82 785.10 326.82 775.73 333.81 C 758.84 345.71 769.56 382.36 770.03 383.92 C 770.11 384.19 770.35 384.37 770.63 384.37 L 770.73 384.37 C 771.41 389.12 772.54 393.78 774.12 398.31 C 771.98 408.79 770.49 423.64 775.19 435.93 C 781.02 451.16 792.13 453.46 798.32 453.46 C 799.81 453.47 801.29 453.33 802.75 453.03 C 803.09 452.94 803.29 452.60 803.21 452.26 C 803.17 452.10 803.06 451.96 802.92 451.88 C 802.77 451.79 802.60 451.77 802.44 451.81 C 802.26 451.81 784.28 456.16 776.37 435.47 C 772.07 424.22 773.08 410.73 774.96 400.59 C 777.41 407.24 780.90 413.45 785.30 419.00 L 854.37 456.80 C 854.37 456.80 869.51 455.33 878.37 448.70 C 883.28 445.02 886.63 438.31 888.75 432.32 C 888.52 437.45 889.40 443.53 893.32 448.77 C 901.70 459.93 903.91 461.16 904.13 461.26 C 904.21 461.30 904.30 461.32 904.39 461.32 C 904.63 461.32 904.84 461.18 904.95 460.97 C 905.10 460.66 904.98 460.29 904.68 460.13 C 904.60 460.08 902.44 458.82 894.33 448.01 C 887.43 438.80 890.60 426.37 891.81 422.59 L 891.96 422.79 C 891.24 426.49 890.74 433.79 896.47 438.79 C 896.59 438.89 896.73 438.94 896.88 438.94 C 897.14 438.94 897.38 438.78 897.47 438.53 C 897.56 438.29 897.49 438.01 897.30 437.84 C 892.57 433.75 892.48 427.84 893.00 424.19 C 897.27 429.70 908.14 441.94 920.43 441.93 C 921.60 441.93 922.77 441.82 923.92 441.60 C 929.25 440.60 932.92 438.24 934.92 434.73 C 936.08 432.52 936.61 430.03 936.43 427.54 C 949.57 415.72 945.37 373.92 922.19 369.56 Z M 770.77 363.64 C 770.02 368.94 769.84 374.30 770.24 379.64 C 767.94 369.64 763.54 344.10 776.50 334.97 C 787.60 327.15 797.50 329.87 802.68 332.47 C 791.29 328.79 774.94 334.43 770.77 363.64 Z M 892.11 420.88 L 892.00 420.72 C 892.15 420.67 892.31 420.64 892.47 420.64 C 892.47 420.76 892.38 420.94 892.31 421.17 Z M 933.73 434.11 C 931.98 437.28 928.59 439.37 923.64 440.35 C 910.10 443.01 897.15 427.60 893.28 422.48 C 893.40 421.95 893.54 421.43 893.71 420.92 C 893.71 420.92 893.71 420.87 893.71 420.84 C 900.71 422.70 923.25 436.73 935.09 428.52 C 935.11 430.47 934.64 432.39 933.73 434.11 Z" fill="#1f253f" fill-rule="nonzero" node-id="379" stroke="none" target-height="150.05997" target-width="190.72998" target-x="758.84" target-y="311.26"></path><path d="M 878.34 511.80 C 878.34 511.80 866.67 514.32 857.84 520.01 C 849.01 525.70 843.64 534.51 825.35 536.72 C 807.06 538.93 807.68 527.89 807.68 527.89 C 807.68 527.89 812.23 521.82 815.98 509.99 C 816.05 509.75 816.13 509.52 816.20 509.28 C 819.99 496.97 818.41 474.09 818.41 474.09 C 818.41 474.09 812.04 475.65 807.33 476.29 C 805.92 476.55 804.48 476.61 803.06 476.47 C 800.06 475.84 793.17 464.17 787.81 454.08 C 785.95 450.59 784.60 446.85 783.81 442.97 C 782.51 436.03 782.81 428.90 784.66 422.09 C 787.50 410.92 784.04 403.92 783.40 387.52 C 782.76 371.12 803.06 355.00 803.06 355.00 C 803.06 355.00 810.52 369.52 819.99 383.80 C 829.46 398.08 843.64 400.43 850.27 406.11 C 856.90 411.79 857.84 405.79 863.83 406.11 C 869.82 406.43 874.83 411.47 875.19 422.11 C 875.55 432.75 860.68 437.11 865.10 441.48 C 869.52 445.85 871.10 444.95 868.25 449.68 C 865.40 454.41 869.83 465.45 868.88 480.28 C 868.70 484.52 869.18 488.77 870.30 492.86 C 872.12 499.50 874.82 505.88 878.34 511.80 Z" fill="#e19b84" fill-rule="nonzero" node-id="381" stroke="none" target-height="183.93" target-width="95.825134" target-x="782.5149" target-y="355"></path><path d="M 818.41 474.09 C 818.41 474.09 847.41 465.85 850.90 461.33 C 854.39 456.81 855.00 443.67 855.00 443.67 C 855.00 443.67 858.43 461.02 848.33 475.53 C 838.23 490.04 818.00 499.94 818.00 499.94 Z" fill="#a94151" fill-rule="nonzero" node-id="383" stroke="none" target-height="56.26999" target-width="40.429993" target-x="818" target-y="443.66998"></path><path d="M 833.13 411.28 C 832.72 411.28 832.36 411.02 832.23 410.63 C 832.23 410.54 831.23 407.96 825.99 406.84 C 820.75 405.72 816.35 409.52 816.31 409.56 C 816.07 409.83 815.69 409.94 815.34 409.84 C 815.00 409.74 814.73 409.45 814.67 409.09 C 814.60 408.74 814.75 408.38 815.04 408.16 C 815.24 407.98 820.10 403.65 826.39 404.99 C 832.68 406.33 833.98 409.88 834.03 409.99 C 834.17 410.48 833.91 411.00 833.43 411.19 C 833.34 411.24 833.23 411.27 833.13 411.28 Z" fill="#1f253f" fill-rule="nonzero" node-id="385" stroke="none" target-height="7.6325684" target-width="19.563477" target-x="814.6043" target-y="403.65"></path><path d="M 800.11 409.00 C 799.73 408.97 799.42 408.69 799.36 408.32 L 799.36 408.32 C 799.36 408.32 798.75 406.53 795.01 405.03 C 791.27 403.53 789.91 406.20 789.90 406.23 C 789.81 406.43 789.64 406.58 789.43 406.64 C 789.22 406.70 788.99 406.67 788.81 406.54 C 788.43 406.22 788.33 405.68 788.56 405.24 C 788.64 405.07 790.64 401.24 795.56 403.24 C 800.15 405.08 800.85 407.53 800.92 407.81 C 801.05 408.28 800.82 408.77 800.38 408.98 C 800.29 409.00 800.20 409.01 800.11 409.00 Z" fill="#1f253f" fill-rule="nonzero" node-id="387" stroke="none" target-height="7.7681274" target-width="12.7196045" target-x="788.32916" target-y="401.24"></path><path d="M 805.16 436.88 C 805.00 436.88 804.84 436.82 804.72 436.71 C 804.57 436.57 801.05 433.19 799.31 431.14 C 798.94 430.74 798.76 430.19 798.82 429.65 C 798.97 428.40 800.40 427.38 802.20 426.09 C 803.49 425.23 804.70 424.26 805.82 423.19 C 808.74 420.27 805.75 415.19 805.72 415.13 C 805.54 414.83 805.64 414.44 805.94 414.26 C 806.08 414.17 806.25 414.15 806.42 414.19 C 806.58 414.23 806.72 414.34 806.80 414.48 C 806.95 414.72 810.33 420.48 806.71 424.08 C 805.54 425.18 804.28 426.18 802.94 427.08 C 801.57 428.08 800.16 429.08 800.07 429.76 C 800.06 429.96 800.13 430.15 800.28 430.29 C 801.97 432.29 805.56 435.72 805.59 435.76 C 805.77 435.94 805.83 436.21 805.73 436.44 C 805.64 436.68 805.41 436.84 805.16 436.84 Z" fill="#a94151" fill-rule="nonzero" node-id="389" stroke="none" target-height="22.735138" target-width="11.57019" target-x="798.7598" target-y="414.1473"></path><path d="M 789.83 395.53 C 790.77 394.70 791.90 394.11 793.12 393.83 C 794.30 393.54 793.80 391.71 792.61 392.00 C 791.08 392.38 789.66 393.13 788.49 394.19 C 787.58 395.00 788.92 396.33 789.83 395.53 Z" fill="#1f253f" fill-rule="nonzero" node-id="391" stroke="none" target-height="4.619995" target-width="6.7199707" target-x="787.58" target-y="391.71"></path><path d="M 822.09 394.93 C 824.31 395.49 826.43 396.38 828.39 397.56 C 828.82 397.68 829.27 397.50 829.51 397.12 C 829.74 396.74 829.69 396.25 829.39 395.92 C 827.28 394.66 825.01 393.71 822.63 393.10 C 822.20 393.12 821.83 393.42 821.72 393.83 C 821.61 394.25 821.77 394.69 822.13 394.93 Z" fill="#1f253f" fill-rule="nonzero" node-id="393" stroke="none" target-height="4.57666" target-width="8.130249" target-x="821.60736" target-y="393.1"></path><g node-id="508"><path d="M 906.52 564.86 C 906.52 564.86 888.97 604.86 855.60 636.86 C 822.23 668.86 777.76 683.86 771.13 681.57 C 764.50 679.28 746.53 643.83 746.53 643.83 Z" fill="#5f73b3" fill-opacity="0.35" fill-rule="nonzero" group-id="9" node-id="397" stroke="none" target-height="119" target-width="159.99005" target-x="746.52997" target-y="564.86"></path></g><path d="M 746.53 713.37 C 746.53 713.37 781.53 727.88 797.14 726.62 C 812.75 725.36 825.81 719.05 826.53 732.93 C 827.25 746.81 826.17 797.57 809.04 805.63 C 791.91 813.69 747.84 812.25 746.53 803.19 C 745.22 794.13 737.74 714.00 746.53 713.37 Z" fill="#ffffff" fill-rule="nonzero" node-id="400" stroke="none" target-height="100.32001" target-width="89.51007" target-x="737.74" target-y="713.37"></path><path d="M 794.75 484.88 C 793.12 488.94 791.42 492.56 791.42 492.56 L 769.42 481.20 C 769.42 481.20 769.98 480.25 770.79 478.70 C 779.38 478.40 789.85 480.92 794.75 484.88 Z" fill="#e19b84" fill-rule="nonzero" node-id="402" stroke="none" target-height="14.160034" target-width="25.330017" target-x="769.42" target-y="478.4"></path><path d="M 904.00 574.62 C 896.75 599.00 797.49 655.00 786.41 661.92 C 775.33 668.84 749.35 671.04 740.83 638.92 C 732.31 606.80 754.04 493.85 757.83 484.29 C 759.30 480.63 764.54 478.94 770.74 478.72 C 779.34 478.42 789.81 480.94 794.74 484.90 C 795.47 485.47 796.10 486.14 796.63 486.90 C 802.17 495.15 783.85 596.36 783.55 602.00 C 783.25 607.64 816.65 583.76 831.84 572.00 C 847.03 560.24 882.26 532.78 882.26 532.78 C 913.79 518.76 911.24 550.29 904.00 574.62 Z" fill="#3c455d" fill-rule="nonzero" node-id="404" stroke="none" target-height="192.61996" target-width="181.47998" target-x="732.31" target-y="478.42"></path><path d="M 885.14 512.93 C 863.02 512.93 852.63 533.41 843.43 542.61 C 832.50 553.55 803.43 569.95 796.33 560.28 C 789.23 550.61 812.22 515.28 812.22 515.28 C 813.30 513.40 814.57 511.63 816.00 510.00 C 815.41 511.88 814.79 513.62 814.17 515.20 C 812.55 519.69 810.38 523.95 807.70 527.90 C 807.70 527.90 807.07 538.90 825.37 536.73 C 843.67 534.56 849.03 525.73 857.86 520.01 C 866.69 514.29 878.36 511.81 878.36 511.81 C 880.65 511.97 882.92 512.35 885.14 512.93 Z" fill="#3c455d" fill-rule="nonzero" node-id="406" stroke="none" target-height="59.950012" target-width="95.910034" target-x="789.23" target-y="510"></path><path d="M 755.80 787.86 L 821.88 795.71 L 820.30 806.71 L 754.60 796.62 C 753.17 796.40 751.94 795.50 751.29 794.21 C 750.65 792.92 750.67 791.39 751.36 790.12 L 751.36 790.12 C 752.24 788.53 754.00 787.63 755.80 787.86 Z" fill="#3c455d" fill-rule="nonzero" node-id="408" stroke="none" target-height="19.076172" target-width="71.231995" target-x="750.648" target-y="787.6338"></path><g node-id="509"><path d="M 896.10 856.85 C 895.92 865.45 895.63 870.50 895.63 870.50 L 711.51 870.50 C 711.51 870.50 714.36 790.07 720.03 752.22 C 720.39 749.81 720.78 747.52 721.18 745.34 C 725.56 721.34 732.03 709.34 733.66 696.26 C 734.27 691.39 734.14 686.45 733.28 681.62 C 732.44 677.07 731.34 672.58 730.00 668.15 C 729.55 666.59 729.09 665.01 728.64 663.43 C 728.94 664.02 738.75 683.35 766.37 699.50 C 794.37 715.90 797.65 719.68 789.10 720.31 C 780.55 720.94 743.17 697.00 755.32 709.00 C 767.47 721.00 790.26 759.22 786.32 762.18 C 782.38 765.14 748.44 776.63 746.50 810.95 C 745.60 826.81 770.50 857.49 803.78 865.21 L 819.49 807.59 L 895.87 822.10 L 884.58 856.77 C 888.76 856.87 892.62 856.91 896.10 856.85 Z" fill="#5f73b3" fill-opacity="0.35" fill-rule="nonzero" group-id="10" node-id="412" stroke="none" target-height="207.07" target-width="184.5899" target-x="711.51" target-y="663.43"></path></g><path d="M 922.87 808.72 C 918.25 816.47 910.07 821.41 901.06 821.89 C 881.50 822.89 827.24 819.68 821.88 818.10 C 819.88 817.52 819.38 813.02 819.52 807.55 C 819.86 800.30 820.64 793.08 821.88 785.93 C 821.88 785.93 922.51 797.28 925.34 798.86 C 926.60 799.56 925.82 804.00 922.87 808.72 Z" fill="#ffffff" fill-rule="nonzero" node-id="415" stroke="none" target-height="36.960022" target-width="107.21997" target-x="819.38" target-y="785.93"></path><path d="M 922.87 808.71 L 922.87 808.71 C 918.25 816.46 910.07 821.40 901.06 821.88 C 881.50 822.88 827.24 819.67 821.88 818.09 C 819.88 817.51 819.38 813.01 819.52 807.54 C 847.78 812.48 895.52 818.81 918.41 810.23 C 920.00 809.65 921.46 809.15 922.87 808.71 Z" fill="#e7eaf5" fill-rule="nonzero" node-id="417" stroke="none" target-height="15.340027" target-width="103.48999" target-x="819.38" target-y="807.54"></path><path d="M 810.21 810.22 C 805.47 809.58 791.91 810.85 785.60 804.54 C 779.29 798.23 772.67 789.71 773.00 783.72 C 773.19 780.29 769.55 775.11 766.40 771.30 C 771.52 767.02 777.91 761.30 781.15 756.12 C 782.99 759.21 785.57 763.40 786.91 765.12 C 789.15 767.96 791.30 769.22 795.08 771.74 C 798.86 774.26 805.49 784.36 806.76 790.04 C 808.03 795.72 814.94 810.85 810.21 810.22 Z" fill="#e19b84" fill-rule="nonzero" node-id="419" stroke="none" target-height="54.73004" target-width="48.539978" target-x="766.4" target-y="756.11993"></path><path d="M 783.00 748.70 C 781.30 743.40 751.44 714.33 733.66 696.26 C 730.88 693.44 728.40 690.88 726.36 688.73 L 726.36 688.73 C 726.36 688.73 722.88 682.41 726.36 679.06 C 728.06 677.39 729.85 675.81 731.72 674.34 L 730.02 668.15 L 730.02 668.15 C 725.20 651.39 719.42 634.15 731.40 601.85 C 734.33 593.98 737.71 586.28 741.54 578.80 L 743.11 564.86 C 743.11 564.86 699.18 652.18 690.35 673.63 C 681.52 695.08 676.53 702.63 683.44 708.96 C 686.81 712.04 703.82 729.20 721.19 745.33 C 739.44 762.33 758.08 778.11 761.64 775.20 C 762.94 774.14 764.58 772.81 766.39 771.30 C 771.51 767.02 777.90 761.30 781.14 756.12 C 782.84 753.40 783.67 750.83 783.00 748.70 Z" fill="#3c455d" fill-rule="nonzero" node-id="421" stroke="none" target-height="213.25" target-width="107.13995" target-x="676.53" target-y="564.86"></path><path d="M 816.82 455.16 C 816.32 459.29 811.06 469.47 807.33 476.29 C 805.92 476.55 804.48 476.61 803.06 476.47 C 800.06 475.84 793.17 464.17 787.81 454.08 C 785.95 450.59 784.60 446.85 783.81 442.97 C 783.81 442.97 789.22 429.65 799.81 435.60 C 810.40 441.55 813.30 444.77 812.23 446.60 C 811.16 448.43 817.59 448.70 816.82 455.16 Z" fill="#d8796e" fill-rule="nonzero" node-id="423" stroke="none" target-height="46.960327" target-width="33.78003" target-x="783.81" target-y="429.65"></path><path d="M 806.42 467.54 C 800.74 470.90 798.22 471.11 797.59 475.95 C 796.95 479.02 796.00 482.01 794.75 484.88 C 789.85 480.88 779.38 478.40 770.75 478.70 C 772.84 474.80 774.56 470.71 775.90 466.49 C 778.00 459.33 774.95 461.25 779.26 451.55 C 783.57 441.85 788.78 434.31 794.64 435.78 C 800.50 437.25 805.55 439.78 806.64 443.67 C 807.73 447.56 805.50 458.67 808.38 455.43 C 811.26 452.19 812.95 449.24 813.38 452.82 C 813.81 456.40 812.10 464.17 806.42 467.54 Z" fill="#e19b84" fill-rule="nonzero" node-id="425" stroke="none" target-height="50.570038" target-width="43.059998" target-x="770.75" target-y="434.30997"></path><path d="M 726.60 859.83 L 975.77 859.83 C 977.98 859.83 979.77 861.62 979.77 863.83 L 979.77 866.50 C 979.77 868.71 977.98 870.50 975.77 870.50 L 726.60 870.50 C 724.39 870.50 722.60 868.71 722.60 866.50 L 722.60 863.83 C 722.60 861.62 724.39 859.83 726.60 859.83 Z" fill="#3c455d" fill-rule="nonzero" node-id="427" stroke="none" target-height="10.669983" target-width="257.1701" target-x="722.5999" target-y="859.83"></path><path d="M 762.18 844.44 L 767.66 844.44 C 769.32 844.44 770.66 845.78 770.66 847.44 L 770.66 856.84 C 770.66 858.50 769.32 859.84 767.66 859.84 L 762.18 859.84 C 760.52 859.84 759.18 858.50 759.18 856.84 L 759.18 847.44 C 759.18 845.78 760.52 844.44 762.18 844.44 Z" fill="#e7ac65" fill-rule="nonzero" node-id="429" stroke="none" target-height="15.400085" target-width="11.479919" target-x="759.18" target-y="844.43994"></path><path d="M 777.87 844.44 L 783.35 844.44 C 785.01 844.44 786.35 845.78 786.35 847.44 L 786.35 856.84 C 786.35 858.50 785.01 859.84 783.35 859.84 L 777.87 859.84 C 776.21 859.84 774.87 858.50 774.87 856.84 L 774.87 847.44 C 774.87 845.78 776.21 844.44 777.87 844.44 Z" fill="#d78058" fill-rule="nonzero" node-id="431" stroke="none" target-height="15.400085" target-width="11.47998" target-x="774.87" target-y="844.43994"></path><path d="M 793.13 844.44 L 798.61 844.44 C 800.27 844.44 801.61 845.78 801.61 847.44 L 801.61 856.84 C 801.61 858.50 800.27 859.84 798.61 859.84 L 793.13 859.84 C 791.47 859.84 790.13 858.50 790.13 856.84 L 790.13 847.44 C 790.13 845.78 791.47 844.44 793.13 844.44 Z" fill="#a94151" fill-rule="nonzero" node-id="433" stroke="none" target-height="15.400085" target-width="11.47998" target-x="790.13" target-y="844.43994"></path><path d="M 808.39 844.44 L 813.87 844.44 C 815.53 844.44 816.87 845.78 816.87 847.44 L 816.87 856.84 C 816.87 858.50 815.53 859.84 813.87 859.84 L 808.39 859.84 C 806.73 859.84 805.39 858.50 805.39 856.84 L 805.39 847.44 C 805.39 845.78 806.73 844.44 808.39 844.44 Z" fill="#a94151" fill-rule="nonzero" node-id="435" stroke="none" target-height="15.400085" target-width="11.4800415" target-x="805.39" target-y="844.43994"></path><path d="M 823.64 844.44 L 829.12 844.44 C 830.78 844.44 832.12 845.78 832.12 847.44 L 832.12 856.84 C 832.12 858.50 830.78 859.84 829.12 859.84 L 823.64 859.84 C 821.98 859.84 820.64 858.50 820.64 856.84 L 820.64 847.44 C 820.64 845.78 821.98 844.44 823.64 844.44 Z" fill="#a94151" fill-rule="nonzero" node-id="437" stroke="none" target-height="15.400085" target-width="11.47998" target-x="820.64" target-y="844.43994"></path><path d="M 860.96 844.44 L 946.54 844.44 C 948.20 844.44 949.54 845.78 949.54 847.44 L 949.54 856.84 C 949.54 858.50 948.20 859.84 946.54 859.84 L 860.96 859.84 C 859.30 859.84 857.96 858.50 857.96 856.84 L 857.96 847.44 C 857.96 845.78 859.30 844.44 860.96 844.44 Z" fill="#a94151" fill-rule="nonzero" node-id="439" stroke="none" target-height="15.400085" target-width="91.58002" target-x="857.96" target-y="844.43994"></path><path d="M 655.62 821.28 C 655.62 821.28 629.25 758.62 652.27 730.08 C 675.29 701.54 694.63 710.34 694.63 710.34 C 694.63 710.34 665.25 714.85 658.97 735.41 C 652.69 755.97 669.44 789.15 669.44 789.15 C 669.44 789.15 663.58 767.28 672.37 750.95 C 677.56 741.23 684.51 732.57 692.88 725.41 C 692.88 725.41 677.39 736.87 677.81 754.41 C 678.23 771.95 698.32 818.90 698.32 818.90 Z" fill="#5b8b77" fill-rule="nonzero" node-id="441" stroke="none" target-height="119.74011" target-width="69.07001" target-x="629.25" target-y="701.5399"></path><path d="M 640.55 823.79 C 640.55 823.79 569.00 701.55 595.34 690.25 C 621.68 678.95 684.93 816.17 684.93 816.17 Z" fill="#e7ac65" fill-rule="nonzero" node-id="443" stroke="none" target-height="144.83997" target-width="115.92999" target-x="569" target-y="678.95"></path><path d="M 607.27 738.26 C 607.27 738.26 611.04 712.85 614.18 716.83 C 617.32 720.81 608.32 757.38 607.27 738.26 Z" fill="#d78058" fill-rule="nonzero" node-id="445" stroke="none" target-height="44.52997" target-width="10.049988" target-x="607.27" target-y="712.85"></path><path d="M 619.64 757.26 C 619.64 757.26 623.40 731.85 626.54 735.83 C 629.68 739.81 620.68 776.38 619.64 757.26 Z" fill="#d78058" fill-rule="nonzero" node-id="447" stroke="none" target-height="44.52997" target-width="10.039978" target-x="619.64" target-y="731.85004"></path><path d="M 631.78 776.23 C 631.78 776.23 635.54 750.82 638.68 754.80 C 641.82 758.78 632.82 795.35 631.78 776.23 Z" fill="#d78058" fill-rule="nonzero" node-id="449" stroke="none" target-height="44.52997" target-width="10.039978" target-x="631.78" target-y="750.82"></path><path d="M 642.87 795.27 C 642.87 795.27 646.64 769.87 649.78 773.85 C 652.92 777.83 643.92 814.40 642.87 795.27 Z" fill="#d78058" fill-rule="nonzero" node-id="451" stroke="none" target-height="44.53009" target-width="10.049988" target-x="642.87" target-y="769.87"></path><path d="M 726.66 791.85 C 723.19 791.85 719.95 793.59 718.04 796.49 C 717.81 796.41 717.59 796.34 717.36 796.28 C 718.66 794.45 719.36 792.26 719.36 790.02 L 719.36 790.02 C 723.71 787.88 726.51 783.50 726.62 778.66 C 726.62 772.73 722.25 767.72 716.24 766.05 C 715.78 760.05 710.16 755.33 703.24 755.33 C 699.00 755.26 694.97 757.18 692.36 760.53 C 684.63 757.42 675.81 760.84 672.19 768.35 C 668.99 769.82 666.82 772.57 666.77 775.73 C 662.87 776.85 659.76 779.79 658.41 783.62 C 657.07 787.45 657.66 791.69 660.00 795.00 C 655.39 796.85 652.25 800.52 652.25 804.75 C 652.25 810.69 658.46 815.53 666.25 815.75 C 668.30 817.69 671.01 818.79 673.83 818.81 C 679.83 818.81 684.83 813.72 685.96 806.99 C 689.11 809.59 693.07 811.00 697.15 810.99 C 700.14 811.00 703.08 810.26 705.71 808.83 C 707.98 810.29 710.64 811.04 713.34 810.99 C 715.48 811.01 717.60 810.55 719.54 809.65 C 722.90 812.85 727.99 813.42 731.98 811.03 C 735.96 808.64 737.86 803.89 736.62 799.41 C 735.38 794.94 731.30 791.84 726.66 791.84 Z" fill="#78b066" fill-rule="nonzero" node-id="453" stroke="none" target-height="63.55121" target-width="85.6095" target-x="652.25" target-y="755.2588"></path><path d="M 677.42 808.50 C 680.06 808.48 682.55 809.75 684.08 811.90 C 684.25 811.90 684.43 811.79 684.61 811.75 C 683.60 810.43 683.04 808.82 683.03 807.16 L 683.03 807.16 C 679.72 805.68 677.55 802.45 677.42 798.83 C 677.42 794.49 680.79 790.83 685.42 789.59 C 685.77 785.20 690.12 781.73 695.42 781.73 C 698.65 781.65 701.75 783.05 703.82 785.54 C 705.27 784.99 706.82 784.71 708.37 784.71 C 712.98 784.67 717.22 787.21 719.37 791.28 C 721.84 792.35 723.52 794.36 723.55 796.68 C 727.63 797.69 730.53 801.32 730.61 805.53 C 730.61 807.45 729.98 809.31 728.82 810.84 C 732.38 812.20 734.82 814.84 734.82 817.99 C 734.82 822.34 730.03 825.89 724.02 826.06 C 722.41 827.50 720.32 828.30 718.16 828.31 C 713.50 828.31 709.62 824.58 708.79 819.64 C 706.31 821.54 703.27 822.56 700.15 822.54 C 697.85 822.55 695.58 822.01 693.54 820.95 C 691.76 822.03 689.72 822.58 687.64 822.54 C 685.99 822.55 684.36 822.21 682.85 821.54 C 681.34 822.89 679.38 823.64 677.35 823.63 C 674.53 823.81 671.84 822.40 670.38 819.99 C 668.92 817.57 668.92 814.54 670.38 812.12 C 671.84 809.71 674.53 808.30 677.35 808.48 Z" fill="#94c384" fill-rule="nonzero" node-id="455" stroke="none" target-height="46.65863" target-width="65.90289" target-x="668.9171" target-y="781.65137"></path><path d="M 665.22 810.81 C 665.22 810.81 656.46 789.15 621.71 772.56 C 586.96 755.97 575.66 770.21 575.66 770.21 C 575.66 770.21 598.76 762.21 614.84 775.64 C 630.92 789.07 641.00 799.00 641.00 799.00 C 641.00 799.00 614.55 785.58 601.19 787.11 C 587.83 788.64 579.67 801.34 579.67 801.34 C 579.67 801.34 598.75 788.02 619.67 799.00 C 640.59 809.98 637.25 818.00 637.25 818.00 Z" fill="#5b8b77" fill-rule="nonzero" node-id="457" stroke="none" target-height="62.03003" target-width="89.56" target-x="575.66" target-y="755.97"></path><path d="M 741.84 812.10 L 723.42 862.39 L 721.96 866.39 C 721.05 868.86 718.70 870.51 716.06 870.51 L 665.22 870.51 L 614.38 870.51 C 611.74 870.51 609.39 868.86 608.48 866.39 L 588.60 812.10 C 587.89 810.18 588.17 808.03 589.35 806.35 C 590.52 804.66 592.44 803.66 594.49 803.66 L 736.00 803.66 C 738.04 803.67 739.95 804.68 741.11 806.36 C 742.28 808.04 742.55 810.18 741.84 812.10 Z" fill="#f1d87f" fill-rule="nonzero" node-id="459" stroke="none" target-height="66.8501" target-width="154.65222" target-x="587.8949" target-y="803.6599"></path><path d="M 723.42 862.39 L 721.96 866.39 C 721.05 868.86 718.70 870.51 716.06 870.51 L 665.22 870.51 L 614.38 870.51 C 611.74 870.51 609.39 868.86 608.48 866.39 L 588.60 812.10 C 588.01 810.49 588.11 808.71 588.86 807.18 C 589.62 805.64 590.97 804.48 592.60 803.96 C 601.70 826.55 629.82 862.35 716.48 862.35 C 718.87 862.35 721.19 862.37 723.42 862.39 Z" fill="#e7ac65" fill-rule="nonzero" node-id="461" stroke="none" target-height="66.54999" target-width="135.40729" target-x="588.0127" target-y="803.96"></path><path d="M 331.65 258.32 C 331.65 264.32 328.82 270.08 323.78 274.33 C 318.74 278.57 311.91 280.96 304.78 280.96 C 297.65 280.96 290.82 278.57 285.78 274.33 C 280.74 270.08 277.91 264.32 277.91 258.32 C 277.91 245.82 289.94 235.68 304.78 235.68 C 319.62 235.68 331.65 245.82 331.65 258.32 Z" fill="#8b9bc3" fill-rule="nonzero" node-id="463" stroke="none" target-height="45.280014" target-width="53.73999" target-x="277.91" target-y="235.68001"></path><path d="M 381.72 274.52 C 383.29 274.54 384.79 273.81 385.74 272.56 C 386.70 271.30 387.01 269.68 386.58 268.16 C 377.90 235.88 344.33 211.82 304.23 211.82 C 264.13 211.82 230.56 235.88 221.88 268.16 C 221.45 269.68 221.76 271.30 222.72 272.56 C 223.67 273.81 225.17 274.54 226.74 274.52 Z" fill="#b4bfd3" fill-rule="nonzero" node-id="465" stroke="none" target-height="62.7153" target-width="165.55698" target-x="221.4515" target-y="211.82"></path><path d="M 287.89 200.25 L 321.67 200.25 C 325.54 200.25 328.67 203.38 328.67 207.25 L 328.67 209.86 C 328.67 213.73 325.54 216.86 321.67 216.86 L 287.89 216.86 C 284.02 216.86 280.89 213.73 280.89 209.86 L 280.89 207.25 C 280.89 203.38 284.02 200.25 287.89 200.25 Z" fill="#e7eaf5" fill-rule="nonzero" node-id="467" stroke="none" target-height="16.61" target-width="47.78" target-x="280.89" target-y="200.25"></path><path d="M 301.98 181.40 L 307.21 181.40 L 307.21 200.25 L 301.98 200.25 Z" fill="#b4bfd3" fill-rule="nonzero" node-id="469" stroke="none" target-height="18.84999" target-width="5.230011" target-x="301.98" target-y="181.40001"></path><path d="M 349.10 181.40 L 261.39 181.40 C 259.89 181.40 258.68 180.19 258.68 178.69 L 258.68 178.69 C 258.69 177.20 259.90 175.99 261.39 175.98 L 349.10 175.98 C 350.60 175.98 351.81 177.19 351.81 178.69 L 351.81 178.69 C 351.81 180.19 350.60 181.40 349.10 181.40 Z" fill="#e7eaf5" fill-rule="nonzero" node-id="471" stroke="none" target-height="5.4200134" target-width="93.130005" target-x="258.68" target-y="175.98"></path><path d="M 975.94 579.77 C 975.52 580.32 975.06 580.83 974.56 581.30 L 972.00 578.61 C 974.27 576.50 974.90 573.61 973.86 569.99 C 971.86 562.99 964.19 555.64 959.53 554.73 C 957.87 554.41 953.44 555.18 948.41 569.40 C 948.30 569.85 948.11 570.27 947.86 570.66 L 945.00 568.45 C 944.93 568.55 944.86 568.66 944.81 568.77 L 945.03 568.17 C 949.43 555.73 954.58 549.99 960.33 551.17 C 966.08 552.35 975.00 560.47 977.45 569.00 C 978.65 573.17 978.12 576.87 975.94 579.77 Z" fill="#b4bfd3" fill-rule="nonzero" node-id="473" stroke="none" target-height="31.309998" target-width="33.839966" target-x="944.81" target-y="549.99"></path><g node-id="510"><path d="M 924.15 584.11 L 940.48 562.36 C 942.81 559.27 947.20 558.65 950.29 560.97 L 968.85 574.92 C 976.36 580.56 977.87 591.22 972.23 598.72 L 967.90 604.48 C 962.26 611.98 951.61 613.50 944.10 607.86 L 925.54 593.91 C 922.45 591.59 921.82 587.20 924.15 584.11 Z" fill="#b4bfd3" fill-rule="nonzero" group-id="11" node-id="477" stroke="none" target-height="54.848755" target-width="56.04541" target-x="921.82336" target-y="558.64905"></path></g><path d="M 305.00 868.72 C 304.44 869.81 303.32 870.49 302.10 870.50 L 275.70 870.50 C 274.71 870.47 273.78 870.01 273.15 869.24 C 272.52 868.48 272.24 867.48 272.40 866.50 L 276.83 835.31 C 277.03 833.63 278.44 832.35 280.13 832.31 L 297.68 832.31 C 299.31 832.34 300.69 833.53 300.95 835.14 C 300.96 835.20 300.96 835.25 300.95 835.31 L 305.38 866.50 C 305.50 867.26 305.36 868.04 305.00 868.72 Z" fill="#ffffff" fill-rule="nonzero" node-id="480" stroke="none" target-height="38.190002" target-width="33.251556" target-x="272.24463" target-y="832.31"></path><path d="M 292.81 832.28 L 285.00 832.28 C 283.55 832.28 282.37 831.10 282.36 829.65 L 282.36 829.65 C 282.36 828.95 282.63 828.27 283.13 827.78 C 283.63 827.28 284.30 827.00 285.00 827.00 L 292.80 827.00 C 294.26 827.00 295.44 828.18 295.44 829.64 L 295.44 829.64 C 295.44 831.09 294.26 832.27 292.81 832.28 Z" fill="#a6a3c1" fill-rule="nonzero" node-id="482" stroke="none" target-height="5.2800293" target-width="13.082672" target-x="282.35733" target-y="827"></path><path d="M 277.26 865.44 L 277.06 865.44 C 276.40 865.32 275.95 864.69 276.06 864.03 L 280.23 837.70 C 280.36 837.03 280.99 836.59 281.66 836.70 C 281.99 836.74 282.28 836.92 282.48 837.18 C 282.67 837.44 282.76 837.77 282.71 838.10 L 278.53 864.43 C 278.41 865.03 277.87 865.46 277.26 865.44 Z" fill="#dad7ea" fill-rule="nonzero" node-id="484" stroke="none" target-height="28.870728" target-width="6.8072815" target-x="275.9512" target-y="836.59045"></path><path d="M 288.91 865.44 C 288.22 865.44 287.66 864.89 287.65 864.20 L 287.65 837.87 C 287.71 837.22 288.25 836.72 288.90 836.72 C 289.56 836.72 290.10 837.22 290.16 837.87 L 290.16 864.20 C 290.15 864.89 289.60 865.44 288.91 865.44 Z" fill="#dad7ea" fill-rule="nonzero" node-id="486" stroke="none" target-height="28.717896" target-width="2.5100098" target-x="287.65" target-y="836.72217"></path><path d="M 300.90 865.44 C 300.31 865.44 299.79 865.02 299.68 864.44 L 294.63 838.11 C 294.51 837.44 294.96 836.79 295.63 836.67 C 296.31 836.55 296.96 836.99 297.09 837.67 L 302.14 864.00 C 302.26 864.67 301.81 865.32 301.14 865.44 Z" fill="#dad7ea" fill-rule="nonzero" node-id="488" stroke="none" target-height="28.893677" target-width="7.7526245" target-x="294.5087" target-y="836.548"></path><path d="M 559.63 868.72 C 559.07 869.81 557.95 870.49 556.73 870.50 L 530.32 870.50 C 529.33 870.47 528.40 870.01 527.77 869.24 C 527.14 868.48 526.86 867.48 527.02 866.50 L 531.45 835.31 C 531.65 833.63 533.06 832.35 534.75 832.31 L 552.30 832.31 C 553.93 832.34 555.31 833.53 555.57 835.14 C 555.58 835.20 555.58 835.25 555.57 835.31 L 560.00 866.47 C 560.13 867.24 560.00 868.03 559.63 868.72 Z" fill="#ffffff" fill-rule="nonzero" node-id="490" stroke="none" target-height="38.190002" target-width="33.26129" target-x="526.8646" target-y="832.31"></path><path d="M 547.43 832.28 L 539.63 832.28 C 538.18 832.28 537.00 831.10 536.99 829.65 L 536.99 829.65 C 536.99 828.19 538.17 827.01 539.63 827.01 L 547.43 827.01 C 548.89 827.01 550.07 828.19 550.07 829.65 L 550.07 829.65 C 550.06 831.10 548.88 832.28 547.43 832.28 Z" fill="#a6a3c1" fill-rule="nonzero" node-id="492" stroke="none" target-height="5.2700195" target-width="13.080017" target-x="536.99" target-y="827.01"></path><path d="M 531.88 865.44 L 531.68 865.44 C 531.02 865.32 530.57 864.69 530.68 864.03 L 534.85 837.70 C 534.98 837.03 535.61 836.59 536.28 836.70 C 536.94 836.82 537.38 837.44 537.28 838.10 L 533.10 864.43 C 532.99 865.01 532.48 865.44 531.88 865.44 Z" fill="#dad7ea" fill-rule="nonzero" node-id="494" stroke="none" target-height="28.849548" target-width="6.8115845" target-x="530.5712" target-y="836.59045"></path><path d="M 543.53 865.44 C 542.84 865.44 542.29 864.89 542.28 864.20 L 542.28 837.87 C 542.28 837.18 542.84 836.62 543.53 836.62 C 544.22 836.62 544.78 837.18 544.78 837.87 L 544.78 864.20 C 544.77 864.89 544.22 865.44 543.53 865.44 Z" fill="#dad7ea" fill-rule="nonzero" node-id="496" stroke="none" target-height="28.820068" target-width="2.5" target-x="542.28" target-y="836.61993"></path><path d="M 555.53 865.44 C 554.93 865.44 554.42 865.02 554.30 864.44 L 549.30 838.11 C 549.18 837.44 549.63 836.79 550.30 836.67 C 550.63 836.61 550.96 836.68 551.24 836.87 C 551.51 837.05 551.70 837.34 551.76 837.67 L 556.76 863.99 C 556.88 864.66 556.43 865.31 555.76 865.43 Z" fill="#dad7ea" fill-rule="nonzero" node-id="498" stroke="none" target-height="28.833862" target-width="7.7025757" target-x="549.1787" target-y="836.60864"></path></svg>