<?xml version="1.0" standalone="no"?><!DOCTYPE svg PUBLIC "-//W3C//DTD SVG 1.1//EN" "http://www.w3.org/Graphics/SVG/1.1/DTD/svg11.dtd"><svg height="505" node-id="1" sillyvg="true" template-height="505" template-width="600" version="1.1" viewBox="0 0 600 505" width="600" xmlns="http://www.w3.org/2000/svg" xmlns:xlink="http://www.w3.org/1999/xlink"><defs node-id="221"><mask height="26.337982" id="mask-2" maskUnits="userSpaceOnUse" node-id="163" width="24.320618" x="222.2027" y="230.94748"><path d="M 232.20 233.14 L 244.50 237.76 C 244.50 237.76 238.35 251.47 238.02 254.37 C 237.98 254.64 237.97 254.88 237.99 255.09 L 237.99 255.09 L 224.23 249.77 C 224.61 249.54 224.90 249.27 225.11 248.92 C 226.38 246.77 232.20 233.14 232.20 233.14 L 232.20 233.14 Z" fill="#ffffff" fill-rule="evenodd" node-id="226" stroke="none" target-height="21.948318" target-width="20.267181" target-x="224.22942" target-y="233.14232"></path></mask><mask height="24.815948" id="mask-4" maskUnits="userSpaceOnUse" node-id="201" width="15.759621" x="79.644005" y="225.64703"><path d="M 90.80 227.72 C 90.80 227.72 93.24 245.06 93.88 247.75 C 93.94 248.00 94.01 248.21 94.09 248.39 L 94.09 248.39 L 80.96 248.39 C 81.20 248.07 81.36 247.72 81.42 247.35 C 81.78 245.05 81.53 230.40 81.52 229.82 L 81.52 229.80 L 90.80 227.72 Z" fill="#ffffff" fill-rule="evenodd" node-id="233" stroke="none" target-height="20.679962" target-width="13.1330185" target-x="80.957306" target-y="227.71503"></path></mask></defs><g node-id="235"><path d="M 197.23 433.69 L 186.77 433.69 L 188.88 394.43 L 194.69 394.43 Z" fill="#e2cdaf" fill-rule="evenodd" group-id="1" id="Fill-1" node-id="9" stroke="none" target-height="39.259796" target-width="10.463654" target-x="186.76503" target-y="394.4255"></path><g node-id="236"><path d="M 268.84 353.38 C 269.94 348.67 268.47 344.03 265.18 340.21 C 262.67 337.29 262.42 333.67 264.68 330.74 C 266.57 328.28 267.92 325.54 268.61 322.59 C 270.47 314.56 267.01 306.67 260.09 300.84 C 256.46 297.78 255.22 293.64 256.97 289.91 C 257.39 289.03 257.71 288.10 257.93 287.14 C 259.57 280.08 255.20 273.17 247.50 269.20 C 243.04 266.90 241.28 262.71 243.50 259.18 C 244.54 257.53 245.39 255.76 245.80 253.99 C 248.40 242.79 237.92 231.92 222.40 229.71 L 222.36 229.70 C 220.07 229.38 218.55 227.77 218.95 226.12 C 218.97 226.06 218.98 226.01 219.00 225.95 C 222.32 211.61 208.66 197.70 188.61 195.19 C 169.78 192.84 151.24 202.27 148.08 215.81 C 147.31 219.08 147.43 222.32 148.31 225.42 C 150.25 232.25 145.61 239.10 136.95 241.85 C 122.02 246.58 110.67 256.47 107.74 269.08 C 105.89 277.08 107.71 284.99 112.32 291.89 C 116.37 297.97 114.47 305.16 107.73 309.55 C 101.15 313.84 96.46 319.72 94.87 326.60 C 92.04 338.79 99.71 350.72 113.12 357.45 C 115.62 358.71 116.89 360.88 116.38 363.02 C 116.37 363.04 116.37 363.06 116.36 363.08 C 114.90 369.39 120.80 375.52 129.55 376.77 C 129.62 376.78 129.68 376.79 129.75 376.79 C 130.75 376.93 131.43 377.61 131.26 378.33 L 131.26 378.34 C 129.20 387.23 137.51 395.86 149.83 397.61 C 151.70 397.88 153.54 397.97 155.35 397.91 C 159.50 397.76 163.51 399.28 165.88 401.82 C 173.32 409.79 185.01 415.71 199.01 417.59 C 225.14 421.09 250.87 408.26 255.41 389.46 C 256.36 385.51 256.38 381.58 255.57 377.80 C 254.42 372.37 256.74 366.94 261.98 363.12 C 265.48 360.57 267.95 357.23 268.84 353.38" fill="#c6e7df" fill-rule="evenodd" group-id="1,2" id="Fill-2" node-id="11" stroke="none" target-height="228.25168" target-width="178.4295" target-x="92.04145" target-y="192.83539"></path><path d="M 244.52 353.80 C 245.10 349.59 243.36 345.56 240.03 342.33 C 237.49 339.87 236.94 336.69 238.75 333.99 C 240.26 331.73 241.26 329.25 241.63 326.60 C 242.63 319.43 238.79 312.62 231.96 307.79 C 228.39 305.26 226.90 301.65 228.17 298.28 C 228.48 297.48 228.69 296.65 228.81 295.79 C 229.69 289.47 225.10 283.57 217.74 280.42 C 213.47 278.60 211.50 274.98 213.22 271.76 C 214.02 270.25 214.65 268.65 214.87 267.07 C 216.26 257.05 205.76 247.93 191.41 246.71 L 191.37 246.70 C 189.26 246.52 187.74 245.17 187.96 243.70 C 187.97 243.65 187.97 243.59 187.98 243.54 C 189.77 230.72 176.10 219.06 157.59 217.79 C 140.21 216.59 124.12 225.79 122.42 237.90 C 122.00 240.82 122.39 243.68 123.46 246.38 C 125.82 252.32 122.19 258.59 114.53 261.42 C 101.32 266.30 91.82 275.56 90.25 286.84 C 89.25 294.00 91.60 300.91 96.40 306.79 C 100.63 311.96 99.52 318.41 93.75 322.61 C 88.12 326.70 84.36 332.11 83.50 338.27 C 81.98 349.17 90.01 359.35 102.83 364.67 C 105.22 365.67 106.57 367.53 106.29 369.44 C 106.28 369.46 106.28 369.48 106.28 369.49 C 105.49 375.14 111.41 380.28 119.49 380.97 C 119.56 380.97 119.62 380.98 119.68 380.98 C 120.60 381.05 121.28 381.62 121.19 382.27 L 121.19 382.28 C 120.08 390.23 128.42 397.46 139.80 398.44 C 141.53 398.59 143.22 398.58 144.86 398.44 C 148.63 398.12 152.42 399.27 154.80 401.40 C 162.29 408.10 173.46 412.78 186.40 413.79 C 210.54 415.66 232.88 403.12 235.39 386.30 C 235.92 382.77 235.59 379.30 234.53 375.99 C 233.01 371.25 234.65 366.35 239.10 362.73 C 242.07 360.31 244.04 357.24 244.52 353.80" fill="#f4ffd4" fill-rule="evenodd" group-id="1,2" id="Fill-4" node-id="12" stroke="none" target-height="199.07434" target-width="163.11792" target-x="81.98417" target-y="216.58661"></path><path d="M 69.34 307.52 L 122.13 307.52 L 122.13 268.68 L 69.34 268.68 Z" fill="#d6b88d" fill-rule="evenodd" group-id="1,2" id="Fill-6" node-id="13" stroke="none" target-height="38.841156" target-width="52.788406" target-x="69.343506" target-y="268.6801"></path><path d="M 69.34 363.43 L 122.13 363.43 L 122.13 307.52 L 69.34 307.52 Z" fill="#58b9a0" fill-rule="evenodd" group-id="1,2" id="Fill-8" node-id="14" stroke="none" target-height="55.9068" target-width="52.788406" target-x="69.343506" target-y="307.52127"></path><path d="M 108.93 307.52 L 122.13 307.52 L 122.13 268.68 L 108.93 268.68 Z" fill="#cbc7ff" fill-rule="evenodd" group-id="1,2" id="Fill-9" node-id="15" stroke="none" target-height="38.841156" target-width="13.197006" target-x="108.934906" target-y="268.6801"></path><path d="M 108.93 363.43 L 122.13 363.43 L 122.13 307.52 L 108.93 307.52 Z" fill="#cbc7ff" fill-rule="evenodd" group-id="1,2" id="Fill-10" node-id="16" stroke="none" target-height="55.9068" target-width="13.197006" target-x="108.934906" target-y="307.52127"></path><path d="M 114.10 307.52 L 166.89 307.52 L 166.89 268.68 L 114.10 268.68 Z" fill="#41b093" fill-rule="evenodd" group-id="1,2" id="Fill-11" node-id="17" stroke="none" target-height="38.841156" target-width="52.788406" target-x="114.09885" target-y="268.6801"></path><path d="M 114.10 363.43 L 166.89 363.43 L 166.89 307.52 L 114.10 307.52 Z" fill="#21718f" fill-rule="evenodd" group-id="1,2" id="Fill-12" node-id="18" stroke="none" target-height="55.9068" target-width="52.788406" target-x="114.09885" target-y="307.52127"></path><path d="M 153.69 307.52 L 166.89 307.52 L 166.89 268.68 L 153.69 268.68 Z" fill="#cbc7ff" fill-rule="evenodd" group-id="1,2" id="Fill-13" node-id="19" stroke="none" target-height="38.841156" target-width="13.197006" target-x="153.69025" target-y="268.6801"></path><path d="M 153.69 363.43 L 166.89 363.43 L 166.89 307.52 L 153.69 307.52 Z" fill="#cbc7ff" fill-rule="evenodd" group-id="1,2" id="Fill-14" node-id="20" stroke="none" target-height="55.9068" target-width="13.197006" target-x="153.69025" target-y="307.52127"></path><path d="M 54.32 366.72 C 53.44 366.72 52.67 366.11 52.47 365.25 L 31.67 276.96 L 19.07 276.96 C 18.02 276.96 17.17 276.11 17.17 275.06 C 17.17 274.01 18.02 273.16 19.07 273.16 L 33.17 273.16 C 34.05 273.16 34.81 273.77 35.02 274.62 L 55.82 362.92 L 167.28 362.92 L 183.40 299.74 L 44.83 299.74 C 43.78 299.74 42.93 298.89 42.93 297.84 C 42.93 296.79 43.78 295.94 44.83 295.94 L 185.84 295.94 C 186.43 295.94 186.98 296.21 187.34 296.67 C 187.70 297.14 187.82 297.74 187.68 298.31 L 170.60 365.29 C 170.38 366.13 169.62 366.72 168.76 366.72 L 54.32 366.72 Z" fill="#707d82" fill-rule="evenodd" group-id="1,2" id="Fill-15" node-id="21" stroke="none" target-height="93.5553" target-width="170.65079" target-x="17.17368" target-y="273.1611"></path><path d="M 164.96 417.97 L 75.87 417.97 C 62.94 417.97 52.42 407.45 52.42 394.52 L 52.42 364.82 C 52.42 363.77 53.27 362.92 54.32 362.92 C 55.37 362.92 56.22 363.77 56.22 364.82 L 56.22 394.52 C 56.22 405.36 65.03 414.17 75.87 414.17 L 164.96 414.17 C 166.01 414.17 166.86 415.02 166.86 416.07 C 166.86 417.12 166.01 417.97 164.96 417.97" fill="#707d82" fill-rule="evenodd" group-id="1,2" id="Fill-16" node-id="22" stroke="none" target-height="55.048553" target-width="114.4358" target-x="52.422157" target-y="362.91998"></path><path d="M 162.34 422.85 C 162.34 428.14 158.05 432.43 152.76 432.43 C 147.47 432.43 143.18 428.14 143.18 422.85 C 143.18 417.56 147.47 413.27 152.76 413.27 C 158.05 413.27 162.34 417.56 162.34 422.85" fill="#41b093" fill-rule="evenodd" group-id="1,2" id="Fill-17" node-id="23" stroke="none" target-height="19.163086" target-width="19.16307" target-x="143.17557" target-y="413.26813"></path><path d="M 158.83 422.85 C 158.83 426.20 156.11 428.92 152.76 428.92 C 149.40 428.92 146.69 426.20 146.69 422.85 C 146.69 419.50 149.40 416.78 152.76 416.78 C 156.11 416.78 158.83 419.50 158.83 422.85" fill="#126888" fill-rule="evenodd" group-id="1,2" id="Fill-18" node-id="24" stroke="none" target-height="12.143616" target-width="12.143616" target-x="146.68526" target-y="416.77786"></path><path d="M 94.54 422.85 C 94.54 428.14 90.26 432.43 84.96 432.43 C 79.67 432.43 75.38 428.14 75.38 422.85 C 75.38 417.56 79.67 413.27 84.96 413.27 C 90.26 413.27 94.54 417.56 94.54 422.85" fill="#41b093" fill-rule="evenodd" group-id="1,2" id="Fill-19" node-id="25" stroke="none" target-height="19.163086" target-width="19.163078" target-x="75.38157" target-y="413.26813"></path><path d="M 91.03 422.85 C 91.03 426.20 88.32 428.92 84.96 428.92 C 81.61 428.92 78.89 426.20 78.89 422.85 C 78.89 419.50 81.61 416.78 84.96 416.78 C 88.32 416.78 91.03 419.50 91.03 422.85" fill="#126888" fill-rule="evenodd" group-id="1,2" id="Fill-20" node-id="26" stroke="none" target-height="12.143616" target-width="12.143616" target-x="78.891304" target-y="416.77786"></path><path d="M 179.33 321.16 L 45.64 321.16 C 45.04 321.16 44.56 320.67 44.56 320.07 C 44.56 319.48 45.04 318.99 45.64 318.99 L 179.33 318.99 C 179.93 318.99 180.42 319.48 180.42 320.07 C 180.42 320.67 179.93 321.16 179.33 321.16" fill="#707d82" fill-rule="evenodd" group-id="1,2" id="Fill-21" node-id="27" stroke="none" target-height="2.1695862" target-width="135.8582" target-x="44.55838" target-y="318.98935"></path><path d="M 173.10 343.94 L 49.71 343.94 C 49.11 343.94 48.63 343.45 48.63 342.85 C 48.63 342.25 49.11 341.77 49.71 341.77 L 173.10 341.77 C 173.69 341.77 174.18 342.25 174.18 342.85 C 174.18 343.45 173.69 343.94 173.10 343.94" fill="#707d82" fill-rule="evenodd" group-id="1,2" id="Fill-22" node-id="28" stroke="none" target-height="2.1695862" target-width="125.55373" target-x="48.625904" target-y="341.76816"></path><path d="M 116.69 365.36 C 116.09 365.36 115.61 364.87 115.61 364.28 L 115.61 297.84 C 115.61 297.24 116.09 296.75 116.69 296.75 C 117.29 296.75 117.78 297.24 117.78 297.84 L 117.78 364.28 C 117.78 364.87 117.29 365.36 116.69 365.36" fill="#707d82" fill-rule="evenodd" group-id="1,2" id="Fill-23" node-id="29" stroke="none" target-height="68.607574" target-width="2.169197" target-x="115.60606" target-y="296.75305"></path><path d="M 143.27 364.82 C 143.22 364.82 143.18 364.82 143.14 364.81 C 142.54 364.74 142.12 364.20 142.19 363.60 L 150.05 297.71 C 150.12 297.11 150.66 296.69 151.26 296.76 C 151.85 296.83 152.28 297.37 152.21 297.97 L 144.34 363.86 C 144.28 364.41 143.81 364.82 143.27 364.82" fill="#707d82" fill-rule="evenodd" group-id="1,2" id="Fill-24" node-id="30" stroke="none" target-height="68.12689" target-width="10.160126" target-x="142.11792" target-y="296.69135"></path><path d="M 84.15 365.09 C 83.58 365.09 83.10 364.65 83.07 364.07 L 79.00 297.90 C 78.96 297.31 79.42 296.79 80.02 296.76 C 80.61 296.72 81.13 297.17 81.16 297.77 L 85.23 363.94 C 85.27 364.54 84.81 365.05 84.22 365.09 C 84.19 365.09 84.17 365.09 84.15 365.09" fill="#707d82" fill-rule="evenodd" group-id="1,2" id="Fill-25" node-id="31" stroke="none" target-height="68.373474" target-width="6.306679" target-x="78.96254" target-y="296.71588"></path><path d="M 511.16 317.62 C 510.29 308.16 502.53 300.70 492.94 300.30 C 492.42 279.95 475.77 263.60 455.29 263.60 C 434.48 263.60 417.61 280.47 417.61 301.28 C 417.61 311.74 421.88 321.20 428.76 328.03 L 428.76 399.77 L 531.59 399.77 C 541.48 391.03 547.72 378.25 547.72 364.01 C 547.72 341.51 532.13 322.64 511.16 317.62" fill="#c6e7df" fill-rule="evenodd" group-id="1,2" id="Fill-26" node-id="32" stroke="none" target-height="136.16681" target-width="130.10818" target-x="417.61118" target-y="263.60294"></path><path d="M 504.47 328.61 C 500.91 328.61 497.44 328.97 494.11 329.65 C 496.38 325.45 497.66 320.76 497.66 315.80 C 497.66 298.06 481.36 283.68 461.25 283.68 C 441.14 283.68 424.84 298.06 424.84 315.80 C 424.84 324.72 428.96 332.78 435.61 338.60 L 435.61 399.77 L 534.98 399.77 C 544.54 392.32 550.57 381.42 550.57 369.28 C 550.57 346.82 529.93 328.61 504.47 328.61" fill="#f4ffd4" fill-rule="evenodd" group-id="1,2" id="Fill-27" node-id="33" stroke="none" target-height="116.093506" target-width="125.72696" target-x="424.84256" target-y="283.67618"></path><path d="M 514.73 352.51 C 515.86 349.61 512.07 349.20 512.32 346.03 C 512.55 342.99 508.82 343.63 508.02 340.62 C 507.25 337.71 503.97 339.58 502.07 337.14 C 500.24 334.79 497.98 337.82 495.25 336.44 C 492.59 335.09 491.85 338.82 488.79 338.69 C 485.72 338.57 486.66 342.28 483.69 343.29 C 480.81 344.26 482.87 347.48 480.38 349.33 C 477.92 351.17 480.87 353.59 478.97 356.09 C 477.13 358.53 480.61 360.09 479.47 362.99 C 478.34 365.89 482.13 366.30 481.88 369.47 C 481.65 372.51 485.38 371.87 486.18 374.88 C 486.96 377.79 490.23 375.92 492.13 378.36 C 493.96 380.71 496.22 377.68 498.95 379.06 C 501.61 380.41 502.35 376.68 505.41 376.81 C 508.48 376.93 507.54 373.22 510.52 372.21 C 513.39 371.24 511.33 368.02 513.82 366.17 C 516.29 364.33 513.34 361.91 515.23 359.41 C 517.07 356.97 513.59 355.41 514.73 352.51" fill="#9cd6c7" fill-rule="evenodd" group-id="1,2" id="Fill-28" node-id="34" stroke="none" target-height="45.915253" target-width="39.942078" target-x="477.1297" target-y="334.79272"></path><path d="M 500.17 399.68 C 498.19 347.38 497.39 359.25 497.15 352.59 C 496.91 348.78 497.66 328.06 495.95 351.65 C 495.37 359.64 495.41 384.85 494.62 399.62 C 495.82 400.60 498.97 400.58 500.17 399.68" fill="#435565" fill-rule="evenodd" group-id="1,2" id="Fill-29" node-id="35" stroke="none" target-height="72.53943" target-width="5.543518" target-x="494.62335" target-y="328.06036"></path><path d="M 531.76 399.69 L 511.34 399.69 L 511.34 371.24 L 521.72 364.54 L 531.76 371.24 Z" fill="#fffae3" fill-rule="evenodd" group-id="1,2" id="Fill-30" node-id="36" stroke="none" target-height="35.153137" target-width="20.422028" target-x="511.33847" target-y="364.54068"></path><path d="M 504.42 399.69 L 511.34 399.69 L 511.34 371.24 L 504.42 371.24 Z" fill="#faf8dc" fill-rule="evenodd" group-id="1,2" id="Fill-31" node-id="37" stroke="none" target-height="28.456696" target-width="6.9184265" target-x="504.4201" target-y="371.23718"></path><path d="M 504.42 399.69 L 511.34 399.69 L 511.34 371.24 L 504.42 371.24 Z" fill="#cbc7ff" fill-rule="evenodd" group-id="1,2" id="Fill-32" node-id="38" stroke="none" target-height="28.456696" target-width="6.9184265" target-x="504.4201" target-y="371.23718"></path><path d="M 511.34 371.24 C 502.17 371.24 501.73 372.97 514.80 364.54 C 523.97 364.54 524.41 362.80 511.34 371.24" fill="#e85f5b" fill-rule="evenodd" group-id="1,2" id="Fill-33" node-id="39" stroke="none" target-height="10.171814" target-width="22.683746" target-x="501.7266" target-y="362.80304"></path><path d="M 520.47 379.52 C 520.47 374.49 519.81 375.51 522.63 375.51 C 522.63 380.53 523.29 379.52 520.47 379.52" fill="#646e6e" fill-rule="evenodd" group-id="1,2" id="Fill-34" node-id="40" stroke="none" target-height="6.0386353" target-width="3.484375" target-x="519.80756" target-y="374.49435"></path><path d="M 520.47 389.25 C 520.47 384.23 519.81 385.25 522.63 385.25 C 522.63 390.27 523.29 389.25 520.47 389.25" fill="#646e6e" fill-rule="evenodd" group-id="1,2" id="Fill-35" node-id="41" stroke="none" target-height="6.039032" target-width="3.484375" target-x="519.80756" target-y="384.23215"></path><path d="M 506.80 399.69 C 506.80 393.19 506.08 394.27 508.96 394.27 C 508.96 400.78 509.68 399.69 506.80 399.69" fill="#646e6e" fill-rule="evenodd" group-id="1,2" id="Fill-36" node-id="42" stroke="none" target-height="7.5925903" target-width="3.6072388" target-x="506.07568" target-y="393.18582"></path><path d="M 555.57 375.59 C 578.27 395.08 600.87 368.04 569.32 333.98 C 571.59 295.09 537.96 294.85 540.76 333.15 C 508.64 367.83 531.75 396.05 555.57 375.59" fill="#85cdba" fill-rule="evenodd" group-id="1,2" id="Fill-37" node-id="43" stroke="none" target-height="101.19937" target-width="92.23471" target-x="508.6379" target-y="294.84573"></path><path d="M 561.93 400.26 C 560.28 364.75 555.95 369.30 557.09 358.02 C 558.92 344.72 555.77 341.93 554.87 337.00 C 554.35 330.94 556.41 325.04 554.96 320.16 C 553.88 320.54 556.10 318.37 553.38 330.05 C 550.51 342.40 555.55 345.32 552.46 354.47 C 548.04 367.56 553.73 365.23 550.57 399.99 C 553.01 400.75 559.47 401.44 561.93 400.26" fill="#f4a393" fill-rule="evenodd" group-id="1,2" id="Fill-38" node-id="44" stroke="none" target-height="83.07175" target-width="13.896118" target-x="548.0373" target-y="318.36835"></path><path d="M 571.18 405.49 L 462.44 405.49 L 462.44 399.89 L 571.18 399.89 C 572.72 399.89 573.98 401.14 573.98 402.69 C 573.98 404.24 572.72 405.49 571.18 405.49" fill="#89b3c3" fill-rule="evenodd" group-id="1,2" id="Fill-39" node-id="45" stroke="none" target-height="5.6040344" target-width="111.54367" target-x="462.43594" target-y="399.89032"></path><path d="M 226.96 399.71 L 226.96 88.59 C 226.96 76.88 236.45 67.39 248.16 67.39 L 444.49 67.39 C 456.20 67.39 465.69 76.88 465.69 88.59 L 465.69 399.71 C 465.69 411.42 456.20 420.91 444.49 420.91 L 248.16 420.91 C 236.45 420.91 226.96 411.42 226.96 399.71" fill="#97acb3" fill-rule="evenodd" group-id="1,2" id="Fill-40" node-id="46" stroke="none" target-height="353.51743" target-width="238.73361" target-x="226.95807" target-y="67.39037"></path><path d="M 223.12 401.82 L 223.12 91.57 C 223.12 79.19 233.16 69.15 245.54 69.15 L 441.85 69.15 C 454.24 69.15 464.28 79.19 464.28 91.57 L 464.28 401.82 C 464.28 414.20 454.24 424.24 441.85 424.24 L 245.54 424.24 C 233.16 424.24 223.12 414.20 223.12 401.82" fill="#0c252e" fill-rule="evenodd" group-id="1,2" id="Fill-41" node-id="47" stroke="none" target-height="355.08817" target-width="241.15842" target-x="223.11722" target-y="69.15113"></path><path d="M 225.52 402.82 L 225.52 89.10 C 225.52 78.11 234.43 69.20 245.42 69.20 L 444.35 69.20 C 455.34 69.20 464.25 78.11 464.25 89.10 L 464.25 402.82 C 464.25 413.81 455.34 422.72 444.35 422.72 L 245.42 422.72 C 234.43 422.72 225.52 413.81 225.52 402.82" fill="#184657" fill-rule="evenodd" group-id="1,2" id="Fill-42" node-id="48" stroke="none" target-height="353.51782" target-width="238.73363" target-x="225.5179" target-y="69.20407"></path><path d="M 230.49 399.77 L 459.28 399.77 L 459.28 92.16 L 230.49 92.16 Z" fill="#ffffff" fill-rule="evenodd" group-id="1,2" id="Fill-43" node-id="49" stroke="none" target-height="307.61313" target-width="228.78069" target-x="230.49434" target-y="92.15646"></path><path d="M 229.29 400.97 L 460.48 400.97 L 460.48 90.96 L 229.29 90.96 L 229.29 400.97 Z M 230.49 399.77 L 459.28 399.77 L 459.28 92.16 L 230.49 92.16 L 230.49 399.77 Z" fill="#000000" fill-rule="evenodd" group-id="1,2" id="Fill-44" node-id="50" stroke="none" target-height="310.01328" target-width="231.18124" target-x="229.29385" target-y="90.95638"></path><path d="M 335.14 410.45 C 335.14 409.75 335.70 409.18 336.40 409.18 L 351.36 409.18 C 352.06 409.18 352.63 409.75 352.63 410.45 C 352.63 411.15 352.06 411.71 351.36 411.71 L 336.40 411.71 C 335.70 411.71 335.14 411.15 335.14 410.45" fill="#035e80" fill-rule="evenodd" group-id="1,2" id="Fill-45" node-id="51" stroke="none" target-height="2.5347595" target-width="17.488586" target-x="335.13684" target-y="409.17844"></path><path d="M 343.88 83.29 C 342.82 83.29 341.96 82.43 341.96 81.37 C 341.96 80.31 342.82 79.45 343.88 79.45 C 344.94 79.45 345.80 80.31 345.80 81.37 C 345.80 82.43 344.94 83.29 343.88 83.29" fill="#000000" fill-rule="evenodd" group-id="1,2" id="Fill-46" node-id="52" stroke="none" target-height="3.8405762" target-width="3.8405762" target-x="341.9609" target-y="79.44593"></path><path d="M 230.49 169.78 L 459.28 169.78 L 459.28 91.38 L 230.49 91.38 Z" fill="#f7f7ef" fill-rule="evenodd" group-id="1,2" id="Fill-47" node-id="53" stroke="none" target-height="78.40718" target-width="228.78069" target-x="230.49434" target-y="91.376175"></path><path d="M 230.49 99.56 L 459.28 99.56 L 459.28 91.38 L 230.49 91.38 Z" fill="#0d232b" fill-rule="evenodd" group-id="1,2" id="Fill-48" node-id="54" stroke="none" target-height="8.18483" target-width="228.78069" target-x="230.49434" target-y="91.376175"></path><path d="M 246.85 95.36 C 246.85 96.11 246.24 96.72 245.50 96.72 C 244.75 96.72 244.14 96.11 244.14 95.36 C 244.14 94.61 244.75 94.00 245.50 94.00 C 246.24 94.00 246.85 94.61 246.85 95.36" fill="#e6e5ce" fill-rule="evenodd" group-id="1,2" id="Fill-49" node-id="55" stroke="none" target-height="2.7118912" target-width="2.711914" target-x="244.14046" target-y="94.00442"></path><path d="M 256.34 95.36 C 256.34 96.11 255.74 96.72 254.99 96.72 C 254.24 96.72 253.63 96.11 253.63 95.36 C 253.63 94.61 254.24 94.00 254.99 94.00 C 255.74 94.00 256.34 94.61 256.34 95.36" fill="#e6e5ce" fill-rule="evenodd" group-id="1,2" id="Fill-50" node-id="56" stroke="none" target-height="2.7118912" target-width="2.7118683" target-x="253.63158" target-y="94.00442"></path><path d="M 237.90 95.36 C 237.90 96.11 237.30 96.72 236.55 96.72 C 235.80 96.72 235.19 96.11 235.19 95.36 C 235.19 94.61 235.80 94.00 236.55 94.00 C 237.30 94.00 237.90 94.61 237.90 95.36" fill="#e6e5ce" fill-rule="evenodd" group-id="1,2" id="Fill-51" node-id="57" stroke="none" target-height="2.7118912" target-width="2.7118988" target-x="235.19154" target-y="94.00442"></path><path d="M 450.78 95.36 C 450.78 96.11 450.17 96.72 449.42 96.72 C 448.67 96.72 448.06 96.11 448.06 95.36 C 448.06 94.61 448.67 94.00 449.42 94.00 C 450.17 94.00 450.78 94.61 450.78 95.36" fill="#e6e5ce" fill-rule="evenodd" group-id="1,2" id="Fill-52" node-id="58" stroke="none" target-height="2.7118912" target-width="2.7114868" target-x="448.06412" target-y="94.00442"></path><path d="M 443.91 95.36 C 443.91 96.11 443.30 96.72 442.55 96.72 C 441.80 96.72 441.19 96.11 441.19 95.36 C 441.19 94.61 441.80 94.00 442.55 94.00 C 443.30 94.00 443.91 94.61 443.91 95.36" fill="#e6e5ce" fill-rule="evenodd" group-id="1,2" id="Fill-53" node-id="59" stroke="none" target-height="2.7118912" target-width="2.7114868" target-x="441.1943" target-y="94.00442"></path><path d="M 336.43 96.54 L 351.44 96.54 L 351.44 93.82 L 336.43 93.82 Z" fill="#e6e5ce" fill-rule="evenodd" group-id="1,2" id="Fill-54" node-id="60" stroke="none" target-height="2.7118912" target-width="15.004944" target-x="336.43045" target-y="93.82355"></path><path d="M 528.04 174.80 C 528.04 186.56 518.50 196.10 506.74 196.10 C 494.98 196.10 485.44 186.56 485.44 174.80 C 485.44 163.04 494.98 153.51 506.74 153.51 C 518.50 153.51 528.04 163.04 528.04 174.80" fill="#ffffff" fill-rule="evenodd" group-id="1,2" id="Fill-55" node-id="61" stroke="none" target-height="42.593933" target-width="42.5943" target-x="485.44153" target-y="153.50586"></path><path d="M 506.74 154.32 C 495.44 154.32 486.26 163.51 486.26 174.80 C 486.26 186.10 495.44 195.29 506.74 195.29 C 518.03 195.29 527.22 186.10 527.22 174.80 C 527.22 163.51 518.03 154.32 506.74 154.32 M 506.74 196.91 C 494.55 196.91 484.63 186.99 484.63 174.80 C 484.63 162.61 494.55 152.69 506.74 152.69 C 518.93 152.69 528.85 162.61 528.85 174.80 C 528.85 186.99 518.93 196.91 506.74 196.91" fill="#f3aaa8" fill-rule="evenodd" group-id="1,2" id="Fill-56" node-id="62" stroke="none" target-height="44.221222" target-width="44.221222" target-x="484.62814" target-y="152.69223"></path><path d="M 528.04 235.50 C 528.04 247.26 518.50 256.80 506.74 256.80 C 494.98 256.80 485.44 247.26 485.44 235.50 C 485.44 223.74 494.98 214.21 506.74 214.21 C 518.50 214.21 528.04 223.74 528.04 235.50" fill="#ffffff" fill-rule="evenodd" group-id="1,2" id="Fill-57" node-id="63" stroke="none" target-height="42.593964" target-width="42.5943" target-x="485.44153" target-y="214.206"></path><path d="M 506.74 215.02 C 495.44 215.02 486.26 224.21 486.26 235.50 C 486.26 246.80 495.44 255.99 506.74 255.99 C 518.03 255.99 527.22 246.80 527.22 235.50 C 527.22 224.21 518.03 215.02 506.74 215.02 M 506.74 257.61 C 494.55 257.61 484.63 247.69 484.63 235.50 C 484.63 223.31 494.55 213.39 506.74 213.39 C 518.93 213.39 528.85 223.31 528.85 235.50 C 528.85 247.69 518.93 257.61 506.74 257.61" fill="#035e80" fill-rule="evenodd" group-id="1,2" id="Fill-58" node-id="64" stroke="none" target-height="44.221252" target-width="44.221222" target-x="484.62814" target-y="213.39233"></path><path d="M 519.30 170.24 C 518.66 168.25 517.20 166.62 515.28 165.78 C 513.11 164.82 510.87 165.09 508.78 166.57 C 508.02 167.12 507.33 167.77 506.74 168.50 C 506.14 167.77 505.46 167.12 504.69 166.57 C 502.61 165.09 500.36 164.82 498.19 165.78 C 496.28 166.61 494.82 168.23 494.17 170.22 C 493.48 172.31 493.71 174.59 494.79 176.51 C 496.64 179.77 500.37 183.43 505.90 187.37 C 506.41 187.74 507.10 187.74 507.62 187.37 C 513.12 183.43 516.85 179.78 518.70 176.51 C 519.77 174.60 519.99 172.32 519.30 170.24" fill="#e85f5b" fill-rule="evenodd" group-id="1,2" id="Fill-59" node-id="65" stroke="none" target-height="22.917435" target-width="26.509918" target-x="493.48215" target-y="164.81992"></path><path d="M 514.73 240.74 C 514.73 238.69 513.72 237.43 512.31 237.43 C 510.87 237.43 509.90 238.69 509.90 240.74 C 509.90 242.75 510.87 244.02 512.31 244.02 C 513.72 244.02 514.73 242.75 514.73 240.74 M 507.39 240.74 C 507.39 237.25 509.58 235.38 512.28 235.38 C 514.99 235.38 517.18 237.25 517.18 240.74 C 517.18 244.19 514.99 246.06 512.28 246.06 C 509.58 246.06 507.39 244.19 507.39 240.74 M 498.98 244.88 L 511.22 225.80 C 511.68 225.05 511.85 224.96 512.95 224.96 C 513.87 224.96 514.21 225.13 513.72 225.88 L 501.49 244.97 C 501.00 245.72 500.83 245.81 499.73 245.81 C 498.84 245.81 498.49 245.63 498.98 244.88 M 502.76 230.03 C 502.76 228.01 501.75 226.75 500.34 226.75 C 498.90 226.75 497.92 228.01 497.92 230.03 C 497.92 232.07 498.90 233.34 500.34 233.34 C 501.75 233.34 502.76 232.07 502.76 230.03 M 495.41 230.03 C 495.41 226.57 497.60 224.70 500.31 224.70 C 503.01 224.70 505.20 226.57 505.20 230.03 C 505.20 233.51 503.01 235.38 500.31 235.38 C 497.60 235.38 495.41 233.51 495.41 230.03" fill="#184657" fill-rule="evenodd" group-id="1,2" id="Fill-60" node-id="66" stroke="none" target-height="21.361542" target-width="21.764557" target-x="495.4138" target-y="224.70276"></path><path d="M 230.49 399.77 L 459.28 399.77 L 459.28 312.26 L 230.49 312.26 Z" fill="#f7f7ef" fill-rule="evenodd" group-id="1,2" id="Fill-61" node-id="67" stroke="none" target-height="87.50574" target-width="228.78069" target-x="230.49434" target-y="312.26385"></path><path d="M 230.49 171.08 L 459.28 171.08 L 459.28 168.49 L 230.49 168.49 Z" fill="#ececdb" fill-rule="evenodd" group-id="1,2" id="Fill-62" node-id="68" stroke="none" target-height="2.5909424" target-width="228.78069" target-x="230.49434" target-y="168.4877"></path><path d="M 266.40 118.85 C 266.05 118.85 265.72 118.94 265.47 119.19 L 258.38 126.27 C 257.97 126.69 257.74 127.25 257.74 127.83 L 257.74 152.86 C 257.74 153.19 258.01 153.46 258.34 153.46 L 283.78 153.46 C 284.25 153.46 284.70 153.27 285.04 152.94 L 292.10 145.88 C 292.38 145.60 292.53 145.23 292.53 144.84 L 292.53 119.52 C 292.53 119.18 292.26 118.85 291.92 118.85 L 266.40 118.85 Z" fill="#e595b1" fill-rule="evenodd" group-id="1,2" id="Fill-63" node-id="69" stroke="none" target-height="34.609657" target-width="34.793396" target-x="257.7365" target-y="118.85244"></path><path d="M 265.51 119.15 L 258.14 126.52 C 257.99 126.66 258.10 126.92 258.31 126.92 L 284.52 126.92 L 292.11 119.32 C 292.29 119.14 292.17 118.82 291.91 118.82 L 266.34 118.82 C 266.03 118.82 265.73 118.93 265.51 119.15" fill="#ffffff" fill-rule="evenodd" group-id="1,2" id="Fill-64" node-id="70" stroke="none" target-height="8.102905" target-width="34.30414" target-x="257.99036" target-y="118.81592"></path><path d="M 284.50 153.46 L 292.53 145.45 L 292.53 119.41 C 292.53 119.20 292.27 119.09 292.12 119.24 L 284.50 126.88 L 284.50 153.46 Z" fill="#cbc7ff" fill-rule="evenodd" group-id="1,2" id="Fill-65" node-id="71" stroke="none" target-height="34.373215" target-width="8.03186" target-x="284.4982" target-y="119.089066"></path><path d="M 279.27 174.09 L 263.00 174.09 C 261.51 174.09 260.29 172.88 260.29 171.38 L 260.29 168.49 C 260.29 166.99 261.51 165.78 263.00 165.78 L 279.27 165.78 C 280.77 165.78 281.99 166.99 281.99 168.49 L 281.99 171.38 C 281.99 172.88 280.77 174.09 279.27 174.09" fill="#45565c" fill-rule="evenodd" group-id="1,2" id="Fill-66" node-id="72" stroke="none" target-height="8.315918" target-width="21.693542" target-x="260.29187" target-y="165.77635"></path><path d="M 342.85 174.09 L 326.58 174.09 C 325.08 174.09 323.87 172.88 323.87 171.38 L 323.87 168.49 C 323.87 166.99 325.08 165.78 326.58 165.78 L 342.85 165.78 C 344.35 165.78 345.56 166.99 345.56 168.49 L 345.56 171.38 C 345.56 172.88 344.35 174.09 342.85 174.09" fill="#45565c" fill-rule="evenodd" group-id="1,2" id="Fill-67" node-id="73" stroke="none" target-height="8.315918" target-width="21.69394" target-x="323.86774" target-y="165.77635"></path><path d="M 414.98 174.09 L 398.71 174.09 C 397.21 174.09 396.00 172.88 396.00 171.38 L 396.00 168.49 C 396.00 166.99 397.21 165.78 398.71 165.78 L 414.98 165.78 C 416.48 165.78 417.69 166.99 417.69 168.49 L 417.69 171.38 C 417.69 172.88 416.48 174.09 414.98 174.09" fill="#45565c" fill-rule="evenodd" group-id="1,2" id="Fill-68" node-id="74" stroke="none" target-height="8.315918" target-width="21.69397" target-x="396.00052" target-y="165.77635"></path><path d="M 230.49 375.37 L 459.28 375.37 L 459.28 372.78 L 230.49 372.78 Z" fill="#ececdb" fill-rule="evenodd" group-id="1,2" id="Fill-69" node-id="75" stroke="none" target-height="2.5909424" target-width="228.78069" target-x="230.49434" target-y="372.77515"></path><path d="M 290.12 378.38 L 273.85 378.38 C 272.35 378.38 271.14 377.17 271.14 375.67 L 271.14 372.78 C 271.14 371.28 272.35 370.06 273.85 370.06 L 290.12 370.06 C 291.62 370.06 292.83 371.28 292.83 372.78 L 292.83 375.67 C 292.83 377.17 291.62 378.38 290.12 378.38" fill="#45565c" fill-rule="evenodd" group-id="1,2" id="Fill-70" node-id="76" stroke="none" target-height="8.315918" target-width="21.69394" target-x="271.1397" target-y="370.06363"></path><path d="M 353.70 378.38 L 337.43 378.38 C 335.93 378.38 334.72 377.17 334.72 375.67 L 334.72 372.78 C 334.72 371.28 335.93 370.06 337.43 370.06 L 353.70 370.06 C 355.20 370.06 356.41 371.28 356.41 372.78 L 356.41 375.67 C 356.41 377.17 355.20 378.38 353.70 378.38" fill="#45565c" fill-rule="evenodd" group-id="1,2" id="Fill-71" node-id="77" stroke="none" target-height="8.315918" target-width="21.69394" target-x="334.71597" target-y="370.06363"></path><path d="M 416.07 378.38 L 399.80 378.38 C 398.30 378.38 397.09 377.17 397.09 375.67 L 397.09 372.78 C 397.09 371.28 398.30 370.06 399.80 370.06 L 416.07 370.06 C 417.57 370.06 418.78 371.28 418.78 372.78 L 418.78 375.67 C 418.78 377.17 417.57 378.38 416.07 378.38" fill="#45565c" fill-rule="evenodd" group-id="1,2" id="Fill-72" node-id="78" stroke="none" target-height="8.315918" target-width="21.69394" target-x="397.08524" target-y="370.06363"></path><path d="M 381.95 218.17 C 382.02 217.78 382.09 217.45 382.16 217.17 C 382.23 216.89 382.30 216.62 382.36 216.36 C 382.42 216.11 382.50 215.84 382.58 215.55 C 382.67 215.27 382.78 214.94 382.90 214.55 L 382.77 214.47 C 382.51 214.88 382.28 215.22 382.08 215.51 C 381.89 215.81 381.70 216.08 381.51 216.33 C 381.33 216.59 381.13 216.85 380.91 217.13 C 380.68 217.40 380.42 217.73 380.10 218.12 L 379.17 219.26 C 378.96 219.50 378.79 219.71 378.66 219.86 C 378.53 220.02 378.39 220.17 378.26 220.31 C 378.13 220.46 378.00 220.60 377.86 220.74 C 377.73 220.88 377.56 221.05 377.35 221.27 L 377.38 221.37 C 377.60 221.35 377.79 221.34 377.94 221.32 C 378.09 221.30 378.24 221.28 378.39 221.27 C 378.54 221.25 378.70 221.24 378.86 221.24 L 379.46 221.24 L 381.39 221.24 L 381.95 218.17 Z M 372.96 221.66 L 381.63 211.38 L 387.26 211.38 L 385.81 220.45 C 385.77 220.66 385.75 220.81 385.73 220.90 C 385.71 220.98 385.68 221.12 385.63 221.29 C 385.82 221.26 385.96 221.24 386.06 221.24 L 386.50 221.24 L 387.90 221.24 L 387.32 224.84 L 385.12 224.84 L 384.49 228.75 L 380.20 228.75 L 380.71 225.63 C 380.74 225.42 380.77 225.27 380.79 225.18 C 380.80 225.09 380.84 224.96 380.89 224.78 C 380.70 224.82 380.55 224.84 380.46 224.84 L 380.02 224.84 L 372.46 224.84 L 372.96 221.66 Z" fill="#035e80" fill-rule="evenodd" group-id="1,2" id="Fill-73" node-id="79" stroke="none" target-height="17.372314" target-width="15.442291" target-x="372.45694" target-y="211.37689"></path><path d="M 388.88 223.06 C 389.41 223.49 389.88 223.84 390.30 224.14 C 390.73 224.43 391.12 224.66 391.49 224.84 C 391.87 225.01 392.22 225.14 392.57 225.21 C 392.91 225.28 393.27 225.31 393.66 225.31 C 394.60 225.31 395.35 225.06 395.91 224.54 C 396.47 224.03 396.76 223.36 396.76 222.51 C 396.76 221.68 396.47 221.04 395.90 220.59 C 395.32 220.14 394.51 219.92 393.45 219.92 C 392.89 219.92 392.33 219.96 391.77 220.05 C 391.22 220.14 390.55 220.29 389.78 220.50 L 392.53 211.38 L 401.94 211.38 L 401.25 215.24 L 395.41 215.24 L 395.06 216.29 C 394.98 216.54 394.91 216.73 394.85 216.85 C 394.80 216.97 394.70 217.16 394.56 217.41 L 394.64 217.46 C 394.94 217.30 395.22 217.19 395.49 217.13 C 395.75 217.07 396.04 217.04 396.36 217.04 C 397.12 217.04 397.81 217.16 398.42 217.41 C 399.04 217.65 399.57 218.01 400.01 218.46 C 400.45 218.92 400.79 219.47 401.03 220.12 C 401.27 220.76 401.38 221.48 401.38 222.27 C 401.38 223.31 401.20 224.25 400.83 225.10 C 400.46 225.95 399.94 226.68 399.28 227.29 C 398.62 227.91 397.82 228.39 396.89 228.72 C 395.95 229.06 394.93 229.23 393.82 229.23 C 392.61 229.23 391.51 229.05 390.54 228.71 C 389.57 228.37 388.65 227.82 387.77 227.08 L 388.88 223.06 Z" fill="#035e80" fill-rule="evenodd" group-id="1,2" id="Fill-74" node-id="80" stroke="none" target-height="17.848694" target-width="14.172791" target-x="387.7665" target-y="211.37671"></path><path d="M 409.59 214.28 C 409.22 214.28 408.92 214.40 408.69 214.64 C 408.45 214.87 408.33 215.18 408.33 215.54 C 408.33 215.90 408.45 216.20 408.69 216.44 C 408.93 216.67 409.23 216.79 409.59 216.79 C 409.97 216.79 410.27 216.68 410.50 216.44 C 410.74 216.21 410.85 215.91 410.85 215.54 C 410.85 215.16 410.74 214.85 410.51 214.62 C 410.28 214.40 409.98 214.28 409.59 214.28 L 409.59 214.28 Z M 409.41 218.03 C 409.13 218.13 408.88 218.18 408.67 218.18 C 408.31 218.18 407.97 218.12 407.67 217.99 C 407.36 217.87 407.10 217.70 406.89 217.47 C 406.67 217.25 406.50 216.98 406.38 216.68 C 406.26 216.37 406.20 216.02 406.20 215.65 C 406.20 215.18 406.28 214.74 406.45 214.35 C 406.63 213.95 406.86 213.62 407.17 213.33 C 407.47 213.05 407.84 212.83 408.26 212.68 C 408.69 212.52 409.15 212.45 409.66 212.45 C 410.14 212.45 410.59 212.52 411.00 212.66 C 411.41 212.80 411.75 213.00 412.04 213.26 C 412.33 213.52 412.55 213.84 412.71 214.21 C 412.87 214.58 412.95 214.98 412.95 215.43 C 412.95 215.66 412.92 215.89 412.87 216.13 C 412.82 216.36 412.74 216.61 412.63 216.86 C 412.52 217.10 412.38 217.37 412.21 217.64 C 412.04 217.91 411.84 218.21 411.60 218.53 C 411.39 218.80 411.17 219.08 410.93 219.36 C 410.69 219.65 410.45 219.91 410.22 220.15 C 410.04 220.34 409.75 220.63 409.36 221.01 L 406.48 221.01 L 408.11 219.30 C 408.25 219.15 408.37 219.03 408.47 218.93 C 408.58 218.83 408.67 218.74 408.76 218.65 C 408.85 218.57 408.95 218.48 409.05 218.39 C 409.15 218.30 409.28 218.20 409.44 218.08 L 409.41 218.03 Z" fill="#035e80" fill-rule="evenodd" group-id="1,2" id="Fill-75" node-id="81" stroke="none" target-height="8.561707" target-width="6.749054" target-x="406.19763" target-y="212.44574"></path><path d="M 416.79 214.28 C 416.42 214.28 416.12 214.40 415.88 214.64 C 415.65 214.87 415.53 215.18 415.53 215.54 C 415.53 215.90 415.65 216.20 415.89 216.44 C 416.13 216.67 416.43 216.79 416.79 216.79 C 417.17 216.79 417.47 216.68 417.70 216.44 C 417.93 216.21 418.05 215.91 418.05 215.54 C 418.05 215.16 417.94 214.85 417.71 214.62 C 417.48 214.40 417.18 214.28 416.79 214.28 L 416.79 214.28 Z M 416.61 218.03 C 416.33 218.13 416.08 218.18 415.86 218.18 C 415.50 218.18 415.17 218.12 414.87 217.99 C 414.56 217.87 414.30 217.70 414.08 217.47 C 413.87 217.25 413.70 216.98 413.58 216.68 C 413.46 216.37 413.40 216.02 413.40 215.65 C 413.40 215.18 413.48 214.74 413.65 214.35 C 413.82 213.95 414.06 213.62 414.37 213.33 C 414.67 213.05 415.04 212.83 415.46 212.68 C 415.88 212.52 416.35 212.45 416.85 212.45 C 417.34 212.45 417.79 212.52 418.20 212.66 C 418.60 212.80 418.95 213.00 419.24 213.26 C 419.53 213.52 419.75 213.84 419.91 214.21 C 420.07 214.58 420.15 214.98 420.15 215.43 C 420.15 215.66 420.12 215.89 420.07 216.13 C 420.02 216.36 419.94 216.61 419.83 216.86 C 419.72 217.10 419.58 217.37 419.41 217.64 C 419.24 217.91 419.04 218.21 418.80 218.53 C 418.59 218.80 418.37 219.08 418.13 219.36 C 417.89 219.65 417.65 219.91 417.42 220.15 C 417.24 220.34 416.95 220.63 416.56 221.01 L 413.68 221.01 L 415.31 219.30 C 415.45 219.15 415.57 219.03 415.67 218.93 C 415.77 218.83 415.87 218.74 415.96 218.65 C 416.05 218.57 416.15 218.48 416.25 218.39 C 416.35 218.30 416.48 218.20 416.64 218.08 L 416.61 218.03 Z" fill="#035e80" fill-rule="evenodd" group-id="1,2" id="Fill-76" node-id="82" stroke="none" target-height="8.561707" target-width="6.7490845" target-x="413.39658" target-y="212.44574"></path><path d="M 405.69 224.22 L 419.81 224.22 L 419.81 222.89 L 405.69 222.89 Z" fill="#0d232b" fill-rule="evenodd" group-id="1,2" id="Fill-77" node-id="83" stroke="none" target-height="1.3288269" target-width="14.124359" target-x="405.68878" target-y="222.89246"></path><path d="M 363.99 243.93 L 421.48 243.93 L 421.48 241.72 L 363.99 241.72 L 363.99 243.93 Z M 363.99 251.13 L 421.48 251.13 L 421.48 248.92 L 363.99 248.92 L 363.99 251.13 Z M 363.99 258.33 L 421.48 258.33 L 421.48 256.12 L 363.99 256.12 L 363.99 258.33 Z" fill="#0d232b" fill-rule="evenodd" group-id="1,2" id="Fill-78" node-id="84" stroke="none" target-height="16.612335" target-width="57.483368" target-x="363.9949" target-y="241.7196"></path><path d="M 284.50 153.46 L 292.53 145.45 L 303.72 145.45 C 304.16 145.45 304.37 145.97 304.07 146.28 L 297.74 152.61 C 297.29 153.06 296.69 153.31 296.05 153.32 L 284.50 153.46 Z" fill="#cbc7ff" fill-rule="evenodd" group-id="1,2" id="Fill-79" node-id="85" stroke="none" target-height="8.01355" target-width="19.875854" target-x="284.4982" target-y="145.44873"></path><path d="M 264.91 137.05 L 278.05 137.05 L 278.05 135.22 L 264.91 135.22 Z" fill="#ffffff" fill-rule="evenodd" group-id="1,2" id="Fill-80" node-id="86" stroke="none" target-height="1.8243103" target-width="13.13382" target-x="264.91162" target-y="135.22092"></path><path d="M 264.91 142.88 L 278.05 142.88 L 278.05 141.06 L 264.91 141.06 Z" fill="#ffffff" fill-rule="evenodd" group-id="1,2" id="Fill-81" node-id="87" stroke="none" target-height="1.8243103" target-width="13.13382" target-x="264.91162" target-y="141.05826"></path><path d="M 292.14 118.95 L 284.42 126.68 L 258.07 126.68 C 257.98 126.83 257.91 126.99 257.85 127.16 L 284.24 127.16 L 284.24 153.39 C 284.41 153.35 284.57 153.28 284.72 153.19 L 284.72 127.06 L 292.49 119.29 C 292.42 119.14 292.30 119.01 292.14 118.95" fill="#e8a2bb" fill-rule="evenodd" group-id="1,2" id="Fill-82" node-id="88" stroke="none" target-height="34.445396" target-width="34.633453" target-x="257.85168" target-y="118.949196"></path><path d="M 337.09 324.02 C 336.75 324.02 336.41 324.11 336.17 324.35 L 329.08 331.44 C 328.67 331.85 328.43 332.42 328.43 333.00 L 328.43 358.03 C 328.43 358.36 328.70 358.63 329.04 358.63 L 354.48 358.63 C 354.95 358.63 355.40 358.44 355.74 358.11 L 362.80 351.05 C 363.07 350.77 363.23 350.40 363.23 350.01 L 363.23 324.69 C 363.23 324.35 362.95 324.02 362.61 324.02 L 337.09 324.02 Z" fill="#ededdc" fill-rule="evenodd" group-id="1,2" id="Fill-83" node-id="89" stroke="none" target-height="34.60965" target-width="34.793396" target-x="328.4333" target-y="324.021"></path><path d="M 336.20 324.32 L 328.84 331.68 C 328.69 331.83 328.79 332.09 329.00 332.09 L 355.21 332.09 L 362.81 324.49 C 362.99 324.31 362.86 323.99 362.61 323.99 L 337.04 323.99 C 336.73 323.98 336.43 324.09 336.20 324.32" fill="#ffffff" fill-rule="evenodd" group-id="1,2" id="Fill-84" node-id="90" stroke="none" target-height="8.102478" target-width="34.30417" target-x="328.68716" target-y="323.98483"></path><path d="M 355.19 358.63 L 363.23 350.62 L 363.23 324.58 C 363.23 324.36 362.97 324.26 362.82 324.41 L 355.19 332.05 L 355.19 358.63 Z" fill="#cbc7ff" fill-rule="evenodd" group-id="1,2" id="Fill-85" node-id="91" stroke="none" target-height="34.373596" target-width="8.031891" target-x="355.19495" target-y="324.25723"></path><path d="M 355.19 358.63 L 363.23 350.62 L 374.42 350.62 C 374.85 350.62 375.07 351.14 374.76 351.45 L 368.44 357.78 C 367.99 358.22 367.38 358.48 366.75 358.49 L 355.19 358.63 Z" fill="#cbc7ff" fill-rule="evenodd" group-id="1,2" id="Fill-86" node-id="92" stroke="none" target-height="8.01355" target-width="19.875885" target-x="355.19495" target-y="350.61728"></path><path d="M 335.61 342.21 L 348.74 342.21 L 348.74 340.39 L 335.61 340.39 Z" fill="#ffffff" fill-rule="evenodd" group-id="1,2" id="Fill-87" node-id="93" stroke="none" target-height="1.8243103" target-width="13.133789" target-x="335.60843" target-y="340.3893"></path><path d="M 335.61 348.05 L 348.74 348.05 L 348.74 346.23 L 335.61 346.23 Z" fill="#ffffff" fill-rule="evenodd" group-id="1,2" id="Fill-88" node-id="94" stroke="none" target-height="1.8243103" target-width="13.133789" target-x="335.60843" target-y="346.22665"></path><path d="M 362.84 324.12 L 355.11 331.84 L 328.77 331.84 C 328.67 332.00 328.60 332.16 328.55 332.33 L 354.93 332.33 L 354.93 358.56 C 355.10 358.52 355.27 358.45 355.42 358.36 L 355.42 332.23 L 363.18 324.46 C 363.12 324.31 363.00 324.18 362.84 324.12" fill="#f0f0e3" fill-rule="evenodd" group-id="1,2" id="Fill-89" node-id="95" stroke="none" target-height="34.4458" target-width="34.633453" target-x="328.54846" target-y="324.11774"></path><path d="M 272.77 289.21 L 290.74 271.39 L 367.29 271.39 C 368.26 271.39 368.75 272.57 368.06 273.25 L 353.87 287.45 C 352.86 288.46 351.50 289.19 350.08 289.21 L 272.77 289.21 Z" fill="#cbc7ff" fill-rule="evenodd" group-id="1,2" id="Fill-90" node-id="96" stroke="none" target-height="17.815552" target-width="95.9859" target-x="272.7657" target-y="271.3918"></path><path d="M 383.37 118.85 C 383.03 118.85 382.69 118.94 382.45 119.19 L 375.36 126.27 C 374.95 126.69 374.71 127.25 374.71 127.83 L 374.71 152.86 C 374.71 153.19 374.98 153.46 375.32 153.46 L 424.11 153.46 C 424.58 153.46 425.03 153.27 425.37 152.94 L 432.43 145.88 C 432.70 145.60 432.86 145.23 432.86 144.84 L 432.86 119.52 C 432.86 119.18 432.58 118.85 432.25 118.85 L 383.37 118.85 Z" fill="#54b89e" fill-rule="evenodd" group-id="1,2" id="Fill-91" node-id="97" stroke="none" target-height="34.609657" target-width="58.14508" target-x="374.71368" target-y="118.85244"></path><path d="M 382.48 119.15 L 375.12 126.52 C 374.97 126.66 375.07 126.92 375.28 126.92 L 424.85 126.92 L 432.44 119.32 C 432.62 119.14 432.49 118.82 432.24 118.82 L 383.32 118.82 C 383.01 118.82 382.71 118.93 382.48 119.15" fill="#ffffff" fill-rule="evenodd" group-id="1,2" id="Fill-92" node-id="98" stroke="none" target-height="8.102905" target-width="57.655487" target-x="374.96753" target-y="118.81592"></path><path d="M 424.83 153.46 L 432.86 145.45 L 432.86 119.41 C 432.86 119.20 432.60 119.09 432.45 119.24 L 424.83 126.88 L 424.83 153.46 Z" fill="#cbc7ff" fill-rule="evenodd" group-id="1,2" id="Fill-93" node-id="99" stroke="none" target-height="34.373215" target-width="8.032288" target-x="424.82648" target-y="119.089066"></path><path d="M 424.83 153.46 L 432.86 145.45 L 444.05 145.45 C 444.49 145.45 444.70 145.97 444.40 146.28 L 438.07 152.61 C 437.62 153.06 437.01 153.31 436.38 153.32 L 424.83 153.46 Z" fill="#cbc7ff" fill-rule="evenodd" group-id="1,2" id="Fill-94" node-id="100" stroke="none" target-height="8.01355" target-width="19.876282" target-x="424.82648" target-y="145.44873"></path><path d="M 381.89 137.05 L 418.37 137.05 L 418.37 135.22 L 381.89 135.22 Z" fill="#ffffff" fill-rule="evenodd" group-id="1,2" id="Fill-95" node-id="101" stroke="none" target-height="1.8243103" target-width="36.485504" target-x="381.88843" target-y="135.22092"></path><path d="M 381.89 142.88 L 418.37 142.88 L 418.37 141.06 L 381.89 141.06 Z" fill="#ffffff" fill-rule="evenodd" group-id="1,2" id="Fill-96" node-id="102" stroke="none" target-height="1.8243103" target-width="36.485504" target-x="381.88843" target-y="141.05826"></path><path d="M 432.47 118.95 L 424.74 126.68 L 375.05 126.68 C 374.95 126.83 374.88 126.99 374.83 127.16 L 424.56 127.16 L 424.56 153.39 C 424.74 153.35 424.90 153.28 425.05 153.19 L 425.05 127.06 L 432.81 119.29 C 432.75 119.14 432.63 119.01 432.47 118.95" fill="#6fc3ad" fill-rule="evenodd" group-id="1,2" id="Fill-97" node-id="103" stroke="none" target-height="34.445396" target-width="57.985077" target-x="374.8287" target-y="118.949196"></path><path d="M 263.26 324.39 C 262.91 324.39 262.58 324.48 262.33 324.72 L 255.24 331.81 C 254.83 332.22 254.60 332.79 254.60 333.37 L 254.60 358.39 C 254.60 358.73 254.87 359.00 255.20 359.00 L 303.99 359.00 C 304.46 359.00 304.92 358.81 305.25 358.48 L 312.31 351.42 C 312.59 351.14 312.74 350.77 312.74 350.38 L 312.74 325.05 C 312.74 324.72 312.47 324.39 312.13 324.39 L 263.26 324.39 Z" fill="#58b4c9" fill-rule="evenodd" group-id="1,2" id="Fill-98" node-id="104" stroke="none" target-height="34.60965" target-width="58.14508" target-x="254.59784" target-y="324.3896"></path><path d="M 262.37 324.68 L 255.00 332.05 C 254.85 332.20 254.96 332.46 255.17 332.46 L 304.73 332.46 L 312.33 324.86 C 312.51 324.68 312.38 324.35 312.12 324.35 L 263.20 324.35 C 262.89 324.35 262.59 324.46 262.37 324.68" fill="#ffffff" fill-rule="evenodd" group-id="1,2" id="Fill-99" node-id="105" stroke="none" target-height="8.102509" target-width="57.65544" target-x="254.85167" target-y="324.35345"></path><path d="M 304.71 359.00 L 312.74 350.99 L 312.74 324.95 C 312.74 324.73 312.49 324.63 312.33 324.78 L 304.71 332.42 L 304.71 359.00 Z" fill="#cbc7ff" fill-rule="evenodd" group-id="1,2" id="Fill-100" node-id="106" stroke="none" target-height="34.373627" target-width="8.031891" target-x="304.711" target-y="324.62582"></path><path d="M 304.71 359.00 L 312.74 350.99 L 323.94 350.99 C 324.37 350.99 324.59 351.51 324.28 351.82 L 317.95 358.14 C 317.50 358.59 316.90 358.85 316.26 358.86 L 304.71 359.00 Z" fill="#cbc7ff" fill-rule="evenodd" group-id="1,2" id="Fill-101" node-id="107" stroke="none" target-height="8.01355" target-width="19.875854" target-x="304.711" target-y="350.9859"></path><path d="M 261.77 342.58 L 298.26 342.58 L 298.26 340.76 L 261.77 340.76 Z" fill="#ffffff" fill-rule="evenodd" group-id="1,2" id="Fill-102" node-id="108" stroke="none" target-height="1.8243103" target-width="36.485077" target-x="261.77292" target-y="340.758"></path><path d="M 261.77 348.42 L 298.26 348.42 L 298.26 346.60 L 261.77 346.60 Z" fill="#ffffff" fill-rule="evenodd" group-id="1,2" id="Fill-103" node-id="109" stroke="none" target-height="1.8243103" target-width="36.485077" target-x="261.77292" target-y="346.59534"></path><path d="M 312.36 324.49 L 304.63 332.21 L 254.93 332.21 C 254.84 332.37 254.77 332.53 254.71 332.70 L 304.45 332.70 L 304.45 358.93 C 304.62 358.89 304.79 358.82 304.94 358.72 L 304.94 332.59 L 312.70 324.83 C 312.64 324.67 312.51 324.55 312.36 324.49" fill="#70bfd1" fill-rule="evenodd" group-id="1,2" id="Fill-104" node-id="110" stroke="none" target-height="34.4458" target-width="57.98474" target-x="254.7132" target-y="324.4864"></path><path d="M 389.13 318.97 C 388.79 318.97 388.45 319.05 388.21 319.30 L 381.12 326.39 C 380.71 326.80 380.47 327.36 380.47 327.95 L 380.47 358.39 C 380.47 358.73 380.74 359.00 381.08 359.00 L 424.44 359.00 C 424.92 359.00 425.37 358.81 425.70 358.48 L 432.76 351.42 C 433.04 351.14 433.19 350.77 433.19 350.38 L 433.19 319.63 C 433.19 319.29 432.92 318.97 432.58 318.97 L 389.13 318.97 Z" fill="#eb7572" fill-rule="evenodd" group-id="1,2" id="Fill-105" node-id="111" stroke="none" target-height="40.033783" target-width="52.72052" target-x="380.47366" target-y="318.96573"></path><path d="M 388.24 319.26 L 380.88 326.63 C 380.73 326.78 380.83 327.03 381.04 327.03 L 425.18 327.03 L 432.78 319.44 C 432.96 319.25 432.83 318.93 432.57 318.93 L 389.08 318.93 C 388.77 318.93 388.47 319.04 388.24 319.26" fill="#ffffff" fill-rule="evenodd" group-id="1,2" id="Fill-106" node-id="112" stroke="none" target-height="8.102478" target-width="52.231262" target-x="380.72754" target-y="318.92935"></path><path d="M 425.16 359.00 L 433.19 350.99 L 433.19 319.52 C 433.19 319.31 432.94 319.20 432.79 319.35 L 425.16 327.00 L 425.16 359.00 Z" fill="#cbc7ff" fill-rule="evenodd" group-id="1,2" id="Fill-107" node-id="113" stroke="none" target-height="39.797394" target-width="8.031891" target-x="425.1625" target-y="319.20206"></path><path d="M 425.16 359.00 L 433.19 350.99 L 444.39 350.99 C 444.82 350.99 445.04 351.51 444.73 351.82 L 438.40 358.14 C 437.96 358.59 437.35 358.85 436.72 358.86 L 425.16 359.00 Z" fill="#cbc7ff" fill-rule="evenodd" group-id="1,2" id="Fill-108" node-id="114" stroke="none" target-height="8.01355" target-width="19.876282" target-x="425.1625" target-y="350.9859"></path><path d="M 387.65 340.41 L 418.71 340.41 L 418.71 338.59 L 387.65 338.59 Z" fill="#ffffff" fill-rule="evenodd" group-id="1,2" id="Fill-109" node-id="115" stroke="none" target-height="1.8243103" target-width="31.060883" target-x="387.64893" target-y="338.5884"></path><path d="M 387.65 346.25 L 418.71 346.25 L 418.71 344.43 L 387.65 344.43 Z" fill="#ffffff" fill-rule="evenodd" group-id="1,2" id="Fill-110" node-id="116" stroke="none" target-height="1.8243103" target-width="31.060883" target-x="387.64893" target-y="344.42575"></path><path d="M 432.81 319.06 L 425.08 326.79 L 380.81 326.79 C 380.71 326.94 380.64 327.11 380.59 327.28 L 424.90 327.28 L 424.90 358.93 C 425.07 358.89 425.24 358.82 425.39 358.72 L 425.39 327.17 L 433.15 319.41 C 433.09 319.25 432.96 319.13 432.81 319.06" fill="#ee8c89" fill-rule="evenodd" group-id="1,2" id="Fill-111" node-id="117" stroke="none" target-height="39.869568" target-width="52.560913" target-x="380.58887" target-y="319.06226"></path><path d="M 327.87 109.12 C 327.52 109.12 327.19 109.21 326.94 109.46 L 319.86 116.54 C 319.44 116.96 319.21 117.52 319.21 118.10 L 319.21 152.86 C 319.21 153.19 319.48 153.46 319.82 153.46 L 341.85 153.46 C 342.32 153.46 342.77 153.27 343.11 152.94 L 350.17 145.88 C 350.45 145.60 350.60 145.23 350.60 144.84 L 350.60 109.79 C 350.60 109.45 350.33 109.12 349.99 109.12 L 327.87 109.12 Z" fill="#fdd27b" fill-rule="evenodd" group-id="1,2" id="Fill-112" node-id="118" stroke="none" target-height="44.339447" target-width="31.388214" target-x="319.21198" target-y="109.12265"></path><path d="M 326.98 109.42 L 319.61 116.79 C 319.47 116.94 319.57 117.19 319.78 117.19 L 342.59 117.19 L 350.18 109.59 C 350.36 109.41 350.24 109.09 349.98 109.09 L 327.82 109.09 C 327.50 109.09 327.20 109.20 326.98 109.42" fill="#ffffff" fill-rule="evenodd" group-id="1,2" id="Fill-113" node-id="119" stroke="none" target-height="8.102509" target-width="30.899017" target-x="319.4654" target-y="109.08652"></path><path d="M 342.57 153.46 L 350.60 145.45 L 350.60 109.68 C 350.60 109.47 350.34 109.36 350.19 109.51 L 342.57 117.15 L 342.57 153.46 Z" fill="#cbc7ff" fill-rule="evenodd" group-id="1,2" id="Fill-114" node-id="120" stroke="none" target-height="44.103012" target-width="8.031891" target-x="342.56827" target-y="109.35927"></path><path d="M 342.57 153.46 L 350.60 145.45 L 361.79 145.45 C 362.23 145.45 362.44 145.97 362.14 146.28 L 355.81 152.61 C 355.36 153.06 354.76 153.31 354.12 153.32 L 342.57 153.46 Z" fill="#cbc7ff" fill-rule="evenodd" group-id="1,2" id="Fill-115" node-id="121" stroke="none" target-height="8.01355" target-width="19.875885" target-x="342.56827" target-y="145.44873"></path><path d="M 326.39 137.05 L 336.12 137.05 L 336.12 135.22 L 326.39 135.22 Z" fill="#ffffff" fill-rule="evenodd" group-id="1,2" id="Fill-116" node-id="122" stroke="none" target-height="1.8243103" target-width="9.728607" target-x="326.3866" target-y="135.22092"></path><path d="M 326.39 142.88 L 336.12 142.88 L 336.12 141.06 L 326.39 141.06 Z" fill="#ffffff" fill-rule="evenodd" group-id="1,2" id="Fill-117" node-id="123" stroke="none" target-height="1.8243103" target-width="9.728607" target-x="326.3866" target-y="141.05826"></path><path d="M 350.21 109.22 L 342.49 116.95 L 319.55 116.95 C 319.45 117.10 319.38 117.26 319.33 117.43 L 342.31 117.43 L 342.31 153.39 C 342.48 153.35 342.64 153.28 342.79 153.19 L 342.79 117.33 L 350.56 109.56 C 350.49 109.41 350.37 109.28 350.21 109.22" fill="#fddb94" fill-rule="evenodd" group-id="1,2" id="Fill-118" node-id="124" stroke="none" target-height="44.175217" target-width="31.228271" target-x="319.32693" target-y="109.21944"></path><path d="M 286.26 208.97 C 285.48 209.02 284.76 209.38 284.25 209.97 L 269.50 226.94 C 268.64 227.93 268.21 229.23 268.30 230.54 L 272.24 286.54 C 272.29 287.28 272.94 287.85 273.69 287.79 L 330.61 283.79 C 331.67 283.72 332.65 283.23 333.35 282.43 L 348.04 265.51 C 348.61 264.85 348.90 264.00 348.84 263.12 L 344.85 206.46 C 344.80 205.70 344.14 205.13 343.39 205.18 L 286.26 208.97 Z" fill="#e85f5b" fill-rule="evenodd" group-id="1,2" id="Fill-119" node-id="125" stroke="none" target-height="82.71753" target-width="80.687164" target-x="268.21033" target-y="205.12827"></path><path d="M 284.33 209.88 L 269.00 227.53 C 268.69 227.88 268.96 228.43 269.43 228.40 L 328.09 224.28 L 343.89 206.09 C 344.27 205.65 343.93 204.98 343.36 205.02 L 286.14 208.98 C 285.44 209.02 284.79 209.35 284.33 209.88" fill="#ff8581" fill-rule="evenodd" group-id="1,2" id="Fill-120" node-id="126" stroke="none" target-height="23.457" target-width="75.5798" target-x="268.68707" target-y="204.97781"></path><path d="M 332.26 283.68 L 348.93 264.48 L 344.84 206.21 C 344.80 205.74 344.21 205.54 343.90 205.90 L 328.00 224.20 L 332.26 283.68 Z" fill="#b23c38" fill-rule="evenodd" group-id="1,2" id="Fill-121" node-id="127" stroke="none" target-height="78.138" target-width="20.934723" target-x="327.99683" target-y="205.53836"></path><path d="M 315.20 247.96 L 285.81 250.02 L 285.52 245.94 L 314.91 243.88 Z" fill="#ffffff" fill-rule="evenodd" group-id="1,2" id="Fill-122" node-id="128" stroke="none" target-height="6.1474915" target-width="29.676666" target-x="285.52057" target-y="243.87518"></path><path d="M 316.12 261.02 L 286.73 263.08 L 286.44 259.00 L 315.83 256.94 Z" fill="#ffffff" fill-rule="evenodd" group-id="1,2" id="Fill-123" node-id="129" stroke="none" target-height="6.147522" target-width="29.676666" target-x="286.4388" target-y="256.93738"></path><path d="M 343.90 205.25 L 327.82 223.75 L 268.87 227.89 C 268.68 228.25 268.55 228.63 268.46 229.02 L 327.50 224.87 L 331.62 283.57 C 332.00 283.44 332.36 283.26 332.68 283.03 L 328.57 224.56 L 344.72 205.96 C 344.56 205.62 344.26 205.36 343.90 205.25" fill="#eb7470" fill-rule="evenodd" group-id="1,2" id="Fill-124" node-id="130" stroke="none" target-height="78.32291" target-width="76.26254" target-x="268.45514" target-y="205.24622"></path><path d="M 387.86 279.26 L 365.38 279.26 C 364.61 279.26 364.00 278.64 364.00 277.88 L 364.00 268.68 C 364.00 267.92 364.61 267.30 365.38 267.30 L 387.86 267.30 C 388.63 267.30 389.25 267.92 389.25 268.68 L 389.25 277.88 C 389.25 278.64 388.63 279.26 387.86 279.26" fill="#e85f5b" fill-rule="evenodd" group-id="1,2" id="Fill-125" node-id="131" stroke="none" target-height="11.961029" target-width="25.250854" target-x="363.9952" target-y="267.3026"></path><path d="M 380.38 271.93 C 380.19 271.35 379.77 270.88 379.21 270.63 C 378.58 270.35 377.93 270.43 377.32 270.86 C 377.10 271.02 376.90 271.21 376.72 271.42 C 376.55 271.21 376.35 271.02 376.13 270.86 C 375.52 270.43 374.87 270.35 374.23 270.63 C 373.68 270.87 373.25 271.34 373.06 271.92 C 372.86 272.53 372.93 273.20 373.24 273.75 C 373.78 274.71 374.87 275.77 376.48 276.92 C 376.63 277.02 376.83 277.02 376.98 276.92 C 378.58 275.77 379.67 274.71 380.21 273.76 C 380.52 273.20 380.58 272.53 380.38 271.93" fill="#ffffff" fill-rule="evenodd" group-id="1,2" id="Fill-126" node-id="132" stroke="none" target-height="6.674164" target-width="7.7201843" target-x="372.8625" target-y="270.3499"></path><path d="M 420.10 279.26 L 397.61 279.26 C 396.85 279.26 396.23 278.64 396.23 277.88 L 396.23 268.68 C 396.23 267.92 396.85 267.30 397.61 267.30 L 420.10 267.30 C 420.86 267.30 421.48 267.92 421.48 268.68 L 421.48 277.88 C 421.48 278.64 420.86 279.26 420.10 279.26" fill="#41b093" fill-rule="evenodd" group-id="1,2" id="Fill-127" node-id="133" stroke="none" target-height="11.961029" target-width="25.250885" target-x="396.2274" target-y="267.3026"></path><path d="M 411.75 274.90 L 405.84 274.90 L 404.05 270.09 L 411.75 270.09 Z" fill="#ffffff" fill-rule="evenodd" group-id="1,2" id="Fill-128" node-id="134" stroke="none" target-height="4.812042" target-width="7.6929016" target-x="404.0547" target-y="270.08838"></path><path d="M 411.34 276.11 L 405.97 276.11 C 405.86 276.11 405.77 276.02 405.77 275.92 C 405.77 275.81 405.86 275.72 405.97 275.72 L 411.34 275.72 C 411.88 275.72 412.33 275.28 412.33 274.73 L 412.33 270.07 C 412.33 269.31 412.94 268.70 413.70 268.70 L 414.30 268.70 C 414.41 268.70 414.50 268.78 414.50 268.89 C 414.50 269.00 414.41 269.08 414.30 269.08 L 413.70 269.08 C 413.16 269.08 412.72 269.53 412.72 270.07 L 412.72 274.73 C 412.72 275.49 412.10 276.11 411.34 276.11" fill="#ffffff" fill-rule="evenodd" group-id="1,2" id="Fill-129" node-id="135" stroke="none" target-height="7.415497" target-width="8.7247925" target-x="405.77097" target-y="268.69595"></path><path d="M 407.11 276.66 C 406.92 276.66 406.76 276.82 406.76 277.02 C 406.76 277.22 406.92 277.38 407.11 277.38 C 407.31 277.38 407.47 277.22 407.47 277.02 C 407.47 276.82 407.31 276.66 407.11 276.66 M 407.11 277.76 C 406.70 277.76 406.37 277.43 406.37 277.02 C 406.37 276.61 406.70 276.27 407.11 276.27 C 407.53 276.27 407.86 276.61 407.86 277.02 C 407.86 277.43 407.53 277.76 407.11 277.76" fill="#ffffff" fill-rule="evenodd" group-id="1,2" id="Fill-130" node-id="136" stroke="none" target-height="1.489563" target-width="1.489563" target-x="406.3698" target-y="276.27454"></path><path d="M 410.91 276.66 C 410.72 276.66 410.56 276.82 410.56 277.02 C 410.56 277.22 410.72 277.38 410.91 277.38 C 411.11 277.38 411.27 277.22 411.27 277.02 C 411.27 276.82 411.11 276.66 410.91 276.66 M 410.91 277.76 C 410.50 277.76 410.17 277.43 410.17 277.02 C 410.17 276.61 410.50 276.27 410.91 276.27 C 411.32 276.27 411.66 276.61 411.66 277.02 C 411.66 277.43 411.32 277.76 410.91 277.76" fill="#ffffff" fill-rule="evenodd" group-id="1,2" id="Fill-131" node-id="137" stroke="none" target-height="1.489563" target-width="1.489563" target-x="410.16876" target-y="276.27454"></path><path d="M 362.46 205.70 C 362.46 214.41 355.40 221.48 346.69 221.48 C 337.98 221.48 330.92 214.41 330.92 205.70 C 330.92 196.99 337.98 189.93 346.69 189.93 C 355.40 189.93 362.46 196.99 362.46 205.70" fill="#ffffff" fill-rule="evenodd" group-id="1,2" id="Fill-132" node-id="138" stroke="none" target-height="31.545471" target-width="31.545471" target-x="330.91748" target-y="189.92957"></path><path d="M 346.69 190.53 C 338.33 190.53 331.52 197.34 331.52 205.70 C 331.52 214.07 338.33 220.87 346.69 220.87 C 355.05 220.87 361.86 214.07 361.86 205.70 C 361.86 197.34 355.05 190.53 346.69 190.53 M 346.69 222.08 C 337.66 222.08 330.31 214.73 330.31 205.70 C 330.31 196.67 337.66 189.33 346.69 189.33 C 355.72 189.33 363.07 196.67 363.07 205.70 C 363.07 214.73 355.72 222.08 346.69 222.08" fill="#e85f5b" fill-rule="evenodd" group-id="1,2" id="Fill-133" node-id="139" stroke="none" target-height="32.75061" target-width="32.751007" target-x="330.3148" target-y="189.32687"></path><path d="M 352.61 209.58 C 352.61 208.07 351.87 207.13 350.82 207.13 C 349.75 207.13 349.03 208.07 349.03 209.58 C 349.03 211.07 349.75 212.01 350.82 212.01 C 351.87 212.01 352.61 211.07 352.61 209.58 M 347.17 209.58 C 347.17 207.00 348.79 205.61 350.80 205.61 C 352.80 205.61 354.42 207.00 354.42 209.58 C 354.42 212.14 352.80 213.52 350.80 213.52 C 348.79 213.52 347.17 212.14 347.17 209.58 M 340.95 212.65 L 350.01 198.51 C 350.35 197.96 350.48 197.89 351.29 197.89 C 351.97 197.89 352.23 198.02 351.87 198.58 L 342.80 212.71 C 342.44 213.27 342.31 213.33 341.50 213.33 C 340.84 213.33 340.58 213.21 340.95 212.65 M 343.74 201.65 C 343.74 200.15 342.99 199.22 341.95 199.22 C 340.88 199.22 340.16 200.15 340.16 201.65 C 340.16 203.16 340.88 204.10 341.95 204.10 C 342.99 204.10 343.74 203.16 343.74 201.65 M 338.30 201.65 C 338.30 199.09 339.92 197.70 341.93 197.70 C 343.93 197.70 345.55 199.09 345.55 201.65 C 345.55 204.23 343.93 205.61 341.93 205.61 C 339.92 205.61 338.30 204.23 338.30 201.65" fill="#0d232b" fill-rule="evenodd" group-id="1,2" id="Fill-134" node-id="140" stroke="none" target-height="15.822266" target-width="16.121124" target-x="338.30292" target-y="197.70236"></path><path d="M 165.89 179.96 L 64.49 179.96 C 59.77 179.96 55.95 176.14 55.95 171.42 L 55.95 116.10 C 55.95 111.38 59.77 107.56 64.49 107.56 L 165.89 107.56 C 170.61 107.56 174.43 111.38 174.43 116.10 L 174.43 171.42 C 174.43 176.14 170.61 179.96 165.89 179.96" fill="#fcc14a" fill-rule="evenodd" group-id="1,2" id="Fill-135" node-id="141" stroke="none" target-height="72.407555" target-width="118.48547" target-x="55.945507" target-y="107.55743"></path><path d="M 81.94 143.53 L 71.49 143.53 C 69.50 143.53 67.88 141.91 67.88 139.91 L 67.88 134.47 C 67.88 132.47 69.50 130.85 71.49 130.85 L 81.94 130.85 C 83.94 130.85 85.56 132.47 85.56 134.47 L 85.56 139.91 C 85.56 141.91 83.94 143.53 81.94 143.53" fill="#d6b88d" fill-rule="evenodd" group-id="1,2" id="Fill-136" node-id="142" stroke="none" target-height="12.67421" target-width="17.678192" target-x="67.87735" target-y="130.851"></path><path d="M 120.91 159.23 L 133.95 159.23 L 133.95 152.76 L 120.91 152.76 L 120.91 159.23 Z M 103.23 159.23 L 116.27 159.23 L 116.27 152.76 L 103.23 152.76 L 103.23 159.23 Z M 85.56 159.23 L 98.59 159.23 L 98.59 152.76 L 85.56 152.76 L 85.56 159.23 Z M 67.88 159.23 L 80.91 159.23 L 80.91 152.76 L 67.88 152.76 L 67.88 159.23 Z" fill="#4b6e7c" fill-rule="evenodd" group-id="1,2" id="Fill-137" node-id="143" stroke="none" target-height="6.470932" target-width="66.06851" target-x="67.87735" target-y="152.75983"></path><path d="M 73.00 140.18 C 73.15 141.43 73.37 142.57 73.64 143.53 L 74.20 143.53 C 73.33 140.49 72.84 135.45 74.24 130.93 L 73.98 130.85 L 73.70 130.85 C 73.26 132.28 73.01 133.75 72.90 135.20 L 67.88 135.20 L 67.88 135.74 L 72.86 135.74 C 72.79 137.09 72.82 138.41 72.94 139.64 L 67.88 139.64 L 67.88 139.91 C 67.88 140.00 67.88 140.09 67.89 140.18 L 73.00 140.18 Z" fill="#757575" fill-rule="evenodd" group-id="1,2" id="Fill-138" node-id="144" stroke="none" target-height="12.674591" target-width="6.360512" target-x="67.87731" target-y="130.85077"></path><path d="M 78.80 130.85 L 78.52 130.85 L 78.26 130.93 C 79.66 135.45 79.16 140.49 78.30 143.53 L 78.86 143.53 C 79.13 142.57 79.35 141.43 79.50 140.18 L 85.54 140.18 C 85.55 140.09 85.56 140.00 85.56 139.91 L 85.56 139.64 L 79.56 139.64 C 79.67 138.41 79.71 137.09 79.64 135.74 L 85.56 135.74 L 85.56 135.20 L 79.60 135.20 C 79.49 133.75 79.23 132.28 78.80 130.85" fill="#757575" fill-rule="evenodd" group-id="1,2" id="Fill-139" node-id="145" stroke="none" target-height="12.67421" target-width="7.294121" target-x="78.26142" target-y="130.85088"></path><path d="M 90.52 169.64 L 113.77 169.64 L 113.77 164.08 L 90.52 164.08 L 90.52 169.64 Z M 67.88 169.64 L 86.72 169.64 L 86.72 164.08 L 67.88 164.08 L 67.88 169.64 Z" fill="#4b6e7c" fill-rule="evenodd" group-id="1,2" id="Fill-140" node-id="146" stroke="none" target-height="5.5595703" target-width="45.889496" target-x="67.87735" target-y="164.08063"></path><path d="M 155.80 119.68 C 151.60 119.68 148.18 123.09 148.18 127.30 C 148.18 131.50 151.60 134.92 155.80 134.92 C 160.00 134.92 163.42 131.50 163.42 127.30 C 163.42 123.09 160.00 119.68 155.80 119.68 M 155.80 135.46 C 151.30 135.46 147.63 131.80 147.63 127.30 C 147.63 122.80 151.30 119.13 155.80 119.13 C 160.30 119.13 163.96 122.80 163.96 127.30 C 163.96 131.80 160.30 135.46 155.80 135.46" fill="#3d839d" fill-rule="evenodd" group-id="1,2" id="Fill-141" node-id="147" stroke="none" target-height="16.328293" target-width="16.32869" target-x="147.63498" target-y="119.13272"></path><path d="M 220.19 193.44 L 208.44 193.44 C 203.94 193.44 200.30 189.80 200.30 185.31 L 200.30 107.70 C 200.30 103.20 203.94 99.56 208.44 99.56 L 220.19 99.56 L 220.19 193.44 Z" fill="#184657" fill-rule="evenodd" group-id="1,2" id="Fill-142" node-id="148" stroke="none" target-height="93.88028" target-width="19.886414" target-x="200.2994" target-y="99.56085"></path><path d="M 223.44 193.44 L 211.69 193.44 C 207.20 193.44 203.55 189.80 203.55 185.31 L 203.55 107.70 C 203.55 103.20 207.20 99.56 211.69 99.56 L 223.44 99.56 L 223.44 193.44 Z" fill="#3d6372" fill-rule="evenodd" group-id="1,2" id="Fill-143" node-id="149" stroke="none" target-height="93.88028" target-width="19.886398" target-x="203.55354" target-y="99.56085"></path><path d="M 214.44 109.84 C 214.44 111.30 213.26 112.48 211.80 112.48 C 210.34 112.48 209.16 111.30 209.16 109.84 C 209.16 108.38 210.34 107.20 211.80 107.20 C 213.26 107.20 214.44 108.38 214.44 109.84" fill="#e85f5b" fill-rule="evenodd" group-id="1,2" id="Fill-144" node-id="150" stroke="none" target-height="5.2794266" target-width="5.279419" target-x="209.15788" target-y="107.20189"></path><path d="M 214.44 118.00 C 214.44 119.46 213.26 120.64 211.80 120.64 C 210.34 120.64 209.16 119.46 209.16 118.00 C 209.16 116.54 210.34 115.36 211.80 115.36 C 213.26 115.36 214.44 116.54 214.44 118.00" fill="#fcc14a" fill-rule="evenodd" group-id="1,2" id="Fill-145" node-id="151" stroke="none" target-height="5.2794266" target-width="5.279419" target-x="209.15788" target-y="115.3612"></path><path d="M 214.44 126.26 C 214.44 127.71 213.26 128.90 211.80 128.90 C 210.34 128.90 209.16 127.71 209.16 126.26 C 209.16 124.80 210.34 123.62 211.80 123.62 C 213.26 123.62 214.44 124.80 214.44 126.26" fill="#41b093" fill-rule="evenodd" group-id="1,2" id="Fill-146" node-id="152" stroke="none" target-height="5.279419" target-width="5.279419" target-x="209.15788" target-y="123.61633"></path><path d="M 200.90 185.66 L 202.96 185.66 L 202.96 113.25 L 200.90 113.25 Z" fill="#0d232b" fill-rule="evenodd" group-id="1,2" id="Fill-147" node-id="153" stroke="none" target-height="72.40756" target-width="2.066208" target-x="200.89803" target-y="113.25192"></path><g node-id="237"><path d="M 225.52 310.76 L 225.52 89.10 C 225.52 78.11 234.43 69.20 245.42 69.20 L 436.58 69.20 L 225.52 310.76 Z" fill="#ffffff" fill-opacity="0.2" fill-rule="evenodd" group-id="1,2,3" id="Fill-148" node-id="154" stroke="none" target-height="241.55984" target-width="211.06624" target-x="225.5179" target-y="69.20407"></path></g><path d="M 227.60 401.07 C 227.74 409.74 228.82 419.05 228.55 423.80 C 228.28 428.55 227.74 431.60 227.74 431.60 L 249.02 431.60 C 249.02 431.60 249.30 428.82 243.87 428.27 C 240.24 427.91 239.13 423.94 239.13 417.83 C 239.13 411.73 241.16 401.43 241.16 401.43 L 227.60 401.07 Z" fill="#ffd1c4" fill-rule="evenodd" group-id="1,2" id="Fill-149" node-id="155" stroke="none" target-height="30.529541" target-width="21.693542" target-x="227.60161" target-y="401.06638"></path><path d="M 180.15 400.07 C 178.93 406.31 178.56 421.68 178.16 424.93 C 177.75 428.18 177.71 431.30 177.71 431.30 L 197.95 431.30 C 197.95 431.30 197.59 428.73 195.69 428.64 C 189.59 428.35 189.55 427.55 188.46 425.20 C 187.38 422.85 191.40 405.90 192.89 401.16 C 194.38 396.41 180.15 400.07 180.15 400.07" fill="#ffd1c4" fill-rule="evenodd" group-id="1,2" id="Fill-150" node-id="156" stroke="none" target-height="34.89099" target-width="20.248077" target-x="177.70503" target-y="396.41125"></path><path d="M 192.48 402.54 C 192.63 402.01 192.77 401.54 192.89 401.16 C 194.38 396.41 180.15 400.07 180.15 400.07 C 180.07 400.44 180.00 400.85 179.94 401.27 C 183.80 402.59 190.10 402.59 192.48 402.54" fill="#f4b6a5" fill-rule="evenodd" group-id="1,2" id="Fill-151" node-id="157" stroke="none" target-height="6.181427" target-width="14.44429" target-x="179.9383" target-y="396.41107"></path><path d="M 237.27 403.33 C 239.05 402.87 240.26 402.48 241.01 402.21 C 241.10 401.71 241.16 401.43 241.16 401.43 L 227.60 401.07 C 227.62 402.01 227.64 402.96 227.68 403.92 C 230.03 403.97 234.71 403.98 237.27 403.33" fill="#f4b6a5" fill-rule="evenodd" group-id="1,2" id="Fill-152" node-id="158" stroke="none" target-height="2.918274" target-width="13.55867" target-x="227.60161" target-y="401.06638"></path><path d="M 194.11 307.87 C 191.81 316.01 192.21 320.21 192.89 324.69 C 193.73 330.19 192.35 354.51 187.47 369.70 C 182.59 384.89 180.15 400.07 180.15 400.07 C 182.35 401.24 190.13 401.61 192.89 401.16 C 192.89 401.16 204.28 380.28 211.33 367.53 C 217.86 355.72 227.47 334.31 227.47 334.31 L 209.43 307.87 L 194.11 307.87 Z" fill="#0d232b" fill-rule="evenodd" group-id="1,2" id="Fill-153" node-id="159" stroke="none" target-height="93.733185" target-width="47.320145" target-x="180.14574" target-y="307.87253"></path><path d="M 197.64 308.01 C 196.28 320.21 200.39 331.94 205.73 339.69 C 211.74 348.41 220.82 357.23 224.35 379.46 C 227.75 400.90 226.92 401.29 226.92 401.29 C 229.50 402.01 237.84 402.11 241.16 401.43 C 241.16 401.43 242.79 400.07 242.52 372.41 C 242.25 344.75 228.96 308.96 228.96 308.96 L 197.64 308.01 Z" fill="#283b42" fill-rule="evenodd" group-id="1,2" id="Fill-154" node-id="160" stroke="none" target-height="94.097595" target-width="46.5067" target-x="196.2806" target-y="308.00812"></path><path d="M 224.27 262.47 C 228.35 267.56 236.77 267.40 238.55 266.66 C 241.76 265.31 242.14 264.46 243.52 261.72 C 238.35 256.52 237.71 256.99 238.02 254.37 C 238.35 251.47 244.50 237.76 244.50 237.76 L 232.20 233.14 C 232.20 233.14 226.38 246.77 225.11 248.92 C 224.34 250.22 220.65 251.94 218.96 253.32 C 219.76 257.04 221.83 259.42 224.27 262.47" fill="#ffd1c4" fill-rule="evenodd" group-id="1,2" id="Fill-155" node-id="161" stroke="none" target-height="34.422394" target-width="25.533356" target-x="218.9634" target-y="233.14255"></path><g node-id="238"><g node-id="241"><path d="M 237.99 255.09 C 237.97 254.88 237.98 254.64 238.02 254.37 C 238.35 251.47 244.50 237.76 244.50 237.76 L 232.20 233.14 C 232.20 233.14 226.38 246.77 225.11 248.92 C 224.90 249.27 224.61 249.54 224.23 249.77 L 237.99 255.09 Z" fill="#ffd1c4" fill-rule="evenodd" group-id="1,2,4,7" id="Fill-156" node-id="166" stroke="none" target-height="21.948318" target-width="20.267181" target-x="224.22942" target-y="233.14232"></path></g></g><path d="M 239.49 246.00 C 239.98 246.19 240.45 246.32 240.91 246.40 C 242.74 241.63 244.53 237.19 244.53 237.19 L 236.22 234.28 C 234.67 239.60 235.57 244.61 239.49 246.00" fill="#f4b6a5" fill-rule="evenodd" group-id="1,2" id="Fill-158" node-id="167" stroke="none" target-height="12.128021" target-width="9.863983" target-x="234.66943" target-y="234.27591"></path><path d="M 249.27 233.55 C 248.65 239.76 245.93 244.62 240.24 243.92 C 235.88 243.44 232.85 238.02 233.48 231.82 C 234.10 225.61 236.10 220.74 242.50 221.45 C 249.56 222.22 249.89 227.35 249.27 233.55" fill="#ffd1c4" fill-rule="evenodd" group-id="1,2" id="Fill-159" node-id="168" stroke="none" target-height="23.87381" target-width="17.040146" target-x="232.85416" target-y="220.7424"></path><path d="M 230.15 221.62 C 228.51 224.43 225.88 227.36 231.25 234.89 L 235.42 233.93 L 233.42 224.85 L 230.15 221.62 Z" fill="#333333" fill-rule="evenodd" group-id="1,2" id="Fill-160" node-id="169" stroke="none" target-height="13.266815" target-width="9.540955" target-x="225.87921" target-y="221.6199"></path><path d="M 246.69 230.92 C 246.66 231.25 246.36 231.49 246.03 231.45 C 245.71 231.42 245.47 231.13 245.50 230.80 C 245.54 230.47 245.83 230.23 246.16 230.27 C 246.49 230.30 246.72 230.60 246.69 230.92" fill="#000000" fill-rule="evenodd" group-id="1,2" id="Fill-161" node-id="170" stroke="none" target-height="1.2546997" target-width="1.2546844" target-x="245.4701" target-y="230.23279"></path><path d="M 236.77 235.72 C 234.45 235.48 232.77 233.40 233.01 231.08 C 233.26 228.76 235.33 227.08 237.66 227.32 L 236.77 235.72 Z" fill="#f9c7ba" fill-rule="evenodd" group-id="1,2" id="Fill-162" node-id="171" stroke="none" target-height="8.646362" target-width="4.887329" target-x="232.76785" target-y="227.07605"></path><path d="M 275.50 253.79 C 264.80 256.07 247.57 257.11 239.80 256.08 C 238.61 259.65 238.29 266.52 237.22 270.13 C 244.87 271.30 253.74 269.11 262.76 267.11 C 265.22 266.56 274.03 264.81 276.18 264.30 L 275.50 253.79 Z" fill="#f4ad99" fill-rule="evenodd" group-id="1,2" id="Fill-163" node-id="172" stroke="none" target-height="17.504364" target-width="38.952393" target-x="237.22314" target-y="253.79163"></path><path d="M 253.91 256.71 C 255.53 259.24 254.09 268.73 254.09 268.73 L 233.66 259.33 L 237.27 255.45 C 237.27 255.45 242.15 256.44 246.40 256.71 C 250.65 256.98 253.91 256.71 253.91 256.71" fill="#d9a53c" fill-rule="evenodd" group-id="1,2" id="Fill-164" node-id="173" stroke="none" target-height="13.287903" target-width="21.87497" target-x="233.65778" target-y="255.44507"></path><path d="M 236.98 233.74 C 235.76 233.61 234.87 232.51 235.00 231.29 C 235.13 230.07 236.22 229.18 237.45 229.31 L 236.98 233.74 Z" fill="#f4b6a5" fill-rule="evenodd" group-id="1,2" id="Fill-166" node-id="174" stroke="none" target-height="4.556488" target-width="2.5753326" target-x="234.87038" target-y="229.17862"></path><path d="M 248.71 230.72 L 250.93 234.40 C 251.19 234.84 250.91 235.40 250.40 235.44 L 248.09 235.63 L 248.71 230.72 Z" fill="#ed6d53" fill-rule="evenodd" group-id="1,2" id="Fill-168" node-id="175" stroke="none" target-height="4.912689" target-width="3.1027985" target-x="248.08975" target-y="230.71909"></path><path d="M 237.61 228.36 L 237.20 231.65 L 238.36 231.84 C 238.37 231.02 238.80 229.04 238.95 228.40 L 237.61 228.36 Z" fill="#333333" fill-rule="evenodd" group-id="1,2" id="Fill-169" node-id="176" stroke="none" target-height="3.482788" target-width="1.7462769" target-x="237.20438" target-y="228.35522"></path><path d="M 251.03 216.04 C 247.31 214.17 238.96 216.09 235.77 216.97 C 232.97 217.74 231.73 218.41 230.49 220.00 C 230.03 220.80 229.06 223.66 229.46 226.48 C 230.12 231.22 236.74 229.71 238.43 229.17 C 240.68 228.45 241.90 225.98 243.01 222.83 C 243.01 222.83 244.97 222.23 248.54 224.74 C 250.11 223.67 255.38 218.23 251.03 216.04 Z" fill="#333333" fill-rule="evenodd" group-id="1,2" id="Fill-170" node-id="177" stroke="none" target-height="17.055756" target-width="26.319992" target-x="229.06067" target-y="214.1661"></path><path d="M 244.12 228.76 C 244.44 228.85 244.76 228.90 245.08 228.96 L 246.02 229.12 C 246.33 229.17 246.63 229.23 246.94 229.29 C 247.09 229.32 247.24 229.35 247.39 229.39 L 247.87 229.51 C 247.88 229.51 247.90 229.51 247.91 229.52 C 247.92 229.52 247.90 229.52 247.97 229.52 C 248.03 229.51 248.08 229.46 248.10 229.43 C 248.15 229.34 248.12 229.23 248.04 229.18 C 247.95 229.13 247.84 229.16 247.79 229.25 C 247.81 229.21 247.86 229.17 247.92 229.16 C 247.98 229.16 247.97 229.16 247.97 229.16 C 247.98 229.16 247.99 229.16 248.00 229.17 C 248.00 229.17 248.00 229.16 248.00 229.16 C 248.00 229.16 247.99 229.15 247.98 229.14 L 247.93 229.10 L 247.83 229.02 C 247.76 228.97 247.69 228.92 247.61 228.87 C 247.46 228.78 247.31 228.70 247.14 228.63 C 246.82 228.50 246.49 228.41 246.15 228.35 C 245.81 228.30 245.47 228.27 245.13 228.27 C 244.79 228.28 244.45 228.32 244.12 228.40 C 244.02 228.43 243.96 228.53 243.99 228.63 C 244.00 228.69 244.06 228.74 244.12 228.76" fill="#283b42" fill-rule="evenodd" group-id="1,2" id="Fill-171" node-id="178" stroke="none" target-height="1.2570496" target-width="4.1912994" target-x="243.96074" target-y="228.26556"></path><path d="M 248.36 237.36 C 248.53 237.38 248.70 237.38 248.86 237.38 C 248.90 237.72 248.94 238.10 248.97 238.50 C 248.74 238.54 248.49 238.55 248.23 238.52 C 247.26 238.42 246.53 237.88 246.59 237.32 C 246.64 236.76 247.40 237.26 248.36 237.36" fill="#ffffff" fill-rule="evenodd" group-id="1,2" id="Fill-173" node-id="179" stroke="none" target-height="1.7891846" target-width="2.4469757" target-x="246.52663" target-y="236.7575"></path><path d="M 193.80 309.95 C 199.67 312.93 209.07 315.19 215.22 314.56 C 221.36 313.93 230.49 314.02 230.49 314.02 L 229.86 311.58 L 194.25 307.24 L 193.80 309.95 Z" fill="#d9a53c" fill-rule="evenodd" group-id="1,2" id="Fill-174" node-id="180" stroke="none" target-height="7.9546814" target-width="36.6989" target-x="193.79509" target-y="307.23953"></path><path d="M 317.19 255.62 C 316.78 255.28 316.30 255.74 315.90 256.33 C 316.17 255.66 316.31 254.97 315.93 254.65 C 315.51 254.30 314.78 255.00 314.17 255.78 C 314.67 254.91 315.06 253.92 314.56 253.51 C 314.03 253.06 313.09 254.11 312.35 255.15 C 312.78 254.32 313.09 253.44 312.67 253.09 C 312.22 252.72 310.88 254.19 309.68 255.71 C 309.74 255.62 309.80 255.54 309.85 255.47 C 310.46 254.65 309.29 253.76 307.76 255.80 C 306.23 257.83 302.31 262.88 288.80 265.66 C 276.51 268.18 263.02 265.38 254.18 263.40 C 252.67 266.86 251.05 273.79 249.66 277.30 C 257.18 279.14 266.74 279.86 275.91 278.66 C 292.37 276.50 301.48 275.07 311.55 265.13 C 316.82 259.94 318.07 256.35 317.19 255.62" fill="#ffd1c4" fill-rule="evenodd" group-id="1,2" id="Fill-175" node-id="181" stroke="none" target-height="27.146973" target-width="68.4117" target-x="249.66179" target-y="252.71704"></path><path d="M 221.50 251.40 C 210.97 254.72 203.92 270.13 198.72 286.45 C 194.85 298.61 194.11 307.87 194.11 307.87 C 194.11 307.87 198.45 311.53 211.20 312.75 C 223.94 313.97 230.18 312.48 230.18 312.48 C 230.18 312.48 234.52 294.58 239.26 288.21 C 244.01 281.84 245.32 279.08 245.32 279.08 C 245.32 279.08 253.36 281.16 258.15 281.07 C 258.15 281.07 261.50 276.33 262.31 272.76 C 263.22 268.78 262.58 264.89 262.58 264.89 C 262.58 264.89 253.54 262.41 249.21 260.37 C 244.87 258.34 241.05 256.12 235.01 254.13 C 227.33 251.60 224.23 249.77 224.23 249.77" fill="#fcc14a" fill-rule="evenodd" group-id="1,2" id="Fill-177" node-id="182" stroke="none" target-height="64.20761" target-width="69.1046" target-x="194.1114" target-y="249.76633"></path><path d="M 177.33 432.34 L 198.33 432.34 L 198.33 431.26 L 177.33 431.26 Z" fill="#283b42" fill-rule="evenodd" group-id="1,2" id="Fill-178" node-id="183" stroke="none" target-height="1.0845947" target-width="20.994797" target-x="177.33139" target-y="431.2573"></path><path d="M 227.25 432.34 L 249.64 432.34 L 249.64 431.26 L 227.25 431.26 Z" fill="#283b42" fill-rule="evenodd" group-id="1,2" id="Fill-179" node-id="184" stroke="none" target-height="1.0845947" target-width="22.390747" target-x="227.246" target-y="431.2573"></path><path d="M 185.09 431.62 C 185.00 431.62 184.91 431.57 184.86 431.48 C 184.78 431.35 184.83 431.18 184.96 431.11 C 186.93 430.02 192.15 428.33 195.06 428.33 C 195.21 428.33 195.34 428.45 195.34 428.60 C 195.34 428.75 195.21 428.87 195.07 428.87 L 195.06 428.87 C 192.32 428.87 187.15 430.51 185.23 431.58 C 185.18 431.61 185.14 431.62 185.09 431.62" fill="#0d232b" fill-rule="evenodd" group-id="1,2" id="Fill-180" node-id="185" stroke="none" target-height="3.2873535" target-width="10.551437" target-x="184.78482" target-y="428.33157"></path><path d="M 238.00 431.53 C 237.96 431.53 237.92 431.52 237.88 431.50 C 237.74 431.44 237.69 431.27 237.75 431.14 C 238.21 430.20 239.76 429.58 240.98 429.23 C 243.18 428.59 246.28 428.27 247.12 428.79 C 247.25 428.87 247.29 429.03 247.21 429.16 C 247.13 429.29 246.96 429.33 246.84 429.25 C 246.28 428.90 243.48 429.07 241.13 429.75 C 239.58 430.20 238.53 430.79 238.24 431.38 C 238.19 431.47 238.10 431.53 238.00 431.53" fill="#0d232b" fill-rule="evenodd" group-id="1,2" id="Fill-181" node-id="186" stroke="none" target-height="3.2615967" target-width="9.600647" target-x="237.68703" target-y="428.26685"></path><path d="M 234.96 296.91 C 236.27 293.47 237.74 290.25 239.26 288.21 C 244.01 281.84 245.32 279.08 245.32 279.08 C 238.99 277.50 237.45 277.09 237.45 277.09 C 237.45 277.09 233.55 289.19 234.96 296.91" fill="#d9a53c" fill-rule="evenodd" group-id="1,2" id="Fill-182" node-id="187" stroke="none" target-height="19.818115" target-width="11.76442" target-x="233.55418" target-y="277.09415"></path><path d="M 72.99 314.71 L 65.19 314.71 C 61.64 314.71 58.73 311.81 58.73 308.26 L 58.73 305.30 C 58.73 301.75 61.64 298.85 65.19 298.85 L 72.99 298.85 C 76.53 298.85 79.44 301.75 79.44 305.30 L 79.44 308.26 C 79.44 311.81 76.53 314.71 72.99 314.71" fill="#fcc14a" fill-rule="evenodd" group-id="1,2" id="Fill-184" node-id="188" stroke="none" target-height="15.866364" target-width="20.707264" target-x="58.731915" target-y="298.8453"></path><path d="M 66.56 425.51 L 67.35 432.41 L 69.04 432.41 L 69.04 427.23 C 69.04 427.23 71.51 428.95 72.92 430.43 C 74.28 431.86 76.75 432.95 79.98 432.14 L 79.77 431.45 L 69.69 425.35 L 66.56 425.51 Z" fill="#0d232b" fill-rule="evenodd" group-id="1,2" id="Fill-185" node-id="189" stroke="none" target-height="7.5969543" target-width="13.412361" target-x="66.56444" target-y="425.35123"></path><path d="M 96.79 425.51 L 97.87 432.34 L 99.55 432.34 L 99.64 427.26 C 99.64 427.26 102.10 428.97 103.51 430.45 C 104.87 431.88 107.34 432.97 110.57 432.16 L 110.36 431.47 L 100.28 425.37 L 96.79 425.51 Z" fill="#0d232b" fill-rule="evenodd" group-id="1,2" id="Fill-186" node-id="190" stroke="none" target-height="7.5972595" target-width="13.775192" target-x="96.7918" target-y="425.37332"></path><path d="M 79.78 431.73 C 79.53 431.82 78.61 432.01 77.76 431.89 C 76.54 431.73 74.67 431.66 71.84 428.70 C 69.71 426.47 67.81 426.15 66.56 425.47 C 67.65 416.94 67.16 390.57 67.41 377.61 C 67.72 361.70 66.77 342.26 68.68 327.45 L 82.87 328.40 C 82.87 328.40 81.85 334.98 81.42 346.26 C 81.00 357.54 81.01 365.00 79.39 385.62 C 78.06 402.72 75.99 422.58 76.16 424.26 C 76.55 428.23 79.76 430.67 79.78 431.73" fill="#ffd1c4" fill-rule="evenodd" group-id="1,2" id="Fill-187" node-id="191" stroke="none" target-height="104.5632" target-width="16.308784" target-x="66.56456" target-y="327.44836"></path><path d="M 68.74 328.22 C 68.31 331.56 68.02 335.14 67.84 338.86 C 72.12 337.64 74.98 337.83 78.13 338.35 C 79.61 338.60 80.88 339.09 81.88 339.59 C 82.35 332.92 82.93 329.17 82.93 329.17 L 68.74 328.22 Z" fill="#f4b6a5" fill-rule="evenodd" group-id="1,2" id="Fill-188" node-id="192" stroke="none" target-height="11.370361" target-width="15.096603" target-x="67.83667" target-y="328.2226"></path><path d="M 110.36 431.47 C 110.13 431.61 109.63 431.84 108.77 431.90 C 107.54 431.97 105.36 431.60 103.01 429.29 C 100.71 427.02 99.11 426.16 96.79 425.51 C 96.17 416.92 93.19 396.06 91.82 374.38 C 90.76 357.51 90.55 344.41 90.33 329.21 L 105.19 327.53 C 105.19 327.53 104.59 339.86 104.27 352.20 C 103.95 364.71 104.01 367.55 104.13 385.23 C 104.26 402.39 105.19 422.85 105.69 424.46 C 106.85 428.27 110.14 430.44 110.36 431.47" fill="#ffd1c4" fill-rule="evenodd" group-id="1,2" id="Fill-189" node-id="193" stroke="none" target-height="104.4426" target-width="20.02842" target-x="90.32848" target-y="327.53198"></path><path d="M 97.25 337.63 C 99.96 337.33 102.73 338.08 104.75 338.86 C 105.01 332.08 105.25 327.11 105.25 327.11 L 90.39 328.79 C 90.44 332.49 90.49 336.06 90.56 339.59 C 91.95 338.88 94.25 337.96 97.25 337.63 Z" fill="#f4b6a5" fill-rule="evenodd" group-id="1,2" id="Fill-190" node-id="194" stroke="none" target-height="12.485779" target-width="14.85862" target-x="90.38728" target-y="327.10718"></path><path d="M 96.45 225.01 L 98.52 227.22 C 98.77 227.48 98.65 227.91 98.31 228.01 L 96.75 228.49 L 96.45 225.01 Z" fill="#ed6d53" fill-rule="evenodd" group-id="1,2" id="Fill-191" node-id="195" stroke="none" target-height="3.473053" target-width="2.3131638" target-x="96.454636" target-y="225.01324"></path><path d="M 96.88 225.92 C 97.63 231.53 96.65 236.66 92.21 236.79 C 89.99 236.86 86.81 231.33 85.78 225.77 C 84.75 220.21 82.34 217.54 88.06 216.76 C 96.28 215.64 96.13 220.31 96.88 225.92" fill="#ffd1c4" fill-rule="evenodd" group-id="1,2" id="Fill-192" node-id="196" stroke="none" target-height="21.216003" target-width="15.292076" target-x="82.34216" target-y="215.6427"></path><path d="M 96.96 227.79 C 97.09 228.75 96.41 229.64 95.45 229.77 C 94.48 229.90 93.60 229.22 93.47 228.26 C 93.34 227.30 94.02 226.41 94.98 226.28 C 95.94 226.15 96.83 226.83 96.96 227.79" fill="#ed6d53" fill-rule="evenodd" group-id="1,2" id="Fill-193" node-id="197" stroke="none" target-height="3.7442322" target-width="3.7442093" target-x="93.34094" target-y="226.15308"></path><path d="M 68.70 291.87 C 69.57 289.43 71.30 274.48 74.66 268.08 C 75.21 267.03 76.32 265.16 76.88 264.15 C 77.18 260.35 79.12 250.64 72.84 254.08 C 66.91 257.33 61.75 271.54 60.72 286.66 C 60.44 290.72 59.47 293.29 62.37 295.16 C 65.41 297.13 68.01 293.83 68.70 291.87" fill="#ffd1c4" fill-rule="evenodd" group-id="1,2" id="Fill-194" node-id="198" stroke="none" target-height="46.482513" target-width="19.655834" target-x="59.469013" target-y="250.64438"></path><path d="M 92.03 261.91 C 96.07 261.83 99.76 262.24 101.95 262.56 C 102.30 260.51 102.05 258.54 101.93 256.45 C 101.86 255.28 100.66 253.86 99.74 252.53 C 98.76 251.13 97.35 250.07 95.70 249.66 C 94.76 249.42 94.22 249.12 93.88 247.75 C 93.24 245.06 90.80 227.72 90.80 227.72 L 81.52 229.80 C 81.52 229.80 81.79 245.00 81.42 247.35 C 81.08 249.49 77.59 250.64 73.33 252.56 C 75.75 255.78 76.51 260.50 76.12 264.52 C 80.81 261.01 86.90 262.01 92.03 261.91" fill="#ffd1c4" fill-rule="evenodd" group-id="1,2" id="Fill-196" node-id="199" stroke="none" target-height="36.807343" target-width="28.97519" target-x="73.32887" target-y="227.7153"></path><g node-id="239"><g node-id="243"><path d="M 94.09 248.39 C 94.01 248.21 93.94 248.00 93.88 247.75 C 93.24 245.06 90.80 227.72 90.80 227.72 L 81.52 229.80 C 81.52 229.80 81.79 245.00 81.42 247.35 C 81.36 247.72 81.20 248.07 80.96 248.39 L 94.09 248.39 Z" fill="#ffd1c4" fill-rule="evenodd" group-id="1,2,5,9" id="Fill-197" node-id="204" stroke="none" target-height="20.679962" target-width="13.1330185" target-x="80.957306" target-y="227.71503"></path></g></g><path d="M 95.88 249.66 C 97.38 250.75 100.56 260.30 100.56 260.30 L 104.59 260.93 C 104.59 260.93 101.95 254.25 100.02 252.19 C 98.10 250.13 95.88 249.66 95.88 249.66" fill="#0d232b" fill-rule="evenodd" group-id="1,2" id="Fill-199" node-id="205" stroke="none" target-height="11.272797" target-width="8.716972" target-x="95.87703" target-y="249.6554"></path><path d="M 108.44 308.71 C 106.03 292.23 102.46 284.43 101.71 279.30 L 100.80 273.88 C 100.80 273.88 104.58 272.96 106.04 268.76 C 107.52 264.50 104.01 260.18 104.01 260.18 C 104.01 260.18 101.54 259.69 91.79 259.94 C 82.03 260.18 74.63 261.91 74.63 261.91 L 72.41 268.70 L 73.12 278.23 C 72.44 282.18 68.94 287.55 65.05 298.85 C 61.16 310.14 60.19 333.93 60.19 333.93 C 60.19 333.93 68.70 335.85 86.97 335.35 C 104.94 334.87 111.66 333.13 111.66 333.13 C 111.66 333.13 110.85 325.18 108.44 308.71" fill="#0d232b" fill-rule="evenodd" group-id="1,2" id="Fill-200" node-id="206" stroke="none" target-height="76.15683" target-width="51.470493" target-x="60.187183" target-y="259.68887"></path><path d="M 93.94 253.67 C 93.57 260.84 103.54 273.41 116.64 282.77 C 129.73 292.12 142.48 267.56 146.21 261.45 C 149.95 255.33 149.47 252.21 149.03 253.04 C 149.35 252.16 148.04 251.41 147.53 252.22 C 147.93 251.33 146.35 250.67 145.74 251.73 C 146.09 250.88 147.16 249.14 146.27 248.78 C 145.37 248.42 142.52 253.87 141.78 255.28 C 142.12 254.62 142.76 253.34 143.01 252.67 C 143.19 252.17 142.80 251.65 142.50 251.55 C 142.20 251.45 141.99 251.76 141.35 252.81 C 140.06 254.92 134.97 266.44 124.08 275.58 C 121.39 275.85 111.24 265.90 105.52 255.55 C 103.05 251.07 94.33 246.07 93.94 253.67" fill="#ffd1c4" fill-rule="evenodd" group-id="1,2" id="Fill-201" node-id="207" stroke="none" target-height="46.052216" target-width="56.37577" target-x="93.57058" target-y="246.06995"></path><path d="M 91.21 231.21 C 89.01 231.51 86.99 229.96 86.70 227.77 C 86.41 225.57 87.95 223.55 90.15 223.25 L 91.21 231.21 Z" fill="#fec5b4" fill-rule="evenodd" group-id="1,2" id="Fill-203" node-id="208" stroke="none" target-height="8.251556" target-width="4.8042297" target-x="86.406685" target-y="223.25415"></path><path d="M 90.96 229.33 C 89.80 229.48 88.74 228.67 88.58 227.51 C 88.43 226.36 89.24 225.29 90.40 225.14 L 90.96 229.33 Z" fill="#f4b6a5" fill-rule="evenodd" group-id="1,2" id="Fill-204" node-id="209" stroke="none" target-height="4.3485413" target-width="2.5316467" target-x="88.42782" target-y="225.13632"></path><path d="M 96.20 214.31 C 95.55 212.64 92.99 211.32 90.09 211.65 C 88.74 210.56 86.91 210.01 84.53 210.35 C 79.25 211.11 80.07 214.18 75.11 216.22 C 70.16 218.25 68.80 217.11 64.02 217.62 C 59.23 218.14 56.33 219.77 53.30 223.16 C 50.27 226.56 49.58 228.89 45.21 229.72 C 40.84 230.56 39.01 229.93 34.71 233.12 C 30.40 236.31 30.35 237.81 27.96 240.37 C 25.56 242.94 25.59 247.82 30.03 250.31 C 31.65 251.21 35.09 250.88 38.07 248.98 C 41.06 247.09 43.58 246.38 46.94 247.30 C 50.30 248.22 54.20 247.58 56.55 245.64 C 58.91 243.71 61.68 242.09 67.25 242.72 C 72.81 243.34 74.72 242.72 78.12 239.27 C 81.52 235.83 82.87 234.78 82.87 234.78 C 82.87 234.78 92.88 224.85 93.08 219.84 C 93.10 219.45 93.09 219.05 93.08 218.65 C 93.41 218.60 93.74 218.60 94.05 218.68 C 96.30 219.30 96.95 216.22 96.20 214.31" fill="#5b1902" fill-rule="evenodd" group-id="1,2" id="Fill-205" node-id="210" stroke="none" target-height="41.206573" target-width="71.38655" target-x="25.559475" target-y="210.00586"></path><path d="M 81.01 229.26 C 76.26 229.26 70.75 226.56 67.94 229.27 C 65.13 231.98 62.33 234.78 59.59 235.24 C 56.85 235.70 52.71 234.11 49.26 236.25 C 45.81 238.39 44.88 241.88 41.30 243.10 C 37.73 244.33 36.02 243.44 33.26 246.51 C 32.16 247.74 31.61 249.30 31.34 250.72 C 33.14 250.99 35.75 250.46 38.07 248.98 C 41.06 247.09 43.58 246.38 46.94 247.30 C 50.30 248.22 54.20 247.58 56.55 245.64 C 58.91 243.71 61.68 242.09 67.25 242.72 C 72.81 243.34 74.72 242.72 78.12 239.27 C 81.52 235.83 82.87 234.78 82.87 234.78 C 82.87 234.78 87.14 230.54 90.15 226.21 C 90.15 226.21 85.76 229.26 81.01 229.26" fill="#380e00" fill-rule="evenodd" group-id="1,2" id="Fill-206" node-id="211" stroke="none" target-height="24.777649" target-width="58.816116" target-x="31.338165" target-y="226.21164"></path><path d="M 96.07 224.85 C 96.07 225.07 95.89 225.25 95.66 225.25 C 95.44 225.25 95.26 225.07 95.26 224.85 C 95.26 224.62 95.44 224.44 95.66 224.44 C 95.89 224.44 96.07 224.62 96.07 224.85" fill="#0d232b" fill-rule="evenodd" group-id="1,2" id="Fill-207" node-id="212" stroke="none" target-height="0.8067932" target-width="0.8068161" target-x="95.26072" target-y="224.44318"></path><path d="M 79.30 249.70 C 79.30 249.70 91.41 248.29 94.81 249.09 C 98.22 249.90 100.64 249.54 104.22 253.40 C 104.22 253.40 104.14 259.13 97.05 262.90 C 89.97 266.66 72.65 269.13 72.65 269.13 C 72.65 269.13 68.21 261.67 69.00 256.53 C 69.00 256.53 72.11 251.99 79.30 249.70" fill="#0d232b" fill-rule="evenodd" group-id="1,2" id="Fill-208" node-id="213" stroke="none" target-height="20.841461" target-width="36.013382" target-x="68.21132" target-y="248.28763"></path><path d="M 100.48 427.42 C 100.48 427.42 100.47 427.42 100.47 427.42 C 100.32 427.42 100.21 427.29 100.21 427.14 C 100.26 426.12 99.86 425.11 99.12 424.36 C 98.43 423.68 97.53 423.31 96.63 423.36 C 96.48 423.36 96.35 423.25 96.35 423.10 C 96.34 422.95 96.46 422.83 96.60 422.82 C 97.65 422.77 98.70 423.19 99.50 423.98 C 100.35 424.83 100.80 425.99 100.75 427.17 C 100.74 427.31 100.63 427.42 100.48 427.42" fill="#0d232b" fill-rule="evenodd" group-id="1,2" id="Fill-209" node-id="214" stroke="none" target-height="4.657135" target-width="4.4632416" target-x="96.3408" target-y="422.767"></path><path d="M 106.26 431.83 C 106.19 431.83 106.12 431.80 106.07 431.75 C 105.97 431.64 105.97 431.47 106.08 431.37 C 106.63 430.83 107.97 429.26 107.57 428.41 C 107.50 428.28 107.56 428.12 107.70 428.06 C 107.83 427.99 107.99 428.05 108.05 428.18 C 108.69 429.53 106.68 431.53 106.45 431.75 C 106.40 431.80 106.33 431.83 106.26 431.83" fill="#0d232b" fill-rule="evenodd" group-id="1,2" id="Fill-210" node-id="215" stroke="none" target-height="3.8354797" target-width="2.72126" target-x="105.9677" target-y="427.99222"></path><path d="M 70.36 427.69 C 70.35 427.69 70.33 427.69 70.32 427.69 C 70.17 427.66 70.07 427.52 70.10 427.38 C 70.28 426.32 70.06 425.36 69.45 424.61 C 68.83 423.84 67.87 423.37 66.82 423.32 C 66.67 423.32 66.56 423.19 66.56 423.04 C 66.57 422.89 66.70 422.78 66.85 422.79 C 68.05 422.84 69.16 423.39 69.87 424.28 C 70.57 425.15 70.84 426.25 70.63 427.47 C 70.61 427.60 70.49 427.69 70.36 427.69" fill="#0d232b" fill-rule="evenodd" group-id="1,2" id="Fill-211" node-id="216" stroke="none" target-height="4.915436" target-width="4.2783127" target-x="66.55753" target-y="422.77768"></path><path d="M 75.67 431.81 C 75.58 431.81 75.48 431.75 75.43 431.66 C 75.37 431.52 75.42 431.36 75.56 431.30 C 75.58 431.28 78.04 430.05 77.63 428.61 C 77.59 428.46 77.68 428.31 77.82 428.27 C 77.96 428.23 78.11 428.32 78.15 428.46 C 78.68 430.34 75.91 431.72 75.79 431.78 C 75.75 431.80 75.71 431.81 75.67 431.81" fill="#0d232b" fill-rule="evenodd" group-id="1,2" id="Fill-212" node-id="217" stroke="none" target-height="3.5710144" target-width="3.3088226" target-x="75.36748" target-y="428.23447"></path><path d="M 62.72 301.89 C 62.69 301.89 62.67 301.89 62.64 301.89 C 62.34 301.84 62.14 301.57 62.19 301.27 C 64.14 288.85 91.11 251.56 97.11 249.05 C 97.39 248.93 97.70 249.06 97.82 249.33 C 97.93 249.61 97.80 249.92 97.53 250.04 C 94.95 251.12 87.04 260.53 79.12 271.92 C 70.03 285.00 64.10 296.03 63.25 301.44 C 63.21 301.70 62.98 301.89 62.72 301.89" fill="#fcc14a" fill-rule="evenodd" group-id="1,2" id="Fill-215" node-id="218" stroke="none" target-height="52.961243" target-width="35.789444" target-x="62.143875" target-y="248.93185"></path><path d="M 24.78 436.50 L 252.49 436.50 C 253.63 436.50 254.56 435.58 254.56 434.44 C 254.56 433.29 253.63 432.37 252.49 432.37 L 24.78 432.37 C 23.64 432.37 22.72 433.29 22.72 434.43 C 22.72 435.57 23.64 436.50 24.78 436.50" fill="#aabac1" fill-rule="evenodd" group-id="1,2" id="Fill-216" node-id="219" stroke="none" target-height="4.1355286" target-width="231.84293" target-x="22.71552" target-y="432.36612"></path></g></g></svg>