<?xml version="1.0" standalone="no"?><!DOCTYPE svg PUBLIC "-//W3C//DTD SVG 1.1//EN" "http://www.w3.org/Graphics/SVG/1.1/DTD/svg11.dtd"><svg height="500" node-id="1" sillyvg="true" template-height="500" template-width="500" version="1.1" viewBox="0 0 500 500" width="500" xmlns="http://www.w3.org/2000/svg" xmlns:xlink="http://www.w3.org/1999/xlink"><defs node-id="88"><linearGradient gradientUnits="objectBoundingBox" id="linearGradient-4" node-id="13" spreadMethod="pad" x1="0.083255455" x2="0.7624612" y1="0.31024602" y2="0.75852036"><stop offset="0" stop-color="#ffe567"></stop><stop offset="1" stop-color="#ffd727"></stop></linearGradient><linearGradient gradientUnits="objectBoundingBox" id="linearGradient-7" node-id="29" spreadMethod="pad" x1="1" x2="0.5" y1="0.26293784" y2="0.40675613"><stop offset="0" stop-color="#9d9d09"></stop><stop offset="1" stop-color="#ffd827"></stop></linearGradient><linearGradient gradientUnits="objectBoundingBox" id="linearGradient-10" node-id="38" spreadMethod="pad" x1="0.55767465" x2="0.45730168" y1="0.09393857" y2="0.77718854"><stop offset="0" stop-color="#9d9d09"></stop><stop offset="1" stop-color="#ffe565"></stop></linearGradient><linearGradient gradientUnits="objectBoundingBox" id="linearGradient-13" node-id="45" spreadMethod="pad" x1="0.74944323" x2="0.17990124" y1="0.28453103" y2="0.8283523"><stop offset="0" stop-color="#ffd432"></stop><stop offset="1" stop-color="#fff6af"></stop></linearGradient><linearGradient gradientUnits="objectBoundingBox" id="linearGradient-15" node-id="50" spreadMethod="pad" x1="-0.07846859" x2="1.1412283" y1="0.10153749" y2="0.9284139"><stop offset="0" stop-color="#fbdf60"></stop><stop offset="0.5037595" stop-color="#ffde52"></stop><stop offset="1" stop-color="#f4cf21"></stop></linearGradient><linearGradient gradientUnits="objectBoundingBox" id="linearGradient-19" node-id="60" spreadMethod="pad" x1="0.48773524" x2="0.34002206" y1="0.4340935" y2="0.8760122"><stop offset="0" stop-color="#ffd432"></stop><stop offset="1" stop-color="#ffffff"></stop></linearGradient><filter filterUnits="objectBoundingBox" height="426" id="filter-1" node-id="5" width="450.97504" x="-8.075012" y="88"><feGaussianBlur color-interpolation-filters="linearRGB" in="SourceGraphic" result="result1" stdDeviation="46 46"></feGaussianBlur></filter><filter filterUnits="objectBoundingBox" height="16.508484" id="filter-3" node-id="8" width="24.986847" x="213.03125" y="115.48108"><feGaussianBlur color-interpolation-filters="linearRGB" in="SourceAlpha" result="shadowBlurInner1" stdDeviation="1.5 1.5"></feGaussianBlur><feOffset color-interpolation-filters="linearRGB" dx="0" dy="-1" in="shadowBlurInner1" result="shadowOffsetInner1"></feOffset><feComposite color-interpolation-filters="linearRGB" in="shadowOffsetInner1" in2="SourceAlpha" k1="0" k2="-1" k3="1" k4="0" operator="arithmetic" result="shadowInnerInner1"></feComposite><feColorMatrix color-interpolation-filters="linearRGB" in="shadowInnerInner1" result="result4" type="matrix" values="0 0 0 0 0.41346806 0 0 0 0 0.32882106 0 0 0 0 0 0 0 0 0.79695696 0"></feColorMatrix></filter><filter filterUnits="objectBoundingBox" height="194.94" id="filter-6" node-id="17" width="241.97699" x="152.71033" y="172.62924"><feGaussianBlur color-interpolation-filters="linearRGB" in="SourceAlpha" result="shadowBlurInner1" stdDeviation="1.5 1.5"></feGaussianBlur><feOffset color-interpolation-filters="linearRGB" dx="1" dy="-2" in="shadowBlurInner1" result="shadowOffsetInner1"></feOffset><feComposite color-interpolation-filters="linearRGB" in="shadowOffsetInner1" in2="SourceAlpha" k1="0" k2="-1" k3="1" k4="0" operator="arithmetic" result="shadowInnerInner1"></feComposite><feColorMatrix color-interpolation-filters="linearRGB" in="shadowInnerInner1" result="shadowMatrixInner1" type="matrix" values="0 0 0 0 1 0 0 0 0 0.70658875 0 0 0 0 0.18971036 0 0 0 0.5519832 0"></feColorMatrix><feGaussianBlur color-interpolation-filters="linearRGB" in="SourceAlpha" result="shadowBlurInner2" stdDeviation="1 1"></feGaussianBlur><feOffset color-interpolation-filters="linearRGB" dx="-1" dy="1" in="shadowBlurInner2" result="shadowOffsetInner2"></feOffset><feComposite color-interpolation-filters="linearRGB" in="shadowOffsetInner2" in2="SourceAlpha" k1="0" k2="-1" k3="1" k4="0" operator="arithmetic" result="shadowInnerInner2"></feComposite><feColorMatrix color-interpolation-filters="linearRGB" in="shadowInnerInner2" result="shadowMatrixInner2" type="matrix" values="0 0 0 0 1 0 0 0 0 0.9698884 0 0 0 0 0.5052401 0 0 0 0.5 0"></feColorMatrix><feMerge color-interpolation-filters="linearRGB" result="result9"><feMergeNode in="shadowMatrixInner1"></feMergeNode><feMergeNode in="shadowMatrixInner2"></feMergeNode></feMerge></filter><filter filterUnits="objectBoundingBox" height="20.992004" id="filter-9" node-id="33" width="15" x="382.30215" y="315.11697"><feGaussianBlur color-interpolation-filters="linearRGB" in="SourceAlpha" result="shadowBlurInner1" stdDeviation="1.5 1.5"></feGaussianBlur><feOffset color-interpolation-filters="linearRGB" dx="1" dy="-2" in="shadowBlurInner1" result="shadowOffsetInner1"></feOffset><feComposite color-interpolation-filters="linearRGB" in="shadowOffsetInner1" in2="SourceAlpha" k1="0" k2="-1" k3="1" k4="0" operator="arithmetic" result="shadowInnerInner1"></feComposite><feColorMatrix color-interpolation-filters="linearRGB" in="shadowInnerInner1" result="result4" type="matrix" values="0 0 0 0 0.24235734 0 0 0 0 0.18026578 0 0 0 0 0 0 0 0 0.4398219 0"></feColorMatrix></filter><filter filterUnits="objectBoundingBox" height="166.48572" id="filter-11" node-id="41" width="185.51582" x="192.01964" y="169.15015"><feGaussianBlur color-interpolation-filters="linearRGB" in="SourceGraphic" result="result1" stdDeviation="7 7"></feGaussianBlur></filter><filter filterUnits="objectBoundingBox" height="198.29526" id="filter-12" node-id="43" width="245.18698" x="138.22409" y="194.0122"><feGaussianBlur color-interpolation-filters="linearRGB" in="SourceGraphic" result="result1" stdDeviation="9 9"></feGaussianBlur></filter><filter filterUnits="objectBoundingBox" height="212.07999" id="filter-14" node-id="48" width="247.081" x="164.065" y="156.048"><feGaussianBlur color-interpolation-filters="linearRGB" in="SourceGraphic" result="result1" stdDeviation="6 6"></feGaussianBlur></filter><filter filterUnits="objectBoundingBox" height="27.006012" id="filter-16" node-id="54" width="29.45282" x="343.99844" y="319.997"><feGaussianBlur color-interpolation-filters="linearRGB" in="SourceGraphic" result="result1" stdDeviation="1 1"></feGaussianBlur></filter><filter filterUnits="objectBoundingBox" height="43" id="filter-17" node-id="56" width="36.992996" x="183.994" y="169"><feGaussianBlur color-interpolation-filters="linearRGB" in="SourceGraphic" result="result1" stdDeviation="3 3"></feGaussianBlur></filter><filter filterUnits="objectBoundingBox" height="180.28749" id="filter-18" node-id="58" width="179.37994" x="177.66574" y="176.42564"><feGaussianBlur color-interpolation-filters="linearRGB" in="SourceGraphic" result="result1" stdDeviation="6 6"></feGaussianBlur></filter></defs><path d="M 0.00 0.00 L 500.00 0.00 L 500.00 500.00 L 0.00 500.00 Z" fill="#ffffff" fill-rule="evenodd" node-id="203" stroke="none" target-height="500" target-width="500" target-x="0" target-y="0"></path><g node-id="247"><path d="M 299.19 332.36 C 284.34 371.03 235.74 388.34 190.62 371.02 C 145.51 353.70 120.97 308.31 135.81 269.64 C 150.66 230.97 199.26 213.66 244.38 230.98 C 289.49 248.30 314.03 293.69 299.19 332.36 Z" fill="#fafa92" fill-rule="evenodd" filter="url(#filter-1)" group-id="1" id="椭圆形备份-3" node-id="65" stroke="none" target-height="174.67328" target-width="193.06476" target-x="120.96762" target-y="213.66336"></path></g><g node-id="248"><g node-id="261"><path d="M 236.36 123.37 C 233.35 123.21 230.95 122.66 229.18 121.71 C 227.42 120.76 223.68 118.72 217.99 115.58 C 216.81 116.77 216.08 117.97 215.80 119.18 C 216.92 120.16 221.47 124.12 229.46 131.06 L 236.36 123.37 Z" fill="#9b811c" fill-rule="evenodd" group-id="2,15" node-id="212" stroke="none" target-height="15.482361" target-width="20.564438" target-x="215.80002" target-y="115.58087"></path></g><path d="M 236.36 123.37 C 233.35 123.21 230.95 122.66 229.18 121.71 C 227.42 120.76 223.68 118.72 217.99 115.58 C 216.81 116.77 216.08 117.97 215.80 119.18 C 216.92 120.16 221.47 124.12 229.46 131.06 L 236.36 123.37 Z" fill="#000000" fill-rule="evenodd" filter="url(#filter-3)" group-id="2,16" node-id="217" stroke="none" target-height="15.482361" target-width="20.564438" target-x="215.80002" target-y="115.58087"></path></g><g node-id="249"><g node-id="263"><path d="M 221.34 170.07 C 222.47 174.98 223.16 178.73 223.40 181.32 C 223.76 185.21 216.65 238.71 262.91 277.02 C 309.17 315.33 348.32 311.87 357.95 314.09 C 366.49 316.06 368.61 320.28 372.93 320.50 C 373.19 324.41 375.19 331.43 378.93 341.57 C 353.54 362.77 322.17 371.89 284.84 368.92 C 251.51 366.28 214.41 346.81 191.44 319.77 C 159.63 282.33 153.00 232.96 173.99 189.25 C 178.36 180.14 187.90 169.11 202.61 156.16 L 221.34 170.07 Z" fill="url(#linearGradient-4)" fill-rule="evenodd" group-id="3,17" node-id="224" stroke="none" target-height="215.73172" target-width="225.93182" target-x="153.00238" target-y="156.16046"></path></g><path d="M 221.34 170.07 C 222.47 174.98 223.16 178.73 223.40 181.32 C 223.76 185.21 216.65 238.71 262.91 277.02 C 309.17 315.33 348.32 311.87 357.95 314.09 C 366.49 316.06 368.61 320.28 372.93 320.50 C 373.19 324.41 375.19 331.43 378.93 341.57 C 353.54 362.77 322.17 371.89 284.84 368.92 C 251.51 366.28 214.41 346.81 191.44 319.77 C 159.63 282.33 153.00 232.96 173.99 189.25 C 178.36 180.14 187.90 169.11 202.61 156.16 L 221.34 170.07 Z" fill="#000000" fill-rule="evenodd" filter="url(#filter-6)" group-id="3,18" node-id="229" stroke="none" target-height="215.73172" target-width="225.93182" target-x="153.00238" target-y="156.16046"></path></g><g node-id="250"><path d="M 386.29 318.60 L 389.80 333.80 C 376.29 343.98 367.63 350.18 363.80 352.40 C 358.40 355.25 349.06 353.70 345.88 337.23 C 342.64 320.45 352.48 313.86 356.83 313.86 C 361.18 313.86 366.98 316.69 372.76 318.60 C 376.62 319.87 381.13 319.87 386.29 318.60 Z" fill="url(#linearGradient-7)" fill-rule="evenodd" group-id="4" id="路径-16" node-id="72" stroke="none" target-height="41.384766" target-width="47.160553" target-x="342.64157" target-y="313.86426"></path></g><g node-id="251"><g node-id="265"><path d="M 390.13 317.48 C 392.73 322.73 393.90 327.30 393.65 331.17 C 392.36 331.94 391.08 332.82 389.82 333.83 L 386.29 318.60 L 390.13 317.48 Z" fill="#9c7c20" fill-rule="evenodd" group-id="5,19" node-id="240" stroke="none" target-height="16.347473" target-width="7.6075134" target-x="386.2904" target-y="317.47903"></path></g><path d="M 390.13 317.48 C 392.73 322.73 393.90 327.30 393.65 331.17 C 392.36 331.94 391.08 332.82 389.82 333.83 L 386.29 318.60 L 390.13 317.48 Z" fill="#000000" fill-rule="evenodd" filter="url(#filter-9)" group-id="5,20" node-id="245" stroke="none" target-height="16.347473" target-width="7.6075134" target-x="386.2904" target-y="317.47903"></path></g><g node-id="252"><path d="M 229.46 131.06 C 225.37 134.16 222.56 139.73 221.03 147.77 C 218.73 159.82 221.86 171.72 223.40 181.32 C 223.07 188.92 223.07 198.36 223.89 203.00 C 210.28 214.66 206.03 192.57 195.29 189.55 C 182.22 185.89 180.22 179.02 189.28 168.97 C 200.88 157.42 207.88 149.17 210.28 144.21 C 212.69 139.25 214.19 132.68 214.79 124.49 L 215.80 119.18 L 229.46 131.06 Z" fill="url(#linearGradient-10)" fill-rule="evenodd" group-id="6" id="路径-14" node-id="76" stroke="none" target-height="95.477806" target-width="49.237564" target-x="180.21913" target-y="119.18015"></path></g><g node-id="253"><path d="M 213.89 191.63 C 209.38 237.58 221.42 270.56 250.00 290.58 C 278.58 310.60 314.06 318.17 356.44 313.28 C 320.65 312.22 286.68 297.81 254.54 270.04 C 237.85 255.62 218.16 215.26 221.41 190.19 C 219.48 190.19 216.97 190.67 213.89 191.63 Z" fill="#ffffff" fill-opacity="0.44659638" fill-rule="evenodd" filter="url(#filter-11)" group-id="7" id="路径-18" node-id="77" stroke="none" target-height="127.97278" target-width="147.0603" target-x="209.38403" target-y="190.19434"></path></g><g node-id="254"><path d="M 165.92 222.44 C 162.05 262.84 173.59 295.82 200.53 321.39 C 239.97 366.68 291.94 376.95 356.44 352.21 C 306.23 361.42 258.72 348.91 213.89 314.67 C 197.19 300.24 170.19 246.07 173.44 221.00 C 171.51 221.00 169.01 221.48 165.92 222.44 Z" fill="#ffffff" fill-opacity="0.26404065" fill-rule="evenodd" filter="url(#filter-12)" group-id="8" id="路径-18备份" node-id="78" stroke="none" target-height="155.9497" target-width="194.39314" target-x="162.0512" target-y="221"></path></g><g node-id="255"><path d="M 195.29 188.80 C 182.99 244.80 190.51 284.84 217.85 308.92 C 245.19 333.00 279.92 349.03 322.04 357.01 C 274.59 347.22 238.63 330.73 214.16 307.54 C 189.70 284.35 183.41 244.77 195.29 188.80 Z" fill="url(#linearGradient-13)" fill-rule="evenodd" group-id="9" id="路径-19备份" node-id="79" stroke="none" target-height="168.20645" target-width="139.0473" target-x="182.99353" target-y="188.80319"></path></g><g node-id="256"><path d="M 185.48 177.70 C 174.52 233.90 189.45 278.53 230.27 311.59 C 270.29 346.43 324.54 357.57 393.00 345.01 C 333.56 344.81 284.36 330.11 245.41 300.90 C 224.66 284.21 185.79 228.68 201.68 174.00 C 199.28 174.00 193.88 175.23 185.48 177.70 Z" fill="#ffb629" fill-opacity="0.32137784" fill-rule="evenodd" filter="url(#filter-14)" group-id="10" id="路径-18备份-2" node-id="80" stroke="none" target-height="183.5672" target-width="218.47679" target-x="174.52321" target-y="174"></path></g><path d="M 211.70 190.92 C 209.66 232.24 217.28 268.33 245.17 290.19 C 272.96 311.96 320.81 324.34 352.14 325.61 C 353.01 325.65 355.60 325.61 356.44 325.61 C 356.44 334.38 357.11 336.98 359.27 343.03 C 356.44 343.97 344.29 346.27 342.68 346.43 C 322.85 348.43 273.82 361.94 212.97 304.02 C 177.38 270.14 181.90 220.81 193.23 187.91 C 199.47 188.65 205.08 190.19 211.70 190.92 Z" fill="url(#linearGradient-15)" fill-rule="evenodd" id="路径-20" node-id="81" stroke="none" target-height="174.03285" target-width="181.89165" target-x="177.38179" target-y="187.90855"></path><g node-id="257"><path d="M 360.00 344.00 C 367.18 344.00 370.45 339.30 370.45 333.50 C 370.45 327.70 367.18 323.00 360.00 323.00 C 352.82 323.00 347.00 327.70 347.00 333.50 C 347.00 339.30 352.82 344.00 360.00 344.00 Z" fill="#f8d431" fill-rule="evenodd" filter="url(#filter-16)" group-id="11" id="椭圆形" node-id="82" stroke="none" target-height="21" target-width="23.449707" target-x="347" target-y="323"></path></g><g node-id="258"><path d="M 212.00 190.50 C 212.00 197.40 207.75 203.00 202.50 203.00 C 197.25 203.00 193.00 197.40 193.00 190.50 C 193.00 183.60 197.25 178.00 202.50 178.00 C 207.75 178.00 212.00 183.60 212.00 190.50 Z" fill="#ffd94f" fill-rule="evenodd" filter="url(#filter-17)" group-id="12" id="椭圆形" node-id="83" stroke="none" target-height="25" target-width="19" target-x="193" target-y="178"></path></g><g node-id="259"><path d="M 202.50 195.14 C 193.78 245.70 205.33 281.61 237.14 302.88 C 268.95 324.15 302.93 334.79 339.07 334.79" fill="none" filter="url(#filter-18)" group-id="13" id="路径-21" node-id="84" stroke="#ffbf00" stroke-linecap="butt" stroke-opacity="0.78013" stroke-width="8" target-height="139.64949" target-width="145.2832" target-x="193.78268" target-y="195.13866"></path></g><g node-id="260"><path d="M 173.40 235.17 C 179.14 236.01 177.87 226.09 179.93 214.39 C 181.99 202.70 185.31 193.42 182.59 192.94 C 179.87 192.46 172.14 200.96 170.08 212.66 C 168.02 224.35 167.67 234.33 173.40 235.17 Z" fill="#ffffff" fill-opacity="0.25753933" fill-rule="evenodd" group-id="14" id="椭圆形" node-id="85" stroke="none" target-height="43.555847" target-width="17.64003" target-x="167.67198" target-y="192.45892"></path></g><path d="M 212.97 174.11 C 207.01 233.58 219.68 273.43 250.95 293.66 C 282.23 313.89 318.34 324.54 359.27 325.61 C 316.28 325.61 279.24 314.80 248.17 293.16 C 217.10 271.52 205.37 231.84 212.97 174.11 Z" fill="url(#linearGradient-19)" fill-rule="evenodd" id="路径-19" node-id="86" stroke="none" target-height="151.5057" target-width="153.9074" target-x="205.36604" target-y="174.10742"></path></svg>