<?xml version="1.0" standalone="no"?><!DOCTYPE svg PUBLIC "-//W3C//DTD SVG 1.1//EN" "http://www.w3.org/Graphics/SVG/1.1/DTD/svg11.dtd"><svg height="1024" node-id="1" sillyvg="true" template-height="1024" template-width="1024" version="1.1" viewBox="0 0 1024 1024" width="1024" xmlns="http://www.w3.org/2000/svg" xmlns:xlink="http://www.w3.org/1999/xlink"><defs node-id="288"></defs><g node-id="1068"><g node-id="1139"><g node-id="1210"><path d="M 737.90 83.64 L 716.30 50.52 C 669.10 78.52 662.54 143.64 696.62 245.88 C 703.34 265.88 717.82 302.92 740.06 357.00 C 755.58 394.92 763.10 418.76 762.62 428.52 C 761.98 445.48 753.42 454.76 736.94 456.36 C 718.22 457.96 694.14 448.04 664.70 426.60 L 660.62 446.28 C 657.58 462.44 655.18 477.88 653.42 492.60 C 715.02 522.84 760.78 516.76 790.70 474.36 C 802.86 457.24 802.22 428.12 788.78 387.00 C 784.30 372.92 767.90 333.24 739.58 267.96 C 717.66 217.72 705.34 179.88 702.62 154.44 C 698.62 118.44 710.38 94.84 737.90 83.64 Z" fill="#d7adae" fill-rule="nonzero" group-id="1,72,143" node-id="296" stroke="none" target-height="472.3188" target-width="149.43951" target-x="653.41595" target-y="50.519638"></path></g></g></g><g node-id="1069"><g node-id="1140"><g node-id="1211"><path d="M 664.70 427.32 L 671.18 431.16 L 664.70 426.60 L 664.70 427.32 Z" fill="#c39091" fill-rule="nonzero" group-id="2,73,144" node-id="307" stroke="none" target-height="4.5599976" target-width="6.4799805" target-x="664.696" target-y="426.59866"></path></g></g></g><g node-id="1070"><g node-id="1141"><g node-id="1212"><path d="M 737.90 83.64 L 730.94 81.48 C 703.42 92.68 691.18 115.88 694.22 151.08 C 696.30 175.72 707.42 212.60 727.58 261.72 C 754.14 325.72 769.50 364.36 773.66 377.64 C 785.98 417.96 786.06 446.68 773.90 463.80 C 746.86 502.36 706.78 511.00 653.66 489.72 L 653.42 492.60 C 715.02 522.84 760.78 516.76 790.70 474.36 C 802.86 457.24 802.22 428.12 788.78 387.00 C 784.30 372.92 767.90 333.24 739.58 267.96 C 717.66 217.72 705.34 179.88 702.62 154.44 C 698.62 118.44 710.38 94.84 737.90 83.64 Z" fill="#c39091" fill-rule="nonzero" group-id="3,74,145" node-id="318" stroke="none" target-height="441.3589" target-width="149.43951" target-x="653.41595" target-y="81.47955"></path></g></g></g><g node-id="1071"><g node-id="1142"><g node-id="1213"><path d="M 714.14 49.32 C 698.62 58.60 687.66 71.24 681.26 87.24 C 675.34 102.12 673.10 120.52 674.54 142.44 C 682.86 109.16 698.62 84.12 721.82 67.32 L 714.14 49.32 Z" fill="#ecc8c8" fill-rule="nonzero" group-id="4,75,146" node-id="329" stroke="none" target-height="93.11975" target-width="48.719788" target-x="673.09595" target-y="49.31964"></path></g></g></g><g node-id="1072"><g node-id="1143"><g node-id="1214"><path d="M 461.66 327.72 C 406.62 319.88 360.86 327.64 324.38 351.00 C 293.50 370.52 266.46 403.48 243.26 449.88 C 225.66 485.08 217.18 524.28 217.82 567.48 C 218.14 583.32 219.66 597.08 222.38 608.76 C 224.78 619.32 227.26 624.60 229.82 624.60 C 232.86 624.60 236.06 614.36 239.42 593.88 L 243.26 562.92 L 243.02 584.28 C 243.98 598.20 247.10 604.12 252.38 602.04 C 255.42 600.76 259.58 591.32 264.86 573.72 L 271.82 547.80 C 271.82 559.16 274.22 566.84 279.02 570.84 C 284.14 575.00 288.78 571.32 292.94 559.80 C 296.78 549.88 310.94 536.92 335.42 520.92 C 348.06 512.76 361.50 504.68 375.74 496.68 C 379.90 493.64 408.54 437.32 461.66 327.72 Z" fill="#493232" fill-rule="nonzero" group-id="5,76,147" node-id="340" stroke="none" target-height="304.71918" target-width="244.47945" target-x="217.17711" target-y="319.87897"></path></g></g></g><g node-id="1073"><g node-id="1144"><g node-id="1215"><path d="M 290.06 566.04 L 291.50 563.64 L 291.26 561.24 L 290.06 566.04 Z" fill="#6c5353" fill-rule="nonzero" group-id="6,77,148" node-id="351" stroke="none" target-height="4.7999268" target-width="1.4399414" target-x="290.05695" target-y="561.2384"></path></g></g></g><g node-id="1074"><g node-id="1145"><g node-id="1216"><path d="M 445.58 319.80 C 395.98 315.96 353.90 325.48 319.34 348.36 C 289.26 368.52 263.50 400.04 242.06 442.92 C 224.46 478.12 216.22 518.52 217.34 564.12 C 217.66 580.76 219.26 595.24 222.14 607.56 C 224.70 618.92 227.26 624.60 229.82 624.60 C 231.42 624.60 233.18 621.16 235.10 614.28 C 232.06 594.76 232.78 572.44 237.26 547.32 C 242.54 518.68 252.06 490.84 265.82 463.80 C 271.26 453.40 284.38 440.52 305.18 425.16 C 329.82 407.08 344.22 395.72 348.38 391.08 C 359.74 378.76 372.86 362.60 387.74 342.60 C 401.50 328.52 420.78 320.92 445.58 319.80 Z" fill="#6c5353" fill-rule="nonzero" group-id="7,78,149" node-id="362" stroke="none" target-height="308.63916" target-width="229.35954" target-x="216.21706" target-y="315.95898"></path></g></g></g><g node-id="1075"><g node-id="1146"><g node-id="1217"><path d="M 307.10 435.96 L 325.34 391.80 C 314.78 398.68 304.06 406.20 293.18 414.36 C 271.58 430.52 259.90 441.88 258.14 448.44 C 256.86 453.72 263.58 453.80 278.30 448.68 C 291.10 444.36 300.70 440.12 307.10 435.96 Z" fill="#493232" fill-rule="nonzero" group-id="8,79,150" node-id="373" stroke="none" target-height="61.999878" target-width="68.47974" target-x="256.857" target-y="391.79874"></path></g></g></g><g node-id="1076"><g node-id="1147"><g node-id="1218"><path d="M 285.02 471.00 L 297.50 424.92 C 287.90 433.08 278.22 441.80 268.46 451.08 C 248.94 469.96 238.78 482.76 237.98 489.48 C 237.34 494.92 244.06 494.20 258.14 487.32 C 270.14 481.40 279.10 475.96 285.02 471.00 Z" fill="#493232" fill-rule="nonzero" group-id="9,80,151" node-id="384" stroke="none" target-height="69.99985" target-width="60.159866" target-x="237.33702" target-y="424.91867"></path></g></g></g><g node-id="1077"><g node-id="1148"><g node-id="1219"><path d="M 313.58 384.12 C 291.82 400.44 280.14 411.88 278.54 418.44 C 277.26 423.72 283.98 423.80 298.70 418.68 C 311.34 414.36 320.94 410.04 327.50 405.72 L 345.50 361.56 C 334.94 368.44 324.30 375.96 313.58 384.12 Z" fill="#493232" fill-rule="nonzero" group-id="10,81,152" node-id="395" stroke="none" target-height="62.239838" target-width="68.23987" target-x="277.2569" target-y="361.55884"></path></g></g></g><g node-id="1078"><g node-id="1149"><g node-id="1220"><path d="M 266.30 505.56 L 270.38 466.92 C 263.82 474.76 257.18 483.08 250.46 491.88 C 237.34 509.48 230.94 521.00 231.26 526.44 C 231.42 530.92 236.62 529.48 246.86 522.12 C 255.50 515.88 261.98 510.36 266.30 505.56 Z" fill="#493232" fill-rule="nonzero" group-id="11,82,153" node-id="406" stroke="none" target-height="63.999847" target-width="39.439865" target-x="230.93715" target-y="466.9186"></path></g></g></g><g node-id="1079"><g node-id="1150"><g node-id="1221"><path d="M 526.46 483.00 C 520.38 487.96 515.66 514.60 512.30 562.92 C 510.54 588.52 508.78 620.12 507.02 657.72 C 506.06 667.96 514.94 705.64 533.66 770.76 C 555.90 847.72 570.06 905.00 576.14 942.60 L 594.38 942.60 C 587.50 932.20 576.06 891.32 560.06 819.96 C 543.42 745.56 535.74 696.52 537.02 672.84 C 537.98 657.48 547.50 627.64 565.58 583.32 C 582.38 542.20 589.98 512.76 588.38 495.00 C 586.46 473.56 577.50 463.88 561.50 465.96 C 550.78 467.24 539.10 472.92 526.46 483.00 Z" fill="#c39091" fill-rule="nonzero" group-id="12,83,154" node-id="417" stroke="none" target-height="478.7187" target-width="88.319824" target-x="506.05634" target-y="463.8786"></path></g></g></g><g node-id="1080"><g node-id="1151"><g node-id="1222"><path d="M 608.78 466.68 C 587.02 461.08 555.90 462.36 515.42 470.52 C 474.62 478.52 442.30 490.04 418.46 505.08 C 391.26 522.04 384.62 538.76 398.54 555.24 C 419.18 579.40 450.62 588.68 492.86 583.08 C 540.22 576.84 582.06 552.04 618.38 508.68 C 636.62 486.92 633.42 472.92 608.78 466.68 Z" fill="#493232" fill-rule="nonzero" group-id="13,84,155" node-id="428" stroke="none" target-height="127.59976" target-width="251.99924" target-x="384.61673" target-y="461.07858"></path></g></g></g><g node-id="1081"><g node-id="1152"><g node-id="1223"><path d="M 454.22 483.00 C 447.98 487.96 443.18 514.60 439.82 562.92 C 438.06 588.52 436.30 620.12 434.54 657.72 C 433.58 667.96 442.54 705.64 461.42 770.76 C 483.50 847.56 497.66 904.84 503.90 942.60 L 521.90 942.60 C 515.02 932.20 503.58 891.32 487.58 819.96 C 470.94 745.56 463.34 696.52 464.78 672.84 C 465.58 657.48 475.02 627.64 493.10 583.32 C 509.90 542.20 517.50 512.76 515.90 495.00 C 513.98 473.56 505.02 463.88 489.02 465.96 C 478.46 467.24 466.86 472.92 454.22 483.00 Z" fill="#d7adae" fill-rule="nonzero" group-id="14,85,156" node-id="439" stroke="none" target-height="478.7187" target-width="88.319824" target-x="433.57648" target-y="463.8786"></path></g></g></g><g node-id="1082"><g node-id="1153"><g node-id="1224"><path d="M 454.22 483.00 C 447.98 487.96 443.18 514.60 439.82 562.92 C 438.06 588.52 436.30 620.12 434.54 657.72 C 434.06 664.28 435.98 676.60 440.30 694.68 C 443.18 706.68 448.70 726.92 456.86 755.40 C 460.70 746.92 465.26 739.32 470.54 732.60 C 466.06 704.28 464.14 684.36 464.78 672.84 C 465.58 657.48 475.02 627.64 493.10 583.32 C 509.90 542.20 517.50 512.76 515.90 495.00 C 513.98 473.56 505.02 463.88 489.02 465.96 C 478.46 467.24 466.86 472.92 454.22 483.00 Z" fill="#c39091" fill-rule="nonzero" group-id="15,86,157" node-id="450" stroke="none" target-height="291.51923" target-width="83.43982" target-x="434.05646" target-y="463.8786"></path></g></g></g><g node-id="1083"><g node-id="1154"><g node-id="1225"><path d="M 655.58 521.16 C 679.10 516.52 694.86 508.36 702.86 496.68 C 713.74 480.68 715.10 461.72 706.94 439.80 C 699.26 419.48 684.54 399.16 662.78 378.84 C 641.34 358.84 616.54 342.20 588.38 328.92 C 558.46 315.00 529.34 307.08 501.02 305.16 C 443.26 301.48 391.34 321.64 345.26 365.64 C 324.46 385.48 308.78 407.40 298.22 431.40 C 287.18 456.20 282.94 480.44 285.50 504.12 C 288.06 527.00 295.82 547.88 308.78 566.76 C 320.30 583.72 334.62 597.24 351.74 607.32 C 367.90 617.08 383.34 621.96 398.06 621.96 C 413.42 622.12 424.62 617.00 431.66 606.60 C 448.94 581.48 472.14 562.60 501.26 549.96 C 522.22 540.84 549.18 534.20 582.14 530.04 C 599.90 527.80 624.38 524.84 655.58 521.16 Z" fill="#564040" fill-rule="nonzero" group-id="16,87,158" node-id="461" stroke="none" target-height="320.6391" target-width="432.15887" target-x="282.93695" target-y="301.479"></path></g></g></g><g node-id="1084"><g node-id="1155"><g node-id="1226"><path d="M 713.42 466.20 C 712.46 454.84 708.86 442.76 702.62 429.96 C 681.50 449.00 653.18 465.08 617.66 478.20 C 580.70 491.80 540.54 500.52 497.18 504.36 C 455.10 508.04 415.26 506.76 377.66 500.52 C 341.18 494.44 310.78 484.36 286.46 470.28 C 284.70 482.12 284.38 493.40 285.50 504.12 C 288.06 526.84 296.06 547.80 309.50 567.00 C 321.50 584.12 336.46 597.88 354.38 608.28 C 371.18 618.20 387.26 623.32 402.62 623.64 C 418.46 623.96 429.98 618.92 437.18 608.52 C 454.46 583.40 477.50 564.52 506.30 551.88 C 526.94 542.92 553.58 536.36 586.22 532.20 C 603.82 529.96 627.98 526.92 658.70 523.08 C 681.90 518.60 697.50 510.52 705.50 498.84 C 711.58 489.72 714.22 478.84 713.42 466.20 Z" fill="#493232" fill-rule="nonzero" group-id="17,88,159" node-id="472" stroke="none" target-height="193.99954" target-width="429.83893" target-x="284.3769" target-y="429.95865"></path></g></g></g><g node-id="1085"><g node-id="1156"><g node-id="1227"><path d="M 487.10 323.64 C 469.50 315.80 454.86 313.24 443.18 315.96 C 363.34 334.68 312.62 379.08 291.02 449.16 C 283.82 472.52 279.98 499.00 279.50 528.60 C 279.50 529.40 280.14 547.72 281.42 583.56 C 282.22 609.16 287.42 634.04 297.02 658.20 C 306.14 681.56 314.62 693.08 322.46 692.76 C 327.10 692.60 330.30 688.20 332.06 679.56 C 333.50 672.84 333.98 664.52 333.50 654.60 C 335.42 667.56 338.22 678.20 341.90 686.52 C 345.42 694.84 348.86 698.44 352.22 697.32 C 361.18 694.44 365.02 684.04 363.74 666.12 C 366.14 669.64 368.86 671.32 371.90 671.16 C 379.58 670.84 384.94 658.76 387.98 634.92 C 387.82 647.24 390.46 653.00 395.90 652.20 C 401.34 651.40 407.58 644.44 414.62 631.32 C 418.14 624.92 427.58 615.40 442.94 602.76 C 452.06 595.08 468.06 582.20 490.94 564.12 C 536.06 526.52 563.58 492.92 573.50 463.32 C 585.02 428.28 572.30 392.84 535.34 357.00 C 520.30 342.44 504.22 331.32 487.10 323.64 Z" fill="#564040" fill-rule="nonzero" group-id="18,89,160" node-id="483" stroke="none" target-height="385.19897" target-width="305.5193" target-x="279.4969" target-y="313.23895"></path></g></g></g><g node-id="1086"><g node-id="1157"><g node-id="1228"><path d="M 504.14 951.24 C 505.26 960.04 506.86 968.76 508.94 977.40 L 544.70 977.40 C 540.38 967.96 535.58 958.52 530.30 949.08 C 519.90 930.52 512.38 921.80 507.74 922.92 C 503.10 924.20 501.90 933.64 504.14 951.24 Z" fill="#d7adae" fill-rule="nonzero" group-id="19,90,161" node-id="494" stroke="none" target-height="55.599854" target-width="42.799835" target-x="501.8964" target-y="921.79736"></path></g></g></g><g node-id="1087"><g node-id="1158"><g node-id="1229"><path d="M 575.90 951.24 C 577.02 960.04 578.62 968.76 580.70 977.40 L 616.70 977.40 C 612.38 967.96 607.58 958.52 602.30 949.08 C 591.90 930.52 584.38 921.80 579.74 922.92 C 575.10 924.20 573.82 933.64 575.90 951.24 Z" fill="#c39091" fill-rule="nonzero" group-id="20,91,162" node-id="505" stroke="none" target-height="55.599854" target-width="42.879883" target-x="573.8162" target-y="921.79736"></path></g></g></g><g node-id="1088"><g node-id="1159"><g node-id="1230"><path d="M 563.90 977.40 C 561.18 972.60 554.94 968.92 545.18 966.36 L 531.50 963.96 L 536.06 977.40 L 563.90 977.40 Z" fill="#d7adae" fill-rule="nonzero" group-id="21,92,163" node-id="516" stroke="none" target-height="13.439941" target-width="32.399902" target-x="531.4963" target-y="963.9573"></path></g></g></g><g node-id="1089"><g node-id="1160"><g node-id="1231"><path d="M 614.30 966.36 L 600.62 963.96 L 605.42 977.40 L 633.02 977.40 C 630.30 972.60 624.06 968.92 614.30 966.36 Z" fill="#c39091" fill-rule="nonzero" group-id="22,93,164" node-id="527" stroke="none" target-height="13.439941" target-width="32.399902" target-x="600.61615" target-y="963.9573"></path></g></g></g><g node-id="1090"><g node-id="1161"><g node-id="1232"><path d="M 797.18 418.44 C 785.82 422.92 774.22 424.68 762.38 423.72 C 764.30 441.48 757.42 451.40 741.74 453.48 C 723.34 455.88 697.98 445.32 665.66 421.80 L 660.86 446.52 C 657.34 466.04 654.70 483.24 652.94 498.12 C 697.42 520.04 735.58 521.64 767.42 502.92 C 781.50 494.60 791.26 483.08 796.70 468.36 C 802.46 453.16 802.62 436.52 797.18 418.44 Z" fill="#564040" fill-rule="nonzero" group-id="23,94,165" node-id="538" stroke="none" target-height="103.19974" target-width="149.6795" target-x="652.936" target-y="418.4387"></path></g></g></g><g node-id="1091"><g node-id="1162"><g node-id="1233"><path d="M 587.66 327.96 C 556.14 312.76 526.22 304.28 497.90 302.52 C 450.38 299.32 407.74 310.92 369.98 337.32 C 329.82 365.16 302.78 405.00 288.86 456.84 C 306.14 455.40 328.30 452.76 355.34 448.92 C 355.98 448.92 381.50 445.16 431.90 437.64 C 508.86 426.28 556.86 418.60 575.90 414.60 C 620.54 405.16 649.90 393.56 663.98 379.80 C 642.06 359.32 616.62 342.04 587.66 327.96 Z" fill="#6c5454" fill-rule="nonzero" group-id="24,95,166" node-id="549" stroke="none" target-height="157.51959" target-width="375.11914" target-x="288.85687" target-y="299.319"></path></g></g></g><g node-id="1092"><g node-id="1163"><g node-id="1234"><path d="M 488.78 551.64 C 471.50 555.48 460.94 558.20 457.10 559.80 C 426.38 573.88 395.50 583.32 364.46 588.12 C 334.38 592.92 306.70 593.00 281.42 588.36 C 279.02 612.84 283.26 638.28 294.14 664.68 C 304.22 689.16 313.42 701.16 321.74 700.68 C 326.70 700.52 330.54 696.76 333.26 689.40 C 335.66 682.84 336.70 675.24 336.38 666.60 C 340.70 695.56 347.10 709.00 355.58 706.92 C 364.06 704.84 367.74 693.48 366.62 672.84 C 370.14 678.60 373.82 680.20 377.66 677.64 C 382.30 674.76 385.58 665.96 387.50 651.24 C 387.34 662.92 390.78 666.52 397.82 662.04 C 404.38 657.72 411.42 648.52 418.94 634.44 C 422.94 627.08 429.50 620.68 438.62 615.24 C 444.22 611.88 453.34 607.24 465.98 601.32 C 491.42 588.04 509.26 568.52 519.50 542.76 C 515.34 545.32 505.10 548.28 488.78 551.64 Z" fill="#a09090" fill-rule="nonzero" group-id="25,96,167" node-id="560" stroke="none" target-height="166.23956" target-width="240.47946" target-x="279.01694" target-y="542.7584"></path></g></g></g><g node-id="1093"><g node-id="1164"><g node-id="1235"><path d="M 512.30 520.44 C 493.26 522.20 481.50 523.80 477.02 525.24 C 442.30 535.96 407.74 542.12 373.34 543.72 C 340.06 545.16 309.74 542.36 282.38 535.32 C 277.58 559.16 279.90 584.60 289.34 611.64 C 298.14 636.44 307.10 649.08 316.22 649.56 C 321.66 649.88 326.22 646.60 329.90 639.72 C 333.26 633.48 335.10 626.12 335.42 617.64 C 337.50 646.28 343.26 660.04 352.70 658.92 C 362.14 657.80 367.18 647.08 367.82 626.76 C 371.18 632.84 375.02 634.84 379.34 632.76 C 384.62 630.20 389.02 621.80 392.54 607.56 C 391.26 619.08 394.70 622.92 402.86 619.08 C 410.38 615.56 418.94 607.32 428.54 594.36 C 433.50 587.64 441.26 582.04 451.82 577.56 C 458.06 575.00 468.46 571.40 483.02 566.76 C 511.98 556.36 533.26 539.08 546.86 514.92 C 542.06 516.84 530.54 518.68 512.30 520.44 Z" fill="#564040" fill-rule="nonzero" group-id="26,97,168" node-id="571" stroke="none" target-height="145.11957" target-width="269.27942" target-x="277.57697" target-y="514.91846"></path></g></g></g><g node-id="1094"><g node-id="1165"><g node-id="1236"><path d="M 503.42 574.68 L 549.26 555.00 C 556.94 540.60 563.50 515.16 568.94 478.68 L 574.94 428.28 C 557.82 467.00 533.98 515.80 503.42 574.68 Z" fill="#493232" fill-rule="nonzero" group-id="27,98,169" node-id="582" stroke="none" target-height="146.39969" target-width="71.519775" target-x="503.41632" target-y="428.27866"></path></g></g></g><g node-id="1095"><g node-id="1166"><g node-id="1237"><path d="M 524.06 332.52 C 510.30 326.28 491.74 320.52 468.38 315.24 C 448.38 310.76 437.26 308.84 435.02 309.48 C 372.14 324.20 328.38 356.36 303.74 405.96 C 287.90 437.96 279.82 479.64 279.50 531.00 C 287.66 510.20 299.26 492.52 314.30 477.96 C 329.50 463.24 346.62 453.40 365.66 448.44 C 392.86 418.68 430.22 398.28 477.74 387.24 C 551.34 369.96 566.78 351.72 524.06 332.52 Z" fill="#6c5454" fill-rule="nonzero" group-id="28,99,170" node-id="593" stroke="none" target-height="222.15942" target-width="287.27924" target-x="279.4969" target-y="308.839"></path></g></g></g><g node-id="1096"><g node-id="1167"><g node-id="1238"><path d="M 453.50 313.56 C 454.14 313.40 447.98 312.04 435.02 309.48 C 372.14 324.20 328.38 356.36 303.74 405.96 C 287.90 437.96 279.82 479.64 279.50 531.00 L 280.46 528.36 C 282.54 478.28 293.34 437.16 312.86 405.00 C 341.02 358.60 387.90 328.12 453.50 313.56 Z" fill="#866969" fill-rule="nonzero" group-id="29,100,171" node-id="604" stroke="none" target-height="221.51944" target-width="174.63968" target-x="279.4969" target-y="309.47897"></path></g></g></g><g node-id="1097"><g node-id="1168"><g node-id="1239"><path d="M 663.50 380.28 L 663.98 379.80 C 641.74 359.00 615.90 341.24 586.46 326.52 C 554.14 310.52 523.90 301.64 495.74 299.88 C 455.58 297.32 418.46 306.12 384.38 326.28 C 349.18 347.24 322.22 377.40 303.50 416.76 C 323.98 381.56 352.46 354.84 388.94 336.60 C 423.82 319.32 461.58 311.88 502.22 314.28 C 529.26 315.88 557.74 323.08 587.66 335.88 C 615.34 347.56 640.62 362.36 663.50 380.28 Z" fill="#866969" fill-rule="nonzero" group-id="30,101,172" node-id="615" stroke="none" target-height="119.43967" target-width="360.47913" target-x="303.4969" target-y="297.31903"></path></g></g></g><g node-id="1098"><g node-id="1169"><g node-id="1240"><path d="M 796.70 469.08 C 802.46 453.40 802.62 436.52 797.18 418.44 L 783.98 422.52 C 785.90 435.32 783.10 448.20 775.58 461.16 C 767.74 474.44 757.82 482.52 745.82 485.40 C 732.86 488.44 717.26 487.56 699.02 482.76 C 676.46 476.84 661.82 466.36 655.10 451.32 C 651.90 456.28 649.90 463.96 649.10 474.36 C 648.30 484.92 649.10 493.96 651.50 501.48 C 695.98 523.40 734.38 524.44 766.70 504.60 C 781.10 495.80 791.10 483.96 796.70 469.08 Z" fill="#493232" fill-rule="nonzero" group-id="31,102,173" node-id="626" stroke="none" target-height="105.999725" target-width="154.31946" target-x="648.296" target-y="418.4387"></path></g></g></g><g node-id="1099"><g node-id="1170"><g node-id="1241"><path d="M 391.58 424.68 L 338.54 436.68 C 332.30 445.96 326.78 459.24 321.98 476.52 C 316.54 496.20 318.14 504.84 326.78 502.44 C 337.34 499.72 351.34 485.96 368.78 461.16 C 377.42 448.68 385.02 436.52 391.58 424.68 Z" fill="#6c5454" fill-rule="nonzero" group-id="32,103,174" node-id="637" stroke="none" target-height="80.15976" target-width="75.03989" target-x="316.53683" target-y="424.67874"></path></g></g></g><g node-id="1100"><g node-id="1171"><g node-id="1242"><path d="M 375.50 476.76 C 386.38 475.96 402.62 464.92 424.22 443.64 C 435.10 433.08 444.86 422.52 453.50 411.96 L 393.74 416.28 C 386.38 423.96 379.42 435.64 372.86 451.32 C 365.66 469.08 366.54 477.56 375.50 476.76 Z" fill="#6c5454" fill-rule="nonzero" group-id="33,104,175" node-id="648" stroke="none" target-height="65.59982" target-width="87.83972" target-x="365.6568" target-y="411.9587"></path></g></g></g><g node-id="1101"><g node-id="1172"><g node-id="1243"><path d="M 515.42 414.12 L 456.14 406.68 C 447.34 412.92 438.22 423.08 428.78 437.16 C 418.06 452.84 417.18 461.24 426.14 462.36 C 437.02 463.64 455.18 455.96 480.62 439.32 C 493.26 431.16 504.86 422.76 515.42 414.12 Z" fill="#6c5454" fill-rule="nonzero" group-id="34,105,176" node-id="659" stroke="none" target-height="56.95981" target-width="98.239746" target-x="417.17657" target-y="406.67877"></path></g></g></g><g node-id="1102"><g node-id="1173"><g node-id="1244"><path d="M 582.38 391.80 L 544.22 403.80 C 535.26 421.08 529.82 431.88 527.90 436.20 C 521.18 451.72 520.70 459.32 526.46 459.00 C 539.90 458.20 553.26 446.76 566.54 424.68 C 573.10 413.64 578.38 402.68 582.38 391.80 Z" fill="#6c5454" fill-rule="nonzero" group-id="35,106,177" node-id="670" stroke="none" target-height="67.51987" target-width="61.67981" target-x="520.69635" target-y="391.79874"></path></g></g></g><g node-id="1103"><g node-id="1174"><g node-id="1245"><path d="M 566.30 403.08 L 504.14 407.88 C 497.74 413.96 490.62 424.20 482.78 438.60 C 474.30 454.44 473.02 462.36 478.94 462.36 C 486.30 462.52 503.10 452.68 529.34 432.84 C 542.46 422.92 554.78 413.00 566.30 403.08 Z" fill="#6c5454" fill-rule="nonzero" group-id="36,107,178" node-id="681" stroke="none" target-height="59.43988" target-width="93.27969" target-x="473.0165" target-y="403.0787"></path></g></g></g><g node-id="1104"><g node-id="1175"><g node-id="1246"><path d="M 533.90 311.16 L 494.06 305.64 C 485.42 310.76 475.82 317.48 465.26 325.80 C 451.66 336.52 447.26 342.44 452.06 343.56 C 457.98 345.00 473.42 340.04 498.38 328.68 C 510.86 322.92 522.70 317.08 533.90 311.16 Z" fill="#866969" fill-rule="nonzero" group-id="37,108,179" node-id="692" stroke="none" target-height="39.359894" target-width="86.63968" target-x="447.25662" target-y="305.639"></path></g></g></g><g node-id="1105"><g node-id="1176"><g node-id="1247"><path d="M 574.22 325.80 L 536.30 312.36 C 526.86 312.36 515.10 316.60 501.02 325.08 C 487.10 333.40 482.70 338.76 487.82 341.16 C 493.26 343.72 509.34 341.88 536.06 335.64 C 549.34 332.60 562.06 329.32 574.22 325.80 Z" fill="#866969" fill-rule="nonzero" group-id="38,109,180" node-id="703" stroke="none" target-height="31.359924" target-width="91.519745" target-x="482.69638" target-y="312.35895"></path></g></g></g><g node-id="1106"><g node-id="1177"><g node-id="1248"><path d="M 601.58 339.24 L 572.54 325.32 C 563.74 325.16 553.66 327.64 542.30 332.76 C 530.94 337.88 527.18 341.64 531.02 344.04 C 537.74 348.04 561.26 346.44 601.58 339.24 Z" fill="#866969" fill-rule="nonzero" group-id="39,110,181" node-id="714" stroke="none" target-height="22.879974" target-width="74.39972" target-x="527.1764" target-y="325.1589"></path></g></g></g><g node-id="1107"><g node-id="1178"><g node-id="1249"><path d="M 651.98 403.56 L 668.30 384.60 C 662.22 378.36 652.78 372.52 639.98 367.08 C 627.02 361.64 621.10 361.08 622.22 365.40 C 624.14 372.92 634.06 385.64 651.98 403.56 Z" fill="#564040" fill-rule="nonzero" group-id="40,111,182" node-id="725" stroke="none" target-height="42.47986" target-width="47.19989" target-x="621.09607" target-y="361.07886"></path></g></g></g><g node-id="1108"><g node-id="1179"><g node-id="1250"><path d="M 640.94 404.28 L 657.26 384.36 C 647.02 381.16 632.14 379.40 612.62 379.08 C 593.10 378.76 584.86 380.12 587.90 383.16 C 592.86 388.60 610.54 395.64 640.94 404.28 Z" fill="#564040" fill-rule="nonzero" group-id="41,112,183" node-id="736" stroke="none" target-height="25.519897" target-width="72.3999" target-x="584.85614" target-y="378.7588"></path></g></g></g><g node-id="1109"><g node-id="1180"><g node-id="1251"><path d="M 590.30 419.40 C 602.14 422.28 613.50 424.76 624.38 426.84 L 644.78 396.84 C 629.90 393.64 608.86 393.00 581.66 394.92 C 554.46 396.84 543.10 399.80 547.58 403.80 C 552.38 408.28 566.62 413.48 590.30 419.40 Z" fill="#564040" fill-rule="nonzero" group-id="42,113,184" node-id="747" stroke="none" target-height="33.839966" target-width="101.67969" target-x="543.0964" target-y="392.99875"></path></g></g></g><g node-id="1110"><g node-id="1181"><g node-id="1252"><path d="M 421.58 328.20 C 410.06 340.04 407.02 346.44 412.46 347.40 C 418.54 348.36 433.58 342.28 457.58 329.16 C 469.58 322.60 480.94 315.96 491.66 309.24 L 451.58 306.60 C 443.10 309.32 433.10 316.52 421.58 328.20 Z" fill="#866969" fill-rule="nonzero" group-id="43,114,185" node-id="758" stroke="none" target-height="41.75992" target-width="84.63971" target-x="407.01672" target-y="306.59897"></path></g></g></g><g node-id="1111"><g node-id="1182"><g node-id="1253"><path d="M 434.78 318.60 L 401.66 322.44 C 395.10 325.96 388.86 333.40 382.94 344.76 C 377.02 356.12 376.38 361.72 381.02 361.56 C 385.98 361.40 396.46 354.20 412.46 339.96 C 420.46 332.92 427.90 325.80 434.78 318.60 Z" fill="#866969" fill-rule="nonzero" group-id="44,115,186" node-id="769" stroke="none" target-height="43.119843" target-width="58.39978" target-x="376.37677" target-y="318.599"></path></g></g></g><g node-id="1112"><g node-id="1183"><g node-id="1254"><path d="M 391.82 336.36 L 360.14 345.72 C 355.34 352.44 350.38 360.76 345.26 370.68 C 338.70 383.32 337.42 389.24 341.42 388.44 C 346.38 387.48 356.22 378.52 370.94 361.56 C 378.46 353.08 385.42 344.68 391.82 336.36 Z" fill="#866969" fill-rule="nonzero" group-id="45,116,187" node-id="780" stroke="none" target-height="52.879944" target-width="54.39978" target-x="337.4168" target-y="336.35886"></path></g></g></g><g node-id="1113"><g node-id="1184"><g node-id="1255"><path d="M 339.02 435.24 L 294.86 468.60 C 291.50 482.68 288.94 497.16 287.18 512.04 C 284.46 533.32 285.58 542.28 290.54 538.92 C 296.78 534.76 306.78 516.28 320.54 483.48 L 339.02 435.24 Z" fill="#6c5454" fill-rule="nonzero" group-id="46,117,188" node-id="791" stroke="none" target-height="107.0397" target-width="54.559906" target-x="284.45688" target-y="435.23868"></path></g></g></g><g node-id="1114"><g node-id="1185"><g node-id="1256"><path d="M 771.02 411.48 L 762.14 415.56 C 762.62 419.40 762.94 425.24 763.10 433.08 C 763.58 438.84 765.34 441.40 768.38 440.76 C 771.42 440.12 772.78 435.08 772.46 425.64 L 771.02 411.48 Z" fill="#d7adae" fill-rule="nonzero" group-id="47,118,189" node-id="802" stroke="none" target-height="29.919952" target-width="10.640076" target-x="762.13556" target-y="411.4787"></path></g></g></g><g node-id="1115"><g node-id="1186"><g node-id="1257"><path d="M 785.90 406.68 L 768.38 409.80 C 771.74 426.12 776.30 434.20 782.06 434.04 C 785.74 433.72 787.50 429.08 787.34 420.12 L 785.90 406.68 Z" fill="#d7adae" fill-rule="nonzero" group-id="48,119,190" node-id="813" stroke="none" target-height="27.519897" target-width="19.119934" target-x="768.3758" target-y="406.67877"></path></g></g></g><g node-id="1116"><g node-id="1187"><g node-id="1258"><path d="M 790.46 393.00 L 780.62 403.32 C 780.62 412.44 781.82 420.52 784.22 427.56 C 787.10 436.04 791.10 439.40 796.22 437.64 C 799.90 436.36 800.06 428.52 796.70 414.12 L 790.46 393.00 Z" fill="#c39091" fill-rule="nonzero" group-id="49,120,191" node-id="824" stroke="none" target-height="46.399933" target-width="19.43982" target-x="780.61566" target-y="392.99872"></path></g></g></g><g node-id="1117"><g node-id="1188"><g node-id="1259"><path d="M 626.30 519.96 L 594.86 524.04 C 588.78 530.12 585.82 535.96 585.98 541.56 C 585.98 547.16 588.94 548.52 594.86 545.64 C 602.54 541.80 613.02 533.24 626.30 519.96 Z" fill="#493232" fill-rule="nonzero" group-id="50,121,192" node-id="835" stroke="none" target-height="28.559998" target-width="40.47992" target-x="585.81616" target-y="519.9584"></path></g></g></g><g node-id="1118"><g node-id="1189"><g node-id="1260"><path d="M 610.46 535.80 C 610.62 541.40 613.66 542.76 619.58 539.88 C 627.26 536.04 637.74 527.48 651.02 514.20 L 619.58 518.28 C 613.34 524.36 610.30 530.20 610.46 535.80 Z" fill="#493232" fill-rule="nonzero" group-id="51,122,193" node-id="846" stroke="none" target-height="28.559875" target-width="40.71985" target-x="610.2961" target-y="514.1985"></path></g></g></g><g node-id="1119"><g node-id="1190"><g node-id="1261"><path d="M 673.58 510.60 L 642.14 514.68 C 635.90 520.60 632.86 526.44 633.02 532.20 C 633.18 537.80 636.22 539.16 642.14 536.28 C 649.82 532.44 660.30 523.88 673.58 510.60 Z" fill="#493232" fill-rule="nonzero" group-id="52,123,194" node-id="857" stroke="none" target-height="28.559906" target-width="40.71991" target-x="632.8561" target-y="510.59848"></path></g></g></g><g node-id="1120"><g node-id="1191"><g node-id="1262"><path d="M 699.98 510.12 L 668.30 509.40 C 661.26 514.20 657.34 519.40 656.54 525.00 C 655.74 530.60 658.54 532.44 664.94 530.52 C 673.10 527.96 684.78 521.16 699.98 510.12 Z" fill="#493232" fill-rule="nonzero" group-id="53,124,195" node-id="868" stroke="none" target-height="23.039948" target-width="44.23999" target-x="655.7359" target-y="509.39847"></path></g></g></g><g node-id="1121"><g node-id="1192"><g node-id="1263"><path d="M 736.94 514.68 L 696.14 510.36 C 687.66 512.12 683.26 514.52 682.94 517.56 C 682.62 520.60 686.38 521.96 694.22 521.64 C 704.46 521.16 718.70 518.84 736.94 514.68 Z" fill="#493232" fill-rule="nonzero" group-id="54,125,196" node-id="879" stroke="none" target-height="11.599945" target-width="54.319885" target-x="682.61597" target-y="510.35843"></path></g></g></g><g node-id="1122"><g node-id="1193"><g node-id="1264"><path d="M 739.10 88.68 L 724.22 108.60 C 750.14 114.36 768.94 117.64 780.62 118.44 C 792.94 119.24 799.66 117.40 800.78 112.92 C 800.94 112.12 795.18 109.08 783.50 103.80 C 770.22 97.88 761.74 90.04 758.06 80.28 C 755.82 74.04 749.50 76.84 739.10 88.68 Z" fill="#d7adae" fill-rule="nonzero" group-id="55,126,197" node-id="890" stroke="none" target-height="45.199875" target-width="76.71991" target-x="724.21564" target-y="74.03957"></path></g></g></g><g node-id="1123"><g node-id="1194"><g node-id="1265"><path d="M 707.42 59.64 C 696.22 70.36 694.70 81.72 702.86 93.72 C 708.94 102.20 717.10 107.72 727.34 110.28 C 740.14 113.64 754.46 111.72 770.30 104.52 C 773.98 102.76 773.02 94.12 767.42 78.60 C 761.34 62.12 753.10 52.36 742.70 49.32 C 729.90 45.80 718.14 49.24 707.42 59.64 Z" fill="#d7adae" fill-rule="nonzero" group-id="56,127,198" node-id="901" stroke="none" target-height="67.83983" target-width="79.27991" target-x="694.6959" target-y="45.79964"></path></g></g></g><g node-id="1124"><g node-id="1195"><g node-id="1266"><path d="M 720.62 75.96 C 737.42 71.96 754.46 78.84 771.74 96.60 C 770.94 87.80 768.22 78.84 763.58 69.72 C 757.82 58.52 750.86 51.72 742.70 49.32 C 723.82 44.04 709.50 46.68 699.74 57.24 C 690.46 67.16 687.66 81.32 691.34 99.72 C 697.42 87.08 707.18 79.16 720.62 75.96 Z" fill="#ecc8c8" fill-rule="nonzero" group-id="57,128,199" node-id="912" stroke="none" target-height="55.67987" target-width="84.07965" target-x="687.6559" target-y="44.039642"></path></g></g></g><g node-id="1125"><g node-id="1196"><g node-id="1267"><path d="M 752.54 114.60 C 787.10 121.32 805.18 121.40 806.78 114.84 C 807.10 113.56 803.34 111.32 795.50 108.12 C 784.78 103.80 777.10 100.12 772.46 97.08 C 762.06 95.96 755.34 95.32 752.30 95.16 C 747.50 94.68 744.78 95.48 744.14 97.56 C 743.50 99.48 743.82 102.12 745.10 105.48 C 746.70 109.32 749.18 112.36 752.54 114.60 Z" fill="#ae8485" fill-rule="nonzero" group-id="58,129,200" node-id="923" stroke="none" target-height="26.719925" target-width="63.599915" target-x="743.4958" target-y="94.67952"></path></g></g></g><g node-id="1126"><g node-id="1197"><g node-id="1268"><path d="M 804.62 117.72 C 792.14 116.76 780.22 114.36 768.86 110.52 C 757.82 107.00 749.98 101.64 745.34 94.44 L 744.14 97.56 C 743.50 99.48 743.82 102.12 745.10 105.48 C 746.70 109.32 749.18 112.36 752.54 114.60 C 781.82 120.36 799.18 121.40 804.62 117.72 Z" fill="#956869" fill-rule="nonzero" group-id="59,130,201" node-id="934" stroke="none" target-height="26.959938" target-width="61.11975" target-x="743.4958" target-y="94.439514"></path></g></g></g><g node-id="1127"><g node-id="1198"><g node-id="1269"><path d="M 756.62 86.04 L 749.18 94.68 C 752.70 97.08 759.90 99.48 770.78 101.88 C 781.50 104.28 785.90 104.68 783.98 103.08 C 778.22 98.60 774.14 94.12 771.74 89.64 C 770.30 85.80 769.26 83.48 768.62 82.68 C 766.06 79.80 762.06 80.92 756.62 86.04 Z" fill="#d7adae" fill-rule="nonzero" group-id="60,131,202" node-id="945" stroke="none" target-height="24.879936" target-width="36.719727" target-x="749.17584" target-y="79.79956"></path></g></g></g><g node-id="1128"><g node-id="1199"><g node-id="1270"><path d="M 742.22 81.48 C 738.70 86.12 735.58 90.84 732.86 95.64 C 727.26 105.40 726.46 110.60 730.46 111.24 C 733.18 111.72 739.90 113.00 750.62 115.08 C 755.58 116.04 761.26 116.76 767.66 117.24 C 758.06 112.12 751.26 106.04 747.26 99.00 C 744.54 94.20 742.86 88.36 742.22 81.48 Z" fill="#d7adae" fill-rule="nonzero" group-id="61,132,203" node-id="956" stroke="none" target-height="35.759933" target-width="41.19983" target-x="726.456" target-y="81.47955"></path></g></g></g><g node-id="1129"><g node-id="1200"><g node-id="1271"><path d="M 739.82 78.84 C 742.22 76.60 743.50 74.12 743.66 71.40 C 743.82 68.52 742.78 65.72 740.54 63.00 C 738.14 60.12 735.26 58.68 731.90 58.68 C 728.70 58.68 725.74 60.12 723.02 63.00 C 720.46 65.72 719.10 68.52 718.94 71.40 C 718.78 74.12 719.90 76.60 722.30 78.84 C 724.86 81.24 727.82 82.44 731.18 82.44 C 734.38 82.44 737.26 81.24 739.82 78.84 Z" fill="#ae8485" fill-rule="nonzero" group-id="62,133,204" node-id="967" stroke="none" target-height="23.759933" target-width="25.039978" target-x="718.7758" target-y="58.67961"></path></g></g></g><g node-id="1130"><g node-id="1201"><g node-id="1272"><path d="M 703.10 99.48 C 698.14 104.60 697.02 109.80 699.74 115.08 C 700.70 117.00 705.74 118.28 714.86 118.92 C 726.38 119.72 736.14 116.60 744.14 109.56 L 711.50 93.24 C 708.46 94.84 705.66 96.92 703.10 99.48 Z" fill="#d7adae" fill-rule="nonzero" group-id="63,134,205" node-id="978" stroke="none" target-height="26.47995" target-width="47.119812" target-x="697.01587" target-y="93.23952"></path></g></g></g><g node-id="1131"><g node-id="1202"><g node-id="1273"><path d="M 715.34 114.12 C 708.78 113.00 703.10 111.00 698.30 108.12 C 697.82 112.76 698.22 116.36 699.50 118.92 C 700.30 120.52 705.18 121.16 714.14 120.84 C 725.02 120.52 734.46 117.24 742.46 111.00 C 733.98 114.68 724.94 115.72 715.34 114.12 Z" fill="#c39091" fill-rule="nonzero" group-id="64,135,206" node-id="989" stroke="none" target-height="13.039963" target-width="44.640015" target-x="697.81586" target-y="108.11949"></path></g></g></g><g node-id="1132"><g node-id="1203"><g node-id="1274"><path d="M 720.62 62.28 C 725.10 57.96 729.82 56.28 734.78 57.24 C 739.74 57.88 743.42 60.76 745.82 65.88 C 743.90 60.28 740.30 57.00 735.02 56.04 C 729.74 55.24 724.94 57.32 720.62 62.28 Z" fill="#ae8485" fill-rule="nonzero" group-id="65,136,207" node-id="1000" stroke="none" target-height="10.63998" target-width="25.199951" target-x="720.6158" target-y="55.239613"></path></g></g></g><g node-id="1133"><g node-id="1204"><g node-id="1275"><path d="M 743.18 79.80 C 739.18 83.80 734.46 85.32 729.02 84.36 C 723.58 83.72 719.58 80.92 717.02 75.96 C 719.26 81.40 723.18 84.60 728.78 85.56 C 734.54 86.52 739.34 84.60 743.18 79.80 Z" fill="#ae8485" fill-rule="nonzero" group-id="66,137,208" node-id="1011" stroke="none" target-height="10.559967" target-width="26.160034" target-x="717.0158" target-y="75.95958"></path></g></g></g><g node-id="1134"><g node-id="1205"><g node-id="1276"><path d="M 737.66 76.68 C 739.42 75.08 740.38 73.24 740.54 71.16 C 740.54 68.92 739.74 66.84 738.14 64.92 C 736.38 62.84 734.30 61.80 731.90 61.80 C 729.50 61.80 727.34 62.84 725.42 64.92 C 723.50 66.84 722.46 68.92 722.30 71.16 C 722.14 73.08 722.94 74.92 724.70 76.68 C 726.62 78.44 728.78 79.32 731.18 79.32 C 733.58 79.32 735.74 78.44 737.66 76.68 Z" fill="#815758" fill-rule="nonzero" group-id="67,138,209" node-id="1022" stroke="none" target-height="17.519958" target-width="18.399841" target-x="722.13586" target-y="61.799606"></path></g></g></g><g node-id="1135"><g node-id="1206"><g node-id="1277"><path d="M 734.30 69.96 C 735.74 69.96 736.46 69.16 736.46 67.56 C 736.46 65.96 735.82 65.16 734.54 65.16 C 733.10 65.16 732.38 65.96 732.38 67.56 C 732.38 69.16 733.02 69.96 734.30 69.96 Z" fill="#ae8485" fill-rule="nonzero" group-id="68,139,210" node-id="1033" stroke="none" target-height="4.799988" target-width="4.080078" target-x="732.3758" target-y="65.15961"></path></g></g></g><g node-id="1136"><g node-id="1207"><g node-id="1278"><path d="M 775.82 100.20 C 771.50 90.60 767.90 86.84 765.02 88.92 C 761.98 91.32 765.58 95.08 775.82 100.20 Z" fill="#815758" fill-rule="nonzero" group-id="69,140,211" node-id="1044" stroke="none" target-height="13.359962" target-width="13.840149" target-x="761.9757" target-y="86.83955"></path></g></g></g><g node-id="1137"><g node-id="1208"><g node-id="1279"><path d="M 745.34 96.84 C 746.78 96.84 747.50 96.20 747.50 94.92 C 747.50 93.80 746.78 93.24 745.34 93.24 C 743.74 93.24 742.94 93.80 742.94 94.92 C 742.94 96.20 743.74 96.84 745.34 96.84 Z" fill="#956869" fill-rule="nonzero" group-id="70,141,212" node-id="1055" stroke="none" target-height="3.5999908" target-width="4.5600586" target-x="742.9357" target-y="93.23952"></path></g></g></g><path d="M 701.90 121.80 L 713.66 115.32 C 706.78 113.56 701.34 110.28 697.34 105.48 L 693.50 99.00 C 692.54 104.92 693.66 110.52 696.86 115.80 C 698.46 118.36 700.14 120.36 701.90 121.80 Z" fill="#c39091" fill-rule="nonzero" group-id="71,142,213" node-id="1066" stroke="none" target-height="22.799957" target-width="21.119995" target-x="692.53595" target-y="98.99951"></path></svg>