<svg xmlns="http://www.w3.org/2000/svg" xmlns:xlink="http://www.w3.org/1999/xlink" width="33.298" height="33.298" viewBox="0 0 33.298 33.298">
  <defs>
    <linearGradient id="linear-gradient" x1="0.5" x2="0.5" y2="1" gradientUnits="objectBoundingBox">
      <stop offset="0" stop-color="#c5c3c7"/>
      <stop offset="0.102" stop-color="#c1bfc4"/>
      <stop offset="0.441" stop-color="#a5a2a8"/>
      <stop offset="0.64" stop-color="#a8a5ab"/>
      <stop offset="0.844" stop-color="#bfbdc1"/>
      <stop offset="1" stop-color="#cac8cc"/>
    </linearGradient>
    <radialGradient id="radial-gradient" cx="0.5" cy="0.5" r="0.459" gradientTransform="translate(0 0)" gradientUnits="objectBoundingBox">
      <stop offset="0" stop-color="#443d49"/>
      <stop offset="1" stop-color="#322f39"/>
    </radialGradient>
    <radialGradient id="radial-gradient-2" cx="0.5" cy="0.5" r="0.5" gradientUnits="objectBoundingBox">
      <stop offset="0" stop-color="#3e3a31"/>
      <stop offset="1" stop-color="#4f4754"/>
    </radialGradient>
    <linearGradient id="linear-gradient-2" y1="2.517" x2="-0.332" y2="0.32" gradientUnits="objectBoundingBox">
      <stop offset="0" stop-color="#3e3a31"/>
      <stop offset="1" stop-color="#8c899d"/>
    </linearGradient>
    <linearGradient id="linear-gradient-10" x1="0.925" y1="0.131" x2="0.155" y2="0.889" gradientUnits="objectBoundingBox">
      <stop offset="0" stop-color="#ecebea"/>
      <stop offset="1" stop-color="#767675"/>
    </linearGradient>
  </defs>
  <g id="组_1407" data-name="组 1407" transform="translate(1.525 1.525)">
    <g id="椭圆_2" data-name="椭圆 2" transform="translate(0.475 0.475)" stroke="#3e3a31" stroke-width="2" fill="url(#linear-gradient)">
      <ellipse cx="14.649" cy="14.649" rx="14.649" ry="14.649" stroke="none"/>
      <ellipse cx="14.649" cy="14.649" rx="15.649" ry="15.649" fill="none"/>
    </g>
    <g id="椭圆_3" data-name="椭圆 3" transform="translate(9.02 9.02)" stroke="#3e3a31" stroke-width="0.5" fill="url(#radial-gradient)">
      <ellipse cx="6.104" cy="6.104" rx="6.104" ry="6.104" stroke="none"/>
      <ellipse cx="6.104" cy="6.104" rx="5.854" ry="5.854" fill="none"/>
    </g>
    <ellipse id="椭圆_4" data-name="椭圆 4" cx="1.831" cy="1.831" rx="1.831" ry="1.831" transform="translate(22.448 9.02)" fill="url(#radial-gradient-2)"/>
    <path id="椭圆_4_-_轮廓" data-name="椭圆 4 - 轮廓" d="M1.831.475A1.356,1.356,0,1,0,3.187,1.831,1.358,1.358,0,0,0,1.831.475m0-.475A1.831,1.831,0,1,1,0,1.831,1.831,1.831,0,0,1,1.831,0Z" transform="translate(22.448 9.02)" fill="url(#linear-gradient-2)"/>
    <ellipse id="椭圆_5" data-name="椭圆 5" cx="1.831" cy="1.831" rx="1.831" ry="1.831" transform="translate(22.448 17.565)" fill="url(#radial-gradient-2)"/>
    <path id="椭圆_5_-_轮廓" data-name="椭圆 5 - 轮廓" d="M1.831.475A1.356,1.356,0,1,0,3.187,1.831,1.358,1.358,0,0,0,1.831.475m0-.475A1.831,1.831,0,1,1,0,1.831,1.831,1.831,0,0,1,1.831,0Z" transform="translate(22.448 17.565)" fill="url(#linear-gradient-2)"/>
    <ellipse id="椭圆_6" data-name="椭圆 6" cx="1.831" cy="1.831" rx="1.831" ry="1.831" transform="translate(17.565 22.448)" fill="url(#radial-gradient-2)"/>
    <path id="椭圆_6_-_轮廓" data-name="椭圆 6 - 轮廓" d="M1.831.475A1.356,1.356,0,1,0,3.187,1.831,1.358,1.358,0,0,0,1.831.475m0-.475A1.831,1.831,0,1,1,0,1.831,1.831,1.831,0,0,1,1.831,0Z" transform="translate(17.565 22.448)" fill="url(#linear-gradient-2)"/>
    <ellipse id="椭圆_7" data-name="椭圆 7" cx="1.831" cy="1.831" rx="1.831" ry="1.831" transform="translate(9.02 22.448)" fill="url(#radial-gradient-2)"/>
    <path id="椭圆_7_-_轮廓" data-name="椭圆 7 - 轮廓" d="M1.831.475A1.356,1.356,0,1,0,3.187,1.831,1.358,1.358,0,0,0,1.831.475m0-.475A1.831,1.831,0,1,1,0,1.831,1.831,1.831,0,0,1,1.831,0Z" transform="translate(9.02 22.448)" fill="url(#linear-gradient-2)"/>
    <ellipse id="椭圆_8" data-name="椭圆 8" cx="1.831" cy="1.831" rx="1.831" ry="1.831" transform="translate(4.137 17.565)" fill="url(#radial-gradient-2)"/>
    <path id="椭圆_8_-_轮廓" data-name="椭圆 8 - 轮廓" d="M1.831.475A1.356,1.356,0,1,0,3.187,1.831,1.358,1.358,0,0,0,1.831.475m0-.475A1.831,1.831,0,1,1,0,1.831,1.831,1.831,0,0,1,1.831,0Z" transform="translate(4.137 17.565)" fill="url(#linear-gradient-2)"/>
    <ellipse id="椭圆_9" data-name="椭圆 9" cx="1.831" cy="1.831" rx="1.831" ry="1.831" transform="translate(4.137 9.02)" fill="url(#radial-gradient-2)"/>
    <path id="椭圆_9_-_轮廓" data-name="椭圆 9 - 轮廓" d="M1.831.475A1.356,1.356,0,1,0,3.187,1.831,1.358,1.358,0,0,0,1.831.475m0-.475A1.831,1.831,0,1,1,0,1.831,1.831,1.831,0,0,1,1.831,0Z" transform="translate(4.137 9.02)" fill="url(#linear-gradient-2)"/>
    <ellipse id="椭圆_10" data-name="椭圆 10" cx="1.831" cy="1.831" rx="1.831" ry="1.831" transform="translate(9.02 4.137)" fill="url(#radial-gradient-2)"/>
    <path id="椭圆_10_-_轮廓" data-name="椭圆 10 - 轮廓" d="M1.831.475A1.356,1.356,0,1,0,3.187,1.831,1.358,1.358,0,0,0,1.831.475m0-.475A1.831,1.831,0,1,1,0,1.831,1.831,1.831,0,0,1,1.831,0Z" transform="translate(9.02 4.137)" fill="url(#linear-gradient-2)"/>
    <ellipse id="椭圆_11" data-name="椭圆 11" cx="1.831" cy="1.831" rx="1.831" ry="1.831" transform="translate(16.345 4.137)" fill="url(#radial-gradient-2)"/>
    <path id="椭圆_11_-_轮廓" data-name="椭圆 11 - 轮廓" d="M1.831.475A1.356,1.356,0,1,0,3.187,1.831,1.358,1.358,0,0,0,1.831.475m0-.475A1.831,1.831,0,1,1,0,1.831,1.831,1.831,0,0,1,1.831,0Z" transform="translate(16.345 4.137)" fill="url(#linear-gradient-2)"/>
    <path id="路径_3769" data-name="路径 3769" d="M14.624-.025A14.649,14.649,0,1,0,29.273,14.624,14.649,14.649,0,0,0,14.624-.025m0-.475A15.124,15.124,0,0,1,25.318,25.318,15.124,15.124,0,0,1,3.93,3.93,15.025,15.025,0,0,1,14.624-.5Z" transform="translate(0.5 0.5)" fill="url(#linear-gradient-10)"/>
  </g>
</svg>
